<?xml version="1.0" encoding="UTF-8"?>
<svg width="129.31" height="98.918" fill-rule="evenodd" version="1.1" viewBox="0 0 103.44749 79.134237" xmlns="http://www.w3.org/2000/svg">
 <path d="m51.996 10.034c10.917-6.733 23.531-13.581 36.719-7.524 10.65 4.891 14.69 15.906 14.732 27.116 0.012 3.237-0.587 6.651-1.933 9.595-3.262 7.132-8.704 10.98-14.817 15.279-11.527 8.107-22.951 16.35-34.35 24.634-11.45-7.814-23.09-15.356-34.35-23.441-6.772-4.862-13.358-11.027-16.678-18.847-3.205-7.548-0.192-21.736 4.97-28.139 5.078-6.298 12.399-9.157 20.355-8.65 10.452 0.667 16.584 4.849 25.352 9.977z" fill="#f00"/>
 <path d="m9.5233 17.26c1.029 0.748 2.122 1.417 3.088 2.245 1.658 1.421 3.273 2.901 4.771 4.49 1.547 1.643 2.792 3.559 4.35 5.192 1.348 1.414 2.736 2.828 4.35 3.929 2.426 1.657 5.015 2.1 7.718 2.947 0.179 0.056 2.598 0.976 1.564 1.207-1.17 0.26-2.398 0.109-3.584 0.282-1.073 0.156-2.352 0.727-3.074 1.551-0.701 0.802-0.81 2.116-1.545 2.854l-0.668 0.67c2.506 0.209 3.956 0.777 6.148 2.149 2.061 1.29 4.028 2.764 6.077 4.087 0.748 0.482 1.479 0.996 2.249 1.444 1.069 0.622 2.157 1.216 3.267 1.762 5.33 2.62 11.128 2.293 16.793 0.894 5.157-1.273 10.347-2.163 15.666-2.163 1.454 0 2.906 0.035 4.356 0.141 0.458 0.034 0.917 0.067 1.37 0.141 0.556 0.091 1.1 0.24201 1.651 0.353 0.444 0.089 0.886 0.195 1.335 0.246 0.175 0.02 0.527 0.141 0.527-0.035 0-0.205-0.336-0.243-0.527-0.317-0.69-0.268-1.413-0.449-2.108-0.705-1.617-0.596-3.251-1.281-4.812-2.008-2.326-1.084-4.414-2.544-6.64-3.805-1.989-1.127-4.029-2.161-6.007-3.312l-1.756-1.021c0.538-0.153 1.078-0.303 1.616-0.458 2.637-0.763 4.411-1.645 6.534-3.418 2.296-1.918 3.558-4.12 4.988-6.694 0.429-0.772 0.869-1.539 1.335-2.29 0.307-0.495 0.671-0.953 0.984-1.444 0.367-0.578 0.669-1.196 1.054-1.762 1.143-1.681 2.445-3.428 3.864-4.882 0.574-0.588 1.184-1.144 1.827-1.656 1.713-1.365 3.463-2.072 5.445-2.906 0.313-0.132 2.56-1.058 2.142-1.16-1.414-0.345-2.801-0.785-4.215-1.128-1.798-0.436-3.712-0.793-5.551-0.987-0.745-0.078-1.498-0.059-2.248-0.07-3.301-0.05-6.429 0.282-9.555 1.48-2.943 1.128-5.349 3.107-7.606 5.247-0.932 0.884-1.88 1.769-2.669 2.783-1.074 1.38-2.01 2.865-2.898 4.371-1.158 1.963-2.238 3.974-3.232 6.025-0.461 0.949-0.792 1.958-1.125 2.959-0.387 1.167-0.901 2.211-1.756 2.22-1.616 0.015-3.232 0-4.848 0-0.76 0-0.747-0.328-1.194-0.951-1.372-1.914-2.622-3.687-4.286-5.356-0.913-0.916-1.825-1.836-2.775-2.712-1.278-1.179-2.682-2.32-4.11-3.312-1.456-1.011-3.067-2.068-4.637-2.889-1.49-0.78-3.113-1.588-4.708-2.134-4.364-1.494-12.161-2.625-16.935-2.094z" fill="#fff"/>
</svg>
