<?xml version="1.0" encoding="UTF-8"?>
<svg width="720pt" height="720pt" fill-rule="evenodd" overflow="visible" stroke-linejoin="bevel" stroke-width=".501" version="1.1" viewBox="0 0 720 720" xmlns="http://www.w3.org/2000/svg">
 <defs>
  <radialGradient id="a" cx="396.54" cy="346.6" r="401.7" gradientUnits="userSpaceOnUse">
   <stop stop-color="#fffc00" offset="0"/>
   <stop stop-color="#403f00" offset="1"/>
  </radialGradient>
 </defs>
 <g transform="scale(1 -1)" fill="none" font-family="Times New Roman" font-size="16" stroke="#000">
  <g transform="translate(0 -720)">
   <g fill="url(#a)" fill-rule="nonzero" stroke="none" stroke-linecap="round" stroke-linejoin="round" stroke-miterlimit="79.84" stroke-width=".667">
    <path d="m307.92 31.186c-0.509 1.049-0.075 2.31 0.971 2.822 67.032 32.667 104.53 59.611 132.45 73.216 25.864 12.603 44.179 14.065 70.156-1.055-7.086 7.82-13.728 15.45-19.961 22.903-17.224-4.088-34.52-9.461-51.805-15.479-0.744-0.507-1.496-0.987-2.259-1.447-0.653-0.393-1.427-0.393-2.056-0.068-7.342-2.604-14.675-5.312-21.99-8.072-9.197-6.078-19.939-10.045-31.413-12.123-75.854-29.555-149.61-58.009-213.89-30.589-4.782-5.644-9.733-11.332-14.861-17.073-3.102-3.475-8.438-3.776-11.915-0.675-3.472 3.104-3.774 8.438-0.673 11.915 58.396 65.401 93.02 122.42 110.64 197.26-30.934-21.179-55.834-29.507-75.735-24.872-21.107 4.914-32.992 23.272-39.832 46.261l-1.939 7.44-4.195 3.833c-28.199 27.136-41.053 59.381-45.84 93.728-37.786 30.152-67.571 74.07-83.531 141.28-1.53 6.446 4.658 12.074 10.931 9.936 2.04-0.699 4.019-1.24 5.947-1.64-5.579 21.189-3.865 41.549 0.882 61.283 0.149 0.622 0.437 1.205 0.846 1.697 6.885 8.362 13.989 11.002 20.898 11.415l2.309 0.027 0.022 0.739c0.28 4.856 1.016 8.792 2.672 11.221 2.043 3.002 5.411 3.729 8.474 2.115 0.868-0.456 1.729-1.12 2.574-1.945l0.153-0.18 2.025 25.725c0.027 0.36 0.105 0.714 0.223 1.056 2.061 5.925 3.97 10.147 6.074 12.198 3.064 2.989 6.878 2.056 8.925-0.71 0.448-0.611 0.848-1.349 1.214-2.149l0.643-1.619 2.546 1.825c2.203 1.391 4.2 2.253 6.035 2.466 3.373 0.392 5.807-1.35 7.016-3.864 1.491-3.099 1.099-7.203 1.456-10.323 0.035-0.302 0.037-0.608 2e-3 -0.914l-6.749-64.548c-0.067-0.648-0.283-1.27-0.632-1.821l-23.155-36.497c0.281-0.373 0.528-0.762 0.742-1.165 1.035-0.542 1.968-1.311 2.73-2.293 21.419-27.68 44.32-54.408 84.209-69.029 32.677-11.982 77.651-16.134 143.78-4.452-26.92 28.849-49.872 61.955-44.264 106.93l1.667 9.882 0.039 0.19 0.041 0.181 4.335 19.339c12.756 44.47 43.124 77.958 100.98 92.55 0.464 0.12 0.939 0.197 1.419 0.235 67.366 5.17 134.15-1.694 165.51-105.1 0.144-0.464 0.243-0.947 0.302-1.426 6.474-53.084-11.115-94.676-47.846-126.14 3.189-0.376 6.382-0.623 9.576-0.752 1.122-0.043 2.221-0.312 3.237-0.786 29.24-13.688 56.622-33.403 75.99-72.969l7.179-16.778 14.189-17.881c70.998-86.416 98.916-78.118 134.46-267.6 0.659-3.507-0.959-7.051-4.045-8.849-21.344-12.426-44.128-14.866-66.619 0.297-2.432 1.64-3.838 4.426-3.715 7.357 2.221 51.755 4.365 90.43-9.963 107.23l7.362-15.13c0.094-0.195 0.158-0.398 0.191-0.609 2.391-15.799-1.593-25.543-7.862-35.671-6.227-10.062-14.446-20.204-21.374-37.564-0.293-0.74-0.957-1.22-1.693-1.314l-2.392-14.579c2.28-2.901 4.555-5.951 6.832-9.147 1.349-1.898 0.904-4.533-0.994-5.882-1.899-1.352-4.534-0.907-5.884 0.992-14.5 20.389-28.581 33.831-42.143 40.792-5.542 2.84-11.014 4.614-16.438 5.327-0.544-2.122-2.648-3.495-4.837-3.095-1.771 0.317-3.083 1.701-3.398 3.373-3.971-0.261-7.925-1.093-11.875-2.494 13.398-14.429 28.355-29.564 45.049-45.461 1.195-1.143 1.986-2.552 2.36-4.048 2.346 0.075 4.712 0.221 7.104 0.449 1.158 0.109 2.187-0.747 2.296-1.905 0.109-1.16-0.747-2.19-1.904-2.296-2.533-0.237-5.035-0.392-7.52-0.466-0.35-1.334-1.032-2.6-2.045-3.664-3.214-3.373-8.561-3.502-11.931-0.291-1.661 1.578-3.299 3.147-4.925 4.714-16.51 1.771-32.204 6.117-47.731 10.318l-0.112 0.032c-9.339 3.087-18.356 3.485-27.364-1.915-0.172-0.104-0.365-0.184-0.562-0.235l-137.53-35.016c-1.131-0.285-2.28 0.395-2.566 1.524-0.288 1.13 0.393 2.277 1.521 2.565l137.26 34.944 1.653 0.925c8.445 4.381 16.872 4.424 25.115 2.325l3.762-1.104 8.79-2.365c10.835-2.882 21.645-5.544 32.722-7.123-6.485 6.321-12.703 12.526-18.664 18.619-46.909 17.171-92.824 16.424-137.82-2.952-0.254-0.11-0.518-0.166-0.776-0.173-22.109-13.113-49.779-29.161-86.462-47.038-1.046-0.509-2.31-0.072-2.819 0.973zm57.971 59c-5.909-0.202-11.986 0.014-18.149 0.643-12.325-2.914-25.283-5.282-40.908-3.485-22.14 2.541-49.487 13.382-88.499 42.078-13.357-21.6-29.064-42.873-47.376-64.748 58.433-24.232 125.3-1.399 194.93 25.512zm335.08-8.946l1.12 0.586-2.247 11.679c-15.166 76.613-28.63 115.96-45.606 144.5l-6.405-41.626c18.883-21.785 17.083-68.091 15.253-104.23l-0.501-10.205 2.011-1.173c11.925-5.878 23.808-5.302 36.375 0.466zm-94.779 3.144l7.715 46.984-16.598 35.264c-0.082 0.172-0.138 0.356-0.17 0.542-0.819 4.758-1.008 8.963 0.147 11.856 0.397 1.008 0.989 1.909 1.8 2.603-2.864 4.736-4.099 8.469-3.302 11.296 0.619 2.202 2.323 3.429 4.243 4.03 0.891 0.274 1.878 0.436 2.933 0.517-5.04 8.821-5.283 15.306-2.389 18.872 0.043 0.053 0.088 0.103 0.163 0.077-0.976-0.714-2.155-0.744-3.321-0.43-3.368 0.91-5.368 4.39-4.458 7.763l2.186 8.089-14.506 3.002c-0.163 0.032-0.323 0.077-0.48 0.128-3.72 1.24-5.342 0.89-6.062 0.361-0.8-0.587-2.357-2.718-2.45-9.771-3e-3 -0.235-0.024-0.468-0.067-0.699l-1.935-10.662 12.234-3.611c3.349-0.991 5.264-4.512 4.275-7.861-0.989-3.35-4.512-5.264-7.862-4.274l-10.917 3.22-7.942-43.823 6.001-2.248c3.268-1.227 4.927-4.878 3.7-8.15-1.225-3.267-4.874-4.925-8.145-3.701l-3.852 1.44-4.498-24.825c6.261-0.88 12.525-2.927 18.773-6.127 11.717-6.014 23.302-16.051 34.784-29.862zm-86.573 12.936c-0.662-0.347-1.491-0.33-2.153 0.118-29.304 19.661-47.048 19.269-74.283 5.997-7.955-3.88-16.635-8.811-26.536-14.638 36.974 11.363 74.548 10.641 112.65-1.714-3.303 3.445-6.53 6.856-9.679 10.237zm-184.05-4.733c-37.827 7.026-77.198 28.869-102.26 63.083-3.982-7.616-8.233-15.149-12.763-22.635 38.856-28.627 65.589-39.064 86.774-41.501 10.439-1.2 19.568-0.473 28.253 1.053zm38.126 15.107c3.437 0.41 6.746 0.997 9.917 1.76l-6.285 56.581c-0.131 1.155 0.706 2.197 1.863 2.328 1.156 0.128 2.201-0.706 2.329-1.864l6.213-55.936c9.219 2.768 17.096 7.12 23.259 13l-20.392 42.638c-0.504 1.047-0.059 2.309 0.992 2.81 1.048 0.504 2.309 0.062 2.813-0.992l19.7-41.189c2.049 2.378 3.858 4.965 5.402 7.754 1.645 2.977 3.037 6.27 4.117 9.891l-23.877 28.449c-0.75 0.892-0.635 2.226 0.259 2.973 0.89 0.749 2.223 0.634 2.97-0.259l21.904-26.093c0.619 3.075 1.029 6.357 1.208 9.856l-37.798 49.888c-0.012 0.016-0.024 0.029 6e-3 0.045-10.749-1.219-21.035-1.784-30.816-1.663l-50.56-60.916c1.373-6.331 3.418-12.997 6.071-19.968l37.342 48.363c0.712 0.923 2.037 1.091 2.96 0.378 0.92-0.711 1.091-2.037 0.379-2.956l-38.872-50.35c1.028-2.512 2.136-5.057 3.314-7.64 3.805-1.299 7.626-2.436 11.44-3.406l31.128 59.027c0.545 1.033 1.822 1.424 2.851 0.883 1.032-0.544 1.425-1.821 0.882-2.851l-30.628-58.07c8.151-1.816 16.234-2.863 24.036-3.116l10.67 55.815c0.219 1.145 1.326 1.896 2.466 1.675 1.145-0.218 1.897-1.323 1.678-2.463l-10.53-55.087c3.954 0.019 7.829 0.254 11.589 0.705zm257.92 27.965c5.545 8.96 9.017 17.203 7.619 30.163l-0.306 2.357-22.547 46.356-0.54 0.74c-0.197 0.264-0.381 0.507-0.554 0.723l-0.077 0.096 0.01-0.173c0.022-0.229 0.043-0.48 0.073-0.744 0.186-1.84 0.506-3.928 0.778-6.029 0.056-0.446-0.029-0.873-0.218-1.246l17.36-40.381c0.458-1.069-0.038-2.312-1.105-2.771-1.072-0.458-2.311 0.035-2.772 1.104l-19.417 45.168c-1.554 3.92-4.749 4.299-6.077 2.664-1.462-1.803-2.187-7.882 6.357-19.6 0.424-0.589 0.507-1.32 0.28-1.954l18.019-34.163c0.544-1.03 0.149-2.307-0.883-2.851-1.029-0.541-2.306-0.149-2.847 0.882l-19.678 37.305-0.384 0.01c-1.454 3e-3 -2.593-0.128-3.427-0.386-1.034-0.323-1.322-0.734-1.44-1.144-0.291-1.033 0.064-3.513 3.355-8.771 0.8-0.013 1.627-0.144 2.464-0.363 0.598-0.16 1.096-0.57 1.362-1.122l18.141-37.547c0.505-1.051 0.068-2.312-0.983-2.819-1.048-0.506-2.31-0.067-2.816 0.982l-16.233 33.581c-0.89-0.397-1.97-0.13-2.565 0.696-0.384 0.534-0.752 1.053-1.109 1.565-0.088-0.144-0.176-0.314-0.254-0.52-0.591-1.471-0.708-4.048-0.178-7.863l0.229-1.452 16.744-35.581c0.184-0.384 0.243-0.819 0.177-1.24l-3.99-24.286c6.08 12.341 12.624 20.846 17.432 28.614zm-193.76-18.224c5.734 4.029 10.537 9.635 13.401 18.858 3.074 9.91 3.943 24.113 1.077 45.19-7.819 11.953-14.478 23.385-20.134 34.352-0.205-0.039-0.413-0.08-0.619-0.117 0.4-0.57 0.739-1.2 0.997-1.882 13.883-36.79 13.471-66.118 1.687-87.422-2.936-5.304-6.502-9.976-10.577-14.051 4.717 1.728 9.44 3.424 14.168 5.072zm87.158-0.859c0.643 0.269 1.288 0.528 1.933 0.773-103.71 143.44-56.656 213.67-94.995 333.02-2.384 1.077-4.767 2.232-7.147 3.47 10.36-46.993-9.901-89.881-3.895-146.82 4.97-47.152 27.874-106.76 103.97-190.49 0.043 0.019 0.087 0.04 0.133 0.058zm-213.19 1.803l-0.889-1.149c0.552-0.219 1.105-0.436 1.659-0.649-0.264 0.601-0.52 1.198-0.77 1.798zm231.65 2.445l-2.343 3.867c-1.964 3.389-3.884 6.869-5.761 10.438-1.677-0.854-3.648-1.155-5.624-0.718-4.547 1-7.432 5.504-6.431 10.051l2.33 10.626c-44.387 98.171-64.198 241.8-86.515 288.44l-1.651 3.162 1.112-3.549c33.432-113.52-7.227-181.63 86.27-315.58l6.322-8.787c4.086 1.194 8.188 1.875 12.291 2.05zm-236.58-1.925l3.074 3.986c-2.709 6.832-4.883 13.441-6.447 19.79l-12.942-15.594c5.315-3.064 10.774-5.795 16.315-8.182zm181.62 13.789c-11.832 14.35-22.11 28.022-31.032 41.084 1.677-17.033 0.679-29.441-2.2-38.729-1.835-5.915-4.424-10.525-7.515-14.229 13.573 4.517 27.168 8.578 40.747 11.874zm56.601-6.458l3.981 21.979-7.097 2.663-2.202-10.029c-0.23-1.037-0.637-1.99-1.19-2.824 2.115-4.042 4.28-7.976 6.508-11.789zm-258.21 3.037l15.459 18.625c-1.556 7.88-2.099 15.33-1.489 22.29 1.485 16.96 9.811 30.795 26.48 40.587-15.088 3.25-28.179 9.277-38.45 18.925-9.64-8.103-15.985-19.056-17.838-34.032-1.978-15.973 1.138-36.627 11.051-63.331 1.579-1.053 3.175-2.075 4.787-3.064zm-0.99 103.42c-3.413 3.653-6.469 7.763-9.128 12.37-13.653-13.826-19.651-29.922-19.278-48.027 0.352-17.189 6.454-36.304 17.459-57.066-15.501 46.907-9.232 75.558 10.947 92.723zm-32.624-35.742c-0.03 1.259-0.027 2.507 8e-3 3.742-3.578-9.675-7.513-19.128-11.822-28.419 0.958-0.608 1.804-1.419 2.475-2.413 7.061-10.521 15.643-19.819 25.198-27.825-9.891 19.593-15.51 37.998-15.859 54.915zm52.595-44.81l46.21 55.675c-6.554 0.261-12.858 0.856-18.871 1.847-0.189-0.4-0.504-0.744-0.921-0.962-17.469-9.229-25.786-22.45-27.226-38.88-0.485-5.518-0.195-11.419 0.808-17.68zm245.51 8.727l7.832 43.223-5.198 1.535-9.285-42.261 6.651-2.497zm-24.227 1.137l10.285 46.824-1.509 112.78-32.944-3.824c-4.1-0.477-7.941 2.086-9.083 6.052l-33.75 117.42c-0.015 0.048-0.029 0.099-3e-3 0.148-5.872 1.062-11.735 2.633-17.591 4.692 22.629-46.246 41.762-186.09 84.595-284.1zm-110.38 45.874c-0.653 1.721-0.701 3.523-0.253 5.179-7.912-1.309-15.699-2.434-23.315-3.312l32.896-43.421c-0.416 11.672-3.253 25.447-9.328 41.554zm214-11.205l4.147 26.942-27.39 5.667-2.384-8.828c-0.172-0.642-0.443-1.234-0.781-1.765 2.2 0.422 4.61-0.303 6.547-1.959-0.051 1.164-3e-3 2.327 0.298 3.21 0.182 0.539 0.611 1.416 1.603 1.85 1.035 0.459 2.01 0.148 2.608-0.162 1.334-0.693 2.782-2.398 4.472-4.779 0.067-0.095 0.126-0.194 0.176-0.298l10.633-21.859c-0.054 0.645-0.032 1.309 0.071 1.981zm-202.52 27.016c-2.936 6.083-5.561 12.021-7.902 17.825l-124.61-6.665c9.581-8.557 21.878-13.725 36.329-16.421 26.41-4.939 59.752-1.504 96.182 5.261zm133.22-7.075l1.739 9.587 0.33 4.776c0.678 4.958 2.353 8.833 5.525 11.163 3.227 2.371 7.022 2.429 10.452 1.736l2.853-0.776 14.944-3.096 1.326 4.902-34.036 8.984-7.88-35.873 4.747-1.403zm-20.066 10.31l8.605 39.181c1.029 4.684 5.76 7.572 10.394 6.347l86.283-22.779c-4.965 7.134-10.25 13.739-15.962 20.363-24.883 19.723-52.398 24.844-80.965 25.749-1.081 0.033-1.961 0.88-2.039 1.958l-1.564 21.897-6.001 0.749 1.249-93.465zm94.795 5.037l0.447 2.912-25.77 6.801-1.144-4.238 26.467-5.475zm-361.2 17.291c-0.152 0.296-0.235 0.63-0.233 0.984 0 0.048 0 0.096 0.086 0.088-2.821 4.371-3.808 6.923-4.693 9.593-1.627-7.777-3.421-15.366-5.392-22.798 2.853 4.218 6.256 8.267 10.232 12.133zm16.686-10.395l127.04 6.789c-3.203 8.326-5.824 16.366-7.945 24.159-43.147-10.179-86.656-20.582-126.06-21.616 2.074-3.428 4.4-6.534 6.966-9.332zm-89.452 7.214c-31.032 11.787-39.334 38.368-40.665 72.016-1.402 35.443 4.702 78.615 0.929 123.64-6.715 1.665-13.067 3.617-19.091 5.827-9.448 3.462-18.033 7.537-25.899 12.081l17.681-93.212c0.695-0.347 1.389-0.693 2.09-1.032 4.181-2.05 5.914-7.107 3.867-11.29-0.696-1.422-1.745-2.563-2.982-3.363l12.112-63.84c0.088-0.47 0.014-0.934-0.183-1.331 6.082-25.03 15.831-38.153 29.274-41.281 6.011-1.402 13.528-1.053 22.867 1.787zm42.856 22.899c-39.509 7.597-54.939 32.806-61.443 63.976-6.851 32.822-3.971 73.331-9.594 106.28-2.459 0.461-4.87 0.957-7.238 1.485 3.552-44.785-2.387-88.118-1.029-122.45 1.376-34.782 10.069-59.974 42.906-69.923 10.153 3.981 22.18 10.61 36.398 20.64zm164.62 4.917c-1.698 6.71-3.029 13.237-4.047 19.597-43.921-14.791-87.114-22.37-129.64-23.456 0.064-0.165 0.117-0.339 0.163-0.512 1.563-6.391 3.648-12.091 6.224-17.157 39.411 0.672 83.232 11.133 127.3 21.528zm-153.37 3.384c2.278 12.755 4.129 26.049 5.582 39.987-59.582 28.035-53.873 86.228-73.814 119.8-3.291 0.402-6.504 0.864-9.645 1.383 5.469-33.635 2.605-72.477 9.323-104.64 6.458-30.968 21.661-55.131 62.104-61.387 2.103 1.544 4.253 3.157 6.45 4.848zm323.46 49.435l-30.366-3.525c0.459-0.36 0.766-0.899 0.812-1.512l1.552-21.768 9.007-0.475c20.045-1.51 39.742-5.763 58.347-16.446-11.309 12.329-24.221 25.851-39.352 43.726zm-269.84-37.459l-10.117 153.78c-5.883-1.08-11.622-2.045-17.213-2.89 1.311-59.603-0.883-109.44-7.601-153.26 11.582 0.278 23.225 1.059 34.931 2.363zm93.638 21.362c-2.482 30.31 1.472 55.606 4.47 78.873l-70.06 1.224c-0.118 0-0.24 0.014-0.354 0.038-7.478 1.416-11.548 2.408-13.046 3.335-0.253 0.158-0.904 0.579-1.198 1.382l-0.031 0.091-15.52 49.005c-1.288-0.253-2.568-0.5-3.841-0.744l10.137-154.08c29.405 3.579 59.205 10.443 89.443 20.874zm-259.06-16.114l-10.413 54.896c-1.427-0.098-2.893 0.166-4.27 0.841-9.063 4.44-17.874 9.333-26.37 14.765 6.152-26.251 18.488-50.08 41.053-70.502zm119.11 42.096c-26.613 13.44-32.555 54.214-61.56 99.164-2.995 0.195-5.931 0.44-8.808 0.73 18.589-34.461 14.285-88.088 69.086-114.76 0.472 4.876 0.899 9.829 1.282 14.868zm244.48-1.215l58.899 6.835c-3.192 3.986-6.477 8.167-9.851 12.575-0.51 0.664-0.92 1.403-1.213 2.187-15.317 41.118-38.105 62.019-63.897 76.12l-10.074 5.085-3.513 0.345 29.649-103.15zm-242.34 102.5c-21.662-2.531-41.054-3.243-58.515-2.413 27.312-43.396 33.64-81.113 56.701-94.26 2.027 29.142 2.555 61.081 1.814 96.673zm-135.36-69.017l-17.772 93.684c-25.568 15.965-43.343 36.872-59.021 57.003-9.611-6.093-20.373-9.336-32.435-8.451l-1.168 0.166 0.76-2.892c15.275-52.917 40.144-88.634 70.905-114 3.64-0.136 6.794-2.619 7.791-6.115 9.814-7.33 20.166-13.73 30.94-19.392zm278.62 28.617l-64.269 0.403c-0.14 0-0.273 0.015-0.406 0.039-8.109 1.643-13.536 3.962-15.411 7.592l-0.534 1.473-11.621 39.408c-1.603-0.339-3.194-0.672-4.775-0.992l15.356-46.865c0.092-0.277 0.121-0.56 0.097-0.832l-0.08-0.285 0.271-0.098c1.158-0.379 3.513-0.992 7.887-1.872l2.698-0.529 70.331-1.226c0.158 1.268 0.309 2.528 0.456 3.784zm1.242 40.171l-4.061-7.057c-1.221-2.125-3.562-3.351-6.005-3.149l-42.187 3.515c-2.696 0.227-4.952 2.138-5.613 4.757l-4.657 18.43c-0.776-0.517-1.652-0.915-2.61-1.152-8.32-2.105-16.385-4.003-24.211-5.71l11.526-39.102 0.039-0.167c0.296-1.424 2.568-3.667 10.939-5.579l1.582-0.342 64.49-0.402c1.316 12.27 1.963 24.096 0.768 35.958zm-1.77 43.112c2.214 6.04 4.571 11.162 7.16 14.229 1.297 1.536 2.861 2.814 4.736 3.198 1.689 0.346 3.28-0.093 4.704-1.075 2.499 7.235 4.291 14.104 5.408 20.619-4.965 0.102-8.464-2.312-11.477-6.536-3.747-5.243-6.435-12.894-9.376-21.814-1.206-3.664-6.331-3.904-7.875-0.365-7.078 16.248-13.624 21.715-18.651 21.715-5.211 0-12.496-5.624-21.408-21.723l3.715-44.971c0.027-0.349-0.033-0.685-0.157-0.987l4.679-0.389-5.746 31.195c-0.211 1.144 0.549 2.245 1.693 2.456s2.245-0.55 2.456-1.693l4.422-24.003 4.786 14.363c-0.15-0.024-0.298-0.032-0.443-0.022l-0.272 0.072-0.072-0.133c-0.338-0.421-0.837-0.712-1.416-0.771-1.157-0.123-2.197 0.718-2.317 1.877-0.666 6.294-5.037 13.022-5.968 19.589-0.498 3.503-3e-3 7.07 2.758 10.198l1.055 1.064 0.017 0.126c0.202 0.997 0.453 1.933 0.749 2.805 2.437 7.214 8.038 10.213 13.787 8.584 11-3.109 18.898-21.497 5.914-46.493-1.173-2.259-4.632-0.846-3.89 1.586 2.989 9.805 3.623 20.022 1.874 30.681-0.758 1.023-1.645 1.874-2.586 2.599-0.905 0.699-1.857 1.278-2.784 1.776-3.608-0.973-6.236-2.074-8.129-3.223l-1.016-0.676-0.173-1.242c-0.496-5.693 0.515-13.742 4.205-24.515l1.876 5.622c0.72 2.163 3.914 1.781 4.103-0.491l2.269-27.248 12.264 27.509c0.475 1.064 1.723 1.542 2.788 1.069 1.06-0.477 1.54-1.725 1.066-2.786l-14.03-31.478 7.406-0.616c3.904 14.019 7.83 29.227 11.896 40.318zm-25.192-39.211l-1.816 21.851-7.04-21.113 8.856-0.738zm21.061 11.205l3.571 6.203c-0.648 2.627 0.451 5.474 2.89 6.936 0.214 0.131 0.432 0.259 0.646 0.386 0.123 0.473 0.304 0.936 0.542 1.384 4.735 8.886 8.589 17.326 11.597 25.332-0.179 0.083-0.344 0.189-0.496 0.325-0.891 0.776-1.47 0.816-1.87 0.736-0.536-0.11-1.333-0.566-2.365-1.787-2.064-2.445-4.216-6.941-6.424-12.963-2.741-7.48-5.413-16.844-8.091-26.552zm-44.216 3.947l-2.459 29.789c-1.408 0.046-2.797 0.779-3.565 2.204l-3.851 7.104 9.875-39.097zm94.622 4.224c22.939 16.95 38.835 37.152 46.795 61.342-9.013 4.741-17.965 7.776-26.861 9.237-5.419-29.019-20.163-48.912-39.347-64.112 6.157-3.014 12.298-5.432 18.432-7.315 0.301 0.302 0.629 0.587 0.981 0.848zm-118.9 7.147c-16.91 14.534-29.023 32.042-35.449 52.04-10.384 1.787-19.112-0.541-26.813-5.938 8.632-18.257 22.794-34.75 39.048-51.406 7.483 1.573 15.219 3.341 23.214 5.304zm5.256 12.25l-5.613 22.233c-6.438 27.12-7.449 47.938-3.399 63.448 0.924 3.542 2.11 6.797 3.639 9.662-11.582-20.558-14.873-44.657-10.441-76.828 4.232-6.712 9.619-12.834 15.814-18.515zm109.65 22.777c5.341 37.264-1.888 58.928-13.149 75.571l-4.854 6.589-4.982 2.742c-12.669 7.874-24.303 21.136-35.659 33.747-0.778 0.863-0.708 2.199 0.158 2.978 0.865 0.779 2.201 0.71 2.979-0.157 13.208-14.664 25.939-29.131 39.84-35.789 0.291-0.136 0.544-0.339 0.744-0.59 13.403-16.875 23.438-37.77 20.386-74.435 2.865 6.688 5.038 14.072 6.403 22.288-0.33 0.341-0.548 0.789-0.591 1.299-2.195 26.208-12.104 42.48-24.63 55.616l-5.317 5.269-4.102 2.035c-10.434 6.019-19.717 17.043-28.696 26.965-0.778 0.862-0.715 2.198 0.15 2.982 0.864 0.779 2.2 0.712 2.981-0.15 10.608-11.725 20.512-23.506 31.728-28.157 0.235-0.096 0.451-0.235 0.635-0.41 13.061-12.281 24.504-26.843 29.397-49.689 0.147 3.941 0.128 8.051-0.053 12.336l-0.752 10.137-4.496 10.629c-1.896 4.093-3.829 7.858-5.8 11.314-0.285 0.07-0.56 0.203-0.805 0.4l-41.342 32.905c-0.696 0.549-0.95 1.456-0.707 2.256-8.84 1.989-18.003 2.013-27.373 1.405l-4.754-0.405c-0.225-0.686-0.793-1.235-1.545-1.406-43.955-9.794-71.494-70.717-66.606-95.676 0.723-6.234 2.419-12.077 4.648-17.685 5.435 37.307-6.888 78.751 52.425 107.88 1.042 0.511 2.309 0.08 2.824-0.966 0.512-1.042 0.083-2.309-0.966-2.824-29.557-14.517-40.349-31.944-44.771-50.328-2.003-8.317-2.711-16.829-3.184-25.413 5.283 30.975 22.529 53.699 52.071 76.357 0.924 0.71 2.25 0.531 2.959-0.391 0.707-0.926 0.531-2.248-0.392-2.958-14.77-11.328-26.35-22.6-35.498-36.448 4.789 6.603 11.248 11.266 19.01 14.232 0.536 0.205 1.08 0.334 1.616 0.389l1.205-0.031 0.163 0.08c1.45 0.759 4.099 2.517 6.842 5.714 3.484 4.059 6.896 10.201 7.945 18.928 0.061 0.526 0.189 1.03 0.349 1.449-8e-3 -0.019-0.035-0.092 0.275 0.631-0.146-0.24 0.123 0.286 0.512 0.707 0.198 0.421 0.474 0.743 0.813 1.07 0.243 0.228 0.536 0.463 0.891 0.599 0.301 0.251 0.573 0.422 0.805 0.539h-3e-3c0.032 0.013 0.068 0.024 0.056 0.021 0.118 0.059 0.219 0.102 0.315 0.136 0.146 0.051 0.195 0.07-0.315-0.136-0.013-5e-3 -0.034-0.013-0.053-0.021 1.056 0.392 1.52 0.493 2.008 0.544 0.222 0.024 0.448 0.032 0.606 0.032 0.295-3e-3 0.535-0.016 0.778-0.046 0.118-0.015 0.235-0.034 0.536-0.179 0.347 0.019 0.662-0.076 1.091-0.242 0.31-0.115 0.72-0.33 1.159-0.717 0.404-0.181 0.734-0.464 0.878-0.619 0.411-0.423 0.637-0.712 0.792-1.085 0.386-0.432 0.643-0.965 0.497-0.712 0.298-0.736 0.269-0.656 0.263-0.635 0.152-0.421 0.27-0.934 0.326-1.463 1.101-11.012 6.887-18.793 20.717-22.66 0.816-0.229 1.578-0.616 2.24-1.144 19.043-15.162 30.04-34.397 31.886-57.699 1.402-17.715-2.512-37.368-11.563-58.938 6.971 6.205 13.101 13.229 18.056 21.429zm-92.793-3.829l1.166 1.824c5.298 8.021 10.88 13.856 16.835 16.495-3e-3 0.046-3e-3 0.091 0 0.14l0.829 46.463-0.507 0.609c-4.866 5.634-8.978 7.232-12.53 7.101-3.993-0.15-7.929-2.47-12.267-5.702-0.933-0.693-2.259-0.5-2.952 0.433-0.696 0.932-0.505 2.258 0.429 2.951 4.349 3.24 9.218 6.331 14.635 6.534 5.613 0.207 11.189-2.678 16.957-9.858 0.309-0.382 0.478-0.863 0.464-1.358l-0.824-45.992c0.96 0.167 1.925 0.259 2.904 0.259 0.47 0 0.933-0.022 1.395-0.062l2.013 44.661c0.013 0.315 0.098 0.622 0.248 0.897 4.229 7.936 9.473 12.89 15.937 13.81 5.466 0.776 11.205-1.427 17.143-6.008-3.388 4.763-7.498 9.235-12.325 13.425l-2.165 1.799-1.993 0.621c-8.693 2.99-15.2 7.616-19.57 13.654-0.744-2.646-0.667-4.746-0.339-6.68 0.688-4.03 2.459-7.285 5.872-9.48 0.488-0.314 0.632-0.966 0.318-1.456-0.315-0.488-0.969-0.632-1.459-0.317-4.016 2.581-6.045 6.423-6.808 10.898-0.187 1.086-0.299 2.216-0.347 3.373-0.818-1.157-1.664-2.234-2.522-3.237-4.813-5.613-10.307-9.058-14.043-10.104-0.355-0.101-0.875-0.232-1.499-0.314l-0.938-3e-3 -1.83-0.81c-7.611-3.87-13.08-10.414-15.851-21.028-2.397-9.187-2.778-21.493-0.381-37.679l14.005-25.859zm18.464 1.072l0.412 0.189-0.257 0.064-0.155-0.253zm28.534 1.232l1.173 3.125c1.707 4.163 3.656 8.112 6.003 11.4 4.49 6.293 10.746 10.55 19.43 10.034 0.396 4.691 0.418 9.179 0.08 13.475-0.293 3.699-0.857 7.277-1.691 10.739-0.808-0.349-1.781-0.168-2.403 0.52-7.664 8.478-14.064 12.481-19.245 12.971 0.279-0.307 0.477-0.699 0.538-1.142 0.153-1.091 0.355-1.855 0.563-2.365 0.131-0.322 0.245-0.493 0.354-0.595 0.102 0.022 0.216 0.06 0.374 0.133 0.31 0.15 0.71 0.403 1.197 0.8 0.902 0.737 2.233 0.598 2.966-0.303 0.739-0.904 0.6-2.235-0.304-2.968-1.216-0.989-2.749-1.934-4.419-1.896-0.824 0.021-1.611 0.282-2.294 0.789-1.591 1.176-2.277 3.406-2.612 5.83-0.084 0.57 0.08 1.12 0.396 1.549-1.816-0.382-3.554-1.265-5.24-2.702-2.378-2.032-4.658-5.181-6.775-9.597-0.504-1.048-1.765-1.494-2.817-0.989-0.034 0.016-0.072 0.031-0.106 0.053l-1.451-32.262c3.32-1.205 6.363-3.448 9.12-6.416 2.104-2.266 4.126-5.036 6.07-8.277l1.093-1.906zm-85.747 19.22c-0.291-2.423-0.646-4.857-1.083-7.279-0.112-0.608-0.472-1.104-0.957-1.408 0.917-1.923 1.901-3.81 2.949-5.67-0.502 4.969-0.805 9.75-0.909 14.357zm-48.971 1.297c8.093 5.245 17.28 7.827 27.728 6.85-1.947 8.467-2.923 17.336-2.866 26.58-10.089-0.331-19.996 2.898-29.631 8.652-1.971-15.392-0.012-29.215 4.769-42.082zm-220.78 15.248c1.221 0.987 2.635 1.579 4.085 1.789l22.966 36.2-6.616 8.033c-0.44 0.253-0.782 0.664-0.947 1.149l-12.374 15.024c-0.439 0.339-0.829 0.782-1.133 1.338-0.024 0.041-0.048 0.084-0.07 0.126l-0.815 0.992c-0.31 0.371-0.47 0.821-0.483 1.272-1.074 1.805-1.995 3.168-2.744 4.173l-0.395 0.504-0.114-0.629c-0.283-1.829-0.523-4.598-0.544-8.643-6e-3 -0.802-0.232-1.549-0.619-2.181l11.331-20.835c0.37-0.68 0.338-1.506-0.08-2.158l-20.251-31.218c-0.634-0.976-1.941-1.253-2.92-0.622-0.976 0.638-1.254 1.942-0.621 2.921l19.565 30.163-10.73 19.733c-0.107 3e-3 -0.214 0.011-0.318 0.022-0.998 0.098-1.978 0.175-2.952 0.207l2e-3 -22.586c0-0.368-0.098-0.731-0.279-1.049-1.299-2.269-3.139-4.301-5.768-4.394-1.6-0.059-3.057 0.626-4.371 1.744l-0.32 0.298-0.282-0.733c-0.504-1.195-1.043-2.259-1.608-3.171-1.057-1.7-2.468-3.312-4.254-3.778-1.08-0.286-2.185-0.115-3.126 0.549-1.114-11.104-0.053-22.317 3.35-33.73 8.693 0.245 16.28 3.703 23.435 9.49zm457.96 23.643l-0.925 14.494c-9.965-2.924-20.003-4.601-30.094-4.694 0.851-11.283 0.651-21.555-0.456-30.936 9.371-1.529 18.699-4.616 27.968-9.307 2.35 9.547 3.533 19.68 3.507 30.443zm66.886-30.393l-6.696 18.384 2.306 0.843c1.11-2.632 2.475-4.202 4.102-4.704 2.536-0.819 5.827-0.491 9.866 0.979l17.792 6.477-1.68 4.614c-10.199-0.678-18.997 1.317-26.394 5.987-7.398 4.672-12.701 11.42-15.915 20.25-4.029 11.069-3.33 21.899 2.096 32.48 5.427 10.584 15.123 18.416 29.094 23.5 8.565 3.12 17.029 4.37 25.387 3.756 8.356-0.613 15.608-3.312 21.749-8.09 6.144-4.781 10.565-10.883 13.266-18.307 3.31-9.093 3.526-17.981 0.644-26.669-2.886-8.685-8.278-15.563-16.187-20.628l1.152-4.804 18.122 6.597c4.04 1.47 6.627 3.107 7.761 4.915 1.133 1.802 1.336 4.117 0.607 6.935l2.507 0.912 6.691-18.386-37.363-13.598-5.112 18.961c5.256 4.847 8.47 10.197 9.648 16.044 1.179 5.855 0.192 13.105-2.96 21.761-4.347 11.95-10.598 20.059-18.742 24.333-8.149 4.273-16.637 4.806-25.466 1.59-8.525-3.101-14.55-8.965-18.075-17.587-3.531-8.622-3.264-18.51 0.797-29.67 3.198-8.787 7.254-15.245 12.165-19.378 4.912-4.131 10.801-6.192 17.662-6.181l8.339-17.787-37.163-13.529zm-373.32 0.254l-35.256 12.829 0.89 2.44c3.709-1.152 6.342-1.437 7.894-0.861 1.554 0.579 2.698 1.883 3.435 3.901 0.575 1.581 0.74 4.704 0.498 9.369l-0.776 14.688-34.592 12.589-11.195-11.896c-2.757-2.926-4.392-5.094-4.904-6.499-0.608-1.669-0.461-3.253 0.435-4.749 0.898-1.496 3.466-3.19 7.704-5.078l-0.886-2.44-28.139 10.244 0.889 2.439c3.976-0.701 6.704-0.722 8.181-0.072 3.011 1.296 7.051 4.675 12.125 10.139l58.198 62.102 2.307-0.841 4.024-85.718c0.301-6.826 1.162-11.503 2.581-14.034 1.413-2.531 3.905-4.568 7.472-6.115l-0.885-2.437zm75.614 3.168c-3.797 2.213-5.083 7.101-2.867 10.896 2.213 3.8 7.101 5.086 10.899 2.87 3.797-2.214 5.083-7.102 2.867-10.899-2.214-3.801-7.102-5.086-10.899-2.867zm7.259 4.992c1.04 1.787 0.434 4.088-1.353 5.13-1.786 1.043-4.088 0.438-5.13-1.348-1.043-1.79-0.437-4.088 1.349-5.135 1.789-1.039 4.089-0.434 5.134 1.353zm201.48 10.184c-2.875 3.195-2.616 8.117 0.581 10.992 3.194 2.875 8.118 2.616 10.992-0.579 2.875-3.194 2.616-8.12-0.578-10.994-3.195-2.875-8.12-2.616-10.995 0.581zm8.173 2.555c1.464 1.317 1.581 3.576 0.264 5.037-1.314 1.464-3.573 1.582-5.038 0.265-1.46-1.316-1.578-3.574-0.264-5.038 1.318-1.462 3.576-1.579 5.038-0.264zm-133.69 2.282c-0.982 0.899-1.547 2.286-1.918 3.579-0.403 1.389-0.698 3.088-0.917 4.981-0.048 0.395 0.018 0.776 0.173 1.115-2.854-1.872-5.81-5.27-9.027-9.702-0.682-0.941-2.005-1.152-2.946-0.469-0.945 0.683-1.155 2.006-0.47 2.947 4.104 5.661 8.769 11.141 14.181 12.646 2.857 0.797 5.803 0.456 8.736-1.275 2.859-1.678 5.633-4.629 8.409-8.934 0.63-0.978 0.346-2.287-0.633-2.917-0.978-0.629-2.284-0.349-2.914 0.63-2.597 4.027-4.939 6.372-7 7.589-1.984 1.166-3.752 1.319-5.466 0.843-0.171-0.048-0.342-0.104-0.516-0.164 0.863-0.18 1.55-0.893 1.662-1.816 0.21-1.785 0.469-3.228 0.782-4.304 0.154-0.533 0.308-0.938 0.466-1.261l0.091 0.067c0.088 0.08 0.192 0.184 0.311 0.312 0.446 0.485 0.992 1.216 1.632 2.254 0.614 0.989 1.915 1.295 2.905 0.682 0.989-0.613 1.296-1.912 0.683-2.904-1.342-2.168-2.788-3.976-4.478-4.618-1.365-0.518-2.723-0.222-3.746 0.719zm37.261 10.153c3.014 2.573 6.411 3.933 10.136 3.933 6.558 0 13.56-4.211 20.973-11.771-1.301 3.741-2.944 7.336-4.933 10.789-0.048-0.077-0.109-0.152-0.171-0.221-0.778-0.867-2.112-0.938-2.978-0.162-6.709 6.018-12.273 8.2-16.827 7.551-3.939-0.56-7.754-3.335-11.306-9.005l-1.283-2.221-0.347-7.696c1.994 3.701 4.229 6.661 6.736 8.803zm-37.304 78.456c-1.889 9.885-5.299 18.307-9.304 26.358l-1.302-0.368c-51.475-16.347-74.587-50.384-82.158-95.465 5.896-3.867 11.659-6.566 17.302-8.001 3.918-0.999 7.797-1.399 11.662-1.146 9.229 34.867 24.407 67.379 63.8 78.622zm-333.32-75.604c0.873 1.409 1.766 3.462 2.536 6.102 0.192 0.656 0.376 1.347 0.548 2.067l0.308 1.454 0.835 14.793c-0.951-0.66-1.909-1.445-2.872-2.367l-1.93-2.096-1.406-6.438c-0.301-1.538-0.579-3.074-0.829-4.612-0.163-3.577-8e-3 -6.233 0.336-8.086 0.183-0.987 0.406-1.685 0.624-2.163 0.056-0.12 0.107-0.221 0.155-0.303l0.138-0.179c0.291 0.194 0.846 0.682 1.557 1.828zm331.68 61.767c-25.56-9.326-38.233-30.198-46.63-56.641l-0.92-3.227c8.099 22.517 24.838 47.366 47.55 59.868zm-319.8-56.292l0.125 0.203-3e-3 21.795c-1.109-0.157-2.216-0.408-3.317-0.787 0.381-6.416-0.056-12.208-0.973-17.053l-0.123-0.577-0.184-3.281 0.128-0.16c1.333-1.545 2.165-1.772 2.49-1.758 0.284 0.01 0.948 0.255 1.857 1.618zm301.72 10.422c-1.062-1.461-2.036-3.005-2.924-4.649 0.945 1.58 1.915 3.127 2.924 4.649zm-162.45-4.174l-2.014 41.63-28.694-30.45 30.708-11.18zm327.05 4.98l-3.717 10.865c-18.486 48.012-46.321 67.802-79.097 74.777-6.072-9.141-9.246-17.533-9.515-25.192 23.341-4.933 45.355-20.941 62.726-64.965 9.797-0.048 19.659 1.549 29.603 4.515zm-427.18-2.939l6.114 58.461-0.12 1.571c-0.042 0.758-0.071 1.541-0.112 2.277l-0.133 1.843-0.144-0.072c-1.171-0.64-3.086-1.917-5.979-4.384l-3.973-54.419 4.347-5.277zm-8.232 9.994l3.468 47.574c-1.434 0.117-2.791 0.965-3.468 2.41-0.315 0.662-0.609 1.406-0.889 2.163l-0.381 1.099-0.405-0.958c-0.221-0.551-0.459-1.159-0.71-1.823l-0.607-1.691-2.907-36.985c-0.099-1.234-0.657-2.204-1.445-2.868l7.344-8.921zm348.34 38.83l28.676-22.824c-8.951 12.191-18.572 19.098-28.676 22.824zm-49.128 15.038c11.787 1.133 23.752 2.109 35.485 0.85 0.51 8.368 3.695 16.886 8.915 25.459-9.973 1.419-20.344 1.837-31 1.65l-22.675-1.149-0.45-0.131c3.88-7.975 7.296-16.618 9.272-26.741 0.149 0.026 0.304 0.045 0.453 0.062zm11.896 10.578c-1.853 4.328 0.152 9.355 4.483 11.208 4.331 1.854 9.354-0.151 11.207-4.483 1.854-4.328-0.151-9.354-4.481-11.207-4.328-1.854-9.356 0.151-11.209 4.482zm9.546-0.605c2.187 0.936 3.203 3.477 2.267 5.666-0.936 2.19-3.477 3.206-5.666 2.27-2.19-0.939-3.206-3.477-2.267-5.669 0.936-2.187 3.474-3.203 5.666-2.267z"/>
   </g>
  </g>
 </g>
</svg>
