<?xml version="1.0" encoding="UTF-8"?>
<svg version="1.1" viewBox="0 0 351.21 526.82" xmlns="http://www.w3.org/2000/svg">
 <g transform="translate(-301.54 -213.24)">
  <g transform="matrix(.70242 0 0 .70242 949.08 509.01)" fill="#483737">
   <g transform="translate(-984.38 -514.83)">
    <path transform="translate(984.38 514.83)" d="m-721.88-421.06v176.72c11.567-3.4209 24.231-8.1621 37.031-3.875-0.34378-1.4388-0.25783-2.9966 0.6875-4.4375l0.125-0.15625 0.125-0.15625c9.4496-9.764 23.475-14.992 37.125-13.812-0.68028-4.0671-2.7586-7.9665-5.2812-11.531-1.4709-1.4251-2.6069-2.9875-2.375-5.0312 0.12422-1.0949 0.87373-2.2343 1.875-2.7812 1.0013-0.547 2.1463-0.682 3.4375-0.625h0.3125l0.28125 0.125c5.4787 2.0082 10.304 6.4141 12.75 11.906 4.1818-5.1509 13.906-146.34 13.906-146.34zm171.62 130.12c-3.5031 6.9473-5.968 14.449-7.9688 22.094l-1.0625 4.0625-2.5-3.375c-3.5154-4.7849-7.5705-9.2031-12.656-11.312 2.905 5.5402 7.4054 11.084 8.4688 18.094l0.3125 2.0312-2.0312 0.25c-9.5504 1.2122-19.594 5.9088-29.625 6.9375l-1.7188 0.15625-0.4375-1.6562c-1.933-7.2941-2.0551-14.668-4.2188-21.156-0.72386 3.1888-0.96789 6.5471-1.0938 10.062-0.19122 5.341-0.25688 10.986-2.5 16.375l-1.0312 2.4375-2.0625-1.6562c-5.6976-4.5358-14.367-6.6863-20.531-12.062l-0.78125-0.65625 0.0937-1.0312c0.63722-6.6572 4.3293-11.675 7.7812-16.344 2.2892-3.0958-5.8422 1.6373-11.031 8.125l-2.5938 3.25-0.90625-4.0625c-1.1905-5.3597-6.0381-10.307-11.25-12.344-0.34834 0.0159-0.55414 0.0553-0.6875 0.0937 0.0812 0.15432 0.22933 0.80332 1.1875 1.6875l0.15625 0.15625 0.125 0.15625c3.166 4.4738 6.2056 9.8363 6.3438 16l0.0625 2.3438-2.3438-0.34375c-12.946-1.9197-26.911 2.965-36.031 12.219-0.21596 0.41267-0.0651 1.7273 0.28125 2.25-6e-3 -6e-3 -0.0714 0.10055 0.25-0.46875l0.21875-0.40625 0.375-0.25c8.8858-6.3762 19.415-7.997 29.688-6.7812s20.359 5.2257 28.781 10.219l4.0312 2.4062-4.5312 1.25c-15.036 4.1158-29.848 0.0706-43.969-1.9062 0.75219 0.37595 1.7765 1.0199 2.0938 1.125l0.0937 0.0312 0.0937 0.0312c10.301 4.4861 21.756 6.452 33 8.2812l1.5938 0.25 0.0937 1.625c0.38754 7.4277-1.6592 14.169-3.6562 20.781 4.1266-4.5159 6.5258-10.473 7.8125-16.719h0.0312c0.26794-2.5096 1.4219-4.5354 3.0312-5.8125 1.649-1.3086 3.5834-1.9505 5.5312-2.4688 0.0205-0.01 0.042-0.0213 0.0625-0.0312 1.709-0.82967 3.5615-1.6528 5.625-1.8438 2.0354-0.18836 4.2647 0.48213 6.1562 2.0625v-0.0312c6.5672 3.2249 36.55 11.416 42.625 11.719l4.3125 0.21875-2.9375 3.1562c-2.2573 2.4098-4.3528 4.9267-6.5 7.4062 6.3437-2.1737 11.85-6.7623 17.938-10.906l0.59375-0.40625 0.6875 0.0625c8.0618 0.65459 17.498 2.0574 24.375 6.9375l0.90625 0.65625-0.0625 1.125c-0.70615 9.531-2.612 18.7-2.4062 27.781 1.7269-2.494 2.7531-5.4031 3.6562-8.5938 1.2429-4.391 2.1888-9.2482 4.7188-13.656l1.25-2.1562 1.8438 1.6875 0.40625 0.375 0.125 0.0937 0.0937 0.125c1.2658 1.577 3.1468 3.3841 4.8125 5.4062s3.2129 4.3103 3.4688 7.0938l0.0312 0.53125-0.21875 0.46875c-0.93653 2.08-1.0268 5.2612-1.4062 8.5625s-1.1915 7.0359-4.4688 9.3125l-0.40625 0.25-0.5 0.0625c-5.041 0.64543-9.2378-1.4804-13.031-2.875v0.15625l-2.375-0.96875-2.875-0.84375 0.0625-0.0625c-1.3275-0.3225-2.6602-0.50246-3.9062-0.375-0.84745 0.0867-1.6323 0.3052-2.375 0.625 4.4368 1.7154 9.028 3.3775 13.406 5.9375l-1.375 3.6875c-2.6701-0.5298-5.4538-0.95985-7.9375-0.78125-1.3209 0.095-2.5213 0.40417-3.6562 0.875 5.7405 2.2862 12.698 2.6846 19.125 6.1875l2.125 1.1562-1.5625 1.875c-5.5585 6.6176-11.861 12.592-19.062 17.562l-1.9375 1.3438-1-2.1562c-1.7964-3.8258-4.1963-7.2014-7.125-10.156 1.2116 4.6817 3.8468 9.1798 5.5312 14.438l0.34375 1.125-0.78125 0.875c-2.2678 2.4226-5.5447 5.4458-9.4375 6.8125l-0.78125 0.28125-0.75-0.34375c-6.9425-3.3844-13.841-6.6189-20.875-9.4375 2.722 2.7586 5.9536 5.1494 8.875 6.9062l-1.25 3.7188c-0.5152-0.0598-1.7462 0.41194-2.5625 0.8125l0.53125 0.21875 0.34375 0.46875c-0.0666-0.0914 0.3586 0.30325 0.96875 0.65625s1.3803 0.7648 2.125 1.25 1.6612 0.97142 2.0312 2.4062c0.18502 0.71742 0.0308 1.6332-0.34375 2.25-0.31632 0.52088-0.76539 0.83106-1.2188 1.1562l0.0312 0.0312c-3.4906 3.1562-6.6165 8.1472-10.812 11.281l-0.875 0.65625-1.0312-0.375c-2.0483-0.79024-4.9668-1.7973-7.1875-1.875-1.1104-0.0388-1.9918 0.15691-2.5625 0.5-0.43775 0.26317-0.76358 0.69295-1.0312 1.375 0.21776 0.0624 0.23668 0.0634 0.59375 0.125 1.4368 0.24776 3.7256 0.1841 5.4688 2.0938l0.875 0.96875-0.5 1.1875c-0.75655 1.7169-2.1428 3.157-3.5625 4.75-1.409 1.581-2.8718 3.1991-3.7188 4.4688-6e-3 0.0096-0.0253 0.02165-0.0312 0.03125-1.0907 1.698-2.9267 3.3206-5.0938 4.25-1.0909 0.46788-2.5376 0.87312-3.9688-0.0625-0.71559-0.46781-1.2078-1.2391-1.4062-2-0.1933-0.74114-0.19105-1.5084-0.0937-2.3438 3e-3 -0.02224-3e-3 -0.04014 0-0.0625 0.55464-5.5535 2.513-10.458 3.7188-15.281-4.7422 6.3835-8.0537 13.656-10.531 21.469l-0.25 0.8125-0.75 0.375c-5.0818 2.5625-10.909 4.7317-14.969 8.3125l-0.0312-0.03125c-0.45741 0.51223-0.89965 1.008-1.5 1.3125-0.69428 0.35216-1.61 0.48286-2.375 0.28125-1.53-0.40322-2.1788-1.4754-2.75-2.375s-1.0433-1.8434-1.5-2.5938-0.93004-1.2453-1.0938-1.3438l-0.4375-0.28125-0.25-0.4375c-0.0475-0.0812-0.0498-0.05845-0.0937-0.125-0.2139 0.53375-0.39925 1.2748-0.40625 2-8e-3 0.78188 0.21405 1.467 0.34375 1.6562l0.25 0.375 0.0625 0.46875c0.0398 0.28218 1.049 1.6671 2.0312 3.2188 0.49115 0.77581 1.0526 1.7084 0.96875 3.0312-0.0732 1.154-0.92205 2.1774-1.9375 2.875l0.0312 0.0625c-3.0937 2.8768-5.6525 6.9753-8.6875 10.844s-6.6876 7.5793-12.062 9.0625l-3.2188 0.875 0.75-3.25c1.3529-5.9684 3.5571-11.655 5.3125-17.312-3.8788 4.467-6.7516 9.6954-8.875 15.406v0.03125c-0.28047 0.72954-0.51615 1.2732-0.78125 1.75s-0.38232 0.98681-1.4375 1.4375c-0.52759 0.22535-1.4545 0.20659-2-0.125s-0.73799-0.69817-0.875-0.96875c-0.27402-0.54116-0.33815-0.91219-0.40625-1.3125-0.13627-0.80061-0.19885-1.6703-0.28125-2.5s-0.20165-1.6282-0.28125-1.875v-0.0625l-0.0312-0.03125c-0.14468-0.52193-0.79136-1.5762-1.3438-2.5625-0.6825 2.1531-0.80014 4.5192-0.6875 7.1562 0.12691 2.9711 0.43372 6.1867-0.40625 9.4375l-0.34375 1.3125-1.3438 0.1875c-6.092 0.72526-12.036 2.4788-17.156 5.625l-2.0938 1.2812-0.84375-2.3125c-2.2593-6.2397-1.9003-12.801-0.78125-18.969-0.20987 0.07882-0.44179 0.12907-0.625 0.25-0.62551 0.41287-1.2263 1.1889-1.7188 2.2812-0.9849 2.1848-1.4306 5.416-1.875 7.9062l-0.0625 0.3125-0.0625 0.15625c0.0163-0.0019-0.087 0.31132-0.0937 0.65625-9e-3 0.45991 0.047 1.0125 0.0312 1.5938-8e-3 0.29062-0.0173 0.55612-0.15625 1.0312-0.0695 0.23757-0.16645 0.5782-0.53125 0.96875s-1.147 0.71203-1.75 0.65625c-1.2061-0.11156-1.4045-0.64209-1.6875-0.96875-0.27784-0.3207-0.53342-0.64829-0.8125-1.0938-5e-3 -0.0083 5e-3 -0.02285 0-0.03125-3.3467-5.2166-7.132-9.8837-12-13.094 1.6646 3.1295 3.7727 6.087 6 9.125 3.3673 4.5929 6.8672 9.415 8.375 15.5l0.28125 1.0938-0.8125 0.78125c-5.2728 5.2575-11.917 9.1407-17.656 12.844l-2.2188 1.4062-0.78125-2.5c-1.7588-5.5659-1.4304-11.17-1.25-16.531 0.11751-3.4917 0.10584-6.869-0.375-10.094-2.4264 6.2985-2.7721 13.643-5.2812 20.844l-0.625 1.875-1.9062-0.625c-9.2141-3.1409-14.34-11.191-20.781-16.094l-1.4375-1.125 0.96875-1.5312c3.2874-5.2242 7.453-9.528 11.594-13.75-3.5982 0.1667-7 1.6778-9.5938 4.3438l-5.3125 5.4375 1.9375-7.3438c1.9356-7.3236 3.9139-14.68 4.125-21.938-1.3007 2.8161-2.2505 5.9032-3.125 9.125-1.4675 5.4068-2.8036 11.061-6.1562 15.75l-1.375 1.9062-1.6562-1.6562c-5.2288-5.1842-9.061-11.146-14.688-14.406l-0.8125-0.4375-0.15625-0.90625c-0.92702-5.0417 1.0591-9.4683 2.75-13.469 1.3434-3.1782 2.4435-6.0979 2.5-9.0625-0.34373 0.66328-0.66154 1.2505-1 1.9062-0.78747 1.5256-1.4384 2.8026-2.1875 3.7812h0.0312c-1.3069 1.8545-2.4604 4.4861-3.6875 7.0938s-2.5125 5.2077-4.5312 7.125l-0.84375 0.8125-1.125-0.34375c-1.1727-0.35472-3.5754 0.32355-6.2188 0.71875-1.3217 0.1976-2.8032 0.29768-4.2812-0.34375s-2.6439-2.0737-3.2188-3.9688l-0.2185-0.6561 0.25-0.65625c0.98273-2.5941 3.4061-3.742 5.4688-4.5312s4.0492-1.3922 4.9688-2.0312l0.28125-0.15625 0.28125-0.09375c2.1595-0.66511 4.2165-2.1902 5.3125-3.9688 0.68765-1.1159 0.88633-2.2955 0.78125-3.5312-5.5373 3.8625-11.309 7.2078-16.688 10.844l-1.3438 0.90625-1.1562-1.0938c-5.166-4.8609-8.268-10.942-12.438-15.594l-3.5312-3.9688 5.2812 0.625c4.1759 0.50182 7.9323 1.9659 11.594 3.2812-0.80355-1.5714-1.9546-2.8962-3.4062-4.0312-2.4107-1.885-5.5874-3.2142-8.75-4l-0.125-0.0312-0.0937-0.0312c-1.753-0.66048-5.1289-1.392-7.9688-2.9062-1.4199-0.75712-2.7738-1.7427-3.6562-3.25-0.8588-1.4668-1.0631-3.4038-0.46875-5.3438 3e-3 -0.0141 0.0272-0.0172 0.0312-0.0312 0.013-0.0418-0.0138-0.0832 0-0.125h0.0312c0.4364-1.5741 1.5114-2.8892 2.8438-3.375 1.3797-0.50305 2.7125-0.32213 3.9062-0.0625 2.3875 0.51925 4.8059 1.4586 5.5625 1.4688h0.1875l0.15625 0.0312c0.97315 0.19115 2.7311 0.1851 3.8125 0.0312-0.0262-0.0275-2e-3 -0.0334-0.0312-0.0625l-0.1875-0.15625-0.125-0.21875c-0.72818-1.2226-2.1108-1.7454-4.125-2.1562s-4.4269-0.41928-6.4688-2.0625l-0.71875-0.5625-0.0312-0.90625c-0.19852-4.1257 2.1272-7.1995 4.9688-8.9688 2.8323-1.7635 6.1739-2.5904 9-3.125 0.01-2e-3 0.0213 2e-3 0.0312 0 4.08-0.85088 7.6585-3.0105 10.656-5.9062-5.2468 1.4048-10.886 3.2833-16.969 2.0625l-1.7188-0.34375 0.125-1.7812c0.77594-9.4897 0.4857-19.184 1.3125-28.969l0.15625-1.9062 1.9062 0.0625c8.003 0.20782 15.8 1.2686 23.469 1.3438-4.1145-2.3723-8.2915-4.4073-12.938-5.0312-0.0268-2e-3 -0.036-0.0283-0.0625-0.0312-1.2518-0.12188-2.2197-0.28558-3.125-0.84375-0.46223-0.28499-0.94931-0.72645-1.2188-1.375-0.26939-0.64855-0.21901-1.4002-0.0312-1.9375 0.37553-1.0747 1.0274-1.5814 1.7188-2.0938s1.4941-0.96617 2.375-1.375l0.0625-0.0312 0.0937-0.0312c1.0353-0.38471 2.6233-1.8181 4.5312-3.0312 0.95399-0.60659 2.0581-1.1712 3.4062-1.2812 1.3275-0.10835 2.7715 0.33823 4 1.3125 0.0154 0.016 0.0453 0.0187 0.0625 0.0312 1.9278 1.4014 4.1727 2.6343 6.2812 3.125 1.2956 0.3015 2.4742 0.23742 3.6562-0.0625-2.018-2.0622-4.3515-3.8541-7-5.4375l-2.375-1.4375 2.0938-1.8125c7.7498-6.6628 17.795-8.5069 24.188-14.406l1.7812-1.6562 1.2812 2.0938c2.685 4.4 3.1631 9.2084 3.25 13.812 0.0432 2.2914 3e-3 4.5372 0.0312 6.7188 3.6613-8.4028 3.503-18.444 2.875-27.781l-0.0625-1.125 0.9375-0.65625c5.0118-3.4743 10.904-3.7088 15.688-4.875l0.84375-0.21875 0.71875 0.5c5.0535 3.3188 9.8644 7.3575 14.875 10.312 3.7 2.182 7.4415 3.7571 11.5 4.1562-4.5596-4.1552-10.36-7.4014-15.031-12.594l-2.6875-3 4.0312-0.34375c10.335-0.86659 21.109-2.2771 29.406-7.75-9.8176 1.3738-19.729 2.9114-30.062 2.3125h-0.15625l-0.1875-0.0625c-0.0586-0.014-1.3612-0.0783-2.7188 0s-2.9024 0.21935-4.25 0.28125c-0.67381 0.0309-1.3006 0.0632-1.875 0.0312-0.57444-0.0319-1.0192 0.12821-2-0.59375-0.49037-0.36098-1.048-1.4653-0.875-2.25s0.53579-1.0903 0.8125-1.3438c0.53678-0.49161 1.1098-0.78671 1.9062-1.1875 0.0206-0.0112 0.0419-0.02 0.0625-0.0312 10.394-5.6481 21.746-8.6624 32.812-11.844-10.899-1.4108-22.194 3.2995-33.469 6.2812l-0.65625 0.1875-0.625-0.28125c-6.3548-2.7432-11.138-7.4666-16.531-9.8438 0.98663 2.5005 3.1262 4.5734 5.5625 6.4688l5.4375 4.2188-6.8438-0.625c-8.2638-0.77609-16.462-1.5034-24.25-0.0937 6.0596 1.4184 12.53 2.0085 18.906 4.0312l3.7188 1.1875-3.125 2.3125c-5.2713 3.9481-11.352 5.5305-17.281 6.875s-11.725 2.4909-16.688 5.125l-1.5938 0.84375-1-1.5c-1.324-1.9648-2.8904-4.0741-4.5625-5.3438-0.98272-0.74618-1.9655-1.1256-3-1.25 1.137 2.429 2.5844 4.7576 4.3438 7.0312l1.2812 1.6875-1.75 1.1875c-6.8618 4.6837-13.414 9.9894-17.312 16.969l-0.40625 0.71875-0.8125 0.25c-10.243 2.8593-19.64 8.0866-27.688 15.031 5.5486-1.9828 11.046-5.2176 17.469-6.4375 0.0214-6e-3 0.0411 6e-3 0.0625 0 0.0331-6e-3 0.0606-0.0252 0.0937-0.0312v0.0312c0.79314-0.20675 1.5434-0.29913 2.3125-0.15625 0.82088 0.15249 1.7035 0.59816 2.2188 1.375 0.98661 1.4875 0.41381 3.2004-0.53125 4.4688l0.0312 0.0312c-0.0357 0.0555-0.0889 0.10095-0.125 0.15625-4.2882 6.5704-11.621 11.722-15.375 16.219l-1.5312 1.8125-1.5311-1.8126c-0.87892-1.036-1.191-2.1487-1.5-3.2188s-0.57351-2.126-0.8125-2.8125c-0.0254-0.073-0.0368-0.066-0.0625-0.125-0.0954 0.0728-0.0976 0.0459-0.21875 0.15625v0.0312h-0.0312c-1.7324 1.5117-1.7623 3.2449-1.2188 5.75s1.8596 5.2688 2.4375 7.9062l0.15625 0.8125-0.4375 0.71875c-4.063 6.3132-7.6354 13.355-9.9688 20.156l-0.59375 1.6875-1.75-0.40625c-2.6492-0.59854-4.8639-1.4776-7.125-2.2188 0.2412 2.2844 1.4184 4.5174 3.0312 5.9062l5.0938 4.375-6.6562-0.90625c-5.3693-0.71895-10.48-1.8795-15.469-2.1562 6.9833 3.7844 14.263 7.2273 21.25 10.844l0.75 0.375 0.25 0.8125c1.523 4.8436 1.1057 9.6515 2.3125 13.438l0.3125 1-0.65625 0.84375c-4.0834 5.0816-8.0753 10.092-10.875 15.656 3.6301-2.4091 6.6757-5.7568 9.6875-9.2812l1.8125-2.0938 1.4375 2.375c4.3308 7.0747 10.459 13.957 16.031 19.562l1.5 1.5-1.5625 1.4062c-5.3099 4.7756-11.563 7.401-16.188 11.469 1.391 0.06073 2.779-0.11797 4.2188-0.59375 2.5606-0.84615 5.1866-2.4497 7.7188-4l5.2812-3.2188-2.4062 5.7188c-2.1652 5.1409-4.5944 10.136-6.75 15.156 1.8718-0.84139 3.4424-2.2362 4.6875-4h-0.28125l1.8438-2.5625 0.90625-1.7812 0.15625 0.15625c1.1108-1.7593 2.19-4.0195 3.75-6.25 1.7792-2.5438 4.3983-4.9878 8.1562-5.1562h0.3125c4.511 0.47161 8.1916 2.9917 11.094 3.625l1.125 0.25 0.34375 1.125c0.34747 1.115 0.85226 2.5292 1.25 3.9688s0.7312 2.87 0.53125 4.4062l-0.125 1.1875-1.125 0.4375c-7.2138 2.8325-15.092 1.0041-21.25 0.59375 6.5423 5.2608 16.027 5.323 24.688 4.0625l1.3125-0.1875 0.6875 1.125c4.0955 6.8469 8.2009 13.977 11.938 20.812l0.21875 0.375 0.0312 0.4375c0.52249 7.2736 1.9357 14.462 5.375 20.562 0.0961-3.2937 0.0705-6.5993-0.0625-9.9688l-0.1875-4.5625 3.4688 2.9375c5.4348 4.5943 12.501 7.8669 19.062 10.438l1.3125 0.53125-0.0312 1.4062c-0.0648 1.9097 0.14089 4.0186 0.78125 5.5 0.35376 0.81841 0.80704 1.4 1.4062 1.8438 0.0638-0.71813 0.212-1.16 0.1875-2.125-0.0225-0.88692-0.0511-1.8092 0.125-2.7812 0.17611-0.97207 0.63521-2.1594 1.75-2.875l0.40625-0.25 0.4375-0.0625c10.111-1.1788 20.314-1.9081 29.281-5.6562l0.65625-0.28125 0.6875 0.21875c4.5944 1.3757 8.9197 3.0733 13.25 3.6562l0.96875 0.125 0.46875 0.84375c4.4189 7.6876 9.6341 14.933 16.844 19.344-3.8759-5.7329-8.7809-11.701-9.4688-19.312l-0.125-1.625 1.5312-0.46875c10.654-3.3451 19.89-9.8301 28.688-17l3.0938-2.5 0.15625 3.9688c0.30274 7.2358-2.1359 13.611-2.7812 19.844 6.839-7.6999 7.6342-19.413 9.5312-30.031l0.125-0.78125 0.625-0.46875c3.8131-2.9314 7.2885-7.4813 12.906-9.5938l1.0312-0.375 0.90625 0.65625c7.6519 5.7633 16.813 10.078 26.219 10.25-1.9747-0.90929-4.0461-1.8209-6.0938-2.8125-4.1979-2.0328-8.3652-4.5807-11.156-9.0625l-1.3438-2.1562 2.4062-0.8125c8.1835-2.7409 13.163-11.179 21.531-16.531l2.2188-1.4375 0.75 2.5625c0.8991 3.0472 2.0343 5.8422 3.5312 8.375 0.91014-1.4253 1.0046-2.9857 0.78125-4.9375-0.31718-2.7724-1.5147-6.0179-2-9.2812l-0.15625-0.90625 0.625-0.71875c2.5533-2.842 5.2672-6.1444 7.9375-9.2188l2.5625-2.9688 0.875 3.8438c1.4512 6.3366 1.9206 12.55 4.375 17.781 0.0356-0.57067 0.0895-1.094 0.125-1.6562 0.0802-1.2695 0.18683-2.342 0.375-3.3125h-0.0312c0.36648-6.1619 0.0615-12.434 0.0625-18.812v-1.875l1.875-0.125c9.659-0.66838 19.621-2.1092 28.469-4.9375l1.8125-0.59375 0.65625 1.8125c1.6075 4.3562 1.2597 8.6911 0.6875 12.781-0.27861 1.9914-0.58815 3.9553-0.8125 5.8438 3.2914-5.0197 4.9682-10.908 5.0938-17.094v-0.125c0.48613-6.4681 2.4069-13.967 8.75-18l1.4688-0.9375 1.125 1.3438c1.5665 1.855 3.2602 3.8438 5.0312 5.0625 1.1047 0.76016 2.1998 1.0732 3.3438 1.1562-0.71846-1.526-1.7438-2.9916-3.1562-4.5-2.03-2.1679-4.492-4.4503-5.4688-7.8438l-0.1875-0.6875 0.28125-0.6875c2.3595-5.4201 7.2222-7.7354 12.094-8.5s10.022-0.25455 14.031-0.28125h0.0937c3.8502 0.20914 7.6157-0.83233 10.406-3.1875-1.4673-0.0869-2.771-0.2676-4.3438-0.3125-2.9187-0.0833-5.8577-0.19985-8.4062-1.2812l-2.8125-1.1875 2.2188-2.0938c10.115-9.6725 13.494-24.771 16.969-38.719l0.0625-0.25 0.125-0.21875c0.13337-0.2464 0.31964-1.8674 0.46875-3.5 0.0745-0.81627 0.17022-1.6768 0.5-2.5625s1.1446-1.9883 2.4062-2.3125l0.5625-0.15625 0.5625 0.1875c4.9514 1.6589 8.1926 5.4742 11.281 8.7188 2.3165 2.4334 4.5069 4.5439 7.1562 5.7188-0.94508-3.7564-3.263-6.8665-6.3438-9.8125-3.7583-3.5939-8.454-6.8216-12.281-10.562-0.0882-0.0862-0.19405-0.1632-0.28125-0.25-5.0401-3.6243-7.4149-8.9522-8.75-14.375-1.3631-5.5365-1.8177-11.288-3.0625-16.062l-0.0312-0.125v-0.125c-0.57054-4.4056-2.2711-9.6837-3.0938-14.094l-0.3125-1.6875 1.625-0.5625c7.4876-2.5844 15.217-3.0648 21.75-5.8125-1.6924 0.0106-3.4127-0.0409-5-0.40625-0.0502-0.0115-0.10635-0.019-0.15625-0.0312-9.9492-1.5659-19.711-4.3306-29.156-5.3438l-0.4375-0.0625-0.40625-0.25c-10.531-6.4953-22.668-10.679-35-11.969l-1.7188-0.1875-0.0625-1.75c-0.27464-9.6296 1.0289-19.003 1.375-28.219zm-71.625 17.406c-2.6315 3.686-4.8131 7.3001-5.5 11.5 1.6035 1.2424 3.4864 2.3416 5.5 3.4062zm70.25 20.094 2.125 0.125c10.671 0.66068 21.788 4.2338 30 11.688l-2 3.3438c-3.0679-1.0656-6.2056-2.2361-9.1875-2.7188-1.6524-0.26744-3.2179-0.25159-4.75 0 9.6214 6.0213 21.524 9.9753 29.125 20.219 0.0765 0.10308 0.1744 0.17686 0.25 0.28125l-3 2.6562c-7.3982-6.9588-17.525-10.232-27.25-14.969l-0.125-0.0625-0.0937-0.0625c-7.1722-4.6657-11.033-11.959-16.531-16.781l-0.75-0.65625v0.125c-0.18536 2.1038 0.59636 3.8956 1.8438 5.9375s2.9385 4.1894 4.0312 6.8438l0.96875 2.3438-2.5 0.375c-7.5484 1.1738-15.775 3.3794-24.031 1.7812l-3.125-0.59375 1.875-2.5625c1.1363-1.5406 1.4072-4.531 1.9688-7.6875 0.28078-1.5783 0.67304-3.189 1.5938-4.6875s2.4786-2.8023 4.5312-3.375h0.0937l0.0937-0.0312c1.3698-0.24751 3.4976-0.76431 5.625-1.0312 1.665-0.20892 3.3797-0.41336 4.9688 0.21875l3.875-0.5c0.21004-0.026 0.19241 0.0118 0.375 0zm-104.16 1c-0.59146-4e-3 -1.1942 0.0138-1.7812 0.0312-6.9981 0.20808-13.733 2.1006-19.656 6.3125-0.77827 1.1063-1.7526 1.9754-3.0312 2.0938-0.53828 0.0498-0.98414-0.14606-1.4375-0.3125l-1.375 0.4375c-11.524 3.5893-23.303 6.4117-33.969 11.219 0.84894-0.0435 1.6988-0.055 2.5 0.0937v-0.0625c12.057 0.69877 23.984-1.8112 36.281-3.25l5.4062-0.625-3.7188 4c-8.6987 9.3229-21.172 11.668-32.812 12.844 4.7912 4.0675 10.711 7.4286 15.188 13.094l2.2188 2.8125-3.5312 0.4375c-6.9639 0.8324-13.06-1.4663-18.469-4.6562-5.1656-3.0464-9.8109-6.8978-14.375-9.9688-4.5826 1.034-9.043 1.6416-12.531 3.6562 0.71586 11.317 0.8317 24.356-6.8125 34.594l-2.75 3.6875-0.8125-4.5c-0.85149-4.6542-0.51135-9.3556-0.59375-13.719-0.0674-3.5704-0.43705-6.8549-1.7188-9.8438-6.427 4.9688-13.991 7.3939-19.906 11.469 2.7218 1.8162 5.3448 3.8601 7.4375 6.6562l1.25 1.625-1.6875 1.1875c-2.9038 2.0373-6.2538 2.3077-9.1875 1.625s-5.5678-2.1926-7.7812-3.8125l-0.0312-0.0312-0.0312-0.0312c-0.608-0.493-0.88877-0.5295-1.25-0.5s-0.91315 0.25474-1.5938 0.6875c-1.3253 0.84271-2.9052 2.4326-5.125 3.3125v0.0312c-0.14075 0.0653-0.21212 0.121-0.34375 0.1875 7.6718 1.1624 13.971 5.057 19.969 8.9688l4.8125 3.1562-5.7188 0.5313c-9.8513 0.90401-19.404-0.58503-28.75-1-0.56989 8.1867-0.55934 16.525-1.125 24.938 6.0156 0.47417 12.382-2.4691 19.562-3.3438l4.4062-0.53125-2.5 3.6562c-3.9634 5.7912-9.7501 10.4-16.875 11.875h-0.0312c-2.6448 0.49931-5.6286 1.2806-7.6875 2.5625-1.7038 1.0608-2.7221 2.262-2.9688 4.1562 0.81212 0.33489 2.019 0.6775 3.9062 1.0625 2.1662 0.4419 4.8195 1.2593 6.4688 3.625 0.097 0.13916 0.2229 0.22456 0.3125 0.375 0.17196 0.18469 0.31599 0.37224 0.46875 0.5625h75.688v75.719c0.94442-4.1324 2.288-8.2709 4.9062-12.125l2.125-3.1562 1.4062 3.5625c2.1926 5.6103 2.057 11.309 1.875 16.719-0.14843 4.4108-0.26983 8.6205 0.46875 12.562 4.8059-3.0583 9.7261-6.1941 13.719-9.9375-1.4212-4.6724-4.2408-8.7677-7.3438-13-3.349-4.568-6.9447-9.3209-8.75-15.312l-1.1875-3.9375 3.8125 1.5c7.3564 2.8806 12.504 8.339 16.719 14.344 0.36719-2.251 0.77399-5.1622 1.9688-7.8125 0.68499-1.5195 1.6557-2.9783 3.1562-3.9688 1.5006-0.99044 3.4914-1.3596 5.625-0.9375l2 0.40625-0.40625 1.9688c-1.2307 5.7238-1.729 11.585-0.40625 16.969 4.655-2.4306 9.7147-3.8388 14.844-4.5938 0.33529-2.1297 0.29902-4.4829 0.1875-7.0938-0.12235-2.8643-0.10164-5.9808 1-9.0625 0.0471-0.82763 0.14044-1.5137 0.40625-2.1875s0.84008-1.4903 1.8125-1.7812 1.8478 0.04339 2.375 0.375c0.52722 0.33161 0.89351 0.7091 1.25 1.125 1.394 1.6263 2.4602 3.805 2.9688 5.5625 3.0858-7.0731 7.3726-13.595 13.688-18.594l4.2812-3.4062-1.0625 5.375c-1.4374 7.1194-4.0268 13.688-5.9375 20.188 2.3483-1.4671 4.3387-3.5325 6.25-5.9688 2.8424-3.6229 5.4428-7.9175 9.0938-11.312l0.1875-0.15625 0.25-0.125c0.13715-0.07364 0.11055-0.07303 0.15625-0.09375-0.0196-0.0028-0.0212-0.08928-0.28125-0.5-0.55449-0.87587-1.7182-2.1424-2.2812-3.9688-0.84352-1.2309-1.0444-2.6092-1.0312-3.9375s0.29088-2.6229 0.8125-3.7812 1.3486-2.4812 3.0938-2.6875c0.87259-0.10315 1.7854 0.22941 2.4375 0.71875 0.50092 0.37587 0.85054 0.92223 1.2188 1.4688 0.97242 0.69819 1.6083 1.5572 2.125 2.4062 0.57921 0.95164 1.0675 1.8992 1.4688 2.5312 0.23045 0.36302 0.14545 0.29554 0.21875 0.375 0.0803-0.07476 0.0721-0.04914 0.1875-0.1875l0.125-0.09375 0.0937-0.125c0.12345-0.10888 0.24989-0.20632 0.375-0.3125v-33.719h51.188c1.807-2.0355 3.7061-4.2712 5.875-6.2812-0.46709-0.28428-1.0458-0.59751-1.6875-0.96875-0.44148-0.25542-0.87242-0.70637-1.3125-1.0625-0.0459-0.0175-0.0796-0.0445-0.125-0.0625-1.4659-0.58176-2.7025-1.4301-3.0625-2.9375-0.37118-1.5542 0.5508-2.8233 1.4062-3.5625 0.37569-0.32464 0.85883-0.46608 1.2812-0.71875-4.0936-2.8579-8.3599-6.6299-10.844-11.531l-2.1875-4.3438 4.5937 1.5312c9.4594 3.1561 18.276 7.5229 27.062 11.812 2.2087-0.95752 4.4532-2.7731 6.2812-4.5938-2.1485-5.9143-6.0341-11.897-5.9062-19.594l0.0625-3.9688 3.1562 2.4062c4.5948 3.5053 8.2648 7.8692 11 12.875 5.3473-3.9099 10.171-8.3879 14.562-13.344-5.985-2.3063-13.336-2.6337-19.938-6.7188l-2.1875-1.3438 1.875-1.7812c2.1717-2.0574 4.7715-2.9502 7.375-3.375-2.3514-0.90993-4.7312-1.7957-7.125-2.8125l-2.5312-1.0625 1.8125-2.0938c2.0583-2.382 4.8172-3.5629 7.5625-3.8438 1.7494-0.17896 3.4469 0.0672 5.125 0.46875-0.39994-9.6367 1.4597-18.896 2.25-27.938-4.5631-2.8742-10.71-4.3618-16.781-5.1562h-4.5312c-7.105 4.999-14.298 11.272-24.344 12l-1.7188-3.25c2.451-3.0558 5.0542-5.8988 7.6562-8.75h-55.844v-1.7812c-2.2513 7.207-6.2635 13.989-13.125 18.312l-4.3125 2.7188 1.3125-4.9062c2.2231-8.3576 5.251-16.223 5.25-24.281-10.671-1.7474-21.766-3.7051-32.062-8.1562-0.0499-0.0165-0.1361-0.0446-0.1875-0.0625v-0.0312c-1.7762-0.61994-4.4205-2-6.4688-3.4688-0.52787-0.37853-0.98311-0.76701-1.4062-1.1875s-0.8691-0.79423-1.0938-1.75c-0.11233-0.47789-0.084-1.2072 0.25-1.7812 0.33403-0.57405 0.84138-0.89363 1.25-1.0625 0.81725-0.33775 1.4486-0.32295 2.2812-0.28125h0.0625l0.0312 0.0312c14.304 1.383 28.387 5.6493 42 3.75-6.9255-3.4869-14.635-6.1815-22.344-7.0938-1.7911-0.21195-3.5694-0.33191-5.3438-0.34375zm73.531 4.0312h0.28125c1.3759 0.14805 2.6508 1.3215 3.0312 2.4375s0.29305 2.1141 0.1875 3.0938c-0.2111 1.9593-0.6522 4.0791-0.625 4.5312v0.2187c-0.0329 0.74152-0.18855 1.4619-0.59375 2.125s-1.0796 1.1789-1.75 1.4062c-1.3407 0.45464-2.4327 0.15458-3.4375-0.15625s-1.9555-0.75513-2.7812-1.0938-1.5805-0.5466-1.7188-0.5625l-0.40625-0.0625-0.34375-0.1875c-0.57747-0.32647-2.2872-0.9592-3.8125-1.625-0.76265-0.3329-1.5075-0.68952-2.1875-1.1562s-1.632-1.1242-1.6562-2.625l-0.0312-1.25 1.125-0.5625c4.4178-2.2824 9.3124-4.3944 14.719-4.5312zm-339.62 27.344v100h74.406c-7.4086-3.6406-15.206-7.2629-22.438-11.75l-4.3438-2.6875 5.0312-0.96875c6.6801-1.2755 12.885-0.0142 18.906 1.0625-1.1236-2.3415-1.6714-4.9835-1.1562-7.6875l0.40625-2.0625 2.0312 0.5c2.9357 0.69425 5.3601 1.703 7.8125 2.4375 2.3357-6.3027 5.5013-12.616 9.1562-18.406-0.5106-1.8656-1.5674-4.3921-2.1875-7.25-0.67649-3.1178-0.51644-6.9287 2.4688-9.5625 0.0118-0.0104 0.0194-0.0208 0.0312-0.0312 0.61722-0.55835 1.2266-1.0041 1.9375-1.2812 0.72411-0.2823 1.6531-0.3428 2.4375-0.0312 1.5689 0.6231 1.984 1.904 2.3438 2.9375 0.31071 0.89254 0.49856 1.78 0.71875 2.5938 4.1874-4.3417 9.3857-8.6562 12.562-13.281-7.5809 1.5992-14.992 7.3782-24.562 7.9688l-5.0625 0.3125 3.5-3.6875c9.3512-9.8583 21.147-17.095 34.156-20.875 4.0662-6.8824 10.183-12.04 16.438-16.438-0.43528-0.5917-0.86396-1.1982-1.2812-1.8125zm426.19 0c1.3212 5.2023 1.7989 10.838 3.0312 15.844 1.2541 5.0938 3.1767 9.3889 7.375 12.281l0.15625 0.125 0.125 0.125c3.4715 3.4539 8.3457 6.7475 12.531 10.75s7.7641 8.8988 8.0625 15.406l0.125 2.4688-2.4375-0.40625c-5.4462-0.86668-9.0812-4.4213-12.25-7.75-2.7573-2.8965-5.2708-5.5308-8.2812-7-0.0435 0.25566-0.0942 0.38114-0.125 0.71875-0.11712 1.2824-0.0879 2.9056-0.8125 4.5625h0.0312c-3.1901 12.804-6.3715 27.405-15.719 38.062 1.1901 0.14783 2.5503 0.24075 3.9688 0.28125 2.8368 0.081 5.93 0.0364 8.7812 0.625l2.8438 0.59375-1.5625 2.4375c-3.6043 5.6765-10.041 8.1564-16.312 7.8438-0.0314-2e-3 -0.0623 2e-3 -0.0937 0-4.308 0.0222-9.1871-0.39751-13.312 0.25-2.6513 0.41614-4.8506 1.2214-6.5625 2.7812h104.25v-100zm-265.16 2.4375 1.8438 3.4375c-1.2134 1.0166-2.7325 2.7251-4.375 4.3125s-3.3798 3.1792-5.7188 3.6875l-2.3438 0.5-0.0937-2.375c4e-3 0.0965-0.0722-0.25183-0.28125-0.6875-0.20904-0.43567-0.49407-0.96841-0.75-1.625s-0.64843-1.7408 0.125-2.9375c0.62983-0.97455 1.5675-1.2082 2.5-1.2812 0.0211-7e-3 0.0413-0.0242 0.0625-0.0312 2.9108-0.96798 6.0112-2.1254 9.0312-3zm-21.469 9.0312c0.37492 0.0113 0.83857 0.13151 1.2188 0.40625 1.0138 0.73264 0.8884 1.5325 0.875 1.9062s-0.0773 0.62045-0.15625 0.9375c-0.0395 2.6442-0.56563 5.8936-3.1875 7.875l-1.5312 1.1562-1.2188-1.4688c-1.2367-1.4759-2.0582-3.237-1.8438-5.125 0.2075-1.8272 1.5806-3.4045 3.4688-4.3125 5e-3 -9e-3 0.0343-0.0362 0.0625-0.0625 0.0153-0.0143 0.0749-0.0441 0.0937-0.0625 0.0187-0.0183 0.0739-0.0419 0.0937-0.0625 0.10699-0.11117 0.19893-0.25171 0.40625-0.4375 0.14215-0.12739 0.29812-0.28766 0.625-0.46875 0.16344-0.0906 0.36408-0.1908 0.75-0.25 0.0965-0.0148 0.21878-0.035 0.34375-0.0312zm-2.125 1.1875 0.21875-0.0937c-0.0134 4e-3 -0.05-4e-3 -0.0625 0-0.0911 0.0325-0.10255 0.0557-0.15625 0.0937zm270.66 1.75c-1.2944 3.1083-2.2377 6.4861-3.25 10.062-1.0396 3.6726-2.4136 7.4436-4.9688 10.719 3.5027 1.2721 6.7619 2.589 9.7812 2.4062 1.5659-1.3253 2.1502-3.3228 2.4688-6.0938 0.31382-2.7302 0.43663-5.8912 1.5312-8.875-0.17067-1.4049-1.1036-3.048-2.5312-4.7812-0.91955-1.1164-1.9858-2.2915-3.0312-3.4375zm12.031 28.844 2.125 0.21875-0.0625 0.46875 1.8125 0.375 0.0312 1v0.2187l0.0625 2.1875-0.34375-0.0312c-1.6641 16.776-14.65 29.69-26.844 39.25l-0.53125 0.4375h-0.71875c-0.8691-0.0117-1.6587-0.0988-2.4375-0.53125-0.77883-0.43247-1.4094-1.4101-1.5-2.2812-0.18115-1.7423 0.64477-2.7344 1.4062-3.7812 1.523-2.0938 3.8468-4.3434 4.4062-5.125l0.0312-0.0625 0.0625-0.0625c8.501-10.04 16.756-20.289 22.469-31.844zm-309.25 3.8125l-0.1875 6.4688 0.1875-0.0312-0.25 2.3438v0.15625c-0.10734 0.97237 0.0154 3.1972-0.46875 5.1562-0.12104 0.48975-0.28527 0.98045-0.625 1.5s-0.92975 1.0962-1.7188 1.3125c-1.4661 0.40192-2.6279-0.30303-3.7188-1.2188-0.0115-0.01-0.0196-0.0213-0.0312-0.0312-0.0716-0.0605-0.14775-0.094-0.21875-0.15625l0.0312-0.0625c-0.46037-0.35211-0.90691-0.75983-1.125-1.3438-0.25937-0.69459-0.24237-1.4133-0.0937-1.9688 0.29723-1.1109 0.90181-1.8358 1.5-2.5312s1.2462-1.3303 1.7812-1.875 0.9653-1.0668 1-1.125zm307.03 8.4375c-5.1118 7.9669-11.081 15.328-17.125 22.469-0.0265 0.0371-0.0662 0.0875-0.0937 0.125-0.30895 0.42022-0.75956 0.86118-1.1562 1.3125 7.8057-6.7628 14.976-14.647 18.375-23.906zm-318.25 11.031 1.4375 1.6562c0.76285 0.8758 2.6714 1.906 4.3438 3.4062 0.8362 0.7501 1.679 1.6946 2.0312 3.0312 0.31399 1.1914 0.0714 2.5544-0.53125 3.8438-1.39 5.388-3.6037 10.304-5.5625 15.188l-0.78125 1.9375-1.9062-0.875c-0.92623-0.42225-3.5415-0.68899-5.8125-1.5312-1.1355-0.42113-2.4515-1.0973-3.0938-2.5625-0.58239-1.3287-0.2305-2.825 0.53125-4.25 1.7712-5.6872 2.9152-13.085 7.8438-18.25zm0.28125 5.875c-2.8718 4.0048-4.1329 9.7631-5.8125 15.156l-0.0625 0.25-0.125 0.1875c-0.59404 0.97505-0.42515 1.1306-0.46875 1.0312s0.0916 0.15048 0.78125 0.40625c0.96395 0.35751 2.5135 0.61388 4.0938 1.0312 1.7804-4.3674 3.585-8.6054 4.7188-13l0.0625-0.25 0.125-0.21875c0.44105-0.79552 0.40935-1.095 0.34375-1.3438s-0.31249-0.6172-0.84375-1.0938c-0.67551-0.60595-1.7181-1.3202-2.8125-2.1562zm285.28 14.312 1.25 1.5625c0.8181 1.0225 1.008 2.1778 1 3.2188s-0.20987 2.0029-0.71875 2.9062c-0.25444 0.45168-0.5974 0.91242-1.1875 1.2812-0.5901 0.36885-1.5442 0.5423-2.3125 0.28125-1.3108-0.44537-1.8163-1.4214-2.2812-2.5938-0.1751-0.13143-0.36244-0.1319-0.53125-0.34375-0.44415-0.55735-0.61987-1.5931-0.40625-2.25 0.42723-1.3138 1.1437-1.5426 1.6875-1.875s1.0725-0.58446 1.5-0.78125c0.21375-0.0984 0.38663-0.16435 0.5-0.21875zm-13.25 8.3125 1.4062 1 0.8125 0.5625 0.375 0.28125 0.125 0.0625 0.0937 0.125c0.61632 0.5864 2.5795 1.5838 4.125 3 0.77276 0.70807 1.6294 1.69 1.6562 3.1562 0.0238 1.3009-0.77666 2.3933-1.8125 3.2812l0.0312 0.0312c-3.2981 4.0677-7.6232 9.5017-13.656 11.094l-1.2188 0.3125-0.8125-0.9375c-0.36471-0.42646-1.6631-1.3039-2.9688-2.1562-0.65283-0.42618-1.2985-0.869-1.9062-1.4375s-1.2492-1.2796-1.4375-2.4062l-0.15625-0.90625 0.5625-0.6875c4.1662-5.214 9.4207-8.8693 13.594-13.156zm-276.62 5.3125 0.625 0.125c0.83602 0.17132 1.8203 1.0768 2.0312 1.9375s0.011 1.448-0.1875 1.9688c-0.39702 1.0416-1.0363 1.8678-1.8125 2.5938-0.38808 0.36299-0.80285 0.70873-1.3438 0.96875-0.5409 0.26-1.3118 0.49981-2.25 0.1875s-1.5869-1.2486-1.7812-2c-0.13841-0.53528-0.067-1.0695-0.0312-1.625-0.34658-0.73703-0.63522-1.5581-0.0937-2.5938 0.3341-0.63901 0.95548-1.0244 1.4062-1.1875 0.45077-0.1631 0.78834-0.1758 1.0938-0.1875 0.61082-0.0234 1.1112 0.0169 1.4688 0.0312 0.35755 0.0143 0.55422-0.0883 0.28125 0.0312zm4.75 12.188 0.6875 1.9062c1.6372 4.5795 4.7509 8.2638 8.2188 12.031s7.2983 7.5962 9.9062 12.562l2.8438 5.4375-5.5-2.7188c-9.4759-4.6703-19.737-11.946-21.5-23.844-0.3437-0.67-0.62462-1.331-0.4375-2.2812 0.21286-1.0809 1.2867-1.838 1.9062-2.0312 1.2391-0.38665 1.9708-0.34457 1.9688-0.34375zm251.09 2.75c0.39403-0.0597 0.92107-0.0219 1.4062 0.25 0.34938 0.19579 0.39982 0.43724 0.5625 0.6875l0.0937-0.0937c0.66591 0.78211 1.654 1.5128 2.2188 3.125 0.1412 0.40306 0.2574 0.93441 0.125 1.5625s-0.55325 1.2487-1.0312 1.5938c-0.86617 0.62517-1.6909 0.67016-2.6562 0.6875-1.1516 0.37349-2.1425 0.63571-3.0625 0.625-0.51143-6e-3 -1.0609-0.0733-1.6562-0.40625-0.59534-0.33295-1.1686-1.0889-1.2812-1.8125-0.22533-1.4472 0.45773-2.1742 1.0625-2.9062s1.3873-1.4617 2.375-2.1875l0.34375-0.21875c0.0444-0.0443 0.037-0.0702 0.0937-0.125 0.0355-0.0342 0.18205-0.0845 0.21875-0.125 0.14805-0.16329 0.23458-0.34956 0.84375-0.5625 0.095-0.0332 0.21241-0.0738 0.34375-0.0937zm-40.5 24.188c0.60875-0.09045 1.3981 0.2907 1.9375 0.75l0.0625-0.0625c0.2744 0.24233 1.5177 0.97186 2.5 2 0.24558 0.25703 0.50241 0.52974 0.71875 1.0312s0.32693 1.4272-0.0625 2.1562-0.98536 1.0332-1.4688 1.2188c-0.45185 0.17348-0.88373 0.25627-1.375 0.3125-0.0342 0.0039-0.0589 0.02755-0.0937 0.03125v-0.03125c-1.7951 0.26578-3.6811 0.09066-5.3438-0.71875-0.42278-0.20582-0.8609-0.47345-1.2812-1s-0.71074-1.5541-0.4375-2.375 0.81134-1.2559 1.3125-1.5938 1.0404-0.59642 1.7188-0.84375l0.15625-0.0625c0.0742-0.0556 0.13662-0.09624 0.3125-0.21875 0.24791-0.17268 0.60032-0.48329 1.3438-0.59375zm-11.406 10.719c0.76472 0.01971 1.519 0.41386 2 0.90625 0.0287 0.02941 0.0671 0.06383 0.0937 0.09375 0.64025 0.58461 1.6104 1.0939 2.375 2.5312 0.19989 0.37579 0.4015 0.88889 0.375 1.5s-0.32651 1.2346-0.6875 1.6562c-0.64467 0.75294-1.3906 1.0638-2.2812 1.3438-1.0628 0.51268-3.481 1.5946-5.4375 2.25-0.48913 0.16384-0.94661 0.31274-1.4062 0.40625s-0.81876 0.3093-1.7812-0.03125c-0.48124-0.17028-1.259-0.7913-1.4375-1.5625s0.0527-1.2983 0.21875-1.625c0.33213-0.65331 0.69589-0.97529 1.1875-1.4375l0.28125-0.21875 0.3125-0.15625c-0.23562 0.09979 0.26213-0.19972 0.71875-0.78125s0.9949-1.3939 1.5625-2.1562 1.0887-1.5061 2-2.125c0.45564-0.30947 1.0959-0.61464 1.9062-0.59375zm-164.78 3.1875 3.3125 2.375c3.2662 2.376 4.4861 5.9524 5.7812 8.8125s2.4182 4.9422 5.125 5.9062l0.28125 0.09375 0.21875 0.15625c0.66686 0.47843 0.98502 0.57314 1.4062 0.78125-0.12649-0.547-0.27239-1.0975-0.625-1.9375l-0.0625-0.125-0.0312-0.125c-0.642-2.29-1.9252-4.6488-2.9062-7.4062l-1.5625-4.375 4.25 1.9062c7.1188 3.1806 10.916 10.446 15.125 14.031l3.9375 3.375h-0.125c2.0743 1.7725 4.1686 3.9457 5.4688 6.625 1.3098 2.6992 1.6723 6.0378 0.15625 9.25h0.0312c-0.87883 2.739-1.6844 5.2889-1.5938 7.7188l0.0937 2.9375-2.75-1c-8.0844-2.8812-13.955-10.151-17.406-16.875l-1-1.9375 2.0312-0.8125c2.2827-0.9233 4.6375-1.5961 6.5938-2.5 1.7702-0.81795 3.0732-1.8248 4-3.2812l-0.65625 0.03125c-2.87 0.09343-6.7934 1.1665-10.75 1.3438s-8.3824-0.88084-10.969-5.0938l-0.0312-0.0625-0.0312-0.0625c-1.0798-2.1645-2.7943-4.685-4.2812-7.3125s-2.8188-5.3935-2.9062-8.375zm164.66 1.25c-0.0349 0.03759-0.0548 0.08168-0.0937 0.125 0.0378-0.01783 0.12165-0.07725 0.15625-0.09375-0.0207-0.02013-0.0411-0.01039-0.0625-0.03125zm-13.469 22.25c-3.6387 1.6936-6.6982 5.0226-10.438 8.0312-2.0068 11.641-2.7648 26.46-14.312 34.969l-2.875 2.0938-0.3125-3.5312c-0.65064-7.4743 1.8253-14.005 2.625-20.281-7.4838 5.8284-15.544 11.049-24.75 14.25 1.424 7.3281 8.2522 13.926 12.062 22.062l2 4.25-4.4688-1.5c-11.51-3.9191-18.619-13.55-24.219-23.156-4.3613-0.72522-8.3623-2.1776-12.25-3.375-2.8574 1.1406-5.797 1.9723-8.75 2.6562v336.66h100v-365.31c-5.1383-1.8935-9.9786-4.6683-14.312-7.8125zm-22.531 0.28125 2.0625 3.3125-2.0625 2.0938c-5e-3 0.0051 5e-3 0.02615 0 0.03125h-0.0312c-9.6528 10.002-21.603 22.007-37.719 20.906-0.0107-7.31e-4 -0.0205 7.43e-4 -0.0312 0-0.0535-0.0037-0.10265 4e-3 -0.15625 0v-0.03125c-0.78764 0.01196-1.4272 0.01681-2.1875-0.3125-0.41286-0.17882-0.91975-0.50966-1.25-1.0938-0.3302-0.58409-0.36848-1.2995-0.25-1.7812 0.23696-0.9635 0.69228-1.3763 1.125-1.8125s0.93648-0.81047 1.4688-1.2188c1.0645-0.81656 2.3075-1.6488 3.375-2.4062s1.9875-1.557 2.0938-1.6875l0.125-0.125 0.0937-0.125c9.6161-8.5587 21.978-11.937 33.344-15.75zm-6.75 6.5c-8.7642 2.9745-17.213 6.2925-23.906 12.25l-0.0312-0.03125c-0.75051 0.83678-1.6295 1.4902-2.6562 2.2188-0.65796 0.46686-1.2645 0.8896-1.9062 1.3438 11.171-0.22346 20.344-7.6609 28.5-15.781z"/>
    <rect x="-583.26" y="711.95" width="8.3027" height="0"/>
   </g>
   <path d="m-721.88-421.08h100v247.52h-100z" color="#000000"/>
  </g>
 </g>
</svg>
