<?xml version="1.0" encoding="UTF-8"?>
<svg width="13in" height="18in" clip-rule="evenodd" fill-rule="evenodd" image-rendering="optimizeQuality" shape-rendering="geometricPrecision" text-rendering="geometricPrecision" version="1.1" viewBox="0 0 13000 18000" xmlns="http://www.w3.org/2000/svg">
 <defs>
  <style type="text/css">.fil0 {fill:#0D0D0D}</style>
 </defs>
 <path class="fil0" d="m2731 5838c38-43 51-94 134-69 70 26 70 78 83 147-38 34-51 94-140 77-71-26-83-86-77-155zm1974 69c-58 138-300 52-230-112 32-86 159-103 211-26 6 18 6 18 12 26 20 35 20 69 7 112zm-2689-26c-7-77-13-146 76-180 71-26 141 0 173 68 76 155-160 284-249 112zm3244-26c-51 52-83 86-172 52-70-26-83-95-64-155 19-69 96-94 160-77 76 26 83 103 76 180zm-1379-103c-26-198 255-215 287-43 39 207-268 215-287 43zm-268 9c-45 137-262 69-205-78 51-137 249-60 205 78zm1973-69l7-34 57-18c-26 35-45 35-64 52zm-3666-120c38 17 51 25 96 34-39 0-96 17-122-9l26-25zm428-18c19 18 57 18 89 9v-26s7 0 7-8h64c-20 77-32 43-58 77-38-9-147-34-185-26-51 9-13 0-32 17 13 9-13 9 38 18 39 0 102-18 141 8-45 0-166 0-205-8v-95c45 0 179 0 211 17-96 0-51 0-70 17zm-345-43c19 18 70 18 96 18 13 25 6 51 6 86h-57c12-9-13-18 25-9 7-52 13-86-64-69 13 43 7 0 32 35-44-9-51 0-96 0l39-52c19-34 25-17 32-69l96 9v34c-45 9-84-17-109 17zm2548-189c39 9 26 26 26 69 0 69 26 232 38 310-51-18-51-26-51-164 0-69-13-137-13-215zm-1686 198c-51 0-121-17-159 9 12 25 25 17 70 17 32 0 51 8 83 0l6 51c-45 0-128-17-159 18 31 25 83 8 134 8 25 0 19-8 19 17l-205-8c-6-60 7-26 26-69 13-43 64-172 96-189 32 0 115 0 147 17 6 69 6 120 6 189l-6 138c-7 43 0 17-19 34-13-17-13 17-13-34l13-138c0-43-7-137-20-172l-19-8c-19 43-6 77 0 120zm1118-189l57 8c20 43 26 172 13 215l-64 9c7-103 0-138-6-232zm-505-35h58c19 69 25 95 13 155-13 60-20 103-58 121 7-52 13-86 7-147 0-43-20-86-20-129zm-1207-8c7 34 32 26 70 26h103c38 0 172 0 191 8-6 17 32 26-83 26-32 0-70-9-102-9-57 0-128-8-192 0v26l339 9c-6 34-58 120-77 146-70-34-230-17-306-17 0-86 12-198 57-250l403 9c-26 52-147 26-198 26-52 0-166-17-205 0zm-108 370h-26c-13-52 19-379 83-422 0 52-25 146-38 207-7 51-13 180-19 215zm-218-430l218 8c6 52 6 60-26 103-32-8-51-17-77 0 20 9 52 18 77 18l-13 77h-102c0-69-25-95-19-146-51-9-32-17-58-60zm1061 988l402-1117c13-43 7-52 38-69 26 43-12 86-31 155-20 51-32 103-52 154l-300 826c-6 34 13 43-57 51zm332-1014c-26 8-307-9-339-17 58-121 269-190 396-164l-57 181zm2318 438c32-43 971-731 1016-748-19 35-26 35-57 52-20 8-45 26-64 43l-377 292c-58 35-492 353-518 361zm1163-851c6-17 6-26 25-26l-25 26zm-166-344c25-9 76-43 108-60-32 51 0-9-83 51-19 26-12 18-25 9zm268-43c-25 34-249 172-338 249l-345 241c-83 60-658 456-671 490 6 9-19 18 19 9l70-52c83-51 154-111 256-180 172-112 345-250 511-361 64-43 115-95 172-129 77-43 313-198 345-250l51 26c-19 43-287 215-345 258-108 86-242 163-351 249-147 112-364 258-530 379-38 26-160 94-166 137 32-8 64-34 89-51 39-35 32-9 71-43 6-17 6-17 19-26l543-378c121-86 236-164 351-258 32-26 32-9 51-26 13-9 19-17 45-35 51-34 230-180 281-172-45 61-454 336-530 396-58 43-134 86-192 129-115 95-249 181-364 267-51 34-351 232-351 266 44 0 466-318 536-370 32-17 64-43 90-60l191-129c26-26 51-43 83-69l543-378 7 69c-77-9-128 60-198 103-179 129-333 258-543 396-115 86-249 180-358 266l-262 198c-38 26-64 60-102 60 0-223-109-249-147-318 32-26 89-69 121-95 45-34 90-51 128-77l256-181c-26 26-198 147-237 172-19 18-38 26-57 43l-115 86c-38 18-45 26-58 61 51-9 128-78 173-112l734-525c26-17 58-34 83-51l333-233 12-77c71 9 186 34 211 103-38-17-57-34-96-51-51-18-64-26-96-18-6 43 32 35 77 52zm-4056-129c19 34 19 9 0 26-25-35 0-26 0-26zm511 1385l-70-26c19 34 13 8 32 43l-51-9c-13-34 51-172 64-215 19-51 51-180 76-215 102-8 364 9 486 17 249 0 504 26 747 35 204 0 402 17 607 17 32 0 102 26 115-9-39-25-601-43-722-51-77 0-166 8-243 0-102-9-932-35-977-43l64-181c32 0 64 0 96-17 25-9 51-26 76-26 103-17 301 9 396-51 32-26 103-61 109-104-64 0-102 78-185 95-96 17-173 26-269 26-89 0-134 34-249 51-95 18-153-17-268 18-179 43-160 68-262 180-51 52-128 60-172 129l-7 9c0 8-6 8-6 8s-13 18-19 26c-51 78-70 172-141 232l-64-17v35l77 8c0 9 26 17-32 52-32 17-45 17-76 26l-135 60c7-35 51-52 64-86 19-52 39-60 77-86 13-9 102-172 121-207 58-103 160-154 217-266 71-146 320-284 473-327l243-77c57-18 51 0 115-52 25-17 57-52 57-95-44 9-44 61-108 86 19-60 249-739 287-825 32 26 64 17 115 26 38 34 77 86 141 77v-17c-32-17-77-17-96-60 70-9 44 34 115 0l-13-26c77-9 166-26 224-9 38-34 51-43 102-25 38 8 19 17 51 25l-13-34c32-34 89-26 134-26 0-8 7-8 7-8l12-26c71-17 83 8 141 8l19-34 153 26c39-52 45-35 160-26 6 26 6 43 26 52l19-61c51 43 25 95 64 95v-77c38 25 19 25 12 68 71 35 96 9 141 69 38 60 64 86 128 86-7-43-20-26-58-43-19-8-25-43-45-60-38-60-63-52-134-52v-77c77 0 122 52 166 103 122 121 39 35 115 146 19 35 39 43 58 69 25 35 19 60 51 86 25 26 57 34 70 69 19 51-19 69-25 86 0 60 12 43 6 103l58 77-7 69h45c6 43-7 35 19 52 13-9 13 8 19-26 0-9-6-26-6-43l51-26c13 52 0 60 38 60 13-25 0 0 13-34 0-17 0-9 6-26-12 0-19 0-32-8-89-43-38 25-121 25-13-51 0-34 6-77l-51-34c-6-69-19-69 13-138l1003 77-179 121c-64 34-121 77-179 120-115 86-236 172-357 250l-524 378c-45 26-160 86-173 138 13 8 83 60 109 111l6 9-6 9c-64 8-256-18-294 8 19 26 115 17 153 17 64 9 122 0 179 9-13 26 0 9 0 43h-287c25 26-19 9 32 26 32 8 76 0 102 0 57 0 115 0 172 17-19 9-6 60-12 86 0 17-26 60-45 69-83 0-166-9-249-9-26-26-39-43-77-51 7-86 26-215-19-293l-77-26c-44 61-12 61-12 138 0 60 0 69 32 86 25-34 0-138-7-181 0 0-6-17 26 0 6 9 19 18 19 26 19 43 32 181 6 224-19 26 7 0-25 17-7-52 6-43-26-60-25 17-32 34-25 60-45 26-45 34-83 69 0 0-7 17-7-17-51-9-108-9-166-9-51 0-121-26-160 9 45 43 224 8 301 25-58-8-288 18-313-17-7-43-20-103-13-137 70-9 402 34 428 0-51-43-358-9-428-43-51-69 32-258-109-241-6 43-12 34-12 77-58-8-390-26-416-8 13 34 384 34 416 34l12 284c-51 0-249-9-274 8 12 26 70 18 108 18 45 0 96 8 141 8-39 35-64 9-128 9h-172c-39-112-39-86-115-146-7-86 12-190-26-267-57-17-396-34-466-26l6 17c58 9 121 9 179 9 45 0 134-9 160 34l-83 9c-32 0-51 0-83-9-32 0-147-8-166 0 12 43 121 26 159 26 45 9 141 0 173 17-51 26-288-25-339 0 19 35 121 18 160 26 38 0 153 0 179 9 25 34 19 112 6 155-6 17-51 34-83 94-19 35 6 26-38 17 19-17 12 0 12-25-25-9-153-9-185 0 0 0-13 17 19 25 32 9 83-17 128 9-57 0-102-17-153 0-7-52-70-86-109-103 26-112 83-172 26-301-51-26-77-17-134-9l12 52-38 8c32 26 51 9 51 35h-32c-19 8 7 0-12 8h-13s0 9-7 9c26 17 64 17 64 17 13 35 7 52 7 86-26 0-39-8-64-8-39 0-39 8-58 17 26 26 71 8 122 17l-7 77c-44 18-32 26-64 52 0 26 0 0-19 9zm2165-2185c90-77 154-8 173 9 25 9 57 17 77 26-20 43-167 112-250-35zm-1986 1213c0-35 543-1531 556-1548 6 9 19 0 0 43-83 215-122 327-192 542l-275 791c-38 112-31 172-89 172zm2210-1600c26-25 26-8 58-43 44-51 114 9 140 9 38 17 51-17 51 43-83-9-13 26-96 0-121-34-70-17-153-9zm141-86c19-8 19-8 51-8s38 0 51 8c-26 26-83 18-102 0zm-301-481c13-9 0-9 26-9 13 0 13 9 19 9-6 26-19 8-45 0zm-587-241c0-34 19-86 57-86 13 43-13 86-57 86zm632-172c-13-17-6 9-13-26-6-26 13-34 32-34 13 34 7 43-19 60zm-2676-120c-154 94-160-69-45-60 19 8 51 34 70 51l-25 9zm1616-26c6-26 83-258 96-292 32 34 210 378 217 429l-313-137zm-403 851c-25 69-57 215-83 241-64-77-191-499-198-611-6-129 51-215 83-326 32-129 0-250-19-370l926 430c-25 137-115 241-127 395-13 181 134 215 293 198 256-43 275-137 460 232 45 86 83 69 147 104-147 8-230-35-345-95-140-77-217 0-262 9-38 8-70 0-108 0-70-147-256-52-428-155-45-35-77-86-109-86 0 86 173 155 249 172 166 34 192-35 288 137 25 43 38 104 57 155 109 241 377 121 441 207-45 60-287 68-377 34-179-69-147-301-613-284-147 9-236 17-332-103-13-52 121-249 89-310-25 9-12-8-32 26zm824-619c-108-26-281-146-408-181-45-17-90-51-135-68-83-35-191-78-268-121-38-17-89-43-134-60-38-17-102-34-128-69l550 241c83 35 178 86 261 129 45 26 96 43 141 60 26 17 26 26 64 35 25 8 45 17 57 34zm-115-464c0-35 13-52 26-78 19-34 32-34 70-34 0 34-19 52-38 77-32 35-32 43-58 35zm-345 206c-12-17-12 26-6-26l19-60c26-60 70-223 90-241 19 18 12-25 12 26l-19 60c-13 26-19 61-32 86-6 26-19 52-25 78-32 77-13 60-39 77zm52-309c6 17 12 0 0 34l-90 249c-45 0-166-68-223-94-32-17-71-35-109-43-32-17-89-26-102-60l524-86zm-748 94c-19-34-6-17 19-69 20-34 7-43 51-43-6 43-25 104-70 112zm607-232c6 0-19-17 26 0l306 112c13 8 32 17 51 17 71 26 32 9 45 26-26 17-70-9-109-26-70-26-281-95-319-129zm-89 9c-13-26-7-43 6-69 13-43 19-43 57-43 0 43-12 94-63 112zm-997 4162c0 43-19 86 7 137 57 86 134 95 223 43 45-26 38-77 51-120 39-9 147 0 192 0 6 241 300 258 358 26l255 8c-19 52-19 78-57 103 6 26 19 26 31 52 58 138 262 129 301 9 25-78 0-95-13-164 45 0 223 9 262 17-26 95 64 181 153 181 121 0 153-77 160-181 57 0 121 9 179 9 57 0 95-26 127-52 128-111 294-197 416-301l613-455c95-78 210-172 313-233 57-43 44-51 121-51v-43l45-9c6-26 0-43 25-60 19-120-57-215-166-258-166-69-549-77-741-86-127-9-287-26-408-26-7-51-13-69-58-103-57-51-32-26-57-103-58-34-52-17-84-77-76-138-19-61-140-181-38-43-51-52-102-60-77-26-83-9-147-9-38-8-115-8-153-8-52 0-90 25-141 25-57-8-70-34-134 9-64-9-121-26-160 34-83 9-76 9-147 35-25 0-76-9-102 0-51 8-25 17-96 8-64 0-121 18-166 52-57-26-57-9-108-9h-109c32-111 83-223 115-326 13-52 89-301 115-319 38 18 58 43 96 52 108 34 281 0 415 17 313 60 256 327 575 301 38-8 89-8 128-17 38-9 70-34 102-43 57-9 108 86 179 103 70 17 185-8 191-94-76-35-96-18-153-95-115-9-141 60-224 0-127-86-281 43-396-146l-76-198c83 17 70 9 140-17 237-78 262 172 645 86 64-9 58-26 122 8 25 9 38 0 64 18 32 17 19 25 32 43 25 0 32 0 38-26 6-52 0-17 25-52 20-34 26-103 20-129-58-51-192-26-249 9-45 26-147 112-218 51-32-25-95-154-121-189-38-69-70-129-147-155-109-51-402 112-505-8-102-112 90-387 84-499l76 26c0 51-19 77 13 120 13 17 57 78 70 86 70 60 153 43 230-8 70-43 173-26 211 43 25 51 25 60 70 86 128 94 160-138-6-52-39-43-32-77-96-112-160-86-204 60-326 43-57-8-102-60-108-112l38-34c51 34 115 120 230 26 77-60 57-164 160-164 70 9 217 61 242-51 26-120-166-120-115 26-134-9-204-52-268 94-70 172-179 78-230 60 7-51 32-94-19-129-38 9-26 18-70 18-19-18-26-26-51-26-39-95-71-146-122-249-38-69-102-172-121-250l134 43c0 43-13 52 26 86 95 9 230-129 95-189-32 9-57 26-70 34-32-8-147-51-172-68 19-35 64-181 51-215-51 34-45 180-90 206-12-52 39-138 51-198 7-43-6-26-6-34-45 26-64 163-89 206l-179-60c-19-69 32-95-83-86-64 26-71 86-71 155 32 26 64 60 109 8 38 9 121 43 153 61-19 17-44 17-70 17-25 8-57 8-83 17l-326 60c-64 9-89 35-140-17-7-43 6-52-19-86-103-43-122 112-134 163-71 43-128 104-211 121-32 8-109 34-134 34-83 0-115-172-230 35-26 43-58 60-115 60-109 0-58-9-128-60-19-18-38-26-64-35-25 0-32 9-51 0-26 0-13 0-45-8-51 43-70 86-57 146 25 0 13 8 32-18 57 52 147 35 198-25 70 25 134 68 217 8 57-51 57-120 128-129 32 26 38 43 83 52 57 17 172-17 223-52 26-8 77-34 102-34-12 34-32 60-44 103-7 35-19 60-39 112-32 77-6 43-63 86-96 77-115 43-237 34h-140c-249 9-237 241-7 103 45-25 39 0 51-43-70 9-83 61-198 52 13-43 7-26 51-52 20-8 32-17 58-25 45-9 121-9 172 0 128 8 166 25 275-43 128-86 77-336 275-430 57 51 57 292 44 369-32 121-89 207-76 344 19 250 102 439 204 663l-236 662c-7 17-7 8-13 17-38-17-89-26-134-26-64 43-19 78-58 138-31 43-38 77 13 112 7 0 26 17 7-35-7-34-7-8-13-43 70-77 38-43 51-137l128 17c-19 112-217 584-269 748-19 51-32 146-83 163-159 43-313 86-453 181-26 17-51 43-70 60-20-26-13-26-51-26-71 0-135 0-198-26-52-25-179-120-218-34 115-9 83 0 218 60 70 35 159 26 242 26-19 43-96 77-115 138-70-18-115-35-204-52-83-9-345-9-383-95-20-51 32-129 76-154 58-26 122-35 166-69 83-60 218-198 320-112 64 43 51 120 134 120-19-34-19-25-45-51 19-78 32-52 13-181-13-77 6-94-51-163h6l26-9c38-26 6-69-13-94-13-18-13-43-19-78-70-43-39-60-51-137-45-43-45-78-58-138-6-69-32-77-76-120-45-52-52-69-58-146 0-78-25-86-6-181l44 9c0 77 26 77 90 120 32 17 57 52 89 69 19 17 19 17 32 26l-6 77c6 9 19 17 25 26 32 26 26 17 45 0l-45-26v-60c32-9 77 0 109 8l13 52c-26 17-26 17-26 43l26 17v-43l32-17c-7-26-20-26-20-69 71-43 179 35 224 86 64 9 51 9 102-26 45-25 51 0 83-43 58 9 45 9 96 35-6 34-19 51-6 77 25-8 6-8 32-34 25 8 25 8 38 34-38 43-64 52-45 121h-57c0 34 25 60 0 94-19 26-45 43-39 77l26 9c45-60 51-77 57-146h58c0-77-45-77 38-146 0-52-32-52-64-78-51-25-19-25-95-51 6-43 12-35 44-52 19-69-12-180-38-241-51-111-64-103-57-240-39 17-39 68-32 103-45-26-20-52-71-52 19 69 71 78 96 146l45 78c19 51 70 215 0 215l-19-43-19 34c-58 0-39 0-58 9 32 43 38 8 83 34-45 9-32 17-83 9-26-26-77-121-109-129 0 43 83 120 90 155-96 86-160-104-332-69-90 26-109 26-179-26-26-26-45-52-64-60-19-9-51-26-77-43 7-52 58-78-19-95 0-69-19-43-83-69 19-43 26-25 51-43-57-25-127 0-166-43 13-8 0-8 26-17 19 0 38 9 64-8 25-9 25-43-7-61l-32 43c-57-8-19-25-83-25-96-9-83-61-153-78-45-8-58-17-64-60 121 17 58 17 198 9 90 0 128 34 185 34l-25-86c57 9 19 9 57 17 19-26 19-60 51-77 39-17 90 0 122 0-19-52-51-9-58-78 39-17 51 9 166-8 26 17 26 34 58 34l-19-51c32-18 76-9 108-9l32 52c26-9 19-9 32-35 58 0 26 9 64 26v-9s6 0 6-8l7-9s0-8 6-8c58 8 38 25 58 68l83 9c32 26 25 52 76 60 19-8 64-43 90-51 51-26 76-35 127-26-19 26-38 26-51 51-25 43 0 26-25 43-64 69-26 112-147 121-6-26-6-52-26-60-6 43 13 60 51 77 128-9 83-77 135-112 57-34 19-43 51-77 38-35 64-9 76-60-108-86-230 77-306 60-45-69-13-43-102-60-45-78-45-78-154-61-57 9-128-25-198-34l-19 43c-140 9-211-26-211 77-32 9-64 26-89 61-58 17-77 0-77 77-108-17-274 0-313-26-57-26-13-51-70-51-13 103 45 129 64 146 121 26 64 77 236 94l-32 52c26 34 77 43 122 43l-7 52 70 17c-31 60-76 60-51 180 13 69 0 129 45 190 102 137 96 34 121 232 7 51 20 34 52 60 12 69-26 86 44 155 7 68-19 86 0 146s45 77 51 146c-32 17-70 17-70 52 38 8 19-18 70-9l-6 103c-51-26-128-155-268-26-173 147-313 129-371 215-51 78 13 52-76 112-51 35-224 138-237 181 64-17 102-69 173-103l32-18c32-25 38-34 76-43 64 52 7 78 269 112 83 9 178 9 255 26 38 9 51 17 83 26l-25 60c-135 9-709-60-773 0l268 17c140-8 307-8 447 9 6 17-6 26-25 34l-467-34c-57 34-51 8-198 8-191 0-159 9-204-60l-38 17c-45-8-7-17-71-25 13 51 19 43 71 51 51 9 38 17 70 35 64 34 83 43 108 120 13 60 20 112-32 163-44 43-95 61-127 95 19 52 70 17 108 26 64 8 115 8 173 8-19 78-134 43-122 215 20 250 486 112 301-129-39-43-77-43-77-77h185c7 69-70 86-38 138 45 8 108-35 153-52 51-26 128-26 147-77l211 17v60c-58 9-109 17-147 69-32 51-32 112 6 163 71 95 256 69 275-51-13-43-6-18-13-69-6-26-19-35-38-52 6-69 25-129 32-198 6-94-19-146-26-215 51 0 275 18 300 0-44-51-364 9-447-43l19-34c52 17 26 17 96 26l320 8c32 0 12 0 25-8-38-17-357-35-415-35 13-25 32-25 64-43 57 35 204 26 281 26h77c44 0 12 0 25-8-19-26-134-18-172-18-39 0-141-8-179-8 25-43 38-26 89-26l288 17c-7 95-109 250-109 327-13-9-6 0-19-17-38-9-147-17-173 0 20 34 141 17 186 17-7 43 0 43-32 52-7-18 6-26-13-35h-70c-39-8-39-8-58 17l-13 9-25 9v60c185 8 179-35 115 146-38 103-153 378-147 447l109-9c57-86 153-498 198-558h95l-6-43h19z"/>
 <path class="fil0" d="m4424 7979c12-8 12-17 57 18-19 25-6 17-38 17 6 34 0 34 0 34l-19-69zm0-103l70 17c-13 35 0 9-26 26 13 35 7 9 20 43-52 0-45-8-77-26l32-25-19-35zm19-34l32-17v-43l6 77c-32 0-25 0-38-17zm-345-121c0-8 13-8 6 0 0 9-6 18-6 0zm38-25c32 0 26 0 45 25-6 0-6 18-32 0-6 0-13-17-13-25zm709-43c0 8 7 0 7 17s-7 8-13 17c-38-17-32-43 6-34zm-632-26c-13 34 13 26 0 69-32 0-26-43-26-52 13-26 0 0 26-17zm390 0h19c12-35 6-26 25-35l13 35c-26 8-26 17-57 0zm-243-103v77l-39-9 7 52c-19 0-19-17-51-17-7 60 6 0 6 43-45 17-51-35-45-78 45 9-6 9 45 18-6-95-6-61 77-86zm364 103l6-17 7-26v-9l44 26c-38 9-25 0-32 26 32 43 39-35 32 51h-32l-19-34-32 26-38-17 13-9c32-26 19 9 6-26-13-51-25-34-19-60 32-17 26-9 51 9-6 34-13 0-13 25-6 35 13 35 26 35zm-121 0c-39-9-58-26-83-43 31-26 25 0 51 17 25-17 6-17 0-52l63-8c-12 43-31 34-31 86zm-1687-181c39 26 7 35 71 43-13 26-7 26-32 43 12 35 6 17-7 52-6 26 7 43-19 60l-13-43 19-17-31-17-7-43 32-18c-6-43-25-25-13-60zm3143-34c0 34 6 26-7 51-19-8-31 9-12-25 0-9 12-18 19-26zm-371 17c-12 43 20 26-25 26l25-26zm307 0l13-60c32 0 0-9 38 8 0 43 32-25-6 9l-45 43zm-3060-34c32 17 32 8 39 51-45-8-90-26-32-112 6 9 25-8 13 35 0 0-13 17-20 26zm2792-18c0 35 6 35-7 52h-19c-6-9-6-9-6-26 0-8 6-17 6-34 45-17 13-17 58-17-7 25-7 17-32 25zm-2977 18c-19 8-13-9-44 8l25 26c-57 60 13 26-38 60v35c-32 8-39 0-32 34h-45v43c-38 0-25 9-45-26 13-43 7-34 45-51l-6-52c38-34 19-17 64-34 6-61 57-78 102-112l-26 69zm3187-86c39 0 58 0 77 25-38 35 13 35-51 43-13-34 0-25-26-68zm-31-18c0-8 6-8 6 0-6 18-6 9-6 0zm-377-86l32 35c-26 0-39-9-32-35zm204 18c6 8 6 8 6 8l20 9-13 17c-19 9-7-9-19 9 25 34 25 0 32 51l-64 17c6-60 6-8 13-51 0-17-7-43 0-60 19-18 12-26 38-26l-13 26zm-1213-138l6 9c38 34-19-18 6 8 26 17 51 9 83 43 71 60 39 181-38 103-38-34-6-60-57-51 0 51-7 26-20 60 0 0 51 120-12 189-20 17-26 17-58 35-19-26-64-52-45-164 13-86 7-34-6-51-19 8-83 94-83 111l-45 9-19-26c-6-86 13-163 77-215 44-51 70 9 211-60zm977 9c13 0 19 0 38 43-32 0-38 0-38-43zm-2772 25c25-17 25-34 25-60 51 0 45 0 83 26l-6 43c45 0 13-17 51 9-13 34-13 8-19 51l-77-8-6-35-45 9c-70-69-57-35-64-112l58 9c0 25 0 17-7 34 0 34-6 9 7 34zm3117-43c19-34 134-68 172-68 102-9 115 25 205 43-13 34-122 60-167 60-57 8-159-9-210-35zm-1948-86l25-34c77 0 262 26 300 86 19 26 58 52 64 69-19 26-32 34-51 60-32 43-140 172-192 172 13-112 71-77 77-155-38 9-96 95-198 60-13-43 51-51 77-120-51-69-109-43-102-138zm300-111c51 0 96 25 134 51 64 43 38 86 70 129 26-17 38-69 96-120 70-60 38-69 153-78l-89 147c-83 86-217 120-307 34-32-34-19-34-32-77-6-43-19-43-25-86zm511-61c51 0 51-25 96-8l6 60c-26 17-26 34-51 52-32 17-45 17-45 51 77 0 83-103 185-69 20 26 26 9 32 61-32 25-57 51-96 60-57 8-89 0-140 0v34l96 9c-13 17-32 43-45 60l6 43-70-9c-38-51-70-77-140-86 12-17 32-34 51-51 32-35 19-43 38-69 51-86 96-69 102-103-70-17-121-17-159-103 44-43 83-69 140-52l13 69c-26 17-26 17-19 51zm-511 155c-77-8-109-51-173-60 0-77-44-120 32-198 45-51 128-17 160 35-19 34-51 68-51 103 6 43 32 69 32 120zm-2095-112c6-34 25-60 44-94 45-69 13-26 71-69 12-9 25-26 96-43 31-9 70-26 102-17 6 26 6 17 0 43l-39 8c-6 69-6 52-108 112-19 17-134 52-166 60zm2267 18l-25 25c-13-8-20 9-13-43-51 18-58 43-115-25l-13-9c19-43 38-69 90-69v9l25 17c13-17 6-17 6-60-51 0-89 17-121-35-25-43-19-86 19-120 39-26 71-17 109 9 51 34 32 77 32 111 51 9 45-17 96 9-7 34 0-9-20 26 32 17 13-9 45-9 45 52 0 0 0 43 19 0 13-8 32-8l19 17c-19 43-19 8-32 51l58-17 19 43c-26 9-96 43-96 60l-51 9 13 43c-38-9-26-9-45-34-25 0-6 0-38 8 0-34 6-17 6-51zm102-344c58 8 83 68 83 120 7 17 0 17-19 43-32 0-64-26-96-34-12-61-25-95 32-129zm-1897-26c45 43 7 8 26 69 0 8 6 25 13 25 6 52 0 18-7 26-51-17-51-77-32-120zm435 34c32 0 12-8 25 17-44-8-13 0-25-17zm1162 17c7-34-13-25 32-34-19 52 0 26-32 34zm-1303 9c-6-17-6-9-6-34 6-35 0 0 13-18 44 35 51 61 115 78 6 26 6 34 38 51-7 35-13 35-7 69 39-17-12 17 20-8 12-18 0-18 19-35s6 17 25-60c-32 9-6-9-25 26-19-17-32-43-39-52 32-8 39-17 39-17h6s19 17 19 26c13 8 7 0 20 17l-7 43 45-9c19 61 13 18 25 52 20 26 32 172 32 198h-44c-20 51-160 94-198 94-45 0-64 18-77-25l51-9v-34c-83-18-70-18-140-52-90-43-115-26-141-43 32-43 96-34 141-52 0-68-147-86-154-223 32-9 32-9 71 0l6 34 51-8c32 68 51 51 83 68 19 9 0 9 32 18 6-26-6-43-13-69 13-17 7-17 26-26-19-34-13-17-26 0zm1239-69v35c-25-18-12 0-25-26l25-9zm-1967 0c13-8-19-8 19-8 51 0 13 0 19 8-19 9-19 17-38 0zm-109 0c45-8 45-17 84 0 0 60 6-8-58 69l-6 9-39-18 13 35-32 8c-19-34-13-43-38-51 6 43 13 43 0 77-58-8-19-17-26-51-51 25 7 60-64 51-12-43-6-26 20-51 32-26 51-61 134-69l25 26c7-18 13-18-13-35zm3916-60c32 0 13-9 25 17l-25-17zm-1891-69c7 17 19 0-6 26 0 0-13-9 6-26zm-568 35c13 0-7 8 19 0l25-9c7 34 39 26 64 17 13 43 45 35 64 60-6 43 0-8-19 26-19 26-6 26 0 35l26-43-7 68c-32-17-51 26-57 43 19 18-19 18 19 9 32 0 51-69 89 9l26-18c-7 69-45 129-70 181-71-9-7-9-64-26 0 52 6 9 13 52-58 8-122 17-173 0-45-26-96-60-102-112 45 0 89 9 128-9-26-77-96-34-122-103-6-17-13-43 0-60 77-17 122 43 147 17 19 9 19 17 51 17-13-34-6-25-38-25 6-26 6-18 13-52h-39c0-60-25-86 13-129l26 26-19 8s-7 9-13 18zm-946 17c20 34 20-9 13 51h-6c0 9 0-8-26 18l7 43c-39-9-77-104-71-129 7-18 7 0 13-18l13-34c32 9 13-17 38 17l39-8c-7 43-13 25-20 60zm2824-26c32 26 6 0 19 26-13 26-32 34-19 69 44 8 44-18 51-61 19 0 6-17 32 18h-7l-25 8c-7 52-32 86-64 121-64 68-7 51-109 60v-35c32-8 13 0 19-34l-51 17c0 43 13 35 19 60-44-17-57-120-19-163l39 34c-13 35-7 43 32 52 19-43 0-43 32-120 12-26 38-86 63-95l-12 43zm-1259 103l-6-26-32 18c-19-35-19-18-19-61 51-51 57-8 25-77l64 26c-32 17-19-9-32 26l45 25c38-8 13-17 45-17-7 60-13 43 13 69 0 9-7 9-7 9l-25 8c-20 17 12 9-20 26-38-17-12-9-51-26zm-76-163c25 17 19-9 19 17-7 17-7 9-13 17l-6-34zm-1591 8l39-8c-7 17-20 51-39 8zm3028 61l-26 8c-6-51 7-60 39-86 38-34 32-51 83-51-20 94 32 120 6 197-13 26-19 9-26 43l58-8c-6 34-32 112-89 137-32 18-39 0-45 35 57 8 89-17 134-17 0 51-58 120-153 120-77-9-134-86-109-138 32-60 249-258 160-326-58 111-19 43-32 86zm-3028-121c0-34 0-60 13-86 13 17 13 9 0 52l32 8c-6 18-6 18-6 35 57 8 44 0 63 43-38 0-6 8-63-17l-39-35zm-255-43c0-43 0 0 19-34 0-9 0-26 6-43l32 8-13 78-44-9zm-7-94c7-35 0-26 20-43 19 25 19 25-20 43zm4836-69c6-34 6-34 38-43-7 34 0 26-38 43zm-626 155c-7-35-7-9 6-43-45 0-19 8-38 0-20-43-26-155-20-207l39-8c6 8 6-9 6 17v26c58 34 45 34 32 60 19 9 19 0 26 26-32 25-77 8-83 51 25 17 19 9 51 17 19-34 13-25 44-43-6 43 7 26-25 52 6 43 13 17 13 60-32-26-7-17-51-8zm517-146h-32c-26-26-13-26-57-26l-13-43c57-9 70-26 140-17l13 25c32-17 6-8 45-8-13 34-26 43 0 69l-58-18-13 26-19-8h-6zm-5238 8c7-34 7 0 13-43-6-8-6-8-13-8l-12-9c-7-9-13-34-13-43 25 17 51 26 64 52 76-9 57 0 76 25 39-17 83-8 109 26-6 26-13 0-6 34l32-8c25 26 31 43 44 77 19 35 13 26 0 69 19 9 7 0 39 0-39 69-45 60-71 26-44 17-76 8-89-35-26-8-26-8-45 0-19-34-19-17-25-60l-64-34s6 0 6-9c6-17 6-8 6-43l-38 17-13-34zm4925-146c6-43 0 0 13-43l-39 17-19-26 13-51c-19 8-13 0-26 26l-25-95 19-9 6 35c39 0 13 17 39-17v43c32-18 6-18 38-9 7 9 7 9 13 17l13 26c6 26 0 34-7 52 39 25 13 0 26 34l-32 17-32-17zm-109-249c-32-26-32-43-83-35 0 69 26-8 58 78 13 34 19 68 32 103 13 69 64 120 121 155 90 51 51 77-19 146-51 51-77 120-141 137 13-60 64-146-12-275-19-34-128-155-160-155-19 26 19 61 26 104 6 43 6 111 6 154 0 146 64 112 102 215-19 35-108 86-147 112 0 0-6 0-6-9l-7-8-6-9c-6-17-134 26-147 35-45 17-32 68-96 34-6-43 20-43-12-86-20-26-109 9-122 77l58-25 25 25c32 43 7 35 71 43l12 35c58-35 58-112 173-103 13 60-39 137-77 172-13 17-6 8-19 17-19 17-6 0-19 17l64 34c-7 18-71 61-83 69-39 17-103 0-135 35 39 25 45-9 84 8 19 0 38 26 38 43-32 17-70 17-109 26-159 52-211-103-115-146 64-26 115-69 173-95 64-26 96-77 153-94l6-43c-44 25-32 43-89 25 0 61-13 43-51 78l-26-17c-12 0 7 0-12 8-13 0-20 0-39 9l19 26-25 17c-19-9-13 0-26-26l-19 9c7 25 7 25 19 34-83 26-210 129-185-43 32 9 6 9 32-9l-26-17 26-26c0-43 13-111 51-129-6 35-19 26 7 52-32 9-26 0-20 43 71-9 45-103 32-155-57 9-89 112-108 155-71 129-13 155 6 215-115 69-568 215-703 206 0-25 39-43 64-68 58-43 154-164 211-181 45 206 332 95 332-43l-57-17c19-60 70-103 70-164l-51-8c19-69 0-60-6-121-7-43 6-94-13-137-45 8-13 8-45 26-51 51-51 8-121 111l-39-34c-63 26-89 103-108 163-45-8-26-34-83-34-39 52-77 267 76 232-32 43-255 258-300 275-32-68-38-86-115-86-19-94 0-77-89-94-7-35 13-86-45-103-57-18-83 17-128 34 7-77 7-138-63-181-96-68-90 0-128 61-32-9-19 0-32-35-64-8-32-26-115-26 0-103-19-137-109-172-76-34-153-86-185-68 13 34 38 25 51 77 7 77 0 146 70 198 26 26 58 26 83 43l-6 60c-64 26-115-17-160 95-51 129 7 120 32 180-159-8-121 26-159 26-51-17-173-103-186-146 39-60 109-155 90-241l-51-9c-26-60 6-120-71-189l-89 9c-6-17-19-26-26-43-12-17-12-26-25-52-45 0-51 35-64 78-13 68 6 68 13 137l-160-26c-6 18 7 95 7 112 12 52 38 43 57 86l-45 17c-12 61 58 112 109 138 83 43 134 9 223 0 39 86 198 155 211 163l-6 43c-64 18-236-51-326-51-57 0-255-52-306-78 0-34 6-43 6-77-6-52-32-163-58-198-25-43-134-146-185-137-13 25-6 43-19 60-38-26-64-69-109-78-51 43-25 61-19 121-44-9-57-52-102-69-45-26-89-17-140-26 0-86 38-103-20-198-12-17-89-137-95-137l-7-60h-25c-90 129-32 258-26 309 0 35 0 35 13 60 13 26 19 43 32 52 25 26 19 9 25 52-38-18-159-78-178-104-13-94 38-60 31-154 0-52-19-112-63-121 0 43 12 26-7 69h7l19 17c13 9 0-17 13 17 6 43-13 69-39 104v-35l-38 9v-52c-26-17-19 0-38-26 38-43-32 18 12-8 26-17-19 0 13-9h19c7-26 0-34 13-60 6-43 0-17 32-43-6-26-58-137-83-146-96 34-70 232-19 309 13 18 19 26 32 43 25 35 6-8 12 43-95-25-191-129-223-223-58-146-109-163-243-198-128-34-140-112-179-112 0 35 26 155 39 198 6 34 70 120 95 138 237 189 282 86 339 111 51 52 128 86 166 129-121-8-198-34-319 35-39 26-166 146-160 198 26-9 51-35 89-35 186-34 58 43 275-94 160-104 141-69 256-26 32 8 57 17 76 51-76 0-223 43-274 95-90 103-45 60-96 146-19 26-58 26-51 60 38 18 172-43 217-60 255-103 211-241 326-198 127 52 102 61 140 78 19 17 19 0 45 26-45 25-179 43-166 111 32 9 185-8 287 86-13 35-19 9-13 52 45 26 141 17 192 0 26-9 121-52 141-69 44 0 76 17 127 35 109 17 307 43 390 86-38 86-121 34-160 17-89-35-115-43-198-9-32 9-57 9-76 43l12 35-127 17c25 0 57 8 70 17 83 0 32-43 121 17-19 35-13 0-25 43l57 17c13-25 7-8 7-43h38c6-25 13-34 6-60l-32 26c-38-26-76-26-95-60 31 0 6 8 31 0 0-52 0-17 13-35 0 0 122-43 154 9v17l57-8 6 34 32 9c-19 25-89 60-127 77-45 26-83 69-135 43l-12 17s-7 17-7 26l-38-9c-19 26-13 35-45 35l-19-35 58-34-26-17c13-17 26-17 6-35l-38 18c-25-18-32-26-45-43l-185 17c-25-26-25-17-45-35-12-8-25-34-31-43-45-68-52-25-103-68-38-26-185-69-249-43 13 43 45 25 77 86 32 60 128 129 198 120 45 0 96-26 134-9-6 18-294 78-402 310-71 155-13 155-109 189v60c109 18 77-60 147-120 38-26 115-69 140-112 32-69 26-137 71-189 64-60 51-86 159-103-25 86-102 86-108 258 0 60 38 232 108 241 20-52-19-69 20-138 19-34 31-86 31-129-12-60-57-189 0-249 45-18 71-26 122-9l64 34c-7 26-19 43-32 61-19 25-90 129-90 154 103-8 198-51 243-60-6 52-25 43-25 112 146 0 108-86 198-103 12 17 19 43 38 60l38 43c39-17 0-26 45-77 38-52 45-112 45-181 0-43 6-69-39-69-19 78 19 198-57 258-51-17-39-69-51-112-45 9-39 61-83 95-45 34-39 43-96 52 6-35 25-69 13-104h-51c-39 43-96 35-147 35 0-26 25-69 51-69l-13 26c38 8 70-17 109-35 31-17 63-34 95-51 71-35 115-60 179-95 115-77 141-137 294-112 38 9 57 35 89 43-57 61-83 112-83 138 32 43 83 34 135 26 0 43-13 60 0 103 83 17 134-77 185-112 0 52-13 103 38 138 51 34 70-9 109-26l38 95c-77 0-134 60-179 111-89 104-77 69-185 95-6 43 57 77 96 77 76 9 230-77 242-103 13-26 64-86 77-103l13 52c0 43 25 68 19 111-26 52-83 138-83 207 0 43 13 86 26 129 12 43 0 77 12 103h26c32-95 89-163 89-258 0-103-57-249-57-301 102 34 147 86 274 112 45 8 224 26 250 51 25 26 6 43 51 35 0-43-13-69-64-86-70-26-134-103-192-146-38-26-38-26-76-43-128-52-205 68-269 0 26-61 122-18 109-224 121 26 121 17 128-95 83 18 95-8 102-86 25-17 32-25 38-51 58-26 64-35 109-60 76 17 262 34 306 86-134 51-147 34-127 249 31 0 57-9 83-26 44 43 51 181 140 181v-103c128 120 83 60 141 94 19 9 6 17 38 26 64-77-6-129-13-189 45-17 51 8 102-43-6-86-38-60-64-112 20-26 39-34 39-77-64-35-281-155-300-18 44-8 38-34 95-34 39 9 64 9 96 26l7 51c-26 26-32 26-32 69 38-8-7-8 44-8l32 103c-25-17-6 8-25-35-19 18-32 18-58 35l19 34c-12 43-6 52 7 86 13 9 6 0 32-8 6 34 13 25 6 60-25 0-70-26-96-43-44-26-51-60-70-69-32 9-32 52-45 69-64-52-44-138-44-189-51-9-32 25-51 51 0 0-7 9-13 9-19 8-7 8-26 8-19-34-19-86-6-120 32-43 57-34 108-34l13-26c51 43 77 94 109 163h57c13-60 39-43 19-69-38 18 13 26-51 35-6-60 7-9 7-52l-26 26c-108-267-377-181-421-232 70-9 166-9 236-26 77-9 147-52 217-34 121 17 268 137 358 146-70 137-39 60-109 137-45 61-13 112 0 181l-32 43h-64v43c39 34 115 43 154 9 38-26 51-35 64-86 12-78-7-190-7-276 19 26 83 172 141 258 32 43 57 69 89 112 26 35 64 78 109 69 0-34-13-43-19-77-26-86 12-129-96-190-51-17-83-25-134-60-20-17-51-103-58-137 38 8 90 34 134 43 109 25 332-35 352-129-45 0-52 25-109 0-160-52-179-35-339 17-115 43-210-52-313-95-31-17-70-26-95-43 51-26 306-120 313-112-26 78 38 129 115 138 38 9 70-9 108-17 51-17 70 0 115-17 7-43-6-43-19-86 51-35 77-52 134-86l-64-61c13-25 39-51 58-86 13-25 25-68 44-86l167-103c44-17 102 78 159 86 39 9 96 9 128 17 45 0 89 9 109-34-45 9-32 17-77 17-38-8-13-17-58-17-32-9-108-9-140-17v-52c-38 0-32 9-51-8l44-26c20 17 39 34 58 43 6-35-13-9-13-43 39-9 19-9 51 8l26-17 32 35c38-18 6-9 38-26 26 17 0 0 19 26 7 8 13 8 19 25 32 0 26-8 52-8 19 43-20 8 12 69 39 17 32-9 64 17 19 17 19 34 51 8 0-25-51-68-76-86-39-25-45-43-96-68-45-18-166-26-217-9-39 9-32 9-77 9 13-18 6-9 19-26 45-43 179-215 211-232 77 0 140 77 230 68 45-8 96-25 128-25 64 0 51 34 102 34 0-34 0-34-26-60l-32-43c-57-9-198-120-345-17l13 26c-45-18-45 0-83-26 32-146-76-241-185-301-6-9-19-17-26-17z"/>
 <path class="fil0" d="m4398 5107c70 17 32 86 268 35 58-18 7 0 39-26 83-69 396-103 517-52 121 52 109 26 230 26 58 0 172 0 211-43 57-77 32-232-7-318-12-26-12-26 0-60l20-35c95 17 121 224 249 155 6-52-45-120-102-129 12 60 57 26 70 95-64 0-32 0-70-35-26-26-32-8-58-51s-70-86-121-86c-20 120-26 68-32 94-19 43 96 172 19 361-45 18-281 26-332 18-32 0-83-35-128-43-134-26-326 17-441 51-89 35-147 86-262 52l-12-43c-141-9-103 51-160 94-58 9-77-34-166-25 32-52 160-121 223-138 52-17 96-17 147-26 51-8 77-34 128-43 249-34 153 43 466-34 103-26 109-9 109-52l-153 26c25-52 64-26 76-60-19-17-89-9-96 77l-210 9c25-35 38 0 44-52-32 0-51 17-70 35-70 17-160 25-223 34-45 17-51 34-96 43-32 0-64 0-102 9-103 17-218 86-281 163-20 26-20 9-13 43 57 17 70-9 115 0 57 26 70 26 134 26 19-43 32-78 70-95z"/>
 <path class="fil0" d="m4194 2269c51-8 134 86 179 35 38-60 38-172 89-155 26 60-70 129-51 206 51 35 109 26 115 86-70-17-83-43-160-34-13 34-51 146-89 155-7-60 57-112 57-198-44-26-140-34-140-95zm147 26c-51-8-103-51-160-51-26 25-19 25-26 60 32 34 96 51 141 77 6 52-58 155-58 215 77 60 90-17 141-129 13-34 0-26 26-43 44 17 83 52 134 52 32-26 38-43 25-86l-121-52c-7-69 64-129 57-206-115-86-115 112-159 163z"/>
 <path class="fil0" d="m6921 5615h26l-7 51c-32 0-13-8-44-8 0 43 0 17 31 43-12 34-44 68-51 103l-32-17 7 51c-13 0-19 0-26-8-6 0-6 0-19-9 0 43 19 52-19 69 6-86-6-189 57-258 39 0-6 8 39 8l-7-34c32-34 7-26 58-26-19 26-26 17-13 35zm-211 412c71-34 83-94 109-120 64-60 153-181 166-267 0-51 0-146-32-189h-26l-25 60c-6 18-19 35-38 52-26 26-51 43-71 86-57 120-38 163-38 292-32 43-45 35-45 86z"/>
 <path class="fil0" d="m4781 6629c-6-43 20-103 45-137 58-95 58-26 102-86 26 43 19 0 32 43-70 25-25 17-89-9 13 52 32 43 76 43v43c-19-17-44-26-70-26 7 26 13 26 26 43-58 43 32 26-83 86-7-51-13-17 32-34l-13-17c-45 8-58 51-58 51zm230-284c39-17 45-25 51-60-51-8-198 103-230 138-38 51-127 189-70 258 19 0 77-35 102-43 32-17 58-43 83-69 52-60 52-146 64-224z"/>
 <path class="fil0" d="m6033 4479c64 9 115 18 173 35-7 43-13 26-7 77-25 9-32 0-44 26-7 9 0 9-20 34-44 0-25-17-76-17 6 35 13 26 32 52l-13 34h-64c-83-103-108 52-38 69l-7-52c64 18 26 35 122 18l25-52 45-9 19-68h70c0-43-12-35-12-61-13-43 6-34-19-86-45-17-58 0-90-17-38-17-51-17-96-8v25z"/>
 <path class="fil0" d="m4462 4591l-77 17c0 18 51 69 71 112-26 26-58 60-96 78-64 34-109 25-147 43 25 68 153-18 192-35l19 17c51 9 38 9 83 26-7-17 0-26-26-43-13-8-25 0-51-17l51-52c-25-34 13-17-45-103 45-17 39-26 71-60-19-52-58-146-128-138 6 35 77 43 83 155z"/>
 <path class="fil0" d="m4839 4385c-19 137 121 249 153 284 32 43 109 86 160 120 32 26 108 77 153 69 0-35-19-35-57-52-26-8-51-26-77-43-121-77-166-112-249-223-19-26-70-138-64-164l-19 9z"/>
 <path class="fil0" d="m2884 3327c58-17 51-69 141-77-26 26-7 17-38 26-13 8-7 8-20 25 58 35 39 35 77 26v-43h32c13 35 6 26 6 60l-89 18c-19-18-26-43-51-26 32 51 83 51 140 26 39 8 45 17 96 17-6-52-32-35-64-78-44-60-51-17-89-51l102-9c19 17 13 26 45 17v-25c-83-26-262-9-288 94z"/>
 <path class="fil0" d="m4737 1220c32-8 121 18 134 69-45-8-115-34-134-69zm-51 0c12 52 172 129 204 104 26-18 26-35 19-61-38-68-166-137-223-43z"/>
 <path class="fil0" d="m5593 4187c38 9 31-9 76 69 7 17 90 155-13 163v-8c-6 17 0-18-12-43-64 17-7 86 57 77 51-52 38-129 7-189-13-35-32-52-52-78-32-43-12-60-38-94-25 26-13 17-25 69v34z"/>
 <path class="fil0" d="m4302 4454c-32 17-64 17-95 34 12 43 63 26 89 9 45-26 38-61 32-104 45 0 70 18 96 9 6-34 12-17-7-52-38-8-64 18-102 35-19-35-77-86-115-86 0 51 26 34 58 69 51 51 25 51 44 86z"/>
 <path class="fil0" d="m4226 4892c6 26 6 26 25 35-51-18-159 8-179 25 39 35 64 0 103 0 38-8 38 0 83 0 32-8 19-17 51-25 44 8 140 34 153-35-51 0-57 26-121 9-45-9-64-26-115-9z"/>
 <path class="fil0" d="m4679 5417c-45 0-19-9-38 17 38 17 166 17 217 17s153 26 198 0c-32-43-160-26-204-26l-173-8z"/>
 <path class="fil0" d="m5503 4875c70 0 128-146 51-181-19 35 32 104-32 129 0-43-6-120-51-137-13 26 7 51 13 86 6 43 0 77 19 103z"/>
 <path class="fil0" d="m4654 5391c25 17 19 17 51 17h51c51 0 255 26 294 0-39-26-147-26-192-17l-153-17c-45 0-32 0-51 17z"/>
 <path class="fil0" d="m4494 5425c-32-25-364-34-390-25 26 34 39 17 83 25 58 0 275 26 307 0z"/>
 <path class="fil0" d="m4123 5529s0 8-6 8c19 0 13 9 51 9l160 8c121 9 179 26 179-17-71-8-134-8-198-8-32 0-64-9-96-9s-51-9-77 9h-13z"/>
 <path class="fil0" d="m3204 4411c32-18 96-61 64-104-20 18-13 43-39 61-19 25-32 8-51 34-6 34 0 26-13 60-108 35-102-51-147-77 0 0-25-9 7 60 25 60 121 43 179 34v-68z"/>
 <path class="fil0" d="m4187 5296c-115-8-83 0-95 18 31 8 364 25 396 17-7-35-52-17-90-26l-211-9z"/>
 <path class="fil0" d="m2846 6741c-13-17-32-26-51-26 6 52 230 164 287 164 0-9 13-26-57-43-45-9-32-18-70-26 6-26 12-35 0-52l-26 26-51-26c6-26-6-8 19-34-25 0-25 0-51 17z"/>
 <path class="fil0" d="m5037 5339c-32-8-377-25-403-17 7 35 52 17 90 26h115c45 0 179 34 198-9z"/>
 <path class="fil0" d="m5235 5572c32 25-7 8 38 25l122 9h83c89 0 63-9 76-26-44-17-262-8-319-8z"/>
 <path class="fil0" d="m4430 5597c-64-8-223-34-243 0 13 18 0 18 77 18h77c51 8 108 17 159 8-12-34-32-26-70-26z"/>
 <path class="fil0" d="m5414 4058c25-8 12-8 38-17 51 26 58 94 89 103 7-34-12-60-25-86-32-51-38-43-77-60-25-43-13-60-76-69 12 60 12 9 38 52 13 34 0 43 13 77z"/>
 <path class="fil0" d="m3951 5529c-32-26-345-35-358-18 13 18-12 18 39 18l230 8c76 0 63 9 89-8z"/>
 <path class="fil0" d="m4366 6879l45 17c6-43 13-17-13-43 0-9 19-69 19-78l-25-60c-26 17-51 35-58 69 39 43 32 17 32 95z"/>
 <path class="fil0" d="m4181 4703c38 43 166-17 179-138-45 0-45 43-77 78-38 43-76 26-102 60z"/>
 <path class="fil0" d="m4813 5632c-38-9-115-35-147 0 7 8-12 8 32 17h115c83 0 147 26 160-9-32-25-115-8-160-8z"/>
 <path class="fil0" d="m3561 6655c-6-60 7-9 7-60-26-17-13-9-45-9-32 60 45 155 83 164 0-61-32 0-6-104-39 0-19 0-39 9z"/>
 <path class="fil0" d="m3964 4101c6 26 0 17 13 52 76 17 38-18 32-35 0-8-7-26-7-43-38-8-89-51-121-43-13 43 25 26 83 69z"/>
 <path class="fil0" d="m2418 5451c-38-8-77-8-115-8-13 43 64 34 102 34 45 0 103 9 134-9-12-25-19-17-57-17h-64z"/>
 <path class="fil0" d="m4443 4110c-32 25-45 43-26 77 32-17 77-77 39-146-26-34-13-26-51-34 0 17 6 34 6 34l32 69z"/>
 <path class="fil0" d="m4507 5649c-39-26-122-17-179-17-64-9-38 0-51 17 32 9 76 9 115 17 64 0 89 9 115-17z"/>
 <path class="fil0" d="m5280 3955l-32 26c0 34 12 43 51 51-7-51 51-154-39-163 0 52 20 34 20 86z"/>
 <path class="fil0" d="m5030 4256c-12-52-44-164-108-164 0 26 32 52 45 86 19 43 6 78 63 78z"/>
 <path class="fil0" d="m3625 5572c19 8-6 0 32 8l96 9h70c77 17 51 0 64-9-25-26-230-26-262-8z"/>
 <path class="fil0" d="m5312 5649c12 17 76 17 108 17 51 0 83 9 115-8-19-26-198-35-223-9z"/>
 <path class="fil0" d="m3140 4024l-13-52c32-17 32-8 32-26l-89-8c-13-35-20-43-52-43 7 34 20 51 52 69 57 34 12 43 70 60z"/>
 <path class="fil0" d="m3945 3955c0 34 12 26 51 34 13 43 19 61 70 52-6-43-32-26-13-69-44-17-51-17-108-17z"/>
 <path class="fil0" d="m4947 3921c-12-43-70-121-127-121 6 35 32 26 51 69 25 43 13 52 76 52z"/>
 <path class="fil0" d="m4775 3903c-6 43-32 69 6 78 7-17 26-78 26-95-32-17-83-26-109 0-38 35 71 17 77 17z"/>
 <path class="fil0" d="m4641 4428c77 51 64-103 57-121-57-8-12 26-57 121z"/>
 <path class="fil0" d="m4002 5030c7 43 58 34 96 26 83-26 70-43 77-61-45 9-52 26-83 26-39 17-52 0-90 9z"/>
 <path class="fil0" d="m5414 4282c19-26 51-190-13-207-6 52 19 52 13 112-7 34-32 69 0 95z"/>
 <path class="fil0" d="m5216 4299c32-9 6-17 44-43 52 103 7 94 39 112 51-69-45-129-64-147-19 26-32 52-19 78z"/>
 <path class="fil0" d="m5522 4359l-12-112c-7-34-32-51-64-60 6 52 38 17 38 77 0 52-6 78 38 95z"/>
 <path class="fil0" d="m3670 5606c13 26 102 34 134 34 51-8 26-8 38-17-38-26-134-26-172-17z"/>
 <path class="fil0" d="m5644 4557h38c19-26 19-43 13-69-39 0-7 0-39 34-38-17-12-34-57-34-6 34 19 52 45 69z"/>
 <path class="fil0" d="m4002 4720l-13 86c26 0 26 9 39-26 19-43 0-103-58-111 7 25 7 34 32 51z"/>
 <path class="fil0" d="m4053 4282v-26c-25 0-44 0-64-9-38-17-6-26-57-17 6 52 77 77 121 52z"/>
 <path class="fil0" d="m4002 4565c26 43 58 0 64 112 26 0 32 9 32-26 6-51-64-111-96-86z"/>
 <path class="fil0" d="m3012 5486c13 17 0 17 45 17h108c45 0 32 0 45-9-13-17-172-26-198-8z"/>
 <path class="fil0" d="m3376 4531c7-43-6-52-6-103 0-60 25-52 0-86-26 34-45 163 6 189z"/>
 <path class="fil0" d="m5522 4600c19-17 7-35-6-86-13-26-13-60-38-86-13 26 19 155 44 172z"/>
 <path class="fil0" d="m5586 3499c102 9 58 17 90 35 32 0 32 0 51-18 0 0-134-86-141-17z"/>
 <path class="fil0" d="m3057 3998l-64-9-51-68c-7 8-32-9 0 51 38 60 108 52 115 26z"/>
 <path class="fil0" d="m3146 4204c-19-43-89-26-115-77-19-35 13-17-25-35l6 52c32 34 90 69 134 60z"/>
 <path class="fil0" d="m5382 4531l38-26c0-51-13-129-70-137 0 43 25 8 38 68 13 78-6 61-6 95z"/>
 <path class="fil0" d="m4551 4299l-12 43c32 0 12 8 32-9 12-34 12-60 6-112l-26-17c-6 17 0 69 0 95z"/>
 <path class="fil0" d="m3204 3086c0-51-39-111-83-129 0 52 6 35 38 69 32 43-6 60 45 60z"/>
 <path class="fil0" d="m3759 4901h32c0-35 0-35-19-60-25-26-19-26-64-26 7 51 0 8 32 43 19 26 0 17 19 43z"/>
 <path class="fil0" d="m2916 4161c-38-26-19-34-44-43-39 52 89 112 115 78-20-18-45-18-71-35z"/>
 <path class="fil0" d="m5554 4402c13 0 39 17 32-69 0-26-13-51-25-69-13 18-32-34-13 35 6 8 13 8 13 34 0 17-7 52-7 69z"/>
 <path class="fil0" d="m2833 3998c58-77 32-9 45-52-19-8-26 0-51-17-32-26 0-26-45-43 7 52 13 17 26 52 12 43-13 43 25 60z"/>
 <path class="fil0" d="m4060 3929c6-34-20-26-51-43-32-8-52-17-90-8-6 34 32 8 70 25 32 18 13 35 71 26z"/>
 <path class="fil0" d="m3140 4092c-19-8-32-25-45-25v34c32 17 109 52 122-17-32 0-45 17-77 8z"/>
 <path class="fil0" d="m5228 5357c26 17-12 17 96 17 122 0 71 0 90-26l-186 9z"/>
 <path class="fil0" d="m4743 4729c45-9 58-78 45-121-32 9-26 18-32 52-7 26-13 43-13 69z"/>
 <path class="fil0" d="m3561 4153c45-26 58-95 13-129-13 17 0 51 0 86-6 0 0 0-19 8 0 0-6 9-13 9 7 26-6 8 19 26z"/>
 <path class="fil0" d="m3031 4858c13-35-6-103-51-112 0 34 7 43 19 69 13 34-6 34 32 43z"/>
 <path class="fil0" d="m4564 4823c19 18 19 9 45 26 32 26 13 35 51 26 0-52-77-95-96-52z"/>
 <path class="fil0" d="m3881 4729l44 8v61c39 0 58-69-6-86-38-18-32-9-38 17z"/>
 <path class="fil0" d="m3957 5013c26 17-44 17 64 0 51-9 39 8 51-35-51 0-76-8-115 35z"/>
 <path class="fil0" d="m4871 4755c13 25 19 8 32 34 19 34-13 34 32 43 25-43-19-77-32-86-32-9-26 0-32 9z"/>
 <path class="fil0" d="m3536 4239c0-35-7-78-45-86-13 25 0 17 7 51-7 26-13 9-13 35h51z"/>
 <path class="fil0" d="m4730 4608c32-8 32-25 32-60 0-26-6-51-32-60v120z"/>
 <path class="fil0" d="m4730 4780c7 26 19 26 26 43 13 43-13 26 19 52 45-34-6-112-45-95z"/>
 <path class="fil0" d="m3070 4823c25-43-7-94-52-103 7 26 39 95 52 103z"/>
 <path class="fil0" d="m3319 3052c44-9 25-17 51-34 0-43 13-43-26-61-13 35 0 26-6 52-7 34-13-9-19 43z"/>
 <path class="fil0" d="m3874 4841c13-43-25-78-63-69 0 26 44 69 63 69z"/>
 <path class="fil0" d="m3114 4325c39 34 115-9 83-61-19 18-12 26-38 43-13 9-26 9-45 18z"/>
 <path class="fil0" d="m5350 4170c51-17-7-112-38-129 6 26 12 34 25 60 19 34 0 43 13 69z"/>
 <path class="fil0" d="m3223 3026c6 26 19 17 25 35 26 34-6 34 39 43 13-35-32-95-64-78z"/>
 <path class="fil0" d="m5145 3946c-6-34-57-77-89-86 6 35 19 18 38 52 20 26 20 34 51 34z"/>
 <path class="fil0" d="m3440 5563c-19-26-77-26-102-9 19 18-7 18 51 18 38 0 38 0 51-9z"/>
 <path class="fil0" d="m3031 3018c-13-18-64-43-76-52 0 52 32 77 76 52z"/>
 <path class="fil0" d="m2488 6466c20-17 32-43 26-78h-26c0 18-6 35-6 35-19 51-6 34 6 43z"/>
 <path class="fil0" d="m3268 4626c38 25 76 8 89-35-32 17-77 9-89 35z"/>
 <path class="fil0" d="m4916 4075c-7-25-13-34-13-51 0-26 13-9-7-43-32 17-32 77 20 94z"/>
 <path class="fil0" d="m4832 4032c32-17 20 0 26-43 0-17 6-25 6-43-38 9-44 52-32 86z"/>
 <path class="fil0" d="m3255 4694c-58 9-83-8-122-51 0 51 115 103 122 51z"/>
 <path class="fil0" d="m5222 5408c19 26 147 26 160 9l-160-9z"/>
 <path class="fil0" d="m2948 3043c13 26 39 43 70 26-12-17-12-8-25-26-58-34-45 0-45 0z"/>
 <path class="fil0" d="m4002 4436c0-43-19-51-57-60 6 35 25 60 57 60z"/>
 <path class="fil0" d="m3050 4694c32 0 52-34 58-68-32 17-58 25-58 68z"/>
 <path class="fil0" d="m5005 3852c-6-35-58-86-102-86l102 86z"/>
 <path class="fil0" d="m5452 7085c-26 0-26 9-45 17 0 43 0 35 26 43l19-60z"/>
 <path class="fil0" d="m3153 3078c0-35-39-60-64-52 0 26 0 9 25 26 26 26 0 26 39 26z"/>
 <path class="fil0" d="m2897 3095c0-34-13-43-45-43 0 34 13 52 45 43z"/>
 <path class="fil0" d="m3549 6492c12 17-20 8 25 17 26 0 26-9 39-17-7-9 19-9-20-9-57-17-32 0-44 9z"/>
 <path class="fil0" d="m5797 6629c13 0 19-8 26-26 6-43-7-34-13-34-19 17-26 43-13 60z"/>
 <path class="fil0" d="m5586 4927c38-9 45-18 45-61-32 9-38 35-45 61z"/>
 <path class="fil0" d="m3165 4746c-12-9-57-17-76-17 13 34 51 43 76 17z"/>
 <path class="fil0" d="m5554 4892c39-8 39-17 39-51-32 8-39 8-39 51z"/>
 <path class="fil0" d="m1914 6208l-13 43c64-17 32-60 0-69l13 26z"/>
 <path class="fil0" d="m3568 6560c32 0 19 9 38-8-6-26-13-26-45-26l7 34z"/>
 <path class="fil0" d="m2214 6741h-26c7 26 7 43 26 52 6-9 19 17 0-52z"/>
 <path class="fil0" d="m2846 3129c0-34-13-34-45-34 7 34 13 34 45 34z"/>
 <path class="fil0" d="m6915 6019c-26 17-19 17-19 51l25-8c6-26 6-17-6-43z"/>
 <path class="fil0" d="m4283 6818c7-34 7-25-13-43 0 0-19 0-12 26 6 35 6 17 25 17z"/>
 <path class="fil0" d="m5177 3766c-12-35-12-26-44-26 6 26 19 43 44 26z"/>
 <path class="fil0" d="m5056 4402c13 26 19 26 51 26-13-26-19-35-51-26z"/>
 <path class="fil0" d="m3102 6715c31-17 31 0 31-51-25 17-25 17-31 51z"/>
 <path class="fil0" d="m2060 5296c26 9 26 9 45-8-6-9 7-9-19-9-51 0-13 0-26 17z"/>
 <path class="fil0" d="m1843 6234h32c0-26 0-26-32-26v26z"/>
 <path class="fil0" d="m5401 7317c13 0 25 9 25-17 0-17-6-9-25-17v34z"/>
 <path class="fil0" d="m5107 4497c-6-35-13-35-32-61 0 26 7 52 32 61z"/>
 <path class="fil0" d="m5829 6560c32 0 32 0 19-34-25 17-19-9-19 34z"/>
 <path class="fil0" d="m5439 4540c32-18 26-35 0-52v52z"/>
 <path class="fil0" d="m2737 6646c0-34 0-25-31-25 6 25 0 25 31 25z"/>
 <path class="fil0" d="m4130 6492c32 0 25 0 25-26h-32l7 26z"/>
 <path class="fil0" d="m4060 6457h32c-7-26 6-26-26-26l-6 26z"/>
 <path class="fil0" d="m4424 4565c-7-25 0-25-26-34-13 26 0 26 26 34z"/>
 <path class="fil0" d="m2297 6337c0-26 6-26-26-26 7 34 0 26 26 26z"/>
 <path class="fil0" d="m4826 4823c19-17 19-8 6-34-12 9-12-9-12 9-13 34 6 17 6 25z"/>
 <path class="fil0" d="m5401 7154c-6-26 0-9-13-17-13 17-13-9-6 17 0 26 0 8 13 17 6-9 12 9 6-17z"/>
 <path class="fil0" d="m5363 7137c12-26 12-9 0-35-20 9-13-8-13 17-7 26 0 9 13 18z"/>
 <path class="fil0" d="m1837 6105c6-9 13 8 13-17-7-35 0 0-13-18-13 18-19 9 0 35z"/>
 <path class="fil0" d="m4436 6844c26 9 39 9 20-26-7 9-7-8-20 26z"/>
 <path class="fil0" d="m5861 6586c0-17 0 0-7-17-12 9-12 0-12 17-7 35 0 17 6 17 13-8 6 9 13-17z"/>
 <path class="fil0" d="m3683 6672c19-8 19-8 13-26-13 0-13-8-20 9-6 34 7 17 7 17z"/>
 <path class="fil0" d="m3549 6474c25-43 6-25 0-43-13 26-13 18 0 43z"/>
 <path class="fil0" d="m4309 7575l19-34c-38 8-38 8-19 34z"/>
 <path class="fil0" d="m2156 6810c13-26 0-26-6-26-19 17-7 34-7 34 7-8 13-8 13-8z"/>
 <path class="fil0" d="m2654 7498c20-17 13 0 20-26-20 0-13-9-26 9-6 17 6 17 6 17z"/>
 <path class="fil0" d="m1722 6096c6 9-19 17 13 9 19-9 6-9 12-17-32-18-19 0-25 8z"/>
 <path class="fil0" d="m3529 7162c13-17 13-8 0-25-25 8-25 17 0 25z"/>
 <path class="fil0" d="m3644 6664c7-26 13 0 0-26-25 17-12 34-6 34l6-8z"/>
 <path class="fil0" d="m3006 6750c6 17-13 0 12 17 20 8 7 0 13-9-13-17 0-17-25-8z"/>
 <path class="fil0" d="m5331 6552c25-9 25 0 25-26-25 9-19 0-25 26z"/>
 <path class="fil0" d="m3491 6449c13 8 0 8 13 8s13-8 19-17c-38 0-13-9-32 9z"/>
 <path class="fil0" d="m4321 6844c13-17 13 0 0-26-25 18-19 18 0 26z"/>
 <path class="fil0" d="m5331 7068s-32-17-7 26c13-26 19 0 7-26z"/>
 <path class="fil0" d="m1843 6182c19 9 13 9 26-9-26-17-19-8-26 9z"/>
 <path class="fil0" d="m4123 6466c-6-43 0-17-12-26-19 26-7 17 12 26z"/>
 <path class="fil0" d="m5337 6457c13-17 6 17 6-17 0-17 7 0-6-17-6 17-19 8 0 34z"/>
 <path class="fil0" d="m2801 6698v-26c-25 17-32 26 0 26z"/>
 <path class="fil0" d="m2674 6586c12-17 6 0 0-26-20 18-26 18 0 26z"/>
 <path class="fil0" d="m5363 7059c6 9 6 17 6 17 19 18 0 0 19 9l-6-17c-13-26 6 0-19-9z"/>
 <path class="fil0" d="m2955 6681c38 0 12 8 25-17-45 8-19 8-25 17z"/>
 <path class="fil0" d="m3376 5606c-13-26-19-17-32 0h32z"/>
 <path class="fil0" d="m6838 5701c32 0 13 25 19-18-32 9-19-17-19 18z"/>
 <path class="fil0" d="m6825 5752c13-17 13 0 0-26-12 9-25-8 0 26z"/>
 <path class="fil0" d="m2948 6732l-13-34c-19 26-6 17 13 34z"/>
 <path class="fil0" d="m5312 6586c19-26 6-8 0-26-13 26-26 9 0 26z"/>
 <path class="fil0" d="m2929 6655c-13-43 6-17-19-26 6 26-13 9 19 26z"/>
 <path class="fil0" d="m3408 7119c19 9 13 18 32 9-13-9-6-17-32-9z"/>
 <path class="fil0" d="m2303 6681c13 8 0 17 26 0-26-17-19 0-26 0z"/>
 <path class="fil0" d="m5854 6664l7-18c-26 0-32 9-7 18z"/>
 <path class="fil0" d="m3089 3792c32 25 19 8 32 0h-32z"/>
 <path class="fil0" d="m6883 5718c38 0 19 17 25-17l-25 17z"/>
 <path class="fil0" d="m6793 5804c26 8 13 0 26 0-38-26-13-9-26 0z"/>
 <path class="fil0" d="m5203 6535c25 17 19 17 19-9l-19 9z"/>
 <path class="fil0" d="m3434 7085c25 17-13 0 25 17-13-26 7-17-25-17z"/>
 <path class="fil0" d="m3280 7197c32 0 20 8 20-17l-20 17z"/>
 <path class="fil0" d="m5733 6646l6 18c20 25-12-9 13 0-6-18 19 0-19-18z"/>
 <path class="fil0" d="m4832 6517c20-8 0 9 20-17v-8c-26 8 12-26-20 25z"/>
 <path class="fil0" d="m3006 6801c32 26 12 9 25 0h-25z"/>
 <path class="fil0" d="m3664 6629l-7-26c-13 18 0 0-6 18 0 25-7-9 13 8z"/>
 <path class="fil0" d="m1990 6552c26-26 7-9 0-26v26z"/>
 <path class="fil0" d="m3210 7197s7 8 13-9c0-8-13-8-13 9z"/>
 <path class="fil0" d="m2948 6638c26-17 13 0 19-17-38 8 0 0-19 17z"/>
 <path class="fil0" d="m1799 6191c19-9 6 0 12-18-19 9-6 0-12 18z"/>
 <path class="fil0" d="m4270 6853h26c-26-17-6-9-26 0z"/>
 <path class="fil0" d="m4232 6818c19-8 6 0 13-17-26 9 0-8-13 17z"/>
 <path class="fil0" d="m5516 6320c25-9 13 0 19-18l-19 18z"/>
 <polygon class="fil0" points="6589 6397 6563 6406"/>
</svg>
