<?xml version="1.0" encoding="UTF-8"?>
<svg width="720pt" height="720pt" fill-rule="evenodd" overflow="visible" stroke-linejoin="bevel" stroke-width=".501" version="1.1" viewBox="0 0 720 720" xmlns="http://www.w3.org/2000/svg">
 <defs>
  <linearGradient id="a" x2="341.29" gradientTransform="translate(182.79 276.41)" gradientUnits="userSpaceOnUse">
   <stop stop-color="#fffc00" offset="0"/>
   <stop stop-color="#7f7e00" offset="1"/>
  </linearGradient>
 </defs>
 <g transform="scale(1 -1)" fill="none" font-family="Times New Roman" font-size="16" stroke="#000">
  <g transform="translate(0 -720)">
   <path d="m105.76 113.64c6.443 29.796 17.828 57.422 22.466 89.868 0.691 4.815 7e-3 10.589 1.126 14.602 1.73 6.23 8.608 11.165 11.232 16.85 2.313 5.009 3.303 12.226 5.618 19.099 3.783 11.233 8.53 23.019 13.481 34.825 2.378 5.673 5.939 12.544 6.739 16.85 0.789 4.247-1.242 9.547 0 13.481 2.362 7.478 15.116 16.557 23.59 23.59 9.767 8.104 18.674 14.534 25.839 20.22 18.349 14.563 36.459 24.849 51.674 40.44-13.294 12.745-27.193 21.546-39.319 37.073-7.621 9.76-13.717 18.251-20.22 30.331-13.192 24.508-20.146 65.354-14.604 103.35 3.037 20.804 12.776 52.652 23.592 67.402 12.307 16.784 31.634 32.872 50.551 44.936 26.405 16.838 49.223 29.476 85.376 30.331 27.473 0.648 67.694-11.072 88.745-22.469 35.463-19.2 61.679-53.694 76.388-95.484 7.729-21.951 11.488-45.199 7.865-74.142-4.918-39.278-24.921-76.554-49.429-97.733-10.942-9.456-23.207-16.748-37.073-23.592 5.368-2.495 7.815-7.913 7.865-15.725 20.053-16.372 42.111-32.862 61.784-52.798 2.691-2.729 4.832-7.731 7.862-11.234 3.434-3.965 7.473-5.752 8.988-8.988 1.852-3.953 0.693-8.917 2.247-13.481 1.328-3.898 4.767-7.8 6.741-12.355 1.812-4.187 3.893-8.417 5.616-12.358 3.736-8.546 9.015-17.935 11.232-25.836 1.449-5.148 0.937-11.342 2.249-16.851 1.162-4.887 3.236-9.791 4.493-14.604 2.722-10.436 4.247-21.059 6.739-31.454 2.409-10.037 6.587-19.095 8.988-29.208 2.328-9.799 4.849-20.287 6.74-30.332 7.821-41.546 19.436-82.668 30.331-121.32-171.98-1.121-347.79-2.956-521.24-3.369-0.238 38.619 8.078 74.71 15.728 110.09zm65.155-104.48c5.69 17.526 3.774 42.658 11.235 58.416-4.123 5.671 3.661 15.005 0 20.22-8.221-14.841-18.385-29.027-26.962-42.689-2.815-4.483-5.083-11.306-11.234-12.355 3.785 13.61 13.055 24.165 20.22 34.824 7.604 11.306 14.126 22.911 22.466 33.701-1.952 6.859 4.321 11.356 1.123 15.725-2.284-6.802-7.623-12.48-11.232-19.097-3.396-6.228-4.992-16.124-13.481-17.971 4.919 13.435 16.43 26.249 19.097 38.193-3.128-3.453-11.165-11.982-14.604-7.864 7.915 10.058 19.408 16.539 28.085 25.838-7.972 5.64-26.505 7.803-24.715 17.971 18.256-5.496 41.735-35.283 61.783-19.097-11.865 5.361-18.846 15.603-24.712 26.96 14.85-7.442 26.34-34.514 47.179-19.097-5.291 1.733-8.646 7.365-13.479 11.234-4.108 3.286-13.932 5.561-11.234 12.356 5.549-1.19 6.964-6.515 12.358-7.863 2.483 17.737 5.773 34.667 8.985 51.675-20.055-7.495-40.557-20.419-59.537-29.208-3.336-1.542-7.912-2.005-11.234-3.37-3.093-1.269-5.683-7.922-8.986-2.246 2.615 4.003 8.123 5.859 12.355 7.862 31.923 15.106 63.923 31.338 93.241 48.305-5.853 2.581-12.107-2.062-16.851-4.493-16.243-8.314-30.501-16.714-46.058-24.713-10.413-5.355-22.175-9.423-32.576-14.604-10.596-5.279-20.275-13.492-32.58-13.481 18.526 12.42 39.499 21.133 59.54 31.455 20.055 10.326 40.297 20.791 60.66 30.329-2.794 6.044-9.49 9.853-14.604 14.606-5.047 4.689-9.815 11.691-15.727 12.356 3.532-8.135-3.982-17.955-6.737-26.957-2.655-8.682-2.055-20.228-11.232-20.22 1.458 4.156 3.725 7.506 4.493 12.355-26.197-7.877-44.102-24.049-73.018-29.206-3.628-2.794 5.63-6.34 0-7.865-10.575 0.285-9.497 12.222-15.728 16.851-0.487-13.973 7.923-25.019 5.619-37.071-5.554 1.936-2.352 12.628-7.865 14.604-10.075-61.078-33.596-111.23-32.578-177.49 23.203 2.264 43.616 0.481 68.525 1.124zm139.3 0c-12.754 26.94-26.469 52.917-33.701 85.375-1.979-1.015-1.854-4.134-4.493-4.493 5.463-25.53 16.535-50.171 25.836-69.648 2.338-4.892 4.13-13.768 12.358-11.234zm-36.619-0.204c6.811 8e-3 15.512 0.505 23.138 0.204-4.961 14.553-15.192 29.686-16.85 43.812-7.251 6.228-8.914 18.048-12.358 28.082-0.062 0.686-0.167 1.331-1.123 1.126-3.353-8.527-16.932-17.601-17.974-25.839-0.875-6.925 4.897-16.96 7.865-24.712 3.391-8.862 6.722-16.782 11.232-22.469 1.74-0.156 3.8-0.206 6.07-0.204zm-20.672 1.327c-5.477 7.63-8.718 17.498-12.357 26.962-1.171-9.314-2.878-18.091-3.37-28.085 4.892 0.726 12.699-1.465 15.727 1.123zm-66.278 11.234c0.965 5.136 1.577 11.629 2.246 16.851 3.518 27.435 8.101 57.381 12.358 84.252 3.018 1.85 7.81 1.926 10.109 4.493-6.25 2.684-9.832 5.967-15.725 1.123-6.532-33.103-12.031-71.546-15.728-105.6-0.399-3.665-5.589-10.142 0-13.48 6.058-0.383 6.075 8.828 6.74 12.357zm61.783 107.84c-0.064 0.686-0.167 1.332-1.123 1.124-11.791-6.183-27.222-8.723-40.44-13.481-7.423-34.141-12.176-70.951-16.851-107.84h38.194c9.16 37.646 11.818 81.8 20.22 120.2zm-3.37-77.51c-0.248 0.874-0.941 1.304-2.246 1.123-1.974-8.271 3.2-17.675 6.739-25.839 2.973-6.856 5.678-16.881 12.358-17.973-5.155 10.202-14.702 25.735-16.851 42.689zm70.772-42.689c13.168 0.095 15.887 1.474 31.455 1.123 7.207 11.514 12.41 25.033 21.343 34.824-0.829 1.795-5.501-0.256-4.495 3.372-4.574 14.786 3.216 32.642 1.123 43.81-5.368-10.36-10.503-20.952-16.851-30.332 0.667-3.097 5.626-5.279 2.249-8.985-6.335 1.527-11.136 4.591-17.973 5.616 0.647-9.101 10.161-15.285 7.862-23.59-6.969 4.256-8.283 13.376-11.232 20.22-10.001 23.205-22.49 43.906-30.331 67.402-10.057-3.422-11.424-15.538-17.974-22.466 6.013-35.926 19.121-64.759 34.824-90.994zm48.305 10.111c5.552 9.055 11.562 15.099 16.851 22.466-6.692 0.579-13.634-7.735-17.974-14.604-3.26-5.155-5.15-12.073-6.739-16.85 6.294-1.735 6.06 6.051 7.862 8.988zm83.129-7.863c-2.313 1.432-5.697 1.793-5.618 5.616 1.384 6.333 13.261 5.8 13.481-1.123-0.211-3.157-3.666-3.075-4.495-5.616 7.088 0.026 14.675-0.444 20.222 1.123-0.817 15.931 1.816 34.375-2.249 41.564-8.875-8.723-22.06-13.137-33.698-19.097 20.588-0.774-1.53-22.894-6.74-6.739-0.977 4.344 2.744 3.995 3.37 6.739-17.137-3.241-32.843-1.006-46.059 4.493-8.247-7.478-16.004-15.45-19.096-28.083 22.105 0.512 60.724-1.274 80.882 1.123zm49.429 0c-0.789 5.865-1.243 12.652-1.126 19.097 0.136 7.413 0.922 4.147-2.246 8.988-3.905 5.965-5.626 15.878-6.74 23.588-1.921 13.299 1.618 23.661-1.123 32.577-4.949-0.291-2.791-7.692-5.616-10.108-2.884 3.704 0.165 8.983 0 13.48-1.938 2.23-5.927 8.238-7.865 6.74 6.806-27.469 2.526-64.575 6.74-94.362 7.993-0.43 9.676-0.191 17.976 0zm5.613 0c32.585 1.09 62.123-7e-3 90.994 0-2.318 17.902-2.476 37.967-11.234 49.426-0.029-5.764 9.241-15.959 1.123-19.097-2.395 6.235-4.134 19.061-8.988 19.097 2.065-2.108 3.814-7.054 4.495-12.355 1.315-10.209 1.353-26.503-4.493-30.331 0.975 11.084-1.615 18.604-4.495 25.838-8.364-8.861-14.843-19.606-28.082-23.592-3.635-1.388-0.861 3.635-4.493 2.246-13.479-5.53-28.644 1.461-37.071 7.865-0.251-7.365 1.092-13.134 2.244-19.097zm-104.47 6.74c0.182 1.307-0.248 1.998-1.123 2.246-0.853 10.336 10.458 11.951 14.604 5.618 1.974-9.054-7.191-10.527-13.481-7.864zm-284.21 33.701c-4.921-3.317-1.757-14.719-7.865-16.851-0.375 22.882 6.694 36.21 13.481 53.924-0.182 1.316-2.048 0.946-3.37 1.12 11.156 19.551 32.475 28.936 50.549 41.566 2.349 0.476 2.978-0.769 4.495-1.125-6.28-10.946-19.486-14.963-30.331-21.344-4.103-4.134-8.943-7.532-13.481-11.232-4.4-15.388-13.354-36.021-7.862-55.046 2.808-9.729 11.043-13.433 14.604-21.344-5.7-0.454-8.216 2.273-11.235 4.495-0.439-3.424 2.954-5.721-1.123-6.739-8.35 5.129-4.863 22.096-7.862 32.576zm434.74-16.851c0.545-1.326 1.198-2.547 2.247-3.369 16.224 17.194 31.918 59.697 7.862 77.51-13.445 9.956-36.244 18.43-56.167 11.235 1.343-5.021 6.146-6.587 7.862-11.235 11.407-1.333 21.797-6.137 31.457-10.109 9.686-3.983 20.634-6.65 26.959-14.604-3.537-2.714-6.739 2.409-11.234 2.247-1.864-8.348 5.324-20.051-2.247-23.59-1.887 7.473-1.921 16.803-4.492 23.59-4.247-0.244-5.456-3.53-8.988-4.493 1.725-6.887 6.139-11.084 7.864-17.974-5.381-1.735-7.484-6.746-13.48-7.865-2.175 6.063-6.895 9.581-8.988 15.728-14.729-4.288 0.731-16.609 5.618-21.344 9.119-1.613 17.811 3.133 24.713 0-2.691-5.171-12.176-3.548-17.974-5.616-2.896-2.251 4.883-3.281 4.495-6.741-11.449-3.36-16.437 5.838-22.466 11.234-3.637-0.11-2.399-5.09-7.865-3.369 0.652 28.058-2.34 64.314-22.469 74.143-6.73 3.284-12.589-0.019-21.343-1.125-13.684-1.731-20.316-4.154-26.959-10.109 12.981 1.885 38.793 8.629 46.058-3.37-2.789-1.46-4.662 3.296-5.618 0 4.648-3.202 7.982-8.914 12.357-13.481 4.171-4.354 11.536-7.889 11.235-13.481-6.852 1.016-7.887 7.841-14.604 8.986-5.086-42.567 25.857-82.295 56.167-52.798zm-103.35 12.358c-2.268-7.096-13.868-4.856-17.974-10.109 7.767 1.529 16.863 4.498 24.716 8.986 5.924 3.386 16.363 9.392 17.971 15.727 1.379 5.427-0.328 16.243-1.121 22.466-0.91 7.132-4.605 13.799-4.495 21.344-24.854 3.094-38.055-11.985-55.044-16.851-5.569-1.591-13.192 0.98-16.851-5.616 10.513-8.837 27.803 4.161 35.945 4.493-3.893-28.685-29.282-35.869-58.414-39.317 17.326-3.642 32.1 0.189 42.689 4.495 5.248 2.132 10.147 6.29 14.604 5.616-4.978-12.998-24.357-11.59-37.073-16.853 14.698-1.639 22.001 2.4 30.332 5.619 4.241 1.637 9.819 6.481 13.48 2.246-5.941-8.66-21.766-7.439-31.454-12.355 18.726-1.874 30.147 9.538 42.689 10.109zm-292.07 16.848c4.175-6.503-9-13.882-11.235-21.343-8.269 7.683 8.83 13.707 11.235 21.343zm237.03 121.32c-3.771-33.263-9.686-64.02-15.728-95.487-1.109-5.766-2.421-12.051-3.369-17.973-0.935-5.8-4.386-14.177 0-16.851 8.12 40.933 18.822 85.276 19.097 130.31zm-3.372-75.264c0.076 1.154 0.87 10.054-1.121 8.986-0.619-22.976-10.501-42.67-8.988-64.033 1.878 16.617 9.028 38.531 10.109 55.047zm12.357-44.936c3.203 3.922 7.937 8.62 7.865 12.356-7.322-6.532-14.413-13.297-19.097-22.467 4.706 0.803 8.19 6.386 11.232 10.111zm16.848 6.74c1.735 2.411 8.133 6.28 3.372 7.865-6.486-7.371-15.428-12.279-20.22-21.346 8.219 1.539 12.998 8.125 16.848 13.481zm146.04 82.006c-6.56 37.45-18.564 72.205-26.959 108.96-8.656-7.881-6.684-32.179-19.1-32.578 5.81 8.116 7.562 22.099 10.112 33.704 1.438 6.543 6.259 13.873 0 19.097-3.609-10.998-4.032-25.177-12.356-31.455 3.611 12.484 5.098 27.1 7.861 40.44-2.421 5.071-6.35 8.627-6.74 15.728-10.957-2.526-14.941-12.021-23.592-16.853 0.473-14.652-0.614-22.907-1.121-34.825 7.241 0.132 12.678-1.548 16.851-4.492 5.171-12.033-4.83-22.952-6.739-34.825-0.701-4.342 0.346-9.174 0-13.48-1.477-18.263-7.753-36.029-6.742-52.798 5.506 6.285 11.488 11.903 15.727 17.973 6.914 9.904 14.007 21.611 19.097 31.455 2.027 3.917 1.735 12.573 8.988 11.234 0.469-12.166-10.859-22.024-14.604-33.701 5.461-0.757 12.367 5.746 15.727 0-5.993-4.44-13.469-2.96-19.099-6.739-6.025-4.048-11.533-14.224-16.85-21.343-5.645-7.564-12.721-14.401-15.725-22.469 5.002 2.18 9.007-1.795 13.481-1.123 4.471 0.671 9.136 5.365 14.601 7.865 9.297 4.251 17.819 8.01 26.962 6.739-4.022-6.089-15.541-4.682-20.22-10.111 6.675 1.192 13.249-2.957 20.22-3.37 7.38-0.437 16.972 5.002 21.343-2.246-2.844-3.148-13.177 1.192-14.604-3.37 16.937-7.031 27.622-20.311 30.332-41.563-4.19-2.115-0.192-5.588 0-6.742 0.485-2.932-3.848-2.944-3.37-4.493 0.767-2.488 5.578-3.197 6.739-6.742-1.137 35.898-15.02 62.439-20.22 92.118zm-149.41 77.511c20.464-1.105 53.627-0.447 70.772-1.121 4.294-0.17 9.884 2 12.355-1.123-2.868-3.877-8.424-1.186-12.355-1.124-25.793 0.397-46.346-2.557-67.402-1.123-11.93-42.364-14.399-94.194-24.713-138.17 4.71 3.623 3.585 10.376 4.493 15.727 5.071 29.887 11.177 61.002 14.604 87.622 1.472 11.433 1.156 23.989 7.862 32.575 23.021-0.098 44.563-2.583 67.402 1.126 6.147 0.996 14.117-1.496 13.481 7.862-29.547 2.376-61.724 0.519-86.499 2.247-0.062-1.437-1.441-1.558-1.123-3.37-11.177-27.961-11.015-59.532-16.853-90.992-0.688-3.713-2.758-7.396-3.367-11.234-1.836-11.512-1.714-23.604-3.37-34.824-1.718-11.622-7.348-22.228-5.618-33.701 12.632 54.021 16.176 117.13 30.331 169.63zm-150.53-146.04c-4.866 6.744-7.968 15.247-12.358 22.466 0.203-15.935-5.874-31.562-4.493-44.935 5.485 7.621 10.707 15.507 16.851 22.469zm107.84 77.51c-2.105-8.261-7.731-15.662-11.232-23.589-3.558-8.052-4.199-18.074-11.234-23.592-0.235 2.984 2.334 4.564 3.369 7.864 2.868 9.129 5.836 19.398 10.111 30.332 1.838 4.703 3.717 10.484 5.617 15.727 6.153 16.975 6.399 32.704 5.616 56.168-20.538-0.058-44.659-0.282-59.538-1.124 5.789-1.326 7.61-6.619 10.112-11.234-0.203-3.167-5.342-1.401-4.493-5.616 5.559-0.693 3.343 6.395 10.109 4.495 3.169-9.057 1.257-22.103 0-32.578-1.938-16.155-8.097-28.587-12.358-39.319 4.094-6.766 3.68-18.038 7.865-24.715 6.524-4.336 19.83-1.886 23.59-8.986-5.42-2.748-12.564 1.355-19.097 1.123 1.281-7.717 10.711-13.235 8.988-20.22-4.374 0.437-6.9 5.834-8.988 8.986-7.578 11.444-10.795 25.609-16.851 38.196-0.808-4.063-6.526-3.212-6.739-7.865 7.212-20.122 17.046-37.623 23.59-58.414 4.643-1.723 8.233-4.497 13.481-5.618 19.426 24.899 34.066 58.88 28.082 99.979zm24.713-85.375h-4.493c1.219-2.875-3.412-5.353 0-6.739 0.698 3.047 4.694 2.796 4.493 6.739zm122.45 12.357c0.473-2.148 0.409-4.834 3.37-4.492-0.473 2.148-0.404 4.834-3.37 4.492zm-249.38 3.37c-1.68-0.019-4.593 4.175-5.616 1.123 2.349-0.698 4.223-5.762 5.616-1.123zm148.28 3.372c2.008 17.673 6.548 42.658 10.112 62.907 0.683 3.876-2.369 9.435 3.369 11.234 2.565-2.789 1.537-7.669 1.123-11.234-1.194-10.36-4.079-21.802-5.616-33.701-1.001-7.757-3.415-15.491-4.492-22.467 9.846 5.882 19.19 12.262 29.205 17.974-3.646 3.092-14.391-0.911-17.973 2.246v6.74c1.711 2.036 7.702-0.213 6.741 4.495 0.172 2.794-1.766 3.477-2.249 5.616-4.112-0.447-1.648-6.67-6.739-3.37 0.335 6.407-0.353 13.832 3.37 16.851 3.752 7e-3 0.181-7.308 4.493-6.739 3.35 1.935 5.946 9.207 4.495 12.355-0.882 2.49-6.954-0.213-5.619 4.495 3.004 3.365 19.422 2.741 21.346-2.246-0.024-3.349-5.298-1.441-6.741-3.37 0.305-3.814-0.87-9.108 1.125-11.234 4.863-0.371 2.763 6.223 7.863 5.616 1.78-4.453 2.547-16.466-2.247-17.974-4.842-1.472-1.393 5.348-5.616 4.495-1.049-2.698-4.517-2.975-3.372-7.865 4.156-1.199 9.225-3.219 5.616-8.985 7.277 2.461 14.427 5.044 24.716 4.492 8.71 27.985 10.813 62.58 16.85 93.238-24.118-1.053-49.55-3.852-75.264-1.123-6.692-40.772-14.573-81.394-19.097-126.94 6.775-0.406 9.21 3.52 14.601 4.495zm119.08-1.126c-4.543 3.953-2.65-3.613 0 0zm-253.88 15.728c-12.513 2.839-13.428 17.276-19.097 26.961-0.208-1.663-2.715-1.03-4.493-1.123-6.297-12.716 4.101-31.727 13.481-39.319 3.558 4.306 8.223 7.504 10.109 13.481zm-12.355 1.123h4.492c1.315-2.192 3.69-6.285 1.124-8.986-6.697-1.338-7.844 4.601-5.616 8.986zm-7.865 7.865c4.168 0.406 6.617-4.285 4.495-6.739-4.777-1.03-4.799 2.69-4.495 6.739zm19.097-3.37c-1.162 1.549-4.453 6.661-5.616 4.493 0.294-4.029 13.942-8.352 5.616-4.493zm44.935 64.03c1.24 8.474 2.736 18.927-1.123 26.962-4.959-8.522-0.994-25.968-11.235-29.208 2.598-6.221-4.562-9.698-5.616-15.725-1.484 0.012-1.027 1.969-2.246 2.246-1.336-4.282 0.358-11.595-3.372-13.483-5.078 9.588 2.775 23.637 7.865 30.331-2.569 7.077-0.911 11.663-3.37 19.1-5.872-0.122-10.818-1.164-14.604-3.37-3.013-1.107-1.168-7.071-3.372-8.988-8.278 15.71 15.804 17.032 28.085 16.85-8.575 11.249-28.599 5.15-35.947-3.369-3.466-14.862 1.355-33.998-1.124-49.428-0.695-4.328-4.237-8.214-4.492-12.358-0.638-10.319 3.145-16.848 13.481-20.22 19.175 13.058 32.826 31.66 37.07 60.66zm-67.402-48.303c3.475 0.106 3.348-3.393 3.37-6.741-5.729-2.218-5.239 4.739-3.37 6.741zm211.19 16.851c1.209 7.726-0.027 16.592 3.369 22.466h3.37c-1.663-10.309-3.79-22.215-5.616-32.577-0.645-3.664 2.466-10.848-3.37-11.232-4.798 3.833 1.131 14.207 2.247 21.343zm-79.76-20.223c-0.913 4.417 3.518 13.759 1.123 12.358-1.226-2.574-4.108-9.296-1.123-12.358zm57.293 11.235c-0.256 1.991 1.133 5.625-2.246 4.495-0.354-1.52-1.599-2.148-1.126-4.495h3.372zm-174.12 8.988c2.225 22.003 0.932 45.97 4.493 64.032v-2e-3c1.099 4.519 5.994 5.241 5.618 11.234-3.345 2.173-8.381-3.565-12.357-4.493-3.186-24.925-10.439-51.691-11.235-75.264 4.775-1.967 9.648 2.158 13.481 4.493zm-7.865 66.279c-0.246 0.874-0.939 1.304-2.246 1.123-1.023-1.974-3.936-2.055-5.616-3.372-3.152-11.486-3.379-26.269-5.618-39.317-1.439-8.396-8.544-20.947 3.369-24.713 2.961 22.502 6.823 44.106 10.111 66.279zm130.31-33.701c1.494-9.373-4.079-17.616-1.121-24.716-0.208 6.962 4.658 21.614 1.121 24.716zm-12.355 43.81c-1.556-20.541-2.748-47.426-2.247-66.279 3.626 18.786 3.215 44.811 2.247 66.279zm-94.598-62.933c-2.258-0.082 0.734 5.087-3.136 3.395 0.268 4.976 1.205 9.28 5.619 10.109-4.536-4.395 3.248-8.804-2.249-13.478-0.084-0.015-0.162-0.024-0.234-0.026zm187.55 12.336c-5.454 0.069-7.93 1.204-13.19 0.045-3.238 7.992 0.985 17.548 2.244 24.715 5.889-0.105 10.116-1.871 16.853-1.123-0.129-8.993-2.985-18.234-3.372-23.592-0.917-0.043-1.756-0.055-2.535-0.045zm-45.77 2.291c-0.776 9.015 2.567 13.912 2.249 22.469h15.727c0.739-4.44-3.945-12.295-2.248-21.345-4.931-2.101-12.865-2.794-15.728-1.124zm42.689 8.986c-0.626-2.741-4.347-2.392-3.369-6.737 4.134-1.426 5.515 5.597 3.369 6.737zm-31.452-1.121c-0.27-1.603-1.852-1.895-2.249-3.372 2.314-0.984 5.045 2.916 2.249 3.372zm-30.331 55.045c18.126 0.071 39.09-3.043 56.167-2.247 13.039 0.607 26.558-1.821 34.824 3.37-29.349-2.906-62.534 2.206-95.484 1.123-3.666-20.516-10.403-37.69-8.988-58.414 4.428 18.786 5.547 40.885 13.481 56.168zm-95.487-39.317c-0.17-2.077-3.805-0.691-4.493-2.247v-2e-3c-0.311-5.925 0.456-10.776 3.37-13.479 0.922 3.566 5.2 14.509 1.123 15.728zm77.513-2.249c1.491-4.201-3.35-7.765 0-10.109 0.456 2.251 2.782 8.333 0 10.109zm49.426-5.616v2.246h-2.247v-2.246h2.247zm-41.564 49.428c-2.755-12.226-7.42-28.52-5.618-41.563 1.018 13.968 6.187 29.75 5.618 41.563zm-190.97-15.727c6.945 2.686 17.367 5.195 19.097 7.865 2.335 0.286 0.308 4.935 2.249 5.616-25.299-6.905-44.372-20.036-70.772-25.837-1.13 2.24-4.968 1.774-4.495 5.616 4.017 1.972 9.875 2.111 12.358 5.619-6.57-0.265-10.699 4.904-6.742 8.986 13.686-13.849 31.366-1.358 47.182 4.492 10.687 3.956 21.587 7.249 26.959 12.358 0.901 6.524 2.858 10.267 3.37 14.604-19.3 14.774-34.16 33.99-56.168 46.056-16.743-28.938-24.333-67.034-39.319-97.731-2.978 1.14-3.042 5.193-5.614 6.74-0.064 0.686-0.169 1.328-1.123 1.123 0.851-5.702 9.851-12.48 12.355-20.22 19.647 7.793 42.443 17.67 60.663 24.713zm71.895-16.851c7.872 3.494 22.521 9.194 32.578 3.37v7.865c-10.317 3.455-30.814 0.991-32.578-11.235zm107.84 10.111c0.294 1.53 1.647 2.137 1.123 4.493-0.251 0.873-0.031 2.216-1.123 2.247-1.472-6.458-1.995-17.197 0-6.74zm-87.62 31.455c5.886 2.724 12.755 4.469 16.851 8.988-17.919-0.48-29.928-16.473-31.455-37.073 10.08 4.149 5.829 22.629 14.604 28.085zm1.121-12.358c0.935 4.649 3.743 7.148 2.249 10.112-4.701-5.411-7.291-12.929-7.865-22.469 8.123-1.833 4.677 7.683 5.616 12.357zm51.675-7.864c3.319 0.975-2.605 1.68-1.121 4.495 16.592 15.98 29.961 35.192 46.056 51.672-3.355 7.504-11.999 9.722-15.727 16.851 6.104 5.506 10.673 12.544 19.099 15.727 4.885-4.851 8.637-10.833 14.604-14.604 10.226 16.736 26.458 27.461 37.071 43.812 4.132-8.324 19.2-11.373 17.974-21.343-19.226-6.988-28.623-23.803-40.443-38.194 7.571-4.039 12.04-11.177 16.851-17.974-6.709-4.151-10.891-10.828-17.972-14.604-5.578 4.906-8.507 12.463-15.727 15.727-4.18-7.066-15.326-13.122-16.853-19.097 11.268 2.83 21.876-0.477 33.701 1.124 16.831 11.717 32.814 28.524 48.305 43.81 3.152 3.111 26.947 19.187 26.959 23.589 3e-3 0.688-8.823 9.904-10.108 11.235-14.848 15.373-31.328 27.817-47.182 39.319-1.69-5.269 4.148-11.077-2.247-11.234-6.555 8.048-2.803 26.405-8.988 34.824-0.592-6.362-0.592-7.119 0-13.481-18.905-31.813-46.89-57.953-69.648-84.252-6.331-7.316-12.331-15.252-19.097-22.467-10.054-10.723-18.096-23.606-26.959-33.703-2.851-3.246-8.097-6.214-7.865-11.232 15.495-0.096 24.125-0.208 39.317 0zm38.196 3.369c-1.431 6.608 6.049 15.247 1.121 17.974-5.15-7.578-9.87-15.589-19.095-19.095-33.643-0.604 13.687-2.256 17.974 1.121zm-226.92 22.469c5.011 17.262 10.89 35.329 17.974 49.428 3.352-0.019 3.821-2.922 6.741-3.369-12.343-18.653-19.747-44.675-23.592-68.528-9.643 2-3.331 14.86-1.123 22.469zm21.346 67.402c-1.324-0.177-3.188 0.191-3.372-1.123 32.802-30.484 66.19-60.376 101.1-88.748-29.306 33.23-68.539 56.531-97.73 89.871zm158.3-45.129c-9.06-9.612-17.96-20.786-25.743-30.135-3.241-3.896-7.301-8.769-7.863-13.481 10.231 15.507 25.105 26.374 33.606 43.616zm-40.345-18.903c-0.17 2.789 0.581 4.662 2.246 5.616-5.432 6.925-11.583 13.132-19.096 17.973-3.843-6.643-9.282-11.688-15.728-15.724-5.68 6.674-15.533 9.179-19.097 17.973 6.412 2.947 9.629 9.091 15.728 12.356-10.176 14.914-24.467 25.711-38.194 37.07-1.104-1.814-2.997-2.586-4.495-1.121 6.899 9.203 13.189 19.016 24.713 23.59-0.964-3.585 1.768-3.475 2.246-5.616 11.899-10.195 21.556-22.634 34.824-31.455 5.162 3.451 8.319 8.905 13.481 12.356 4.906-7.074 14.047-9.92 16.85-19.097-1.448-6.414-8.66-7.067-10.108-13.481 8.914-7.561 15.189-17.761 25.836-23.59 3.001 7.485 11.045 9.925 13.481 17.974-25.703 29.717-52.951 57.888-77.511 88.745-1.436 0.062-1.556 1.441-3.372 1.123-4.235-3.627-3.035-12.689-10.109-13.481-0.526 2.878 3.972 6.369 1.123 7.865-21.79-17.529-44.806-33.827-67.402-50.551 6.933-14.456 20.201-21.848 31.455-31.455 22.387-19.116 42.792-38.937 65.155-57.29 2.321 10.41 7.817 17.646 17.974 20.22zm173-15.728c8.537 0.619 18.392-2.296 24.716 2.249-30.066-0.772-51.744 1.838-79.76 0 13.557-2.98 39.355-3.386 55.044-2.249zm-73.128 0.662c3.277 0.139 8.269 1.348 11.342 0.462-0.58 4.378-12.154 2.179-14.601 1.125-0.055-1.369 1.293-1.67 3.259-1.587zm15.838 2.708h-2.247c5e-3 -1.126-0.908-1.336-1.123-2.246 1.766 0.107 3.895-0.149 3.37 2.246zm-105.6 5.618c-2.849 0.844-5.27-4.292-3.37-4.492 0.33 2.289 3.04 2.201 3.37 4.492zm83.129 0zm77.511 24.713c-6.522-9.203-18.433-13.019-23.59-23.589h23.59c0.205 6.708 3.577 20.375 0 23.589zm7.865 5.619c-0.827-4.123-2.113-11.18-2.247-16.851-0.098-4.101-1.794-10.885 2.247-12.357 4.82 6.557 0.745 21.011 0 29.208zm28.085 33.698c-11.175-4.901-18.81-15.442-28.085-23.589-9.404-8.259-19.458-15.756-28.085-23.59-3.36-3.054-9.184-8.763-8.986-11.235 20.256 20.935 45.562 36.82 65.156 58.414zm-195.47-44.933c-1.157-3.381-7.932-6.987-5.616-10.111 2.975 1.563 8.945 5.977 5.616 10.111zm29.342 6.787c-0.048-0.019-0.091-0.033-0.136-0.047-0.031-0.065-0.062-0.129-0.093-0.194 0.076 0.081 0.153 0.163 0.229 0.241zc2.273 0.932 7.71 7.6 5.482 5.569-1.828-1.774-3.659-3.638-5.482-5.569zm12.011 13.252c-1.548-1.726-2.992-3.525-4.28-5.435 1.403 1.805 2.832 3.616 4.28 5.435zm22.679 22.65c1.494 1.943 1.781 4.88 3.37 6.74 1.374 1.608 3.96 1.687 5.616 3.369 4.034 4.096 7.117 10.664 11.234 15.728 8.417 10.347 16.003 20.518 23.59 30.328 3.836 4.959 9.562 9.297 10.111 15.728-23.31-32.805-52.831-64.718-76.6-94.543 7.007 7.807 16.141 14.133 22.679 22.65zm-16.85-2.248c3.625 3.895 9.707 6.569 11.234 12.355-8.624-2.708-27.982 1.515-35.947-2.244 5.069-6.536 10.878-12.336 15.725-19.099 5.15 0.535 6.177 5.967 8.988 8.988zm-19.097-5.616c-2.591-0.345-1.247 3.245-3.37 3.369-0.533-2.191 3.023-5.745 3.37-3.369zm39.317 26.961c-18.578 2.158-35.309-0.784-53.921 1.121-0.817-3.064 2.232-2.261 2.246-4.493 8.859 1.836 18.763 0.476 29.208 0 8.453-0.384 19.523-2.158 22.467 3.372zm-43.057 2.933c13.77 0.095 29.167 4.024 43.057 1.56v8.988c-16.568 2.063-41.413-2.227-64.032 1.121 1.355 6.883-2.801 19.278 2.246 22.466 0.6-7.059-0.951-15.074 0-19.096 11.313-1.743 24.166-0.586 37.071 0 9.389 0.427 23.03-2.952 26.961 3.372-21.448 1.187-40.132-0.519-59.539 1.12-1.013 12.843 2.951 30.662-4.495 37.073 1.376-5.561 0.523-13.416-1.121-19.099-2.598 4.142-0.392 13.089-1.123 19.099-3.43 3.685-8.317 5.913-11.235 10.109-1.828-13.899-0.925-30.525-1.121-46.056 10.927-2.908 9.368-15.935 20.221-19.097 4.112-1.2 8.522-1.592 13.11-1.56zm-23.222 1.56c-3.467 1.436-6.103 9.571-8.985 7.863 3.111-1.795 6.141-9.536 8.985-7.863zm15.728 2.247c-0.471 6.464 6.137 6.18 7.864 2.246-0.463-3.047-5.343-4.636-7.864-2.246zm23.592 5.616c3.063 0.817 2.26-2.233 4.492-2.247-0.148-3.597-2.547-4.942-6.739-4.495-0.891 3.888 1.248 4.746 2.247 6.742zm20.217-6.742c-4.507 2.528 0.677 7.714 4.493 4.495-0.136-2.858-1.632-4.359-4.493-4.495zm19.1 21.346c0.666 10.73-0.067 21.577 1.123 29.208-0.251 0.872-0.031 2.215-1.123 2.246-4.914-15.371-3.946-27.327-4.493-48.305 4.29 2.703 4.094 10.441 4.493 16.851zm10.111 52.797c-4.655-15.942-7.762-39.414-4.495-59.539 8.646 11.954 5.778 41.401 4.495 59.539zm-122.45-39.317c5.174-3.828 9.636-14.31 14.604-14.604-4.875 4.125-9.535 14.411-14.604 14.604zm102.23-13.48c0.684 4.947 2.538 17.405 1.124 23.589-2.24-8.959-23.174-18.977-29.206-6.739-6.849-5.322-18.557-7.757-25.839-1.123 0.691-6.302-1.166-12.207 0-15.727 19.183 0.27 33.524-0.06 53.921 0zm-82.003 26.961c0.645-7.236-1.36-23.054 1.123-24.715-0.648 7.236 1.355 23.052-1.123 24.715zm107.84 24.713c-0.237 1.26-1.248 1.75-2.246 2.247 1.574-17.307-2.789-34.65 0-49.429 6.686 9.631 3.047 32.086 2.246 47.182zm-102.23-44.935c-0.258 4.003 1.615 5.874 5.616 5.618 2.201-2.1 0.346-4.115 0-6.741-2.605-0.359-4.314 0.181-5.616 1.123zm-8.988 48.305c-5.11-0.507-4.166-7.069-7.863-8.988 0.215-3.9 3.972-4.264 4.493-7.863-5.475-2.91 0.103-17.194-7.865-19.096 5e-3 0.623-0.908 1.273-1.12 0 4.105-3.007 5.202-9.024 10.108-11.233 0.086 15.967 0.985 36.012 2.247 47.18zm78.636-35.943c-3.047 3.289 5.604 11.45 0 19.097 6.376-0.425 6.52-7.661 6.739-11.232 0.916 5.43 6.79 5.15 10.112 8.981 6.77 7.815 8.125 20.624 6.737 31.455 15.084-3.458 7.052 28.316 6.741 34.824 11.897-2.306 6.649-29.423 3.37-37.071 4.715-5.398 8.474-11.746 12.357-17.974 24.725 4.106 37.637 20.025 53.922 32.576 21.912 26.278 36.138 59.905 38.193 99.98 1.021 19.895-0.736 38.585-5.616 52.797-0.719 2.092-3.704 4.422-4.495 6.742-4.679 13.749-9.918 21.812-17.974 34.824-13.242 21.391-31.003 36.206-52.798 48.303-15.555 8.637-33.509 15.866-52.797 19.099-10.697 1.793-21.771 3.167-33.699 2.247-34.537-2.66-63.815-16.731-89.871-35.948-28.407-20.951-50.475-52.738-56.167-94.363-4.053-29.624-1.475-62.558 5.618-89.869 6.742-11.875 13.036-24.089 22.467-34.824 14.742-16.786 26.878-35.723 50.549-41.564 5.233 10.121 12.126 18.579 16.85 29.206-4.321 3.169-3.377 11.603-3.369 19.1-14.454 14.059-32.437 37.417-34.825 66.276-0.272 3.288 1.107 6.655 1.124 10.109 0.057 12.422-1.676 25.308 1.123 33.701 2.848 8.538 4.16 19.928 11.234 25.836-1.697 7.881 4.328 9.351 6.739 12.357 2.613 3.255 2.949 7.385 4.496 8.989 2.982 3.094 9.392 6.108 12.357 7.864 5.65 3.346 7.196 5.437 11.232 7.863 7.746 4.655 15.326 4.086 24.716 6.741 2.942 0.83 4.877 2.99 7.862 3.37 8.011 1.023 18.461 1.651 26.962 1.123 6.973-0.432 16.296-5.073 24.713-6.741 8.242-1.633 16.394-2.156 21.343-4.493 9.344-4.407 26.214-24.782 30.332-34.824 1.252-3.057 3.305-9.612 3.369-10.109 0.184-1.343-1.761-1.68-1.121-3.37 0.724-1.916 2.835-2.476 3.368-4.495 7.415-27.93-0.839-65.11-8.986-83.129-13.216-6.498-10.324-25.607-25.839-31.452-6.916 2.024-4.665 13.963 2.249 14.604 3.767 0.566 4.665 7.994 7.865 5.616-1.224-6.639-8.121-7.607-10.111-13.481 3.957-1.408 4.43 3.969 6.739 6.741 6.018 7.218 12.508 16.708 6.739 28.083 2.151 0.523 4.837-3.463 4.495 1.126-2.093 7.181-12.455-3.067-7.862-8.988-0.191 3.106 1.723 3.854 3.367 2.246-0.303-3.814 0.87-9.108-1.121-11.232-1.77 2.349-6.263 1.974-7.864 4.493-9.488 19.118 16.465 37.085 21.343 15.727-1.821 6.357 4.481 10.439 1.123 14.604-1.219-2.545-2.344-8.56-5.618-5.616 1.412 3.456 1.223 8.515 4.495 10.109 1.859-5.196 0.894-0.994 5.618-1.123-3.231 14.678 2.782 24.431 1.121 38.193-2.703 22.445-14.202 41.205-26.959 55.045-15.785 8.644-33.751 16.652-55.044 17.973-30.411 1.891-53.914-10.904-73.021-23.589-1.386-3.635 3.637-0.858 2.249-4.493-2.521-2.722-4.718-5.767-6.742-8.988-2.719-2.897-0.557-10.675-6.739-10.109-1.247 8.383 7.449 12.742 5.616 17.974-14.038-20.151-23.661-44.587-22.466-71.897 4.55-1.838 5.169 5.945 7.862 2.248-1.656-6.734-6.777-14.205-3.37-22.466-3.601 0.977-3.513-1.733-4.492-3.37 6.569-2.418 3.498-14.477 8.985-17.974-5e-3 8.618 2.531 14.693 8.988 16.849 10.84-0.168 18.323-22.12 5.616-25.837 0.908 8.568 2.961 18.648-6.739 19.097-9.134-7.007-2.476-24.796 4.493-29.208-2.428 4.849-11.084 19.147-1.123 22.467-2.275-10.358 2.165-18.122 7.862-23.59-3.248-4.297-0.461-7.33 3.372-10.109-0.394 3.778-2.552 8.19 1.123 10.109 8.938-8.797-6.947-32.819 8.988-37.071 4.835-3.759 4.39 4.042 7.863 1.124-4.154-4.715 2.227-6.09 3.372-8.986-3.594-1.699-8.596 3.26-7.865-1.126-0.626-4.743 6.127-2.11 7.865-4.492-6.503-3.564 1.226-6.933 0-14.605 2.827-3.101 5.872-4.256 8.986-4.492-0.251-3.494-5.593-1.9-8.986-2.247-2.5 3.836-5.487 6.739-3.372 12.358-7.607-3.365 0.657-13.352 4.495-15.727 3.929-1.578 7.191 3.149 8.986 0-3.518-12.444 6.378-21.803 16.85-21.344 6.696 0.294 8.69 7.368 14.602 4.496 5.188 3.799 5.375 12.599 8.988 17.973 5.989-10.285-3.967-14.678-7.863-21.343 5.581-3.274 14.64-2.55 17.974 2.246zm-97.771-1.02c0.012-0.036 0.026-0.072 0.038-0.108 1.709-1.694 1.307-1.348-0.038 0.108zm147.2 11.127c-5.26 4.098-7.513 11.206-12.358 15.725 1.327-10.396-1.536-17.783 3.372-26.96 1.243 5.497 6.818 6.661 8.986 11.235zm-157.27 3.369c0.896-4.244 7.377-11.588 10.071-14.496-2.189 5.998-6.599 9.777-10.071 14.496zm60.66 0c3.408-5.948 9.956-14.279 19.097-6.739-2.33-15.254-22.717-2.782-19.097 6.739zm41.564 4.493c6.655-1.67 5.993-16.485-2.244-15.725 1.74 5.06 4.88 9.297 2.244 15.725zm-83.127 3.37c-0.086-5.934-6.727-11.211-3.37-16.851 1.076 3.602 8.604 13.443 3.37 16.851zm21.343-15.725c-1.842 3.644-0.607 7.122 4.493 6.739 0.304-4.048 0.282-7.769-4.493-6.739zm23.59 11.232c5.332-1.13 8.995-7.036 15.727-3.37 0.653-4.77-3.028-5.209-5.618-6.739-4.256 2.483-9.676 3.802-10.109 10.109zm6.739 7.865c6.78-0.715 7.184-7.796 16.851-5.616-4.304-6.665-17.257-2.421-16.851 5.616zm56.17 17.974c6.106-6.909 0.834-22.474-6.739-25.839 3.781 8.424 6.419 16.595 6.739 25.839zm-120.2-22.467c-2.358 0.356-9.729 0.167-5.616-2.249 1.685 3.379 5.621-4.779 5.616 2.249zm114.58 21.343c1.814 0.316 1.933-1.063 3.37-1.125-1.205-8.532-2.283-17.19-8.988-20.218 0.917 8.066 7.009 10.962 5.618 21.343zm-86.499-20.222c-0.724 4.894 1.465 12.699-1.123 15.727-0.241-1.114-0.715-16.807 1.123-15.727zm38.194 5.616c3.661 2.215 2.669 2.578 2.246 7.865 4.658-3.207 9.837-5.891 16.851-6.74-3.002-7.68-15.063-8.531-19.097-1.125zm-50.554 0c2.861-0.134 4.359-1.635 4.495-4.493-2.858 0.139-4.356 1.637-4.495 4.493zm62.912-1.123c-3.776-1.422-5.944 4.399-7.865 1.123 2.566-1.606 5.676-5.067 7.865-1.123zm-35.948 4.495c0.134 3.236-0.614 7.353 1.123 8.986 5.961 0.27 0.244-4.173 3.37-6.74 2.337 0.636 3.63 3.21 5.616 1.123 0.691-5.023-7.052-5.606-10.109-3.369zm65.153 14.604c4.833-3.336 3.482-14.96-3.369-15.727 2.179 4.184 1.811 10.919 3.369 15.727zm-59.537-3.37c2.859-0.138 4.357-1.637 4.493-4.495-1.307 0.182-2-0.248-2.249-1.123-2.454 0.165-2.409 2.829-2.244 5.618zm-12.357-2.248c-7.901 0.516-6.546 10.438-8.986 13.48-2.617-7.836 2.409-15.827 8.986-13.48zm34.824 0c2.005 5.484 7.112 7.867 5.616 16.85 7.874-3.233-1.135-19.004-5.616-16.85zm10.111 17.973c6.782 3.692 10.396-15.428 1.121-15.725 2.112 6.634 2.225 10.305-1.121 15.725zm-13.481-14.601c-0.929 3.173 1.582 2.91 1.123 5.616 1.817 0.317 1.934-1.061 3.37-1.124-1.326-1.668-0.973-5.018-4.493-4.492zm2.247 6.739c0.678 2.691 1.613 5.126 1.123 8.988 6.741 0.146 4.832-13.077-1.123-8.988zm-31.455 8.988c1.912 0.413 2.12-0.877 2.249-2.247 1.919-0.05 2.908 0.834 3.369 2.247 3.549-2.196-0.719-5.917-2.246-6.742-2.418 0.951-3.977 2.768-3.372 6.742zm90.992 1.123c0.58 6.144-5.012 15.723 1.123 16.851 2.504-7.88 3.864-19.8-2.244-24.716-3.829 2.851 0.757 4.01 1.121 7.865zm-4.493 3.37c-0.521 3.969-5.038 3.948-4.493 8.985 8.422 3.561 9.132-10.854 4.493-15.727-3.398 0.155-1.319 5.011 0 6.742zm-8.988 4.492c1.142 0.729 1.161 2.584 3.369 2.247 2.24-2.631 2.591-7.148 2.249-12.358-4.54 0.703-4.103 6.383-5.618 10.111zm-57.288-8.985c0.239 11.108 7.052 21.248 16.85 19.097-8.438-0.266-10.878-12.982-16.85-19.097zm-20.223 15.725c-1.565 1.804-5.544 1.197-6.739 3.372-0.796-4.541 1.078-6.415 5.616-5.616-1.804-9.125-9.629-0.753-10.109 4.493-3.002-4.175 1.436-10.508 5.616-11.233-6.481-7.162-11.125 4.763-8.988 13.477 5.059 0.518 7.573 3.343 12.358 0-1.317 4.674-7.316 4.669-7.863 10.111 11.861-3.119 15.269-14.688 15.727-29.208-4.803 1.938-3.376 10.104-5.618 14.604zm62.909-14.602c-3.429 0.922-2.696 3.157-6.739 1.123 0.32 13.737-16.798 8.31-24.715 11.235 1.037 4.203 9.019 1.462 13.48 2.246 0.445 2.691-5.116-0.624-3.369 3.37 2.81 2.829 4.411-1.288 7.865-1.123-1.133 2.612-3.867 3.622-7.865 3.369 0.368 2.627 1.35 4.641 2.246 6.742 9.466-2.894 17.584-7.129 20.22-16.851-4.918 2.945-6.579 9.146-12.357 11.232 1.345-5.035 11.753-10.704 11.234-21.343zm-32.578 8.986c7.786-0.33 9.065-0.33 16.851 0-1.477-5.597-15.46-6.422-16.851 0zm-4.495 10.111c-5.131-2.359-6.534-8.443-11.232-11.235 1.446 7.543 4.902 13.073 12.358 14.605-0.93-3.176 1.582-2.911 1.123-5.616-4.22-2.522-6.668-6.816-8.988-11.235-3.004 5.286 4.562 9.641 6.739 13.481zm29.211-6.742c0.124-2.87 2.057-3.931 3.369-5.616-0.375 2.619-1.154 4.84-3.369 5.616zm20.22-5.616c-2.11 10.809 4.538 28.298 15.725 25.836-8.47-5.384-11.39-16.317-15.725-25.836zm-47.182 13.481c0.779 0.906 1.747 3.076 0 3.37 0.765 3.353 4.471 3.764 8.988 3.369-0.712 4.156-6.311 3.427-11.234 3.372-1.647 3.645-1.654 10.011 3.372 10.109 3.482-3.009-2.947-4.27 0-6.739 3.18 0.186 4.679 2.058 7.862 2.246 1.133-2.236 1.943-4.798 4.493-5.616 6.861 6.004 3.279 15.496 4.493 26.96 5.496 0.626 2.683-7.055 3.372-11.235 1.305-3.936 4.208-6.275 5.616-10.109-1.774-1.99-4.018-6.885-6.74-4.492 0.359 2.636 1.776 4.215 1.124 7.862-3.267-4.598-1.74-13.987-11.235-12.355 0.318-1.816-1.061-1.936-1.123-3.37-1.001 0.87-2.538 1.205-4.495 1.121-0.445-2.691 5.116 0.624 3.369-3.37-1.448-1.548-4.88-1.111-7.862-1.123zm10.109 51.672c5.109-4.899 0.755-20.11-1.121-28.082-2.982 8.24 3.178 17.025 1.121 28.082zm17.974-3.367c3.685-4.555 5.706-10.773 8.985-15.727-7.867-0.163-11.115 9.55-8.985 15.727zm33.703 0c4.866-4.184-2.502-13.39-6.742-15.727 0.524 6.966 5.191 9.786 6.742 15.727zm-94.364-2.249c5.511-1.976 6.983-7.996 10.111-12.357-6.641 0.85-8.966 6.015-10.111 12.357zm34.824 2.249c6.176-4.662-2.251-13.215-7.862-13.481 0.758 6.357 8.802 5.425 7.862 13.481zm87.622 2.247c3.143-5.17 1.258-8.625 0-14.604 4.195 1.876 4.744 13.146 0 14.604zm-65.153 24.713c12.066 2.592 30.836 9.198 37.071-3.37-12.434 6.911-25.528-0.034-32.58-7.865-1.91-0.413-2.118 0.877-2.244 2.249-5.848-5.389-4.321-18.151-6.742-26.962-5.972 10.783 2.99 25.236 4.495 35.948zm-43.812-31.455c6.524-1.771 8.873 0.772 15.727 1.126-0.674-4.247-14.953-7.55-15.727-1.126zm53.921 0c-0.344 4.586 2.345 0.6 4.493 1.123-2.82 2.048-2.058 7.676-6.739 7.865 0.365 5.451 6.586 1.702 2.246 6.739 8.828 4.978 19.448-1.379 22.467-8.988-3.535-0.538-4.393 1.601-6.742 2.249-2.356-3.26-4.316-6.916-10.109-6.742 4.472-4.698 9.894 3.65 12.355 1.124-0.676-5.714-13.191-5.497-17.971-3.37zm-55.044 7.862c-3.747 5e-3 -3.836-3.654-7.865-3.369 0.294 7.198 11.187 3.792 11.235 11.234 8.985 3.81 13.44-2.779 17.973-6.739-3.812-5.891-18.738-12.986-21.343-1.126zm107.84 1.126c-2.715 5e-3 -7.181-3.934-4.493-5.618 0.758 2.609 3.733 3.008 4.493 5.618zm-150.53 22.467c2.978-5.452 5.353-16.853 4.495-22.467-4.689 3.742-6.149 16.059-4.495 22.467zm7.862-7.863c-0.389 4.887-3.295 8.577 1.126 11.232 3.546-1.321 3.91-5.826 6.739-7.862-0.181-1.317-2.048-0.949-3.372-1.126 4.99-5.716-1.761-10.192 2.249-13.478-2.34-3.303-5.807 2.683-3.37-3.37-6.089 2.053-2.693 6.159-3.372 14.604zm-13.478 7.863c4.83-3.15-1.221-13.983 2.246-20.221-6.223 0.779-3.159 15.952-2.246 20.221zm74.141-10.112c-7.009-0.27-11.822 1.659-12.358 7.865-13.915 1.659-16.661-2.583-26.959-5.616 5.16 12.351 27.344 11.825 39.317 6.739 1.565-6.297 5.224-10.505 6.742-16.85-4.371 0.499-4.601 5.136-6.742 7.862zm78.636 4.493h3.37c0.667-3.338-1.615-12.303-7.865-12.355 0.844 4.775 5.251 5.986 4.495 12.355zm8.986-1.123c1.945-2.763-0.535-8.611-4.493-8.986-1.089 1.91 0.407 8.74 4.493 8.986zm-21.346 19.099c-0.028 1.092-1.371 0.872-2.246 1.123-0.048 4.916 2.806 6.931 4.495 10.109 2.722-1.952 1.757-5.523 4.493 0 0.554-4.49-3.64-10.897-1.123-16.85 2.014-0.144 2.37 1.376 4.495 1.123-1.546-3.398 0.533-4.013 0-8.986-2.399-0.525-2.139 1.604-2.249 3.37-3.831-1.764-3.068-4.78-2.246-8.988-2.139-0.483-2.823-2.421-5.619-2.244 1.678 8.113-1.868 15.065 0 21.343zm-125.81-4.495c0.478 2.144 3.209 2.034 2.246 5.618 3.587-1.281 5.26-4.476 5.616-8.985-0.999 0.497-2.007 0.984-2.246 2.244-2.411-1.764 3.382-4.78 2.246-8.986-5.843 0.148-3.171 8.811-7.862 10.109zm8.986 2.249c-5.172 14.305-8.869 55.739 7.864 61.783-2.812-9.019-7.953-17.878-8.988-29.208-1.436-15.727 6.345-29.765 6.742-41.563-2.901 0.523-4.397 5.616-5.618 8.988zm129.19 20.22c9.263-1.613 7.325-18.872 1.121-22.469 0.213 9.597 1.506 14.745-1.121 22.469zm-4.495-16.851c3.191-0.136 2.158-4.791-1.123-4.492-0.476 2.346 0.77 2.972 1.123 4.492zm11.235 16.851h3.369c2.299-4.995 3.69-18.423-2.246-21.343 1.976 5.769 0.745 13.887-1.123 21.343zm7.862-2.249c5.069-1.572 1.338-12.114 0-14.604-2.504 1.854-0.079 9.93 0 14.604zm-87.622-12.355c0.117 5.327 3.666 0.738 5.618 1.123 9.192 1.811 18.61 11.954 29.206 13.481-3.455-10.025-19.085-7.877-24.713-15.727-3.049 0.695-8.916-1.427-10.111 1.123zm66.279-1.126c-0.144 2.017 1.374 2.371 1.123 4.495 3.26-0.203 2.71-5.338-1.123-4.495zm-147.16 24.716c1.307 0.184 1.998-0.247 2.246-1.124-3.049-6.944-2.242-17.605-4.493-22.466-7.645 4.039-0.091 18.659 2.247 23.59zm4.492-3.37h3.37c-1.909-5.58-3.936-11.041-3.37-19.097-5.305 3.107-1.216 15.135 0 19.097zm46.059 1.123c1.814 0.318 1.933-1.061 3.367-1.123 3.97-10.635 21.246-7.963 24.716-19.097-10.733 5.368-24.484 7.719-28.083 20.22zm-39.319-4.493h3.369c-0.289-4.954-3.446-7.038-2.246-13.481-5.537 1.499-2.316 9.495-1.123 13.481zm129.19 43.81c7.941-4.039 9.504-14.458 10.108-25.836 4.097 2.282 0.935 6.722 1.124 11.234 4.28-0.59 3.121-6.615 3.369-11.234-4.66-6.445-6.873-19.219-8.985-24.713h-4.496c8.341 13.899 5.456 36.614-1.12 50.549zm-59.538-46.056c6.489-0.875 7.54 3.692 11.233 5.616 10.577 0.284 16.917 4.801 22.468 10.109 1.91 0.413 2.118-0.875 2.247-2.244-5.351-5.511-12.265-9.457-21.346-11.235-2.865-2.05-12.365-10.135-14.602-2.246zm-29.208 17.974c4.691-7.292 14.552-9.414 22.467-13.481-9.524-2.02-21.375 3.329-22.467 13.481zm105.6 11.232c-0.901 5.453-5.738 9.229-3.37 12.357 7.194-6.211 7.251-17.639 6.74-29.208-6.45 1.592-2.385 10.893-3.37 16.851zm-44.935 12.357c0.87 4.378-4.151 5.824-1.124 8.988 11.514-11.464-2.239-30.658-13.48-33.701 4.946 8.162 13.055 13.156 14.604 24.713zm-95.485-8.985c1.429 5.456 7.191 11.141 8.986 14.601 4.975-7.652-9.619-14.03-7.863-25.836-3.84 1.573-1.868 8.391-1.123 11.235zm66.279 32.575c4.775-2.87 0.839-2.87 5.616 0-0.815-3.434 1.938-3.303 1.123-6.737-4.361-0.413-3.477-1.606-7.865-3.372-0.346 4.092 0.18 7.311 1.126 10.109zm-6.742-8.986c-0.994 3.351 3.504 6.84 1.123 7.863 0.823 2 2.044 0.162 3.37 0-0.416-3.702 0.347-8.582-4.493-7.863zm-6.739 11.232h3.37c1.603-1.498 1.603-6.364 0-7.862-0.897 2.851-3.229 4.261-3.37 7.862zm22.467-2.246c4.263 0.98 5.274-3.728 3.369-5.616-1.969 1.028-3.902 2.089-3.369 5.616zm7.864 0c4.868-0.466-1.185-6.519 0 0z" fill="url(#a)" stroke="none" stroke-linejoin="miter" stroke-miterlimit="79.84" stroke-width="1.013"/>
  </g>
 </g>
</svg>
