<?xml version="1.0" encoding="UTF-8"?>
<svg viewBox="0 0 533.875 762.15625" xmlns="http://www.w3.org/2000/svg">
 <g transform="translate(-93.438 -123.03)">
  <path d="m323.75 123.03v114.66h-230.31v56.062h81.312l11.625 9.5938 22.719 21.719 9.5938 5.0312 8.0938 4.5625c4.0668 2.2925 8.6293 3.6484 12.625 6.0625 8.4433 5.1012 23.75 17.656 23.75 17.656l19.188 7.0938 10.094 4.5312 2.0312 5.5625 9.5938 29.281 6.5625 34.344 3.5312 14.656-7.5625 27.781-6.5938 13.125-4.0312 17.688 0.5 15.156 4.0625 24.25 14.125 69.688 2.5312 19.688s0.5 12.631 0.5 15.156-0.5 17.183-0.5 20.719 4.0312 20.719 4.0312 20.719l4.0625 22.719-1.0312 57.062h-9.5938v49l4.5625 10.594h6.0625l1 47.5 55.062 0.5-1.0312-48h7.0938l6.0938-7.9509-1.0625-51.643h-8.0625l-0.53125-44.938 7.5938-36.375-1-29.281-2.5312-19.719 1-18.688 10.094-35.844 1.5312-39.406 0.5-21.719-4.0312-29.281-4.0625-18.188v-22.219l7.5938-34.344 4.5312-33.344 4.5625-19.688 4.5312-11.125 27.281-10.094 25.75-19.188 17.688-6.5938 27.281-18.156 16.156-15.656h99v-56.062h-244.97v-114.66h-58.594zm162.62 170.72-22.719 15.125-20.188 10.125-17.188 8.0625s-5.0582 5.0625-8.5938 5.0625-16.156 0.5-16.156 0.5l-6.5625 1.5312-10.594 7.0625-3.0312-1-1.5312-46.469h106.56zm-169.69 0-3.0312 10.594-1 10.094-5.5625 11.625-0.5 13.625-13.156-5.0312-16.156-3.5312-18.688-7.5938-17.156-6.0625-9.5938-5.5625-10.625-12.625-8.5938-5.5312h104.06z"/>
 </g>
</svg>
