<?xml version="1.0" encoding="utf-8"?>
<svg version="1.1"
	 id="svg2" xmlns:cc="http://creativecommons.org/ns#" xmlns:dc="http://purl.org/dc/elements/1.1/" xmlns:rdf="http://www.w3.org/1999/02/22-rdf-syntax-ns#" xmlns:svg="http://www.w3.org/2000/svg"
	 xmlns="http://www.w3.org/2000/svg" xmlns:xlink="http://www.w3.org/1999/xlink" x="0px" y="0px" viewBox="0 0 5000 2720.829"
	 enable-background="new 0 0 5000 2720.829" xml:space="preserve">
<g id="g10" transform="translate(4014.6847,-68.036322)">
	<path id="path837" d="M-2243.364,2782.936c-15.304-6.019-115.37-4.146-140.424-11.659c-1.004-0.301-68.478-17.68-73.838-25.228
		c-0.363-0.51-2.439-1.362-4.615-1.892c-14.875-3.625-55.181-32.323-59.064-38.896c-11.411-19.318-85.122-29.109-86.127-29.109
		c-6.276,0-16.384-7.142-29.477-7.739c-16.109-0.735-18.842-11.144-46.034-25.482c-38.455-20.278-61.311-91.693-105.633-109.123
		c-24.85-9.772-37.66-24.67-46.388-28.316c-7.176-2.997-5.418-4.705-9.076-4.705c-8.689-0.022-22.25-20.827-27.241-26.491
		c-14.666-16.642-28.888-27.28-34.797-49.581c-4.397-16.596-6.165-33.616-8.958-50.507c-6.107-36.925,7.399-57.659,30.175-85.705
		c25.106-30.913,86.021-88.342,98.761-88.342c0.541,0,2.313-1.799,3.938-3.997c0,0,31.833-14.581,64.027-38.89
		c1.006-0.76,67.115-43.364,68.021-44.517c2.386-3.033,22.331-14.393,23.337-14.813c35.627-14.887,329.32-242.625,335.65-259.389
		c0.479-1.269,1.792-2.307,2.918-2.307c7.163,0,36.764-42.589,37.919-42.956c9.893-3.14,28.917-35.512,49.054-57.821
		c3.783-4.191,60.497-108.389,61.177-126.999c0.126-3.445,0.765-8.043,1.421-10.219c2.472-8.202,0.807-30.627,4.678-34.904
		c5.997-6.626-28.134-124.359-30.276-134.067c-7.474-33.868-82.425-150.185-82.425-150.185c0-10.731-52.567-66.249-54.368-68.314
		c-5.751-6.594-1.242-5.601-8.756-12.576c-14.042-13.033-70.124-89.94-217.723-164.254c-81.942-41.26-101.856-49.139-101.856-49.139
		c-10.537-8.346-59.503-11.929-72.493-23.684c-26.254-23.76-28.515-8.874-163.195-52.014c-27.469-8.799-55.587-29.416-56.697-29.995
		c-49.993-26.091-73.635-34.905-73.635-34.905c-5.116-2.656-169.711-37.43-179.358-46.16c-1.332-1.205-3.293-1.857-4.358-1.448
		c-10.793,4.141-95.125-45.981-100.649-48.806c-23.284-11.912-94.213-70.542-106.529-70.542c-1.869,0-17.746-11.867-20.714-11.867
		c-1.352,0-2.799-0.551-3.216-1.225c-3.727-6.029-103.875-42.717-104.881-42.906c-18.328-3.447-73.632-21.986-69.371-33.093
		c1.895-4.938-92.812-52.414-107.948-64.992c-1.006-0.836-67.712-53.156-82.582-77.648c-13.015-21.437-80.965-124.704-104.95-125.63
		c-6.886-0.302-20.993-17.436-25.647-21.67c-18.118-16.481-35.47-33.889-51.515-52.403c-18.168-20.965-35.128-43.739-45.642-69.604
		c-8.002-19.686-20.412-59.907-3.506-77.796c43.738-46.277,44.844-26.96,149.206-23.177c44.01,1.595,82.568,18.882,228.56,13.205
		c88.028-3.423,89.966,2.605,147.676,6.687c250.432,17.739,1207.346-98.982,1511.403,408.773
		c80.601,134.593,182.923,180.149,208.764,202.182c18.928,16.143,24.186-5.893,27.227-4.773
		c0.917,0.337,303.647-186.829,372.009-250.22c96.099-89.116,90.17-85.584,90.17-85.584c1.078-0.342,79.397-92.411,79.397-92.615
		c0-1.004,81.627-108.407,158.536-141.365c0.011-0.005,0.023-0.01,0.034-0.015c43.567-18.656,95.968-19.683,139.897-1.601
		c21.34,8.784,40.818,22.437,54.856,40.906c7.156,9.415,12.793,19.927,16.723,31.078c4.163,11.812,3.217,25.056,7.101,36.493
		c1.507,4.438,4.024,7.522,7.253,10.991c11.976,12.869,16.373,32.583,16.65,49.661c0.407,25.165-4.505,59.76-34.962,64.469
		c-3.951,0.611-3.003,12.781-12.538,6.664c-2.615-1.657-3.184-12.008-0.66-12.008c3.887,0-15.609-43.741-32.774-46.795
		c-8.424-1.499-14.32-1.32-15.424,0.467c-1.147,1.856-9.652,3.485-12.495,2.394c-3.111-1.194,2.084-10.552,7.701-13.866
		c25.597-15.097,54.774,12.29,63.217,35.57c1.701,2.948,3.39,4.498,3.887,7.743c2.297,0.781,3.574-0.878,5.751-0.878
		c8.434-4.085,27.128-52.326-5.696-87.549c-4.897-5.254-4.937-17.731-7.334-20.641c-0.721-0.875-0.846-2.342-0.275-3.265
		c9.639-15.643-20.988-49.12-29.253-60.445c-0.055-0.075-6.356,13.051-6.829,14.307c1.18-3.139-14.213-20.254-16.615-23.097
		c-6.182-7.317-13.145-13.954-21.432-18.846c-20.016-11.816-46.475-13.229-69.081-11.389
		c-118.39,9.639-199.805,143.717-208.94,149.96c-12.673,8.661-94.833,119.841-110.349,119.841c-3.694,0-1.335,3.925-4.081,6.83
		c-72.566,76.792-225.985,178.747-236.54,183.711c-23.139,10.883-114.227,68.989-113.36,71.248c0.798,2.078-2.157,4.794-4.646,4.271
		c-2.418-0.509-74.966,47.744-74.966,52.93c0,0.777-0.634,1.413-1.408,1.413c-1.965,0,4.045,6.913,4.045,9.198
		c0,0.846,0.814,2.353,1.809,3.348c8.501,8.501-6.407,14.501-17.34,6.979c-4.203-2.891-6.618-3.724-9.039-3.117
		c-12.657,3.177-55.98,56.209-63.441,59.979c-4.75,2.4-9.492,13.789-12.87,18.033c-6.977,8.766-14.389,17.151-21.163,26.099
		c-13.799,18.228-26.43,37.339-37.805,57.17c-14.103,24.586-26.277,50.278-36.356,76.769c-5.185,13.627-8.868,27.741-13.847,41.402
		c-3.047,8.359-10.706,18.85-11.048,27.885c-0.897,23.732-31.642,74.589-34.006,85.498c-1.364,6.296-9.464,17.797-13.192,18.733
		c-6.735,1.69-9.201-6.011-4.806-15.003c82.483-168.742,62.117-233.099,216.738-387.874c24.77-24.794,19.009-15.444-5.604-32.509
		c-9.671-6.705-22.359-11.472-29.705-19.008c-12.746-13.008-30.189-23.149-44.373-34.578
		c-89.057-71.755-140.274-174.254-215.211-258.766c-12.405-13.99-25.495-28.142-40.918-38.879
		c-5.843-4.067-51.764-40.951-52.584-43.841c-1.402-4.945-15.576-10.542-19.457-12.763c-16.068-9.193-32.545-17.695-49.079-26.012
		c-47.045-23.667-95.149-45.513-144.36-64.296c-38.103-14.543-77.748-24.495-117.533-33.2
		c-37.49-8.203-75.039-19.006-112.464-25.994c-20.475-3.823-41.09-6.914-61.704-9.871c-27.38-3.927-55.105-6.353-82.392-10.823
		c-75.527-12.374-153.118-14.266-229.454-16.861c-107.963-3.67-216.001-4.908-324.011-6.38
		c-114.062-1.555-228.14-3.008-342.159-6.618c-94.82-3.002-189.54-7.563-283.901-17.573c-18.006-1.91-39.846-8.509-51.56,10.438
		c-6.491,10.499-5.828,23.859-3.573,35.995c5.261,28.312,19.758,49.283,32.503,74.165c6.422,12.54,17.332,22.65,27.218,32.916
		c15.221,15.806,31.108,30.971,47.605,45.44c7.906,6.934,15.852,14.662,23.99,21.115c5.431,4.306,12.218,6.512,17.281,11.269
		c69.749,65.541,86.997,133.687,133.253,161.011c6.254,3.694,6.134,9.261,9.383,10.496c10.888,4.137,16.002,13.066,24.452,16.934
		c1.008,0.462,146.974,88.382,146.974,79.879c0,1.004,50.584,28.332,53.766,26.551c0,0,228.439,31.997,482.143-27.91
		c1.111,1.471,4.779,5.783,3.487,7.081c-1.74,1.748-182.506,48.302-415.257,38.456c-39.017-1.651-0.439,5.806,14.81,19.194
		c5.123,4.498,47.151,20.049,56.154,30.898c0.632,0.761,39.418,28.394,44.602,34.849c3.798,4.729,52.151,29.367,56.964,33.059
		c44.659,34.249,232.361,70.281,233.38,70.602c43.494,13.67,127.165,62.22,128.178,62.896c9.574,6.386,50.523,15.494,83.446,26.376
		c28.899,9.552,71.283,8.972,99.611,34.861c7.113,6.5,67.213,17.584,94.192,30.866c44.824,22.067,136.669-50.94,149.675-57.248
		c33.745-16.367,1.308-14.633-11.436-24.978c-11.12-9.027-34.728-11.282-28.803-23.768c5.078-10.701,10.92-0.895,12.544-0.895
		c1.537,0,11.957,4.966,17.806,8.486c62.034,37.33,53.863-0.575,72.063-0.575c3.662,0,0.496,7.351-6.128,14.232
		c-8.903,9.247-8.958,8.545,0.952,12.252c12.135,4.538,89.046,3.548,107.751-1.387c13.632-3.597,35.545-1.725,34.04,2.908
		c-3.218,9.906-127.752,21.618-166.195,6.866c-5.6-2.149-80.537,49.129-81.541,49.983c-57.856,49.194-113.009,7.275,8.865,70.948
		c102.624,53.615,154.766,113.18,154.766,113.18c5.616,0,66.971,76.475,72.685,76.475c0,0,78.776-194.762,98.818-220.118
		c1.224-1.548,11.121-16.324,11.279-16.657c4.07-8.576,13.717-11.33,11.728-3.349c-1.051,4.217-41.53,69.316-41.53,71.565
		c0,11.229-50.829,117.029-50.829,117.029c0.441,0.714-6.275,23.854-8.06,25.336c-0.97,0.805-1.763,2.189-1.763,3.075
		c0,2.5-5.567,5.482-4.743,8.505c1.189,4.361-4.937,19.197-8.113,19.648c-1.632,0.232-2.967,0.736-2.967,1.12
		c0,2.072,9.865,16.259,11.305,16.259c4.99,0,89.296,151.496,90.301,152.5c6.224,6.224,46.879,159.74,30.644,162.866
		c-3.316,0.639-1.469,31.06-1.682,32.067c-13.87,65.646-49.015,126.587-88.382,180.141
		c-49.207,66.941-116.279,123.947-180.782,174.827c-30.643,24.171-62.214,47.183-93.85,70.029
		c-74.368,53.704-149.695,106.223-226.282,156.72c-26.479,17.459-54.439,32.562-80.742,50.296
		c-13.312,8.975-26.22,18.605-38.076,29.452c-5.972,5.464-11.691,11.212-17.035,17.294c-2.545,2.896-14.581,12.953-14.581,16.639
		c0,3.168-14.504,14.06-14.504,16.458c0,1.095-10.66,14.912-11.537,15.567c-5.339,3.986-13.962,33.801-12.766,40.239
		c1.442,7.766,0.877,25.913,2.862,28.336c0.771,0.941,1.703,4.975,2.071,8.971c1.793,19.449,11.438,37.44,22.927,52.867
		c6.375,8.562,25.703,36.786,37.372,36.786c1.341,0,18.136,11.297,28.079,18.886c6.258,4.776,24.821,14.03,39.111,19.496
		c28.177,10.778,69.971,101.248,96.887,106.268c10.834,2.021,23.508,19.231,35.139,20.598c14.243,1.674,15.439,5.216,60.479,14.029
		c42.553,8.326,46.375,9.626,56.697,19.279c71.991,67.323,145.185,78.419,244.588,78.362c60.142-0.034,16.368,7.589,66.135,8.509
		c142.622,2.636,128.927-18.588,156.037-22.139c1.691-0.221,36.859-8.78,36.863-8.782c8.657-4.617,24.068-2.903,33.546-3.287
		c40.796-1.652,83.509-30.34,108.785-60.995c-1.235,0.84-2.469,1.679-3.704,2.519c27.388-20.541,38.905-56.141,59.309-81.956
		c14.312-18.108,11.402-40.142,14.571-61.422c5.388-36.182,28.849-65.025,35.977-99.896c2.597-12.706,3.694-25.906,6.059-38.708
		c1.577-8.531,7.729-20.763,7.729-28.999c5.425-10.078,45.602-325.947,88.251-378.878c2.032-2.522,5.393-7.997,7.468-12.167
		c29.522-59.335,45.534-72.738,45.534-72.738c0-14.313,151.704-176.248,149.458-182.102c0,0,311.091-321.615,371.792-504.358
		c8.378-25.222,35.933-65.061,76.056-253.763c0.214-1.008,17.556-122.811,16.681-127.234c-4.496-22.741-1.089-7.959-0.124-20.69
		c1.189-15.688,11.731-59.427,7.406-59.743c-7.402-0.541,20.734-139.29,22.675-148.614c14.689-70.559,28.758-142.853,51.796-211.277
		c2.114-6.278,4.226-12.661,7.316-18.542c0.63-1.199,2.344-2.571,2.772-3.688c2.236-5.841-0.852-15.23,3.966-21.25
		c3.437-4.295,8.858-6.541,14.245-7.655c6.403-1.325,32.799-4.835,32.799,7.432c0,2.794,0.763,3.971,2.944,4.541
		c8.128,2.125-11.029,6.991-15.985,3.7c-5.116-3.397-7.788,1.112-13.753,1.112c-3.318,0-1.261,3.956-3.972,3.956
		c-0.967,0-1.833,0.742-1.925,1.648c-0.652,6.45-7.036,24.043-13.035,35.929c-31.825,63.049-72.584,307.468-72.32,324.576
		c0.225,14.686,2.458,5.714,24.43,2.384c29.18-4.422,104.164-48.315,104.164-49.319c0-1.004,448.022-348.082,789.231-366.013
		c42.837-2.09,85.843-2.318,128.711-3.616c91.685-2.777,183.362-5.913,275.008-9.771c85.827-3.613,171.779-7.24,257.395-14.444
		c41.037-3.453,81.583-11.028,121.848-19.46c19.775-4.141,39.501-8.516,59.261-12.729c25.971-5.538,51.81-11.676,77.586-18.054
		c26.722-6.612,55.516-16.269,83.356-20.436c19.716-2.951,35.418,0.22,37.274,22.395c1.601,19.13,0.774,24.9-5.373,37.461
		c-8.591,17.557-5.75,38.147-29.866,63.382c-3.754,3.928-9.929,19.272-16.943,25.521c-1.991,1.774-9.9,26.917-24.089,26.917
		c-9.52,0-7.9,10.064-14.961,18.516c-29.848,35.725-65.241,73.525-109.8,90.545c-9.987,3.814-20.2,5.598-30.503,8.159
		c-20.054,4.985-39.017,13.541-57.584,22.45c-15.406,7.393-33.84,20.969-50.766,23.575c-58.966,9.08-118.34,63.222-184.437,67.989
		c-20.73,1.495-20.352,1.392-28.903,7.895c-8.706,6.621-28.193,14.03-28.942,14.03c-0.456,0-17.225,14.504-23.788,14.504
		c-1.916,0-4.655,0.806-6.085,1.79c-3.782,2.603-11,4.735-18.932,5.59c-5.539,0.598-29.539,8.442-31.682,8.442
		c-5.996,0-6.579,6.175-16.378,11.867c-1.006,0.584-55.773,31.727-57.819,31.227c-6.521-1.594-30.221,16.24-38.978,16.24
		c-3.549,0-38.02,29.536-43.335,36.841c-6.492,8.922-17.189,15.29-25.566,22.279c-11.628,9.702-23.214,19.455-34.823,29.18
		c-3.542,5.212-8.07,9.665-12.566,14.08c-12.59,12.365-25.678,24.385-37.85,37.16c-8.62,9.046-17.308,21.948-29.004,27.387
		c-5.759,2.678-25.536,25.579-28.809,25.579c-1.006,0-19.871,25.052-24.02,25.052c-2.558,0-7.884,13.013-11.584,13.28
		c-0.725,0.052-3.692,3.042-6.593,6.643c-28.588,35.492-179.684,138.552-194.483,146.415c-24.599,13.07-17.044,28.197-86.263,62.813
		c-14.408,7.206-13.161,10.82-19.709,10.82c-7.108,0-14.178,11.867-22.335,11.867c-2.716,0-12.367,8.32-13.997,7.312
		c-1.645-1.017-3.513,3.236-6.083,3.236c-0.814,0-16.703,13.185-24.417,13.185c-4.389,0-11.205,11.409-20.72,15.96
		c-1.006,0.481-228.701,115.917-241.322,128.749c-9.695,9.858-39.743,18.789-41.095,18.789c-13.63,0-92.407,62.507-122.013,69.783
		c-7.972,1.959-13.188,5.034-19.43,8.176c-1.006,0.506-21.236,5.002-27.65,11c-0.18,0.169-46.269,27.511-46.357,27.742
		c-4.913,12.8-171.082,62.591-172.245,63.296c-25.456,15.437-59.165,19.581-87.715,27.989c-24.779,7.297-49.557,14.593-74.336,21.89
		c-23.362,6.88-47.502,15.65-70.289,25.716c-13.705,6.054-40.417,11.044-49.481,23.983c0,0-22.223,19.569-22.224,19.569
		c-5.542,4.403-113.933,132.779-126.297,136.018c-1.852,0.485-3.03,2.3-3.753,5.78c-2.503,12.047-41.632,55.445-45.725,58.312
		c-11.866,8.312-40.922,65.221-50.17,73.591c-4.093,3.703-1.326,8.795-5.336,12.229c-19.192,16.432-60.29,155.281-57.89,155.281
		c-5.326,29.981-10.748,59.945-16.248,89.895c-7.452,40.577-18.86,82.002-23.564,122.758c-2.958,25.628-10.27,50.606-13.006,76.106
		c-3.646,33.968-11.891,28.117-11.928,43.164c-0.046,17.942-28.286,63.642-27.692,91.991c0.741,35.696-32.325,77.082-52.323,104.359
		c-10.116,13.798-17.659,28.549-29.038,41.281c-23.623,26.433-57.378,46.977-93.142,49.955
		c-36.806,3.065-70.932,3.771-105.668,18.615c-28.401,12.136-40.311,12.718-60.425,15.391
		C-2138.477,2788.25-2220.202,2792.044-2243.364,2782.936z M-1294.588,1616.053c1.004,0,359.122-100.716,388.872-140.423
		c3.494-4.664,5.27-5.933,8.297-5.933c5.353,0,16.921-6.633,25.325-9.263c75.435-23.607,95.378-56.562,148.65-80.255
		c14.145-6.291,32.686-10.785,64.568-36.636c16.624-13.48,99.92-49.055,99.92-49.055c0.882-1.252,184.92-104.552,185.926-104.991
		c65.748-28.658,113.677-75.803,112.529-75.801c1.282-0.002,81.295-53.553,81.295-58.566c0-1.749,14.01-11.318,16.571-11.318
		c5.316,0,76.699-54.552,77.704-55.116c14.275-8.007,64.149-70.144,69.222-70.144c0.759,0,195.098-184.882,195.515-185.286
		c17.567-17.021,97.406-40.303,120.883-64.524c5.642-5.821,1.914-1.413,19.42-8.593c39.99-16.402,39.474-3.721,86.534-35.381
		c21.905-14.737,71.711-23.879,84.968-27.498c35.32-9.643,73.878-30.308,74.667-31.314c1.998-2.548,19.239-11.318,22.25-11.318
		c13.28,0,102.92-32.257,113.325-42.661c15.871-15.871,76.694-9.241,131.194-62.492c1.012-0.989,40.255-35.75,43.102-47.093
		c2.453-9.773,15.86-23.762,25.444-26.548c5.456-1.586,7.51-2.911,8.662-5.588c5.262-12.233,43.157-60.684,43.157-77.042
		c0-2.497,10.091-31.666,10.548-31.949c6.859-4.239-0.39-24.938-8.4-23.986c-17.142,2.036-34.1,5.203-40.902,7.638
		c-234.823,84.067-782.012,82.45-1018.708,96.778c-13.105,0.793-141.251,32.297-155.257,32.303
		c-16.007,0.007-172.919,71.667-186.964,81.085c-37.967,25.458-80.171,45.261-119.663,68.217
		c-38.51,22.385-76.227,46.134-113.056,71.188c-34.729,23.625-66.939,50.113-102.129,73.236
		c-25.769,16.922-52.224,32.799-79.28,47.577c-13.875,7.579-27.907,14.867-42.085,21.862c-3.275,1.616-30.516,9.749-31.4,11.96
		c-1.521,3.964-20.862,8.568-35.989,8.568c-3.994,0-4.033,0.069-4.826,8.564c-2.854,30.081-8.682,60.302-12.616,90.405
		c-9.973,76.299-20.07,151.272-40.353,225.661c-16.167,59.292-37.06,117.324-62.619,173.219
		c-23.485,51.358-50.295,103.053-84.41,148.324c0,17.58-131.952,177.908-141.061,177.908c-3.405,0-4.39,0.902-7.333,6.709
		c-6.549,12.923-41.475,45.792-41.475,52.432C-1364.565,1647.766-1307.07,1616.053-1294.588,1616.053z M-1198.93,1559.304
		c26.322-27.403,50.202-87.274,58.405-104.684c57.936-122.974,18.65-9.066-35.046,91.551
		C-1193.968,1580.647-1217.498,1578.635-1198.93,1559.304z M-1020.898,1487.497c15.785-29.046,25.945-108.428,26.102-109.438
		c11.464-73.66-8.176-168.113,4.005-168.113c13.419,0,12.513,213.642-10.071,249.481c-2.185,3.467-4.575,11.239-5.768,18.758
		C-1010.725,1503.987-1028.753,1501.95-1020.898,1487.497z M-875.486,1431.862c-1.104-2.905-0.705-4.992,2.193-11.45
		c3.305-7.364,3.484-8.705,2.659-19.851c-1.698-22.942-26.3-184.974-26.664-185.925c-0.451-1.176-2.351-2.053-4.449-2.053
		c-7.029,0-4.676-12.846,2.787-15.215c17.234-5.47,15.823,41.285,16.25,42.302c5.92,14.108,11.304,95.426,14.34,104.827
		c5.04,15.616,4.841,26.699,7.926,72.676C-865.31,1427.013-871.67,1441.899-875.486,1431.862z M-742.643,1340.738
		c-0.844-0.933-49.219-104.264-60.094-134.089c-9.102-24.963-8.146-37.666-18.28-32.443c-96.667,49.821-118.145-9.979-79.829,3.537
		c28.24,9.962,60.217-10.28,81.886-17.158c4.14-1.314,3.628-16.567-0.556-16.567c-2.546,0-1.981-2.637-0.824-2.637
		c1.628,0,1.781-21.022,0.174-24.025c-1.723-3.22,2.599-7.539,7.596-7.591c5.874-0.061,5.735,27.51,4.183,28.469
		c-1.614,0.998,2.88,4.921,2.88,9.373c0,16.714,120.819-79.141,133.802-98.954c6.089-9.292,14.219-2.815,1.446,10.635
		c-7.309,7.696-4.261,7.742-9.901,11.509c-5.853,3.91-3.427,6.624-8.529,8.564c-1.883,0.716-3.424,1.862-3.424,2.547
		c0,6.182-85.833,70.292-101.527,77.18c-13.773,6.046-8.049,6.412-5.239,19.87c2.52,12.069,21.061,62.069,21.061,62.069
		c0,1.005,40.134,79.219,39.422,84.586c-0.171,1.286,0.489,3.994,1.466,6.018C-733.669,1338.384-738.216,1345.63-742.643,1340.738z
		 M-638.644,1189.509c-5.304-4.995-16.551-21.783-16.551-24.706c0-47.382,76.299,112.777,104.104,105.355
		c7.414-1.979,9.464,0.099,6.156,6.241C-566.184,1315.861-630.522,1197.158-638.644,1189.509z M-537.799,1192.719
		c6.239-11.657,17.903,14.25,31.081,20.503c2.548,1.209,4.955,3.039,5.349,4.066c1.018,2.654,11.609,4.381,18.332,8.536
		c2.462,1.522,5.108,2.377,5.878,1.901c2.322-1.435,7.877,3.102,7.877,6.432C-469.282,1257.028-547.897,1211.587-537.799,1192.719z
		 M-1030.239,1148.853c-5.054-3.696-8.68-20.852,75.079-15.28c57.683,3.838,109.64-69.792,133.172-93.322
		c38.611-38.61,37.322-71.462,91.086-71.551c51.62-0.086,167.105-29.23,181.839-77.558c6.511-21.357,13.708-33.804,38.375-35.029
		c44.289-2.2,103.227-91.859,71.355-79.729c-1.101,0.419-57.637,19.719-57.637,2.359c0-9.91,12.337-5.19,27.689-8.976
		c48.237-11.895,43.079-2.215,56.086-28.512c20.108-40.654,16.628-6.198,11.942,3.095c-2.864,5.68-1.63,6.474,7.221,4.65
		c25.479-5.251,67.152-41.406,67.152-30.626c0,16.144-88.335,50.044-88.35,56.219c0,8.037-32.039,61.362-49.982,73.658
		c-23.157,15.869-22.054,14.794-61.425,27.446c-1.953,3.68-6.822,12.48-7.827,16.532c-1.198,4.825-13.426,15.13-14.488,19.229
		c-2.229,8.602-31.559,25.797-33.807,28.654c-3.601,4.577-13.666,5.372-17.161,8.867c-17.527,17.528-107.73,37.266-115.719,32.329
		c-0.872-0.539-4.688,0.08-8.479,1.375c-15.876,5.425-11.218-2.936-33.35,7.239c-8.073,3.711-6.987,0.82-12.615,8.605
		c-11.868,16.416-113.329,132.306-133.446,132.306c-0.978,0-2.852,1.187-4.165,2.637c-15.184,16.778-80.146,10.992-105.367,15.042
		C-1028.752,1151.033-1027.299,1151.004-1030.239,1148.853z M-1024.383,1111.981c0-9.409,23.84-15.971,42.193-33.276
		c82.001-77.318,100.235-179.997,237.336-200.885c19.274-2.936,61.927-7.233,65.564-9.18c1.931-1.033,10.785-4.149,12.489-4.149
		c6.955,0,91.796-67.12,93.971-69.389c5.227-5.456,8.685-11.065,16.712-27.109c17.982-35.946,44.867-56.451,52.946-56.451
		c3.147,0,10.831-9.23,16.171-9.23c1.005,0,47.583-15.755,64.605-33.388c15.672-16.235,27.038-17.488,69.36-31.112
		c42.933-13.821,116.538-71.57,117.578-72.313c28.915-20.661,81.822-44.061,122.841-69.906c12.252-7.72,26.449-29.361,22.265-8.439
		c-2.873,14.363-38.972,31.078-62.393,49.352c-17.495,13.65-47.118,17.25-69.59,35.186c-27.526,21.969-52.662,29.974-64.149,43.626
		c-6.547,7.781-28.234,14.324-36.437,21.812c-11.281,10.298-99.126,37.469-103.753,50.336c-2.373,6.604-7.494,6.164-12.182,9.503
		c-13.546,9.645-27.054,6.912-32.319,11.859c-4.426,4.158-5.648,0.897-13.461,6.339c-1.005,0.7-53.205,32.66-53.205,47.503
		c0,10.343-24.923,45.123-34.147,45.123c-0.748,0-1.923,1.038-2.612,2.307c-2.886,5.32-14.866,6.111-15.736,11.937
		c-0.811,5.438-67.307,58.274-82.102,58.274c-4.717,0-7.173,1.634-12.003,4.119c-10.651,5.479-83.993,2.275-125.812,28.796
		c-9.773,6.198-12.29,2.302-15.372,7.005c-0.659,1.007-44.486,35.482-44.486,41.706c0,0.695-1.193,1.643-2.652,2.106
		c-6.013,1.909-89.718,143.675-146.013,150.619C-1024.092,1115.319-1024.383,1115.179-1024.383,1111.981z M-359.039,1090.194
		c-5.488-8.88-106.825-23.946-123.346-41.657c-5.879-6.302,1.15-15.203,7.608-9.635c19.4,16.725,156.033,36.118,128.205,51.011
		C-349.612,1091.54-358.09,1091.731-359.039,1090.194z M-712.701,1020.607c-5.201-20.723,36.013,5.681,94.425-6.787
		c19.527-4.168,59.616-18.546,69.897-25.932c11.491-8.255,21.901-11.375,24.41-7.316c3.726,6.03-61.013,43.678-87.714,44.875
		c-3.989,0.179-7.984,0.888-8.878,1.576C-625.643,1030.933-708.707,1036.52-712.701,1020.607z M-120.531,974.633
		c-30.505-9.41-193.165-11.329-193.165-33.633c0-12.022,8.281,2.885,120.646,12.603c22.067,1.909,83.829,5.131,84.781,14.595
		C-107.757,973.291-114.097,976.618-120.531,974.633z M-952.566,959.718c-4.425-3.72-29.201-6.246-22.313-21.52
		c2.817-6.247,6.03-7.46,10.82-4.086c14.339,10.1,72.25,21.712,51.647-16.73c-3.979-7.424-2.597-16.38-29.87-23.779
		c-15.931-4.322-10.946-31.777,41.182-10.712c6.569,2.655,32.123,3.388,37.612,1.079c7.252-3.051,15.536,2.243,9.927,6.344
		c-1.127,0.824-2.05,2.11-2.05,2.858c0,1.806-9.662,5.606-14.201,5.585c-46.706-0.219-7.969,35.834-32.735,52.062
		C-912.187,957.134-948.049,963.515-952.566,959.718z M-508.178,957.71c-16.621-5.232-24.872-19.364-10.674-18.282
		c1.496,0.114,24.309,7.911,27.036,6.226c1.49-0.921,12.034-0.733,13.964-2.095c1.444-1.02,24.393-8.522,24.393-12.341
		c0-1.396,22.415-21.283,22.415-25.361c0-0.519,0.823-1.88,1.829-3.024c4.729-5.383,7.244-26.377,3.951-32.979
		c-5.177-10.378,2.892-22.53,9.69-14.592c6.066,7.085,34.027,0.038,56.165-22.884c6.296-6.519,8.084-7.708,9.889-6.576
		c13.541,8.486-26.834,38.258-44.374,43.291c-34.321,9.85-1.168,17.585-41.432,59.003c-1.993,2.05-4.588,5.199-5.766,6.997
		C-446.328,943.081-482.816,965.693-508.178,957.71z M-356.923,928.981c-14.004-4.201-5.983-24.024,5.098-15.832
		c19.726,14.584,128.124-81.919,128.444-82.926c3.69-11.625,36.751-22.047,3.893,8.552c-21.578,20.094,66.935,32.637,71.077,31.062
		c1.004-0.382,149.29-13.597,150.714-9.886c5.279,13.758-49.386,9.18-53.62,11.797c-1.951,1.206-132.676,21.013-178.635-9.486
		c-15.063-9.996-22.258,8.366-29.884,13.412c-4.237,2.804-37.585,31.181-45.29,35.589c-6.452,3.69-15.171,9.731-16.482,11.418
		C-324.384,926.257-350.482,930.912-356.923,928.981z M-883.198,826.397c3.752-5.075,4.893-5.088,12.219-0.144
		c12.208,8.239,71.616,25.609,103.693,13.319c13.566-5.198,21.713-0.563,12.703,7.225
		C-782.783,871.175-898.46,847.041-883.198,826.397z M-720.354,819.834c-0.389-0.63-3.157-1.537-6.15-2.016
		c-16.458-2.632-57.477-35.9-36.572-51.202c19.645,19.183,4.804,9.666,24.814,28.203c37.357,34.605,77.847-15.771,80.207,0.887
		C-656.467,806.918-714.457,829.376-720.354,819.834z M-101.725,715.5c37.655,9.804,147.023,1.233,187.14-8.012
		c41.736-9.617,69.507-3.32-8.167,10.606C-138.176,756.72-140.639,705.369-101.725,715.5z M-295.844,715.386
		c34.471-8.263,27.784-14.785,33.906-10.108c5.984,4.572-6.155,15.044-24.074,20.769
		C-308.336,733.179-313.04,719.509-295.844,715.386z M-199.643,696.028c42.308,5.931,90.416-33.722,97.688-41.414
		c24.116-25.51,20.067-40.41,27.651-37.499c2.675,1.027,1.407,14.276-1.844,19.271c-29.022,44.583-78.821,69.376-96.551,72.437
		C-224.138,717.702-237.351,690.742-199.643,696.028z M-712.272,691.964c-2.831-3.411,8.225-12.016,15.823-12.316
		c14.83-0.584,24.427,0.207,38.618-9.244c18.838-12.546,9.007,9.456,4.437,9.484c-0.823,0.005-2.448,1.461-3.611,3.236
		C-662.404,691.362-706.869,698.474-712.272,691.964z M-563.748,671.679c35.924,4.813,84.58-20.938,87.509-12.02
		c1.081,3.29-31.584,18.494-46.443,21.616C-597.915,697.084-585.781,668.728-563.748,671.679z M-405.333,600.081
		c15.74-1.607,33.623-11.633,33.623-2.838c0,12.104-35.609,15.456-38.426,16.015C-450.105,621.186-446.035,604.236-405.333,600.081z
		 M47.935,582.326c52.657,61.518,548.731-43.647,548.835-43.479c13.973,22.609-135.362,28.602-109.001,37.061
		c0,0-29.621,0.762-44.621,3.833c-62.345,12.763-124.952,18.893-187.985,24.947c-26.968,2.59-54.006,4.37-81.003,6.619
		C2.457,627.893,26.054,556.762,47.935,582.326z M-77.342,592.388c3.367,1.741,6.813,2.021,18.064,1.468
		c17.658-0.868,22.237-2.64,45.772-17.714c9.812-6.284,8.601-3.472,10.984-6.343c2.796-3.37,7.911-2.532,7.911,1.295
		c0,8.909-35.611,32.317-49.445,35.219C-105.9,619.288-99.457,580.952-77.342,592.388z M-299.204,549.562
		c12.564,9.289-7.649,9.801-24.381,14.18C-351.88,571.146-314.236,538.449-299.204,549.562z M405.563,479.168
		c150.927-19.687,352.748-78.103,362.595-109.123c1.93-6.08,11.208-4.239,11.208,2.223c0,13.152-70.841,50.515-82.511,50.515
		c0,0-8.733,16.287-259.648,60.839C387.874,492.382,387.881,481.474,405.563,479.168z M633.6,475.545
		c15.494-0.048,139.454-21.033,141.445-14.981c0.74,2.249-111.305,21.228-120.887,23.673
		C624.706,491.749,615.021,475.602,633.6,475.545z M-51.967,459.358c77.311-13.208,208.792-24.258,231.818-15.224
		c1.004,0.394,257.785,0.124,376.266-50.189c37.646-15.987,41.701-23.7,44.488-16.437c3.466,9.032-31.237,20.317-33.522,22.103
		c-54.23,42.39-359.114,62.316-405.893,54.952c-34.974-5.505-70.448,5.054-107.863,5.81c-22,0.444-45.008-0.224-106.341,13.369
		C-98.548,483.833-67.159,461.953-51.967,459.358z M733.877,328.546c18.561,6.687,83.756-9.518,102.845-14.499
		c1.011-0.264,95.495-23.743,97.233-22.006c8.478,8.478-55.608,19.435-156.567,45.255
		C716.294,352.923,712.4,320.809,733.877,328.546z M-2143.04,2686.259c-2.219-9.401,3.158-11.475,10.85-4.185
		c31.553,29.914,99.409-16.56,123.293-52.73c42.815-64.83,28.424-18.402,1.863,13.845
		C-2077.644,2728.912-2138.132,2707.049-2143.04,2686.259z M-2289.513,2696.25c-11.246-6.442-7.96-0.272-28.606-24.056
		c-4.812-5.543-11.609-20.124-11.609-24.902c0-8.082,8.508-5.426,13.317,4.157c18.343,36.554,48.897,38.523,64.255,30.51
		c23.472-12.246,95.242-76.615,94.236-76.759c19.245,2.752-69.456,76.8-86.012,86.853
		C-2254.233,2698.307-2279.368,2702.063-2289.513,2696.25z M-1980.222,2659.419c-15.668-3.199-16.594-31.608-4.176-19.198
		c16.066,16.056,62.351-2.878,98.685-40.37c15.981-16.49,33.551-50.659,32.333-34.897c-1.311,16.978-37.554,55.485-38.031,56.489
		C-1896.652,2632.49-1951.073,2665.373-1980.222,2659.419z M-2501.864,2641.944c-40.805-14.529-28.535-64.36-24.313-65.78
		c0.719-0.242,1.306-1.84,1.306-3.552c0-7.065,18.354-21.255,10.805,1.903c-22.98,70.495,44.118,60.164,69.625,48.03
		c42.25-20.099,51.75-36.759,70.464-46.232c9.402-4.759,13.075-12.411,16.508-10.289c9.993,6.176-64.064,61.344-69.956,61.344
		c-0.656,0-1.194,0.593-1.194,1.318C-2428.618,2629.688-2474.301,2651.757-2501.864,2641.944z M-2131.542,2540.633
		c-9.686-5.986-8.547-19.855,1.201-14.638c25.98,13.901,42.618,24.381,81.616-15.033c39.122-39.54,6.916,16.956-9.107,22.042
		c-1.604,0.509-2.915,1.733-2.915,2.72c0,4.281-19.21,13.852-31.645,15.766C-2105.007,2553.43-2106.517,2556.098-2131.542,2540.633z
		 M-2550.799,2545.478c-3.976-0.909-34.548-6.64-40.657-16.745c-20.896-34.561-2.674-56.466,2.637-23.99
		c3.606,22.045,42.406,35.38,65.906,22.652c16.726-9.059,46.621-26.535,56.716-42.782c2.232-3.592,10.459-3.57,10.97,0.029
		c0.898,6.323-36.306,41.198-41.439,41.198c-1.01,0-1.835,0.496-1.835,1.103
		C-2498.501,2534.449-2537.923,2548.421-2550.799,2545.478z M-2666.942,2459.942c-15.546-5.823-3.678-28.353,2.308-17.168
		c20.786,38.839,160.367-67.91,168.167-55.291c4.583,7.416-98.034,59.633-99.604,60.596
		C-2610.615,2456.999-2641.552,2469.451-2666.942,2459.942z M-2234.794,2449.751c0-12.028,13.461-18.355,32.304-15.184
		c45.198,7.606,91.165-31.352,92.17-31.352c2.043,0,31.225-22.766,33.097-20.864c5.477,5.563-38.479,39.428-40.818,40.156
		c-2.281,0.711-26.108,28.017-85.108,28.009C-2229.697,2450.511-2234.794,2454.288-2234.794,2449.751z M-1873.846,2427.396
		c-9.1-4.793-4.257-12.76,8.519-14.012c10.992-1.078,40.432-33.655,40.582-44.907c0.013-0.613,1.171-2.738,2.583-4.722
		c4.411-6.194,1.896-29.224,9.865-21.171c3.91,3.951,1.782,23.219-3.368,30.508c-1.36,1.925-2.473,4.42-2.473,5.546
		c0,5.042-12.709,20.706-13.708,24.013c-1.166,3.862-12.663,11.008-12.663,12.879
		C-1844.509,2422.961-1865.866,2431.601-1873.846,2427.396z M-2739.664,2325.987c-5.95,18.419,0.088,12.753,40.747,7.961
		c4.732-0.558,59.251-13.8,53.201-13.8c13.877,0,113.069-78.155,120.979-86.694c20.859-22.518,23.617-19.597,25.485-10.219
		c0.677,3.4-3.779,8.817-9.733,11.835c-32.885,16.664-105.869,114.056-226.191,121.168
		C-2796.319,2359.854-2726.556,2285.419-2739.664,2325.987z M-2370.603,2345.234c-10.316-5.111,1.684-14.92,13.414-10.965
		c49.443,16.673,96.213-32.909,113.018-44.366c8.266-5.635,26.929-24.951,31.159-23.328c2.037,0.782,2.723,5.562,0.907,6.326
		c-0.574,0.242-2.403,2.665-4.063,5.384c-5.448,8.925-65.564,58.957-71.618,58.991
		C-2288.942,2337.29-2327.263,2366.705-2370.603,2345.234z M-2006.029,2340.585c48.008-0.214,106.776-85.422,133.433-125.493
		c10.256-15.417,19.376-58.293,21.148-64.274c3.156-10.659,14.736-6.399,9.023,8.429c-11.683,30.319-13.473,87.745-128.788,184.08
		C-1985.135,2354.958-2007.855,2362.495-2006.029,2340.585z M-2108.071,2286.772c-34.388-13.1-10.289-64.148-6.258-27.284
		c0.436,3.984,1.396,7.445,2.135,7.691s1.343,1.216,1.343,2.156c0,10.671,37.753,5.651,54.992-7.313
		c40.69-30.596,68.95-61.607,68.95-63.075c0-2.485,5.255-4.398,7.336-2.67c10.416,8.644-66.993,71.909-67.828,72.915
		C-2057.429,2281.273-2094.389,2291.985-2108.071,2286.772z M-2339.915,2203.664c-33.812-17.725-21.242-50.141-10.427-28.945
		c7.25,14.209,13.622,13.156,13.622,13.156c-4.385,7.095,31.313,6.437,43.122-0.794c1.004-0.615,51.319-29.211,59.874-41.206
		c0.716-1.004,62.811-55.15,65.989-55.15c2.52,0,3.948,4.294,2.609,7.842c-2.405,6.37-14.631,13.822-23.477,22.439
		c-38.562,37.571-77.912,61.959-78.919,62.853C-2286.785,2200.963-2325.081,2211.439-2339.915,2203.664z M-2000.095,2123.688
		c-2.613-4.882,0.043-8.599,7.469-10.452c13.274-3.312,103.829-123.995,109.59-136.235c8.259-17.548,14.968-6.282,10.179-2.307
		c-1.004,0.834-58.659,93.092-61.771,91.897c-2.947-1.131-13.319,20.178-15.35,20.178c-0.62,0-1.855,2.225-2.745,4.945
		c-1.739,5.31-19.603,24.063-22.922,24.063c-1.021,0-2.216,1.134-2.656,2.519
		C-1980.424,2124.979-1997.185,2129.126-2000.095,2123.688z M-1810.437,2006.339c3.571,0,12.575-44.713,22.143-36.772
		c8.473,7.032-57.149,122.476-66.119,122.476C-1864.326,2092.042-1811.442,2006.339-1810.437,2006.339z M-2228.531,1960.084
		c-3.81-2.219-2.779-4.102,8.241-15.057c34.286-34.086,65.926-104.781,65.926-115.523c0-2.771,6.01-7.76,9.348-7.76
		c12.302,0-11.985,42.419-11.985,48.36c0,5.636-30.393,53.22-30.902,54.226c-1.273,2.518-19.057,24.514-19.715,25.528
		c-3.343,5.153-9.97,6.416-12.653,9.648C-2222.179,1961.807-2225.21,1962.019-2228.531,1960.084z M-1751.907,1856.026
		c5.334-11.763,20.791-14.372,20.791-3.51c0,2.454,6.139,7.466,9.144,7.466c4.842,0,2.872,4.194,8.682,1.546
		c8.5-3.873,8.593,2.441,26.344-8.729c8.157-5.133,20.044-7.517,30.429-27.813c35.564-69.503,45.666-31.81,26.756-18.564
		c-4.837,3.387-23.332,45.649-30.788,45.649c-1.004,0-40.988,36.476-67.27,27.058c-26.065-9.341,7.637,41.144,44.493,4.257
		c7.633-7.639,12.863-7.97,12.863-0.814c0,8.63,19.778-1.854,19.778-7.403c0-6.03,8.016-15.187,13.294-15.187
		c19.907,0,111.128-152.213,162.126-204.372c23.445-23.979,10.493-17.775,10.493-30.433c0-5.777-2.709-2.218-2.422-6.815
		c0.745-11.9-14.158-27.806-17.364-49.775c-2.116-14.506-8.622-41.16-3.952-50.213c6.628-12.848,19.923-14.285,15.771-1.704
		c-11.447,34.686,17.685,77.468,20.373,95.66c1.217,8.235,8.689,16.102,8.689,16.102c-0.03,6.607-137.126,183.595-137.126,183.595
		c0,5.69-54.92,81.598-63.165,78.98c-1.418-0.45-3.352,0.079-4.506,1.234c-3.063,3.063-4.022,1.009-6.979,3.966
		c-4.394,4.394-20.566,5.782-21.867,1.876c-0.549-1.647-3.972,2.161-19.076,10.855
		C-1713.001,1918.496-1774.012,1904.774-1751.907,1856.026z M-1757.685,1838.301c-32.736-7.175-20.193-50.838,31.969-50.838
		c7.057,0,13.06-1.841,13.06-4.005c0-5.022,13.518-27.64,16.52-27.64c10.574,0,121.681-98.619,128.507-108.498
		c7.342-10.625,40.285-31.735,13.347-54.697c-10.337-8.811-14.501-13.488-16.149-13.488c-3.297,0-9.489-20.085-9.354-30.342
		c0.229-17.439,23.054-55.043,31.454-51.819c7.782,2.986,0.411,9.685-9.089,28.069c-2.801,5.421-5.757,10.656-6.568,11.633
		c-6.281,7.568,0.252,29.185,11.337,37.513c20.316,15.263,21.612,16.813,22.844,27.299c2.938,25.012-35.528,65.949-50.338,74.629
		c-4.413,2.586-29.777,33.552-33.222,33.552c-0.776,0-1.723,1.193-2.104,2.65c-0.437,1.672-3.854,4.129-9.259,6.659
		c-9.732,4.554-28.869,27.572-47.082,38.818c-28.418,17.546-18.396,23.613-28.676,34.728c-5.982,6.468-7.655,10.334-12.04,10.505
		c-34.915,1.369-62.264,17.105-35.894,20.652c16.581,2.23,22.4-0.251,55.271-23.567c9.155-6.494,15.524-6.628,16.595-9.419
		c0.968-2.521,1.008-0.292,9.438-6.199c59.43-41.642,145.207-138.63,153.645-134.114c11.891,6.364-33.068,42.065-37.005,45.036
		c-9.902,7.474-128.973,130.281-159.37,130.281C-1711.741,1825.7-1725.865,1845.275-1757.685,1838.301z M-2044.171,1780.116
		c-17.246-17.247,63.854-55.255,63.854-67.956c0,0,45.984-49.625,49.371-65.36c4.116-19.119,29.929,0.103-25.272,54.519
		c-9.04,8.913-5.61,11.008-17.84,23.139c-7.312,7.253-2.113,4.54-10.287,15.322c-10.577,13.951-0.73,9.32,15.588,9.194
		c10.437-20.806,25.685-41.608,60.178-68.218c19.954-15.394,39.538-60.159,52.041-76.955c15.051-20.221,27.864-53.674,27.864-53.674
		c7.076,0,2.134-33.66,3.98-41.534c0.559-2.397,5.083-34.853,8.582-39.478c1.065-1.408,1.936-3.921,1.936-5.585
		c0-14.404,9.431-22.798,6.383-39.593c-0.894-4.928-1.479-9.498-1.299-10.156c2.271-8.287-14.754-29.902-37.389-17.775
		c-12.169,6.52-15.672,1.031-4.978-7.801c16.349-13.501,14.685-15.888,29.603-8.902c7.353,3.443,19.206,5.505,22.196,21.527
		c3.379,18.107,9.148,31.186,3.564,38.256c-0.795,1.007-20.565,74.02-16.91,91.173c4.956,23.107-71.692,158.313-83.631,158.313
		c-1.807,0-3.383,0.983-3.829,2.389c-2.165,6.817-42.634,37.75-53.363,58.571c-2.935,5.696-6.709,3.548-6.709,8.19
		c0,14.328-33.55,6.978-44.853,4.281l-6.43,3.5c-9.065,4.934-12.006,2.856-12.006,5.21
		C-2023.828,1777.695-2039.396,1784.891-2044.171,1780.116z M-2108.686,1717.637c8.813-6.039,22.334-0.313,16.924,7.168
		c-13.407,18.539,20.466-7.644,20.466,5.869c0,5.743-23.228,19.007-28.031,16.007c-1.869-1.167-3.01-1.224-4.033-0.201
		C-2108.504,1751.624-2134.067,1735.028-2108.686,1717.637z M-2061.794,1721.963c-45.49-16.093,15.649-63.716,26.379-63.716
		c3.483,0,30.86-29.134,33.413-30.676c17.626-10.647,87.355-163.629,105.342-148.702c4.697,3.898,2.436,12.198-3.746,13.75
		c-11.222,2.816-74.637,120.398-74.637,121.403c0,3.656-47.576,58.708-56.573,58.737c-11.051,0.034-27.405,24.273-29.081,25.32
		c-3.607,2.253-1.171,5.989,4.612,7.074c8.556,1.605,11.527,11.193,5.048,16.29
		C-2055.044,1724.592-2054.444,1724.563-2061.794,1721.963z M-2017.59,1703.572c-1.155-6.044,1.357-12.237,5.357-13.205
		c17.753-4.298,27.133-17.317,50.263-38.661c18.207-16.801,31.934-53.051,40.358-56.284c1.062-0.408,1.573-1.321,1.135-2.03
		c-0.796-1.289,11.134-21.51,14.695-21.51c19.471,0-39.283,78.34-39.535,79.345c-3.279,13.068-30.4,27.082-33.299,34.765
		c-2.058,5.454-7.974,6.014-10.271,8.712C-1997.102,1704.355-2016.305,1710.288-2017.59,1703.572z M-1421.316,1593.749
		c2.901-5.687,5.853-7.444,8.229-4.899c2.589,2.771,6.006,0.144,25.195-19.37c18.966-19.287,23.045-25.219,14.294-20.791
		c-18.409,9.317-36.602-4.78-18.601-14.413c1.421-0.76,2.584-1.975,2.584-2.699c0-2.114,7.998-9.333,9.677-8.734
		c6.985,2.49-11.695,21.033,6.779,9.956c20.245-12.14,42.878-31.829,42.878-32.833c0-3.153,19.022-10.455,14.653-14.824
		c-5.364-5.364,8.913-14.255,27.928-37.779c37.318-46.164,78.455-81.288,128.58-159.622c12.033-18.804,13.174-19.971,16.09-16.457
		c11.722,14.124-140.126,194.388-154.384,201.76c-3.218,1.664-3.437,2.308-2.852,8.388c0.655,6.816-6.58,16.27-18.149,23.715
		c-10.362,6.668-62.319,77.324-86.459,95.75C-1414.179,1607.998-1428.809,1608.435-1421.316,1593.749z M-1740.141,1541.681
		c7.103-4.266,8.436-1.531,3.093,6.343c-17.4,25.64,42.448,9.404,77.499-14.536c170.149-116.234-2.425,34.68-71.565,40.767
		C-1753.868,1576.258-1757.333,1552.005-1740.141,1541.681z M-1987.201,1510.487c-11.374-6.629-3.164-93.908,4.37-108.347
		c0.657-1.259,1.195-3.708,1.195-5.442c0-8.969,15.158-8.422,6.651,8.021c-1.177,2.275-8.788,33.844-6.065,88.453
		C-1980.176,1510.728-1981.31,1513.921-1987.201,1510.487z M-2035.69,1495.809c-30.219-32.024,0.952-131.445,29.132-161.921
		c6.379-6.899,6.674-7.538,6.056-13.134c-6.818-61.707,94.579-176.648,98.967-176.711c4.479-0.064-2.886,16.646-10.005,22.699
		c-3.459,2.941-36.993,46.654-37.859,47.659c-10.541,12.237-1.896,1.216-28.325,46.558c-17.785,30.514-20.782,62.983-4.531,49.084
		c10.613-9.076,13.317-10.289,15.695-7.037c2.258,3.088,0.741,5.331-4.363,6.452c-6.276,1.378-17.08,12.761-13.591,14.318
		c7.379,3.292,3.881,10.111-5.186,10.111c-24.187,0-71.617,116.804-39.829,153.136
		C-2024.829,1492.396-2030.833,1500.956-2035.69,1495.809z M-1675.407,1478.914c-6.415-2.64-3.2-13.173,4.02-13.173
		c5.439,0,11.678-3.295,17.58-9.284c2.805-2.847,5.871-5.186,6.812-5.198c3.244-0.045,39.328-38.26,42.677-38.26
		c2.03,0,5.208,16.237-30.873,42.79C-1643.146,1461.644-1664.203,1483.525-1675.407,1478.914z M-1438.434,1465.168
		c1.414-3.72,4.929-4.386,9.679-1.835c34.967,18.781,142.699-91.075,148.673-103.329c11.034-22.634,12.012-20.761,25.616-20.173
		c-2.94,29.338-82.679,86.637-102.845,107.548C-1394.412,1485.849-1445.505,1483.767-1438.434,1465.168z M-2114.899,1463.348
		c7.242-25.894,29.115-110.4,29.12-111.41c0.136-23.67,12.781-49.738,21.1-71.37c6.852-17.818,13.589-35.753,22.283-52.777
		c4.403-8.621,19.371-41.612,32.719-40.008c15.367,1.849-15.608,34.787-19.487,40.248c-5.243,18.737-18.294,37.667-21.767,56.334
		c-3.455,18.417-17.787,40.574-18.886,64.48c-0.913,19.855-35.76,119.641-35.76,119.641
		C-2105.577,1476.867-2119.519,1479.865-2114.899,1463.348z M-1618.108,1353.533c10.752-1.523,6.779-1.087,26.917-11.485
		c61.669-31.845,86.759-55.545,94.375-54.068c18.923,3.67-102.197,72.754-109.052,74.26c-2.026,0.445-5.945,1.962-8.707,3.37
		C-1633.06,1375.033-1638.192,1356.378-1618.108,1353.533z M-1923.311,1342.788c-6.625-8.199-0.978-55.47,7.959-66.627
		c3.802-4.745,29.707-69.151,108.153-143.019c9.301-8.758,17.887-8.547,13.407,0.33c-0.507,1.004-99.502,108.577-99.502,123.105
		c0,2.851-8.534,17.978-11.382,17.978c-1.001,0-12.251,35.925-10.464,54.056C-1913.908,1341.129-1918.381,1348.89-1923.311,1342.788
		z M-2164.678,1333.511c-9.19-11.074-10.284-74.126-1.823-105.106c24.997-91.531,89.931-204.205,89.931-204.205
		c0-5.331,17.265-1.4,0.655,18.87c-1.979,2.415-20.136,39.672-20.59,40.679c-16.46,36.471-78.265,137.716-62.494,229.525
		C-2155.906,1331.285-2158.589,1340.848-2164.678,1333.511z M-1449.736,1308.713c30.002-32.101,54.725-64.588,56.43-67.122
		c13.994-20.796,33.371-28.419-0.973,13.626c-3.108,3.805-40.866,53.468-43.704,53.566c-0.858,0.029-1.943,1.264-2.413,2.744
		C-1443.17,1320.267-1476.318,1337.155-1449.736,1308.713z M-1649.036,1317.852c-3.039-1.544-4.007-3.741-1.648-3.741
		c2.384,0,1.709-5.475-3.236-0.531c-2.161,2.161-5.994,1.684-5.994-0.746c0-0.748-0.798-1.36-1.773-1.36
		c-8.525,0-7.134-18.558,0.236-13.503c58.356,40.023,161.327-96.941,179.435-85.479c7.867,4.979-100.053,79.997-110.328,91.026
		C-1601.708,1313.568-1638.939,1322.982-1649.036,1317.852z M-1308.944,1283.048c2.44-0.774,14.968,3.768,16.9,6.128
		c22.844,27.906,119.271-53.689,132.803-71.978c6.263-8.465,7.913,6.855,4.12,8.351c-0.613,0.242-1.115,1.069-1.115,1.839
		c0,7.139-77.147,67.815-94.44,74.276c-3.535,1.321-7.639,3.165-9.119,4.099
		C-1281.553,1319.483-1327.453,1288.923-1308.944,1283.048z M-1367.667,1206.484c3.436-5.617,4.946,0.175,1.646,6.314
		C-1373.191,1226.137-1382.622,1230.935-1367.667,1206.484z M-1414.028,1202.003c-5.103-8.257,29.673-37.175,32.074-41.681
		c3.5-6.569,17.145-20.566,18.957-19.446C-1357.16,1144.484-1409.797,1208.849-1414.028,1202.003z M-1940.761,1108.131
		c0-14.493,39.688-62.513,53.153-59.82c2.704,0.541,5.261-0.072,8.4-2.011c11.614-7.179,1.468,3.052-12.973,12.307
		c-23.007,14.745-44.262,54.509-54.377,79.814c-0.132,0.329-26.195,50.429-26.617,50.429
		C-1982.892,1188.85-1940.761,1112.847-1940.761,1108.131z M-1203.575,1155.759c9.964,8.384,19.984,8.045,30.545,1.116
		c25.65-16.829,46.619-36.232,63.536-55.049c11.656-12.966,19.658-31.7,15.37-35.987c-4.097-4.097-0.029-12.925,4.772-10.355
		c30.699,16.43-54.101,105.469-89.654,117.639c-3.459,1.184-6.673,2.537-7.142,3.006
		C-1190.504,1180.486-1220.482,1172.666-1203.575,1155.759z M-2404.887,1065.563c-4.122-4.967,2.411-17.535,8.313-15.992
		c4.367,1.142,42.56-17.426,49.968-29.608c2.32-3.814,5.012-5.126,5.012-2.441c0,5.492,87.14-68.382,107.196-92.857
		c8.252-10.07,14.067-7.134,8.27,4.176c-9.635,18.8-138.606,132.082-159.308,132.106c-2.719,0.003-4.944,0.557-4.944,1.23
		C-2390.38,1066.895-2401.607,1069.516-2404.887,1065.563z M-1761.441,1034.941c-78.713-29.877,42.618-146.924,67.279-152.049
		c-0.823,1.005-80.245,83.856-73.871,82.19c-3.724,0.974-1.364,3.849-5.274,8.848c-3.94,5.037-1.257,7.12-5.274,12.227
		c-10.547,13.409,9.458,29.361,21.426,38.282C-1748.297,1031.04-1751.438,1038.738-1761.441,1034.941z M-1170.208,952.833
		c6.469-21.992,9.303-44.154,15.325-32.901c4.799,8.967-19.729,74.385-10.832,83.282c12.603,12.603,95.184-49.403,95.184-74.283
		c0-3.611,4.814-3.191,5.703,0.497c2.913,12.095-32.194,60.323-43.912,60.323C-1109.743,989.752-1205.647,1073.303-1170.208,952.833
		z M-1632.741,858.266c4.214-4.9,4.271-14.871,7.321-14.871c0.929,0,52.063-88.213,57.326-74.501
		c0.898,2.34-67.758,106.146-61.866,106.146c0.495,0,0.188,0.712-0.682,1.582c-15.172,15.173-9.843,97.469-13.026,100.651
		C-1661.924,995.529-1650.722,879.174-1632.741,858.266z M-1968.89,973.05c-1.573-1.573-0.934-4.991,1.932-10.337
		c3.5-6.531,2.836-23.711-1.264-32.691c-16.677-36.529-31.205-75.043-37.806-83.99c-1.813-2.457-3.296-5.116-3.296-5.907
		c0-3.608-27.572-27.53-28.474-28.534c-8.657-9.637-37.277-23.681-36.301-41.098c0.546-9.742-11.548-14.913-15.746-18.507
		c-14.456-12.374-25.268-11.537-48.049-12.525c-9.121-0.396-8.787-6.223-20.424-11.586c-30.011-13.831-37.53-9.636-49.286-21.053
		c-6.796-6.6-36.815-81.005-37.032-82.013c-4.417-20.489-20.928-39.846-33.988-39.846c-0.752,0-4.103-1.672-7.446-3.716
		c-38.021-23.242-64.268-4.803-104.31-30.372c-9.882-6.31-58.441-30.268-73.946-77.327c-4.656-14.13-15.348-19.406-28.265-36.919
		c-40.768-55.271-93.212-74.373-93.212-74.373c3.726-17.094-209.016-40.992-217.085-38.574c-8.665,2.596-57.998,3.103-76.667,0.787
		c-20.102-2.493-36.114-2.882-38.468-0.934c-3.459,2.861-13.198-1.32-11.075-4.755c5.82-9.417,77.849-7.085,106.24-6.809
		c187.504,1.827,256.196,42.425,257.2,42.671c27.464,6.709,115.875,99.153,115.939,112.314c0.068,13.263,46.313,67.87,75.486,75.19
		c2.437,0.612,12.985,9.313,74.851,17.143c22.735,2.877,63.25,28.352,63.274,39.784c0,5.639,27.606,61.234,32.296,77.529
		c5.589,19.423,10.308,24.771,24.396,27.647c39.731,8.109,24.805,19.178,63.949,22.422c38.594,3.198,60.212,33.879,56.969,37.121
		c-1.541,1.541,6.721,15.657,10.475,17.897c65.855,39.299,84.829,125.297,96.244,147.297
		C-1941.949,947.93-1956.511,985.429-1968.89,973.05z M-1818.809,938.09c10.426-74.056,28.778-81.47,40.079-107.239
		c19.037-43.41,163.658-155.197,156.171-135.684c-2.23,5.811-116.467,90.919-116.467,101.549c0,0.659-3.115,4.514-6.922,8.566
		c-61.5,65.45-72.419,138.747-58.846,148.55c2.837,2.049,6.649,9.454,5.677,11.027
		C-1802.233,969.902-1821.931,960.269-1818.809,938.09z M-2179.821,931.7c3.787-5.533,9.655-7.232,11.878-3.439
		c4.371,7.459,16.378,6.667,55.114-3.638c17.385-4.625,29.087-5.669,32.589-7.543c6.753-3.614,9.942,2.751,4.237,8.456
		c-7.421,7.421-49.288,13.437-51.989,14.733C-2148.807,950.257-2191.178,948.296-2179.821,931.7z M-2587.29,896.931
		c17.325-7.72,98.437-62.766,104.37-62.766c16.223,0-80.376,58.455-100.155,74.014
		C-2598.054,919.963-2600.272,902.715-2587.29,896.931z M-1527.915,863.575c1.37-3.042,2.492-5.873,2.492-6.291
		c0-5.562,14.138-16.928,17.542-14.103c1.899,1.576,1.5,8.929-0.553,10.197c-0.641,0.397-1.167,1.6-1.167,2.674
		c0,1.074-1.283,3.689-2.852,5.811c-7.09,9.59,4.411,42.184-10.376,42.184C-1526.767,904.047-1536.361,882.323-1527.915,863.575z
		 M-2743.412,871.084c17.714,0,181.102-101.421,187.483-91.098c1.06,1.715-0.584,5.393-2.411,5.393c0,0-58.56,32.963-64.03,32.963
		c0,0-50.13,33.194-110.006,61.883C-2761.297,894.083-2754.439,871.084-2743.412,871.084z M-1071.477,869.508
		c-7.416-3.618-6.992-16.359,0.497-14.954c15.502,2.908,32.792-25.664,35.218-25.664c4.018,0,6.922-8.868,10.038-10.536
		c1.438-0.769,4.1-4.647,5.916-8.617c5.018-10.971,10.909-8.963,7.157,2.439c-4.943,15.025-24.913,32.969-24.913,32.969
		c0,1.653-11.871,12.209-11.871,14.61C-1049.433,864.823-1066.031,872.165-1071.477,869.508z M-2141.743,837.283
		c5.82-5.652,8.131-5.643,9.196,0.033c4.165,22.193,93.507,16.536,96.85,18.602
		C-2006.301,874.088-2179.018,873.483-2141.743,837.283z M-1949.318,844.715c-45.651-7.293-21.325-47.905-12.768-28.562
		c9.537,21.561,25.506,13.438,45.288,24.868c9.006,5.204,11.628,7.234,12.874,9.97c0.811,1.779,2.985,3.334,5.313,3.8
		c7.496,1.499,9.319,7.562,3.34,11.113C-1910.205,874.775-1916.62,849.939-1949.318,844.715z M-2877.439,825.158
		c-5.451-8.821,59.327-27.945,151.691-78.511c-10.805-19.333-6.826-7.298-13.142-27.376c19.179-19.18,12.32,29.54,39.369,16.591
		c54.541-26.108,46.231-5.852,37.853-5.866c-2.042-0.003-22.762,8.535-29.682,12.739c-8.771,5.328-8.664,6.169,1.334,10.497
		c10.619,4.596-9.642-0.531,37.908,17.102c1.005,0.373,21.929,8.834,27.689,13.565c-15.819,16.064-86.563-26.21-87.568-26.21
		c-30.728,0,13.302-10.125-144.366,63.803C-2863.934,825.047-2876.191,827.178-2877.439,825.158z M-2315.545,821.263
		c-11.023-9.127-141.689,16.849-102.574-23.749c10.211-10.599,9.825-12.804-4.854-27.746c-8.381-8.53-21.574-13.812-35.31-14.137
		c-25.48-0.603-127.831-22.213-153.103-44.401c-12.761-11.205-12.8-26.904-0.082-33.519c6.601-3.433,10.14,3.503,5.445,10.67
		c-2.143,3.271-1.871,3.639,11.783,15.909c20.047,18.018,110.307,35.41,142.55,40.34c36.258,5.544,62.697,34.433,54.644,44.136
		c-6.914,8.331-6.513,18.737,0.734,19.063c15.116,0.681,110.593-5.97,98.775,12.764
		C-2301.02,826.115-2312.624,823.681-2315.545,821.263z M-2245.255,801.202c-1.147,0-89.297-19.69-70.173-65.927
		c3.793-9.172,0.137-19.617,11.121-20.488c12.306-0.976,3.957,12.041,2.605,42.84c3.683,3.483,12.947,12.692,16.874,13.893
		c1.775,0.543,4.189,1.83,5.366,2.861c15.4,13.491,123.78,29.95,123.78,42.173C-2155.681,827.62-2244.25,801.202-2245.255,801.202z
		 M-1086.473,773.842c2.974,4.596,8.306,6.8,9.57,3.956c0.715-1.609,20.568-17.058,21.629-20.401
		c0.409-1.289,1.214-2.344,1.789-2.344c2.989,0,10.48-9.185,10.877-13.335c1.158-12.123,19.226-1.962-4.881,22.565
		c-3.92,3.989-10.263,10.638-14.095,14.777C-1100.465,821.05-1099.547,753.639-1086.473,773.842z M-1947.353,776.098
		c-0.362-0.536-7.349-1.394-15.524-1.906c-94.757-5.938-39.18-53.661-18.922-53.346c15.931,0.248,19.715,12.731,4.568,15.068
		c-6.677,1.03-13.628,1.708-13.656,3.706c-0.07,4.645-28.974,19.654,31.451,21.412c16.973,0.494,20.431,1.654,23.365,7.837
		C-1930.805,779.966-1944.517,780.294-1947.353,776.098z M-1135.543,735.57c-3.59-0.779-10.74-14.759,4.784-14.82
		c16.449-0.065,58.198-35.252,55.624-41.96c-0.839-2.187,2.84-6.804,5.422-6.804c5.898,0,4.921,11.124-1.789,20.378
		C-1088.852,716.293-1127.203,737.38-1135.543,735.57z M-3211.94,718.898c5.074-4.592,27.447,0.509,50.879-4.029
		c66.5-12.877,104.164-25.825,104.164-25.825c52.51-10.34,112.994-40.857,116.353-30.623
		C-2937.345,668.175-3260.575,762.908-3211.94,718.898z M-2484.091,672.469c-1.006-0.846-48.69-35.979-48.69-49.743
		c0-7.171,11.927-8.466,15.383-1.67c5.949,11.697,51.56,51.3,72.196,57.027c29.85,8.285,60.285,28.739,145.142,17.698
		c80.592-10.486,63.997,15.815,43.384,11.906c-7.951-1.508-43.321-0.425-57.888,2.393
		C-2361.254,719.111-2453.213,698.448-2484.091,672.469z M-2115.946,708.22c-2.44-1.074-6.076-1.953-8.08-1.953
		c-4.913,0-4.225-2.451-12.76-7.453c-8.606-5.044-3.37-4.81-9.879-9.028c-11.886-7.703-7.495-24.24,7.007-26.384
		c7.558-1.117,10.054,2.624,5.199,7.792c-6.568,6.992,7.012,27.508,46.684,26.456c38.376-1.018,14.269,6.215,11.751,9.658
		C-2078.333,710.465-2109.244,711.171-2115.946,708.22z M-1968.631,678.507c-7.039-2.752-13.038-11.796-7.824-11.796
		c3.835,0,1.487-5.872,11.885-2.133c22.294,8.017,55.454-9.777,55.454,0.659c0,2.902-9.766,10.704-13.399,10.704
		C-1923.519,675.941-1953.876,684.276-1968.631,678.507z M-1527.731,659.849c2.566-2.765,7.373-14.237,9.817-15.175
		c0.946-0.363,1.72-1.361,1.72-2.218c0-3.647,45.447-52.618,51.325-48.984c8.662,5.354-44.677,49.695-51.473,68.032
		C-1521.066,674.257-1534.512,667.157-1527.731,659.849z M-1207.657,651.03c0-5.387,0.475-5.537,18.8-5.938
		c42.866-0.937,72.38-22.365,81.601-41.863c2.754-5.823,4.352-7.799,6.045-7.473c7.917,1.525-4.92,19.347-4.92,22.867
		c0,7.769-35.074,30.733-54.085,35.411C-1171.961,656.924-1207.657,663.601-1207.657,651.03z M-1044.159,637.166
		c0-1.476,7.538-14.965,9.646-17.263c12.167-13.258,20.477-35.965,24.132-26.441c3.15,8.208-16.292,37.275-28.335,42.363
		C-1043.478,637.837-1044.159,638.005-1044.159,637.166z M-2862.392,588.596c-47.565-25.105-93.291-74.018-84.447-115.049
		c0.781-3.626,1.781-8.818,2.222-11.537c2.144-13.23,10.417-3.574,9.054,10.567c-1.236,12.828,7.91,37.147,14.412,46.46
		c81.297,116.438,277.667,89.614,238.122,110.063C-2692.21,633.847-2801.737,620.609-2862.392,588.596z M-2121.673,621.617
		c-5.124-3.388-24.478-7.346-36.187-13.756c-4.461-2.442-8.742-4.44-9.514-4.44c-6.667,0-19.954-14.019-19.954-21.055
		c0-7.451,14.891-23.775,21.688-23.775c1.255,0,3.267-1.17,4.471-2.6c6.662-7.912,31.856-3.804,31.856,5.194
		c0,6.655-7.108,10.006-13.375,6.306c-4.871-2.876-2.079,1.648-5.565,1.648c-17.599,0-20.619,19.424-3.797,24.419
		c1.005,0.298,46.977,20.28,56.36,20.39c7.054,0.083,14.752,9.542,10.104,12.414
		C-2095.216,632.315-2118.808,623.512-2121.673,621.617z M-2635.628,558.22c-51.364-7.621-63.842-33.559-74.923-50.745
		c-19.74-30.62,4.291-49.269,3.599-34.158c-0.508,11.077,15.241,34.397,17.077,37.809c16.564,30.776,50.344,31.538,119.513,50.451
		c25.423,6.951,30.143,7.54,61.312,7.647c46.29,0.159,94.275-7.896,94.275-2.783c0,10.381-34.499,12.493-105.018,16.531
		C-2551.831,584.806-2607.409,562.406-2635.628,558.22z M-996.934,559.151c8.431-4.206,17.381-14.715,17.381-19.497
		c0-4.28,5.656-6.297,8.811-3.143c2.702,2.702,0.096,19.703-23.235,35.587C-1004.46,579.235-1015.587,568.456-996.934,559.151z
		 M-2171.505,514.092c0-14.92,8.384-18.104,12.139-4.61c2.812,10.105,49.417,17.819,59.442,9.838
		c2.161-1.72,13.133-3.219,15.872-2.168c4.615,1.771,2.646,6.851-3.029,7.81c-2.879,0.487-6.816,2.128-8.749,3.648
		C-2100.207,532.055-2171.505,547.269-2171.505,514.092z M-1129.737,519.85c-2.414-2.908-0.571-9.947,2.962-11.309
		c30.408-11.728,49.651-30.799,49.651-34.025c0-1.911,5.098-4.298,6.015-2.816c3.029,4.901-19.668,36.788-26.184,36.788
		C-1099.179,508.488-1123.422,527.459-1129.737,519.85z M-1342.149,499.986c0-17.825,67.008-112.803,76.439-112.803
		c14.002,0-27.832,42.109-48.763,80.76c-3.921,7.24-5.261,3.708-5.261,7.487c0,1.545-10.548,19.107-10.548,22.545
		C-1330.283,504.852-1342.149,511.353-1342.149,499.986z M-2341.968,483.879c-5.073-2.591-52.874-15.47-69.644-38.384
		c-1.735-2.37-17.366-20.221-14.051-27.498c3.305-7.253,12.867-6.229,12.867,1.378c0,13.51,51.839,63.099,137.786,56.849
		c14.658-1.066,22.177-1.328,23.779-2.221c12.775-7.119,24.331-1.814,14.87,6.827
		C-2243.795,487.621-2319.666,495.271-2341.968,483.879z M-987.178,462.391c17.73,3.242,30.016-23.093,35.404-27.741
		c1.256-1.084,5.01-20.517,11.301-14.226c4.427,4.427-2.705,21.22-15.142,35.653C-995.006,501.794-1010.697,458.091-987.178,462.391
		z M-3586.413,429.376c-3.623,0-1.957-1.994-7.441-3.003c-39.158-7.202-24.018-23.772-13.071-18.87
		c194.372,87.042,579.319,15.722,553.653,10.66c-5.387-1.062-59.019-9.945-78.062-32.884c-0.937-1.128-2.404-2.052-3.26-2.052
		c-2.263,0-9.844-9.199-11.893-9.294c-4.052-0.189-11.938-10.389-9.735-12.592c7.253-7.253,23.292,10.27,49.757,25.882
		c29.758,17.556,72.095,22.03,106.264,22.285c54.815,0.409,150.887,14.608,225.469,15.174c36.175,0.274,43.494,2.098,35.399,8.819
		c-15.072,12.515-267.11-19.823-285.688-8.467c-8.568,5.238-240.681,39.152-277.123,37.276c-3.626-0.187-7.483-0.25-8.57-0.141
		C-3408.929,472.018-3603.853,429.376-3586.413,429.376z M-3501.242,331.236c-315.569-34.403-351.255-137.925-309.979-128.675
		c9.877,2.214,15.11,8.085,10.013,11.235c-6.478,4.004,13.19,25.742,34.282,37.891c155.016,89.283,623.67,91.993,578.505,108.113
		C-3205.794,366-3500.238,331.345-3501.242,331.236z M-893.848,281.7c0-4.427-25.121,7.413,16.946-39.667
		c8.945-10.011,30.52-14.137,30.52-5.838c0,0.834,1.508,2.828,3.35,4.43c7.075,6.152-2.639,6.372-4.01,4.155
		c-3.604-5.831-23.005,0.764-29.667,10.086c-9.766,13.665-17.69,18.709-16.58,24.526
		C-892.327,284.432-893.848,283.236-893.848,281.7z M-3523.176,219.729c-12.716,0-67.807-21.441-108.271-29.799
		c-26.923-5.561,0.307-19.123,103.175,15.706c24.456,8.281,246.119,29.841,419.293,34.746c192.901,5.465,177.153-6.902,219.17-9.43
		c32.104-1.931,58.819-9.044,46.82,1.351c-2.964,2.568-4.986,3.127-10.759,2.975c-13.707-0.361-6.269,5.072-34.377,6.318
		c-42.854,1.899-61.527,16.256-151.631,12.39c-4.351-0.187-12.658-0.03-18.459,0.349
		C-3161.532,261.076-3522.17,219.729-3523.176,219.729z M-1090.965,234.121c0-17.151,21.143-43.117,31.744-45.373
		c13.38-2.847,33.033-24.68,48.107-9.607c6.6,6.599,1.959,5.876,2.435,18.527c0.901,23.937-21.011,34.872-26.179,39.734
		C-1042.232,244.338-1090.951,274.212-1090.965,234.121z M-1027.521,216.632c7.256-8.257,9.322-29.889,2.85-29.846
		c-5.492,0.037-6.576,1.612-4.589,6.669c6.43,16.36-6.13,21.058-11.937,29.9c-1.072,1.632-3.032,2.967-4.356,2.967
		s-2.774,0.593-3.222,1.319c-2.783,4.503-23.244-0.206-13.22-16.482c4.892-7.943,3.741-14.423-1.566-8.814
		c-5.72,6.046-9.607,11.188-9.607,12.709c0,6.15-11.862,14.03-1.984,23.908C-1065.717,248.397-1036.326,226.651-1027.521,216.632z
		 M-1046.507,201.34c0.139,4.885,3.784,7.542,5.445,3.97C-1039.318,201.559-1046.81,190.681-1046.507,201.34z"/>
</g>
</svg>
