<?xml version="1.0" encoding="UTF-8"?>
<svg enable-background="new -49.6806 224 2659.6807 1152.0187" version="1.1" viewBox="-49.6806 224 2659.6807 1152.0187" xmlns="http://www.w3.org/2000/svg">
 <rect x="-49.681" y="224" width="2659.7" height="1152"/>
 <linearGradient id="g" x1="243.7" x2="1870.6" y1="800.17" y2="800.17" gradientUnits="userSpaceOnUse">
  <stop stop-color="#CBD1D6" offset="0"/>
  <stop stop-color="#C7CED2" offset=".0891"/>
  <stop stop-color="#BCC3C7" offset=".1696"/>
  <stop stop-color="#AAB1B5" offset=".2468"/>
  <stop stop-color="#AAB1B5" offset=".2472"/>
  <stop stop-color="#AAB1B5" offset=".2477"/>
  <stop stop-color="#CAD1D5" offset=".2905"/>
  <stop stop-color="#E1E8EC" offset=".3318"/>
  <stop stop-color="#EFF6F9" offset=".3706"/>
  <stop stop-color="#F4FBFE" offset=".4045"/>
  <stop stop-color="#F4FBFE" offset=".6348"/>
  <stop stop-color="#979DA1" offset=".7528"/>
  <stop stop-color="#B0B7BC" offset=".8258"/>
  <stop stop-color="#959B9F" offset=".8472"/>
  <stop stop-color="#7D8387" offset=".8706"/>
  <stop stop-color="#6F7478" offset=".8923"/>
  <stop stop-color="#6A6F73" offset=".9101"/>
  <stop stop-color="#71767A" offset=".9251"/>
  <stop stop-color="#84898E" offset=".947"/>
  <stop stop-color="#A4A9AE" offset=".9732"/>
  <stop stop-color="#CBD1D6" offset="1"/>
 </linearGradient>
 <path d="m243.7 989.11c0-25.906 0-51.813 1.2953-77.719 40.155-10.362 80.31-31.088 120.46-59.585 0 37.564-1.2953 73.833-1.2953 110.1 12.953 3.8859 25.906 7.7719 37.564 11.658 1.2953-79.014 2.5906-158.03 3.886-238.34 0-79.014 0-159.32 1.2953-238.34 38.86-22.02 79.014-42.746 119.17-60.88 0 117.87 0 237.04-1.2953 356.21s-3.886 238.34-3.886 356.21c-93.263-44.041-185.23-94.558-277.2-159.32zm169.69-488.34c3.886 5.1813 9.0672 11.658 11.658 16.839 27.202-12.953 54.403-25.906 81.605-37.564 3.886-10.362 7.7719-20.725 11.658-31.088-34.974 15.544-69.947 33.678-104.92 51.813zm9.0672 24.611c-3.886-6.4766-7.7719-11.658-10.362-16.839-1.2953 77.719-1.2953 156.73-1.2953 234.45-1.2953 77.719-2.5906 156.73-3.886 234.45 3.886 9.0673 7.7719 16.839 10.362 25.906 1.2953-79.014 3.886-159.32 3.886-238.34 0-80.31 1.2953-160.62 1.2953-239.63zm82.9-36.269c-25.906 11.658-51.813 23.316-79.014 36.269 0 82.9 0 164.51-1.2953 247.41 0 81.605-1.2953 164.51-2.5906 247.41-27.202-10.362-53.108-20.725-80.31-32.383 1.2953-27.202 1.2953-54.403 1.2953-81.605-25.906 14.248-53.108 25.906-79.014 32.383v40.155c77.719 44.041 156.73 81.605 235.75 115.28 1.2953-101.03 2.5906-202.07 3.886-301.81 0-101.03 1.2953-202.07 1.2953-303.1zm-102.33 493.52c-12.953-5.1813-27.202-9.0673-41.45-14.248-2.5906 5.1813-6.4766 10.362-11.658 15.544 22.02 9.0672 42.746 16.839 64.766 24.611-3.8859-9.0672-7.7719-16.839-11.658-25.906zm-151.55-66.061c3.886 5.1813 7.7719 10.362 11.658 15.544 27.202-7.7719 54.403-19.43 81.605-34.974 3.886-10.362 7.7719-19.43 12.953-29.792-36.269 23.316-71.243 40.155-106.22 49.222zm9.0672 19.43c-3.886-5.1813-7.7719-10.362-11.658-15.544-1.2953 20.725-1.2953 41.45-1.2953 62.175 3.886-1.2953 7.7719-2.5906 11.658-3.886 0-14.248 1.2953-28.497 1.2953-42.746zm309.58 235.75c0-53.108 0-104.92 1.2953-158.03 0-51.813 1.2953-104.92 1.2953-156.73-10.362-1.2953-20.725-2.5906-31.088-2.5906 1.2953-47.927 1.2953-95.854 1.2953-143.78 10.362 0 20.725-1.2953 31.088-2.5906 0-49.222 1.2953-98.444 1.2953-147.67v-147.67c95.854-37.564 191.71-68.652 286.27-91.968 0 62.175 0 125.65-1.2953 187.82-54.403 7.7719-110.1 16.839-165.8 27.202 0 54.403 0 108.81-1.2953 163.21 45.336-2.5906 89.377-3.8859 134.71-6.4766 0 60.88-1.2953 123.06-1.2953 183.94-45.336-3.886-89.377-6.4766-134.71-10.362 0 62.175 0 124.35-1.2953 186.53 55.699 12.953 111.4 23.316 167.1 33.678-1.2953 62.175-1.2953 124.35-1.2953 186.53-95.854-28.497-190.41-62.175-286.27-101.03zm12.953-751.28c3.886 7.7719 7.772 16.839 11.658 24.611 82.9-28.497 165.8-51.813 247.41-71.243 3.8859-12.953 7.7719-25.906 11.658-37.564-89.377 22.02-180.05 50.517-270.72 84.196zm108.81 290.15c-3.886 11.658-7.7719 22.02-11.658 32.383 42.746-1.2953 85.491-2.5906 128.24-2.5906 3.886-11.658 7.7719-23.316 11.658-34.974-42.746 1.2953-85.491 3.8859-128.24 5.1812zm145.08 432.64c-55.699-11.658-111.4-25.906-167.1-41.45 0-49.222 0-97.149 1.2953-146.37 0-47.927 1.2953-97.149 1.2953-146.37 44.041 1.2953 89.377 3.886 133.42 5.1813 0-20.725 1.2953-41.45 1.2953-60.88-45.336 0-89.377 0-134.71 1.2953 0-45.336 1.2953-89.377 1.2953-134.71v-134.71c55.699-14.248 111.4-25.906 167.1-36.269v-62.175c-81.605 18.134-163.21 41.45-244.82 68.652v150.26c-1.2953 50.518-1.2953 101.03-1.2953 150.26-10.362 1.2953-20.725 1.2953-31.088 1.2953v49.222c10.362 0 20.725 1.2953 31.088 1.2953-1.2953 53.108-1.2953 107.51-2.5906 160.62 0 53.108-1.2953 107.51-1.2953 160.62 81.605 28.497 163.21 54.403 244.82 76.424 1e-4 -20.725 1e-4 -41.45 1.2954-62.175zm-244.82-689.11c-3.8859-9.0672-7.7719-16.839-11.658-24.611-1.2953 46.632-1.2953 94.558-1.2953 141.19s0 93.263-1.2953 139.89c3.886 9.0672 7.7719 18.134 11.658 27.202 1.2953-46.632 1.2953-94.558 1.2953-141.19 0-47.927 0-95.854 1.2953-142.48zm97.149 610.1c-3.886 9.0673-7.7719 18.134-11.658 28.497 53.108 14.248 106.22 27.202 160.62 38.86 3.886-11.658 7.7719-22.02 11.658-33.678-53.108-10.362-107.51-22.02-160.62-33.678zm-113.99-345.85c-7.7719 1.2953-15.544 1.2953-24.611 1.2953 3.8859 9.0673 7.7719 18.134 11.658 27.202 7.7719 0 16.839 0 24.611-1.2953-3.886-9.0673-7.7719-18.134-11.658-27.202zm-15.544 36.269c-3.8859-9.0672-7.7719-18.134-11.658-27.202 0 36.269-1.2953 73.833-1.2953 110.1 3.886-9.0672 7.7719-18.134 11.658-27.202-1e-4 -18.134 1.2952-37.564 1.2952-55.699zm29.792 71.242c-3.886 10.362-7.7719 19.43-11.658 28.497-1.2953 50.518-1.2953 99.74-2.5906 150.26 0 49.222 0 99.74-1.2953 150.26 3.8859-7.772 7.7719-15.544 11.658-23.316 1.2953-51.813 1.2953-102.33 2.5907-152.85 0-50.517 1.2953-101.03 1.2953-152.85zm286.27 452.07c0-79.014 0-159.32 1.2953-238.34 33.678-47.927 67.357-97.149 102.33-148.96-1.2953 69.947-1.2953 141.19-1.2953 212.43 33.678 2.5907 67.357 2.5907 101.03 2.5907 1.2954-40.155 1.2954-80.31 1.2954-120.46-33.678-54.403-67.357-108.81-101.03-164.51-33.678-53.108-67.357-106.22-101.03-158.03 1.2953-56.994 1.2953-115.28 1.2953-172.28 0-58.289 1.2953-115.28 1.2953-172.28 107.51-16.839 213.73-19.43 321.24-9.0672 0 81.605 0 161.91-1.2953 242.22-33.678 51.813-67.357 103.63-102.33 158.03 1.2954-71.242 1.2954-142.48 1.2954-212.43-33.678-1.2953-67.357-1.2953-101.03 0 0 40.155 0 79.014-1.2953 117.87 33.678 54.403 67.357 108.81 101.03 163.21 33.678 54.403 67.357 107.51 101.03 160.62v352.32c-108.81 11.658-216.32 7.7719-323.83-12.953zm12.953-949.47c3.8859 11.658 7.7719 23.316 10.362 33.678 94.558-10.362 189.12-12.953 283.67-5.1813 3.8859-11.658 7.7719-23.316 11.658-34.974-102.33-10.363-203.36-7.7719-305.7 6.4766zm227.98 125.65c-3.886 11.658-7.772 24.611-11.658 36.269-1.2954 60.88-1.2954 120.46-1.2954 181.34l11.658-58.289c-1e-4 -53.108-1e-4 -106.22 1.2952-159.32zm-120.46 174.87c-3.886 6.4766-7.7719 14.248-11.658 22.02 32.383 53.108 64.766 106.22 98.444 159.32 32.383 53.108 66.061 104.92 98.444 156.73 3.886-7.7719 7.772-15.544 11.658-23.316-33.678-51.813-66.061-103.63-98.444-156.73-33.678-53.108-66.061-106.22-98.444-158.03zm182.64 351.03c-33.678-53.108-67.357-106.22-101.03-160.62-33.678-54.403-67.357-108.81-99.74-163.21 0-73.833 0-148.96 1.2953-222.79 46.632-2.5906 94.558-3.886 142.49-2.5906-1.2953 56.994-1.2953 115.28-1.2953 172.28 19.43-31.088 40.155-62.175 59.585-91.968 1.2953-46.632 1.2953-94.558 1.2953-141.19-93.263-7.7719-186.53-5.1813-281.08 5.1813v124.35s-1.2953 82.9-1.2953 124.35c33.678 51.813 67.357 104.92 101.03 158.03 33.678 54.403 67.357 108.81 101.03 163.21 0 75.128-1.2953 150.26-1.2953 225.39-47.927 1.2953-95.854-1.2954-142.49-6.4767v-169.69c-19.43 29.792-40.155 59.585-60.88 88.082v137.3c93.263 14.248 187.82 16.839 282.38 9.0673v-124.35s0-82.9 0-124.35zm-82.9-16.839c-3.886 6.4766-7.772 14.248-11.658 22.02v119.17c3.886 12.953 7.772 24.611 11.658 36.269v-177.46zm-199.48-590.67c-3.886-10.362-7.7719-22.02-11.658-33.678v154.14c-1.2953 50.518-1.2953 101.03-1.2953 152.85 3.8859-7.7719 7.7719-14.248 11.658-22.02 0-41.45 0-84.196 1.2953-125.65 1e-4 -41.45 1e-4 -82.9 1e-4 -125.65zm185.23 747.4c-34.974 0-69.947-1.2953-104.92-3.886-3.8859 11.658-7.7719 23.316-11.658 34.974 42.746 5.1813 85.491 6.4766 128.24 5.1813-2.5906-11.658-6.4766-24.611-11.658-36.269zm-196.89-75.128c3.886 7.772 7.7719 15.544 10.362 23.316 22.02-29.792 42.746-60.88 64.766-93.263 3.886-18.134 7.772-38.86 11.658-58.289-29.792 44.041-58.289 86.786-86.786 128.24zm7.7719 33.678c-3.8859-9.0673-7.7719-16.839-11.658-24.611-1.2953 67.357-1.2953 136.01-1.2953 203.37 3.886-10.362 7.7719-22.02 11.658-32.383 1.2952-49.222 1.2952-98.444 1.2952-146.37zm325.13 209.84c0-163.21 1.2953-326.42 1.2953-488.34 0-163.21 1.2953-326.42 2.5906-488.34 40.155 6.4766 79.014 14.248 119.17 24.611-1.2953 124.35-2.5906 248.7-2.5906 373.05v371.76c23.316-2.5906 46.632-6.4766 69.947-10.362v-358.8s1.2953-238.34 2.5906-357.51c38.86 11.658 79.014 23.316 119.17 36.269-1.2953 137.3-2.5906 273.31-2.5906 409.32s0 272.02 1.2953 408.03c-103.63 32.383-207.25 58.289-310.88 80.31zm199.48-918.38l11.658 34.974c27.202 7.7719 54.403 15.544 81.605 23.316 3.8859-9.0672 7.7719-18.134 11.658-27.202-34.974-11.658-69.947-22.02-104.92-31.088zm9.0673 44.041c-3.886-12.953-7.7719-24.611-10.362-36.269-1.2953 116.58-2.5906 231.86-2.5906 347.15v348.44c3.8859 10.362 7.7719 20.725 11.658 29.792 0-113.99-1.2953-229.27 0-344.55 0-115.28 0-230.57 1.2953-344.55zm-198.18-86.786c3.8859 12.953 7.7719 25.906 11.658 38.86 27.202 5.1813 54.403 9.0672 81.605 15.544 3.8859-11.658 7.7719-22.02 11.658-33.678-34.974-7.7719-69.947-14.248-104.92-20.725zm281.08 111.4c-27.202-6.4766-53.108-14.248-79.014-20.725-1.2953 117.87-1.2953 235.75-1.2953 352.33v353.62c-37.564 7.7719-73.833 14.248-111.4 20.725v-375.64s1.2953-251.29 2.5906-375.64c-27.202-6.4766-53.108-10.362-79.014-15.544-1.2953 141.19-2.5906 281.08-2.5906 422.27v420.98c89.377-16.839 180.05-37.564 269.43-60.88 0-120.46-1.2953-240.93-1.2953-360.1 1e-4 -120.46 1.2954-240.93 2.5906-361.39zm-99.74 643.77c-24.611 3.886-47.927 7.772-72.538 11.658-3.886 12.953-7.772 24.611-11.658 36.269 32.383-5.1813 63.471-11.658 95.854-16.839-3.8859-10.363-7.7718-20.725-11.658-31.088zm-172.28-708.54c-3.8859-12.953-7.7719-24.611-11.658-37.564-1.2953 154.14-2.5906 309.58-2.5906 463.72v465.02c3.8859-12.953 7.7719-25.906 11.658-38.86v-426.16c0-141.19 1.2953-283.67 2.5906-426.16zm309.58 827.71v-199.48c33.678-47.927 67.357-93.263 101.03-136.01v154.14c34.974-7.7719 68.652-16.839 102.33-27.202 0-25.906 0-50.518-1.2953-76.424-33.678-29.792-68.652-63.471-101.03-101.03-34.974-38.86-68.652-82.9-102.33-128.24 0-47.927 1.2954-95.854 1.2954-143.78s1.2953-97.149 1.2953-145.08c107.51 41.45 215.02 90.672 322.53 164.51 0 38.86-1.2953 77.719-1.2953 116.58-34.974 14.248-68.652 36.269-102.33 64.766 0-44.041 0-86.786 1.2953-130.83-34.974-10.362-68.652-19.43-102.33-28.497v82.9c32.383 42.746 66.061 84.196 101.03 119.17 32.383 32.383 67.357 59.585 102.33 79.014 0 28.497 0 56.994 1.2953 85.491v84.196c-107.51 75.129-215.02 124.35-323.83 165.8zm9.0671-788.85c3.886 10.363 7.772 22.02 11.658 33.678 94.558 32.383 189.12 71.243 283.67 123.06 3.886-2.5906 7.772-5.1813 11.658-7.7719-102.33-66.061-204.66-111.4-306.99-148.96zm227.98 181.34c-3.886 5.1813-7.772 11.658-11.658 16.839 0 37.564-1.2954 73.833-1.2954 111.4 3.886-11.658 7.772-23.316 11.658-33.678-1e-4 -31.088 1.2952-63.471 1.2952-94.558zm-120.46 84.196c-3.8859 3.886-7.7719 9.0673-11.658 14.248 32.383 41.45 64.766 80.31 99.74 113.99 32.383 32.383 66.061 58.289 99.74 80.31 3.886-5.1813 6.4766-10.362 10.362-15.544-32.383-20.725-67.357-46.632-99.74-79.014-33.678-33.678-66.061-73.833-98.444-113.99zm185.23 215.02c-34.974-22.02-68.652-47.927-102.33-81.605-34.974-34.974-67.357-73.833-101.03-116.58 0-54.403 0-108.81 1.2953-163.21 46.632 14.248 94.558 31.088 142.49 49.222-1.2953 33.678-1.2953 67.357-1.2953 102.33 19.43-14.248 40.155-25.906 60.88-33.678 0-24.611 0-49.222 1.2953-73.833-94.558-50.517-187.82-86.786-281.08-119.17-1.2953 33.678-1.2953 67.357-1.2953 101.03s0 67.357-1.2954 99.74c33.678 46.632 67.357 90.672 101.03 129.53 33.678 38.86 68.652 71.243 102.33 101.03 1.2953 46.632 1.2953 91.968 1.2953 138.6-47.927 16.839-95.854 32.383-142.48 46.632 0-42.746-1.2954-85.491-1.2954-128.24-19.43 28.497-40.155 56.994-59.585 85.491v111.4c94.558-31.088 187.82-68.652 282.38-117.87 0-22.02 0-44.041-1.2953-66.061v-64.766zm-82.9 6.4766c-3.8859 5.1813-7.7719 10.362-11.658 16.839v75.128c3.886 5.1813 7.772 11.658 11.658 18.134v-110.1zm-202.07-446.88c-3.886-11.658-7.772-22.02-11.658-33.678v126.94c-1.2954 42.746-1.2954 85.491-1.2954 128.24 3.886-6.4766 7.772-11.658 11.658-16.839 0-33.678 0-68.652 1.2953-102.33-1e-4 -33.678-1e-4 -68.652-1e-4 -102.33zm189.12 547.92c-34.974 10.362-69.947 20.725-104.92 29.792-3.8859 10.362-7.7719 20.725-11.658 31.088 42.746-12.953 85.491-25.906 128.24-41.45-3.8861-6.4766-7.772-12.953-11.658-19.43zm-198.18 2.5906c3.886 6.4766 7.772 11.658 11.658 16.839 20.725-29.792 41.45-59.585 62.175-88.082 3.8859-15.544 7.7719-31.088 11.658-45.336-28.497 37.564-56.994 76.424-85.491 116.58zm9.0673 25.906c-5.1813-6.4766-9.0673-11.658-12.953-16.839 0 56.994 0 112.69 1.2954 169.69 2.5906-11.658 7.7719-23.316 11.658-33.678 0-40.155-1.2953-80.31 0-119.17z" fill="url(#g)"/>
 <linearGradient id="h" x1="243.7" x2="1870.6" y1="800.17" y2="800.17" gradientUnits="userSpaceOnUse">
  <stop stop-color="#E5E2DF" offset="0"/>
  <stop stop-color="#D6D7D7" offset="0"/>
  <stop stop-color="#D1D3D4" offset="0"/>
  <stop stop-color="#EDEEEE" offset=".0676"/>
  <stop stop-color="#fff" offset=".1067"/>
  <stop stop-color="#F5F5F6" offset=".1302"/>
  <stop stop-color="#DBDCDD" offset=".1697"/>
  <stop stop-color="#B1B2B4" offset=".2201"/>
  <stop stop-color="#97999C" offset=".2472"/>
  <stop stop-color="#9A9C9E" offset=".2718"/>
  <stop stop-color="#A2A4A7" offset=".2866"/>
  <stop stop-color="#B0B2B4" offset=".2987"/>
  <stop stop-color="#C4C6C8" offset=".3095"/>
  <stop stop-color="#D1D3D4" offset=".3146"/>
  <stop stop-color="#C7C9CA" offset=".3637"/>
  <stop stop-color="#ADAFB0" offset=".4464"/>
  <stop stop-color="#838586" offset=".5518"/>
  <stop stop-color="#58595B" offset=".6461"/>
  <stop stop-color="#616265" offset=".6777"/>
  <stop stop-color="#7A7C7F" offset=".7307"/>
  <stop stop-color="#808285" offset=".7416"/>
  <stop stop-color="#797A7D" offset=".743"/>
  <stop stop-color="#5A595C" offset=".7501"/>
  <stop stop-color="#424041" offset=".7574"/>
  <stop stop-color="#312D2F" offset=".7648"/>
  <stop stop-color="#262324" offset=".7725"/>
  <stop stop-color="#231F20" offset=".7809"/>
  <stop stop-color="#4B4848" offset=".7899"/>
  <stop stop-color="#7A7878" offset=".8021"/>
  <stop stop-color="#A3A1A2" offset=".8146"/>
  <stop stop-color="#C4C3C3" offset=".8274"/>
  <stop stop-color="#DEDEDE" offset=".8403"/>
  <stop stop-color="#F0F0F0" offset=".8535"/>
  <stop stop-color="#FBFBFB" offset=".8672"/>
  <stop stop-color="#fff" offset=".882"/>
  <stop stop-color="#EAEBEC" offset=".8972"/>
  <stop stop-color="#D0D2D3" offset=".9214"/>
  <stop stop-color="#BEBFC2" offset=".9463"/>
  <stop stop-color="#B3B5B7" offset=".972"/>
  <stop stop-color="#AFB1B4" offset="1"/>
 </linearGradient>
 <path d="m1076.1 306.93c40.108 0 81.165 1.9425 122.09 5.7749v5.6768l-3.3689-0.3411c-41.434-4.1958-83.586-6.3234-125.29-6.3234-59.26 0-120.28 4.3125-181.36 12.818l-3.2264 0.4493c2e-3 -1.1404 0.0035-2.2838 0.0046-3.4227 63.127-9.7098 127.42-14.632 191.15-14.632m149.48 9.4253c39.647 6.5138 76.099 14.058 111.17 23.008-0.0184 1.7623-0.0367 3.5201-0.0551 5.2842l-2.8169-0.626c-35.042-7.7871-70.635-14.378-105.06-20.754l-3.222-0.5967-0.0692-0.2305c0.0162-2.0338 0.0324-4.0537 0.0487-6.0858m-27.393 6.9992c-0.0039 77.6-0.0732 151.45-1.276 226.72-30.518 46.951-61.991 95.373-94.111 145.26 0.1229-7.7499 0.2314-15.494 0.3274-23.248l4.5377 0.4493 11.658-58.29 0.0778-0.3884v-1.3212l4.5732-7.3173c14.434-23.095 29.673-46.325 44.41-68.79 4.9939-7.6127 10.158-15.485 15.133-23.113l0.6167-0.9454 0.0314-1.1285c1.2969-46.687 1.2969-94.786 1.2969-141.3v-3.6807l-3.6678-0.3057c-36.089-3.0073-73.358-4.5322-110.77-4.5327-55.315-4e-4 -111.19 3.1705-170.79 9.6921-0.5938-1.5834-1.1893-3.2028-1.786-4.8513l1.0719-0.1174c58.59-6.4209 116.24-9.6765 171.34-9.6765 37.657 0 75.194 1.5159 111.57 4.5055l3.1295 0.2572 0.9929-2.9789 5.8287-17.487 5.8056-17.418m-340.67 2.4836c-1e-4 1.7898-1e-4 3.5887-2e-4 5.3817l-4.7285 1.1649c-86.945 21.422-178.18 49.794-271.16 84.33l-2.3792 0.8838v-2.1755c94.854-37.058 188.43-67.183 278.27-89.585m-1e-3 11.767c-0.0095 55.328-0.1124 112.05-1.224 167.46-54.923 7.8926-109.61 16.888-162.6 26.747l-3.2683 0.6082v3.3243c0 53.469 0 108.76-1.2944 163.12l-0.1031 4.3361 4.3302-0.2473c22.641-1.2938 45.345-2.281 67.302-3.2356 20.618-0.8965 41.894-1.8215 63.181-3.0029-0.0015 1.5336-0.0038 3.0685-0.0068 4.6058l-3.8842 0.1177c-21.404 0.6486-43.152 1.6371-64.184 2.5931-20.998 0.9544-42.712 1.9413-64.053 2.5881l-2.7906 0.0846-0.8829 2.6487c-3.8599 11.58-7.795 22.074-11.601 32.223 0.0922-18.274 0.3561-36.49 0.6131-54.216 0.3185-21.984 0.6481-44.717 0.6481-67.414v-131.61c49.067-12.469 102.7-24.072 163.83-35.445l3.2683-0.608v-70.486l-4.8677 1.0817c-78.408 17.424-158.43 39.854-244.64 68.57-0.2987-0.689-0.5974-1.3705-0.8964-2.0463l1.5917-0.5472c77.352-26.59 160.47-50.523 247.03-71.134l2.2487-0.5547 0.6623-2.208c3.8025-12.674 7.7343-25.779 11.591-37.356m479.13 12.073c-1.2284 118.09-2.451 239.83-2.451 359.64v376.23l4.4418-0.4933c23.427-2.6031 47.186-6.5629 70.163-10.392l0.7148-0.1193 0.0632 0.1686c0.4225 1.1265 0.8467 2.2578 1.2721 3.3904l-2.0363 0.3215c-12.321 1.9453-24.514 3.9226-36.306 5.8347-11.77 1.9087-23.942 3.8826-36.232 5.8231l-2.4846 0.3923-0.7227 2.4093c-3.8611 12.869-7.7944 24.672-11.599 36.085v-360.06c0-126.94 1.3169-253.35 2.5905-375.6l0.0333-3.1931-3.1067-0.7397c-17.652-4.203-34.903-7.3472-51.585-10.388-9.0515-1.6498-18.411-3.3556-27.571-5.1875l-0.6686-0.1337 0.0038-0.3992-0.1742-0.5802c-0.2467-0.8224-0.4939-1.6412-0.7413-2.4562 8.6926 1.6433 17.493 3.1797 26.015 4.6676 17.772 3.1031 36.149 6.3116 54.165 10.601l3.563 0.8484 1.1583-3.4749c1.9323-5.7969 3.9021-11.378 5.8073-16.776 1.8626-5.2777 3.7869-10.73 5.6879-16.415m79.471 10.513c6.7705 2.0245 13.578 4.0514 20.416 6.087 29.2 8.6936 59.366 17.675 89.342 27.3l-0.0079 0.8413c-0.0115 1.2107-0.0228 2.4215-0.0343 3.6329l-2.437-0.8124c-34.896-11.632-70.284-22.117-105.18-31.165l-0.837-0.2169-1.2593-5.6667m109.67 42.461c-1.2314 130.57-2.4774 265.34-2.4774 397.34 0 132.77 0 270.02 1.2673 405.09-93.56 29.132-192.71 54.768-302.85 78.301 0-0.1748 0-0.3417 1e-4 -0.5165l5.012-16.708 11.658-38.86 0.1687-0.5623v-1.7193l0.6267-0.1182c86.211-16.243 176.95-36.746 269.7-60.94l2.9904-0.7799v-3.0905c0-60.406-0.3306-121.73-0.6504-181.04-0.317-58.82-0.645-119.64-0.645-179.06 0-120.42 1.3165-242.87 2.5898-361.29l6e-4 -0.0575 0.0344-3.1941-3.1078-0.74c-15.167-3.6111-30.115-7.6771-44.572-11.609-11.286-3.0701-22.956-6.2444-34.399-9.1051l-0.8536-0.2134 4e-3 -0.3568-0.1754-0.5846c-0.3761-1.2535-0.7521-2.4949-1.127-3.7255l39.59 11.312 40.802 11.658 3.3877 0.9679 1.3879-3.2383 11.64-27.16m26.241 1.6249c36.675 14.221 78.011 31.102 122.2 51.793-36.681-16.266-75.497-31.88-117.05-47.132l-5.0797-1.8647-0.0833-0.2499c0.0025-0.8485 0.0047-1.6991 0.0065-2.5461m-468.63 30.042c11.635 0 23.184 0.1361 34.389 0.4052-0.0269 1.241-0.0531 2.4829-0.0789 3.7252l-4.8097 14.429c-1.9536 5.8604-3.9344 12.133-5.8501 18.2-1.9054 6.0333-3.8754 12.272-5.8079 18.069l-0.1914 0.5743-0.0129 0.6055c-0.0184 0.8665-0.0367 1.7366-0.0547 2.6021l-0.9736-0.0375c-16.813-0.6466-33.862-0.9746-50.671-0.9746s-33.858 0.328-50.671 0.9746l-3.8463 0.1479v3.8491c0 40.6 0 78.948-1.2929 117.74l-0.0404 1.2096 0.6371 1.0292 101.03 163.21c33.495 54.107 67.518 107.77 100.44 159.68v0.49c-30.951-47.649-62.856-98.46-97.506-155.29l-0.0183-0.03-0.0188-0.0296c-20.787-32.78-41.33-65.962-61.196-98.053-12.215-19.73-24.846-40.132-37.234-59.954l-3.4619-5.5387-3.3602 5.6008c-3.5883 5.9807-7.1943 13.079-10.704 20.088 0.0021-69.124 0.0521-140.29 1.2303-209.83 35.995-1.9434 68.76-2.8891 100.07-2.8891m-561.37 7.902c0 0.2279-1e-4 0.459-1e-4 0.6869l-5.3964 2.3984c-13.615 6.0511-27.307 12.534-40.982 19.247 15.678-7.9114 31.162-15.368 46.378-22.332m-1e-4 8.0746c-0.0021 112.07-0.0528 227.6-1.2949 341.88-0.4337 39.907-1.0223 80.461-1.5912 119.68-1.098 75.666-2.2324 153.84-2.2925 230.26-102.08-48.523-187.82-97.922-269.2-155.08v-0.2214l1.1506-0.3835 11.658-3.886 1.5737-0.5247 0.3704 0.2099c71.047 40.26 148.29 78.035 236.15 115.48l5.4915 2.3407 0.0765-5.9692c1.2952-101.03 2.5906-202.07 3.8858-301.81l4e-4 -0.0258v-0.026c0-50.505 0.3292-101.86 0.6477-151.53 0.3183-49.678 0.6477-101.05 0.6477-151.58l-0.0119-5.8695 0.4527-0.1941 0.5996-1.5991 11.658-31.088 0.0264-0.0705m1045 0.141c58.82 20.168 113.55 41.55 165.09 64.541-57.969-24.974-112.78-44.93-162.01-62.023l-2.5345-0.88-0.1641-0.4921c-0.1277-0.3832-0.2554-0.765-0.3833-1.146m83.366 86.801c41.087 12.69 85.178 27.958 134.5 46.572-0.027 0.7433-0.0535 1.4889-0.0792 2.2319l-4.1973 5.5963c-2.0099 2.6798-4.017 5.6904-5.958 8.6019-1.88 2.8198-3.8239 5.7358-5.7 8.2372l-0.6273 0.8364c-34.645-10.246-68.546-19.374-101.35-28.205l-5.0399-1.3569v89.464l0.8116 1.0712c4.1914 5.5327 8.3057 10.911 12.35 16.142-2.8876-3.5747-5.7678-7.1461-8.6381-10.705l-2.795-3.4661-3.1477 3.1479c-3.8357 3.8359-7.627 8.8124-11.306 13.713 0.0019-49.88 0.045-101.24 1.1729-151.88m215.39 27.258c0.2733 0.1865 0.5476 0.3741 0.8208 0.561-0.0225 18.717-0.3391 37.719-0.6458 56.116-0.3042 18.245-0.6182 37.083-0.6464 55.679-30.946 12.949-61.897 32.27-94.332 58.9 1e-4 -0.3893 1e-4 -0.7843 2e-4 -1.1733l3.682-11.046c3.8087-11.426 7.7472-23.242 11.607-33.533l0.2546-0.6791v-0.0802l3.5466-2.6009c19.794-14.515 39.953-25.671 59.919-33.158l2.5953-0.9733v-2.7721c0-24.147 0-49.117 1.2897-73.623l0.1337-2.5397-1.0228-0.5465 0.4087-0.2725 4.9965-3.3308 6.6615-4.4409 0.7313-0.4876m-968.43 63.97c33.151 51.042 66.83 104.15 99.392 155.5l73.163 118.19 27.273 44.056c-5e-4 2.4186-0.0022 4.8392-0.0052 7.2624l-4.606 7.6764c-3.463 5.7718-6.9417 12.583-10.335 19.352-32.605-52.67-66.272-107.08-99.391-161.85l-0.0477-0.0769-0.0227-0.036c-32.892-51.868-66.895-105.49-100.36-156.99 0.0347-1.5464 0.0684-3.0955 0.1011-4.644l4.631-9.2618c1.911-3.8221 3.8691-7.4121 5.7629-10.884 1.4561-2.6698 2.9496-5.4078 4.4446-8.2906m84.773 26.188c31.553 51.746 64.163 105.21 97.523 157.81 20.104 32.969 40.981 65.873 61.17 97.692 12.288 19.367 24.995 39.394 37.28 59.05l3.7803 6.0481 3.1896-6.3792 5.829-11.658 4.7279-9.4556v339.55c-38.878 4.0422-77.914 6.0908-116.09 6.0908-66.906 0-134.09-6.3087-199.74-18.752 1e-4 -2.1051 1e-4 -4.2209 1e-4 -6.3298l3.6312-9.6829c1.9571-5.2191 3.9396-10.836 5.8569-16.268 1.9037-5.3938 3.8721-10.971 5.801-16.115l0.2357-0.6283 0.0175-0.6708c0.0125-0.4722 0.0247-0.9429 0.0369-1.4152l0.5417 0.0828c58.28 8.9039 118.52 13.419 179.05 13.419 34.311 0 69.389-1.4531 104.26-4.3192l3.6722-0.3016v-253.55l-0.6218-0.9807c-33.107-52.208-67.342-106.19-101.03-160.61-32.908-53.16-66.93-108.12-99.124-162.18-3e-4 -0.152-3e-4 -0.3068-3e-4 -0.4589m582.11 6.9631c37.308 51.581 70.027 93.483 99.978 128.04 34.014 39.247 68.803 71.388 101.4 100.26 0.0282 1.0422 0.0558 2.0822 0.0828 3.1226l-3.2203 4.294c-3.6593 4.8792-7.4357 9.9145-11.201 16.05-39.268-34.75-72.125-67.615-100.44-100.46l-0.0278-0.0325-0.0286-0.0317c-35.18-39.089-69.462-84.04-101.3-126.88 2e-4 -0.6301 9e-4 -1.2596 0.0016-1.8903l4.6093-7.682c3.3667-5.6114 6.682-10.154 10.148-14.789m-740.39 45.221c-0.08 25.839-0.3561 52.069-0.6246 77.57-0.3034 28.819-0.6166 58.574-0.6458 87.656-21.25-1.7866-42.488-3.3257-63.07-4.8171-21.957-1.5912-44.662-3.2365-67.304-5.1773l-4.3417-0.3721v4.3575c0 61.114 0 124.31-1.2944 186.44l-0.0674 3.2444 3.1606 0.7349c54.654 12.71 110.16 23.089 163.93 33.094-0.0333 1.6567-0.0657 3.3165-0.0971 4.9744l-2.8401-0.5541c-57.356-11.191-115.92-23.867-160.53-33.659l-3.2337-0.7034-1.3032 3.0406c-3.8379 8.9552-7.8065 18.215-11.724 28.662l-0.0262 0.0699c0.0059-46.115 0.0898-90.122 1.2935-135.86l0.0015-0.0525v-0.0527c0-23.777 0.3259-48.372 0.6408-72.158 0.3039-22.948 0.6176-46.632 0.6514-70.09 20.7 0.6448 41.945 1.5685 62.533 2.4637 21.986 0.9559 44.72 1.9444 66.77 2.593l4.1175 0.121v-4.1194c0-10.466 0.3362-21.054 0.6614-31.292 0.326-10.268 0.634-19.966 0.634-29.588v-4h-4c-44.6 0-86.801 0-130.71 1.1828 2e-3 -1.1429 0.0047-2.2866 0.0082-3.4295l3.8816-0.1177c41.997-1.2727 85.423-2.5887 128.12-2.5887h2.8829l0.9119-2.735 4.9962-14.989 6.616-19.847m-249.72 5.2013l0.0656 0.153 0.9288 2.1673-0.5003 0.0834c-7.4456 1.2408-15.096 1.2408-23.954 1.2408h-3.2836l-0.4833-1.1276c9.1604-0.2704 18.32-1.4039 27.226-2.5169m15.896 37.092l0.6852 1.599v1.642c-9.0034 0.8762-18.18 0.8762-27.088 0.8762h-0.1381l-0.0712-0.1663-0.9413-2.1965c8.0127 0 17.074-0.0081 25.124-1.3495l2.4294-0.4049m-26.402 61.339c5.0565 0 10.261 0.3252 15.294 0.6398 3.8187 0.2387 7.7336 0.4833 11.663 0.5942l-4.7968 12.791c-3.8519 10.272-7.7829 19.445-11.589 28.326l-0.1314 0.3068-0.8771-0.1097c-8.9814-1.1227-18.228-2.2787-27.479-2.558 0.0022-0.085 0.0042-0.1664 0.0064-0.2514l4.7468-11.076 4.8002-11.201 6.8575-16.001 0.3235-0.7546v-0.7071h1.1812m-202.2 49.029c-1e-3 0.2281-0.0021 0.4558-0.0032 0.6839l-5.9145 3.8021c-6.3192 4.0623-12.545 7.8913-18.687 11.492 8.1016-4.9249 16.298-10.248 24.604-15.978m1496.1 4.3945c2.5895 1.5463 5.1768 3.0492 7.7571 4.5054v0.5018l-1.6157-1.0341c-2.0651-1.3217-4.111-2.6452-6.1414-3.9731m-1496.2 5.0201c-0.1186 13.127-0.3489 26.134-0.5738 38.84-0.3146 17.769-0.6398 36.144-0.6398 54.154v1.7077l-0.5739-0.2087-1.5944 3.1885c-2.3858 4.7717-6.056 9.6517-10.909 14.505l-0.6734 0.6735c1.0256-25.273 1.0255-50.807 1.0255-75.564v-6.0059l0.5335-0.3049 0.5069-1.3519c4.0346-10.758 7.8583-19.554 12.786-29.408l0.1126-0.2251m1503.9 3.9588c0.0078 25.901 0.1041 52.514 1.2948 78.763v82.019c-113.92 79.308-226.42 127.71-313.37 161.13l2.6237-11.806c1.9196-8.6387 5.3154-17.286 8.5996-25.649 1.0198-2.5972 1.9829-5.05 2.8987-7.4921l0.2549-0.6792v-0.7255c0-0.767-5e-4 -1.5349-0.0015-2.303l1.1366-0.3737c102.37-33.657 194.94-72.296 282.98-118.13l2.1532-1.1208v-2.4272c0-21.671 0-44.079-1.2953-66.179v-66.338l1.7905-2.3871c2.0449-2.7264 3.7371-5.4338 5.3733-8.0519 1.6189-2.5904 3.1483-5.0371 4.9894-7.4919l0.5724-0.7634m-221.5 15.279v137.03l4.8677-1.0815c33.839-7.5201 67.413-16.445 102.64-27.284l1.2075-0.3715c0.0403 0.0576 0.0811 0.1158 0.1213 0.1736l-1.0511 0.3114c-34.352 10.178-69.874 20.704-104.79 29.756l-2.0117 0.5217-0.7297 1.946-8.4784 22.609-3.1796 8.4785-0.0634 0.1696c-0.0947-17.193-0.3564-34.468-0.6112-51.286-0.3184-21-0.6473-42.715-0.6473-64.058v-9.871c0.1769-0.2434 0.3536-0.4865 0.5304-0.7296l0.4646-0.6586 0.1886-0.754c3.7846-15.139 7.6973-30.789 11.542-44.904m-668.62 15.924c-7e-4 0.0429-0.0014 0.0862-0.0021 0.1291l-6.85 10.126c-9.7325 14.387-19.439 28.803-28.826 42.744-19.935 29.607-38.765 57.572-57.944 85.468l-0.5348 0.7792c0.0127-0.8009 0.0255-1.6 0.0385-2.4004 28.618-40.741 58.718-84.503 94.118-136.85m-0.2433 16.425c-0.8192 60.579-0.8191 122.46-0.8191 182.6v3.7041l3.6932 0.2839c33.832 2.6028 68.152 2.6028 101.34 2.6028h2.6072c0.6465 2.1111 1.2935 4.1915 1.941 6.2483h-1.9575c-34.713 0-69.914-1.3037-104.63-3.875l-3.1054-0.23-0.9847 2.9543-5.8288 17.487-5.8062 17.419v-168.86l-7.3505 11.271c-17.525 26.872-37.033 55.159-58.025 84.14-0.2256-0.5228-0.4516-1.0422-0.6774-1.5574l3.0944-4.1866c18.522-25.059 35.905-50.7 54.309-77.848 3.4896-5.1475 7.0021-10.329 10.548-15.544l0.4396-0.6465 0.1639-0.7646c2.599-12.128 5.2371-25.612 7.7886-38.653 1.067-5.454 2.1647-11.064 3.2538-16.546m-574.34 56.916l2.268 0.7559-0.0012 0.0691 0.0215 0.0502c-0.76-0.2961-1.5232-0.5878-2.2883-0.8752m1150.2 27.431l0.3419 0.5698c1.3616 2.2692 2.726 4.3873 4.0864 6.3984-0.4504-0.6-0.8972-1.1957-1.3425-1.7894l-3.0858-4.1146v-1.0642m-1140.9 6.2503c1.136 0.4035 2.2792 0.8083 3.4301 1.2145l2.58 0.9106 0.0627 0.2197c-2.0407-0.7849-4.0646-1.5663-6.0728-2.3448m1357 12.456v0.2852c-42.455 14.873-87.66 29.683-134.49 44.061-9e-4 -0.3079-0.0016-0.618-0.0026-0.9258l4.9515-1.5005c42.078-12.751 85.589-25.936 128.43-41.516l1.1096-0.4035m-1093 72.312l2.7354 0.7338c55.399 14.863 108 27.59 160.82 38.908l3.5006 0.7501 1.1323-3.3964c1.9315-5.7944 3.9006-11.374 5.8048-16.769 1.822-5.1624 3.7029-10.491 5.5633-16.042-0.9959 55.901-1.0273 112.43-1.0283 167.37-90.864-27.2-181.98-59.41-278.27-98.363 0-1.8137 1e-4 -3.6201 1e-4 -5.4274l3.4636-6.9272 3.886-7.7721 7.7719-15.544 0.2991-0.5981c87.943 30.71 168.11 55.735 245.08 76.504l5.0421 1.3607v-5.2225c0-20.317 0-41.325 1.2877-61.926l0.2158-3.4554-3.3887-0.7094c-49.103-10.277-102.75-23.557-163.92-40.573-1e-4 -0.9671 0-1.9352 0-2.9001m751.06 21.043v3.6555c-35.817 7.3542-70.746 13.588-103.4 19.235v-4.8441l4.4041-0.7046c16.236-2.5979 32.391-5.5652 48.014-8.4346 15.581-2.8618 31.692-5.821 47.839-8.4045l3.1402-0.5026m-463.5 37.689l3.2908 0.3988c31.518 3.8206 63.72 5.6777 98.445 5.6777 9.8966 0 20.123-0.158 30.394-0.4692l2.3634-0.0717c-0.0033 2.1411-0.0056 4.2822-0.0068 6.42-6.8237 0.1542-13.757 0.2322-20.665 0.2322-36.29 0-74.564-2.1499-113.82-6.3925v-5.7953m114.73-851.67c-64.956 0-129.82 4.9717-195.15 15.204 0 56.994-1.2954 113.99-1.2954 172.28 0 56.994 0 115.28-1.2952 172.28 33.678 51.813 67.356 104.92 101.03 158.03 33.678 55.699 67.357 110.1 101.04 164.51 0 40.155 0 80.31-1.2954 120.46-33.678 0-67.356 0-101.03-2.5908 0-71.243 0-142.48 1.2952-212.43-34.974 51.813-68.652 101.04-102.33 148.96-1.2952 79.015-1.2952 159.32-1.2952 238.34 67.812 13.072 135.6 19.444 203.74 19.444 39.89 0 79.91-2.186 120.09-6.4907v-352.32c-33.679-53.108-67.357-106.22-101.04-160.62-33.678-54.403-67.357-108.81-101.03-163.21 1.2952-38.859 1.2952-77.719 1.2952-117.87 16.839-0.6477 33.678-0.9716 50.518-0.9716 16.839 0 33.678 0.3239 50.518 0.9716 0 69.947 0 141.19-1.2954 212.43 34.974-54.403 68.652-106.22 102.33-158.03 1.2953-80.31 1.2953-160.62 1.2953-242.22-42.18-4.0655-84.152-6.1369-126.09-6.1369zm-177.01 59.245c-2.5906-10.362-6.4765-22.02-10.362-33.678 60.546-8.4304 120.64-12.78 180.81-12.78 41.528 0 83.1 2.0718 124.88 6.3031-3.8857 11.658-7.7719 23.316-11.658 34.974-37.3-3.0659-74.594-4.519-111.89-4.519-57.258-1e-4 -114.52 3.4254-171.78 9.7001zm-15.544 283.67c0-51.813 0-102.33 1.2952-152.85v-154.14c3.886 11.658 7.7721 23.316 11.658 33.678v125.65c-1.2952 41.45-1.2952 84.196-1.2952 125.65-3.8862 7.7719-7.772 14.249-11.658 22.02zm191.65 524.93c8.2163 0 16.441-0.1079 24.664-0.3301 0-75.129 1.2953-150.26 1.2953-225.39-33.678-54.404-67.357-108.81-101.03-163.21-33.678-53.108-67.357-106.22-101.04-158.03 0-41.45 1.2954-82.9 1.2954-124.35s0-82.9 0-124.35c57.264-6.2754 114.04-9.7006 170.64-9.7001 36.863 2e-4 73.658 1.4536 110.44 4.5189 0 46.631 0 94.558-1.2954 141.19-19.43 29.792-40.155 60.88-59.585 91.968 0-56.994 0-115.28 1.2954-172.28-12.845-0.3472-25.682-0.5082-38.502-0.5082-35.014 2e-4 -69.85 1.2025-103.98 3.0989-1.2952 73.833-1.2952 148.96-1.2952 222.79 32.383 54.404 66.061 108.81 99.739 163.21 33.679 54.404 67.357 107.51 101.04 160.62v124.35s0 82.9 0 124.35c-34.669 2.8495-69.326 4.3057-103.93 4.3057-59.779 0-119.38-4.3484-178.45-13.373v-137.3c20.725-28.497 41.45-58.289 60.88-88.082v169.69c38.631 4.2924 78.149 6.8067 117.82 6.8067zm41.503-716.64c-1.2954 53.108-1.2954 106.22-1.2954 159.32-3.8859 19.43-7.772 38.86-11.658 58.289 0-60.88 0-120.46 1.2954-181.34 3.8859-11.658 7.7719-24.611 11.658-36.269zm64.766 512.95c-32.383-51.813-66.061-103.63-98.444-156.73-33.678-53.108-66.061-106.22-98.444-159.32 3.886-7.7719 7.7721-15.544 11.658-22.02 32.383 51.813 64.766 104.92 98.444 158.03 32.383 53.108 64.766 104.92 98.444 156.73-3.8859 7.7719-7.7717 15.544-11.658 23.316zm-209.84-50.518c-3.8859 19.43-7.7719 40.155-11.658 58.289-22.02 32.383-42.745 63.471-64.766 93.263-2.5906-7.7717-6.4767-15.544-10.363-23.316 28.497-41.45 56.994-84.196 86.786-128.24zm124.35 224.09c-3.8861-11.658-7.7719-23.316-11.658-36.269v-119.17c3.8859-7.7719 7.7716-15.544 11.658-22.02v177.46zm-216.32 116.58c0-67.357 0-136.01 1.2954-203.37 3.8858 7.7722 7.7719 15.544 11.658 24.611 0 47.927 0 97.149-1.2954 146.37-3.8858 10.363-7.7718 22.02-11.658 32.383zm183.45-100.57c-32.654 0-65.309-1.6904-97.963-5.6484 3.8859-11.658 7.7719-23.316 11.658-34.974 34.974 2.5906 69.947 3.8857 104.92 3.8857 5.1812 11.658 9.0673 24.611 11.658 36.269-10.092 0.3058-20.181 0.4672-30.273 0.4672zm158.51-845.02c-1.2952 161.92-2.5903 325.12-2.5903 488.34 0 161.92-1.2954 325.12-1.2954 488.34 103.63-22.02 207.25-47.927 310.88-80.31-1.2953-136.01-1.2953-272.02-1.2953-408.03s1.2953-272.02 2.5907-409.32c-40.155-12.953-80.31-24.611-119.17-36.269-1.2952 119.17-2.5906 238.34-2.5906 357.51s0 239.63 0 358.8c-23.316 3.8861-46.632 7.7719-69.947 10.362v-371.76c0-124.35 1.2955-248.7 2.5909-373.05-40.155-10.362-79.015-18.134-119.17-24.611zm99.74 69.947c-27.202-6.4767-54.404-10.362-81.605-15.544-3.8861-12.953-7.7719-25.906-11.658-38.86 34.974 6.4767 69.947 12.953 104.92 20.725-3.8861 11.658-7.772 22.02-11.658 33.678zm-98.444 883.41v-465.02c0-154.14 1.2954-309.58 2.5907-463.72 3.886 12.953 7.7721 24.611 11.658 37.564-1.2954 142.49-2.5906 284.97-2.5906 426.16v426.16c-3.8859 12.953-7.772 25.906-11.658 38.86zm287.56-836.78c-27.202-7.7721-54.403-15.544-81.605-23.316-3.8861-11.658-7.7721-23.316-11.658-34.974 34.974 9.0673 69.947 19.43 104.92 31.088-3.886 9.0672-7.772 18.134-11.658 27.202zm-85.491 674.86c-3.886-9.0671-7.7721-19.43-11.658-29.792v-348.44c0-115.28 1.2954-230.57 2.5906-347.15 2.5906 11.658 6.4767 23.316 10.362 36.269-1.2953 113.99-1.2953 229.27-1.2953 344.55-1.2952 115.28 0 230.57 0 344.55zm-186.53 117.87v-420.98c0-141.19 1.2952-281.08 2.5903-422.27 25.906 5.1813 51.813 9.0673 79.015 15.544-1.2954 124.35-2.5907 250-2.5907 375.64s0 251.29 0 375.64c37.564-6.4764 73.833-12.953 111.4-20.725v-353.62c0-116.58 0-234.45 1.2952-352.33 25.906 6.4766 51.813 14.249 79.014 20.725-1.2953 120.46-2.5907 240.93-2.5907 361.39 0 119.17 1.2954 239.63 1.2954 360.1-89.377 23.316-180.05 44.041-269.43 60.88zm86.786-90.672c3.8859-11.658 7.772-23.316 11.658-36.269 24.611-3.886 47.927-7.772 72.538-11.658 3.8859 10.362 7.7716 20.725 11.658 31.088-32.383 5.1813-63.471 11.658-95.854 16.839zm-463.72-809.57c-94.558 23.316-190.41 54.403-286.27 91.968v147.67c0 49.222-1.2954 98.444-1.2954 147.67-10.362 1.2952-20.725 2.5906-31.088 2.5906 0 47.927 0 95.854-1.2952 143.78 10.362 0 20.725 1.2952 31.088 2.5906 0 51.813-1.2952 104.92-1.2952 156.73-1.2954 53.108-1.2954 104.92-1.2954 158.03 95.854 38.86 190.41 72.538 286.27 101.03 0-62.175 0-124.35 1.2952-186.53-55.698-10.362-111.4-20.725-167.1-33.678 1.2952-62.175 1.2952-124.35 1.2952-186.53 45.336 3.886 89.377 6.4767 134.71 10.363 0-60.88 1.2954-123.06 1.2954-183.94-45.336 2.5906-89.377 3.886-134.71 6.4767 1.2954-54.404 1.2954-108.81 1.2954-163.21 55.698-10.362 111.4-19.43 165.8-27.202 1.2952-62.176 1.2952-125.65 1.2952-187.82zm-7.7718 15.544c-3.886 11.658-7.7719 24.611-11.658 37.564-81.605 19.43-164.51 42.746-247.41 71.243-3.886-7.772-7.772-16.839-11.658-24.611 90.672-33.678 181.34-62.175 270.72-84.196zm-18.135 869.16c-81.605-22.02-163.21-47.927-244.82-76.424 0-53.108 1.2955-107.51 1.2955-160.62 1.2952-53.108 1.2952-107.51 2.5906-160.62-10.363 0-20.725-1.2952-31.088-1.2952v-49.222c10.362 0 20.725 0 31.088-1.2954 0-49.222 0-99.74 1.2952-150.26v-150.26c81.605-27.202 163.21-50.518 244.82-68.652v62.175c-55.698 10.363-111.4 22.02-167.1 36.269v134.71c0 45.336-1.2954 89.377-1.2954 134.71 45.336-1.2954 89.377-1.2954 134.71-1.2954 0 19.43-1.2954 40.155-1.2954 60.88-44.041-1.2952-89.377-3.8858-133.42-5.1813 0 49.222-1.2952 98.444-1.2952 146.37-1.2954 49.222-1.2954 97.149-1.2954 146.37 55.699 15.544 111.4 29.792 167.1 41.45-1.2956 20.725-1.2956 41.45-1.2956 62.175zm-246.11-467.61c-3.8858-9.0673-7.7719-18.135-11.658-27.202 1.2952-46.632 1.2952-93.263 1.2952-139.89 0-46.632 0-94.558 1.2954-141.19 3.8859 7.7721 7.7719 15.544 11.658 24.611-1.2955 46.632-1.2955 94.558-1.2955 142.48 0 46.632 0 94.558-1.2954 141.19zm230.57-32.383c-3.886 11.658-7.7719 23.316-11.658 34.974-42.745 0-85.491 1.2952-128.24 2.5906 3.8858-10.362 7.7719-20.725 11.658-32.383 42.746-1.2954 85.491-3.886 128.24-5.1812zm-257.77 41.45c-3.8858-9.0671-7.7719-18.134-11.658-27.202 9.0671 0 16.839 0 24.611-1.2952 3.8858 9.0671 7.7719 18.134 11.658 27.202-7.772 1.2952-16.839 1.2952-24.611 1.2952zm-15.544 90.673c0-36.269 1.2955-73.833 1.2955-110.1 3.8858 9.0673 7.7719 18.135 11.658 27.202 0 18.134-1.2952 37.564-1.2952 55.699-3.8861 9.0671-7.7719 18.134-11.658 27.202zm42.745-11.658c0 51.813-1.2952 102.33-1.2952 152.85-1.2954 50.518-1.2954 101.04-2.5906 152.85-3.886 7.7719-7.7719 15.544-11.658 23.316 1.2954-50.518 1.2954-101.04 1.2954-150.26 1.2952-50.518 1.2952-99.74 2.5906-150.26 3.8859-9.0673 7.7719-18.134 11.658-28.497zm248.7 305.7c-54.403-11.658-107.51-24.611-160.62-38.86 3.886-10.362 7.7721-19.43 11.658-28.497 53.108 11.658 107.51 23.316 160.62 33.678-3.8859 11.658-7.7719 22.02-11.658 33.678zm709.83-733.15c0 47.927-1.2952 97.149-1.2952 145.08s-1.2954 95.854-1.2954 143.78c33.678 45.336 67.357 89.377 102.33 128.24 32.383 37.564 67.357 71.242 101.04 101.03 1.2952 25.906 1.2952 50.518 1.2952 76.424-33.678 10.363-67.357 19.43-102.33 27.202v-154.14c-33.678 42.746-67.357 88.082-101.03 136.01v199.48c108.81-41.45 216.32-90.672 323.83-165.8v-84.196c-1.2954-28.497-1.2954-56.994-1.2954-85.491-34.974-19.43-69.947-46.631-102.33-79.014-34.974-34.974-68.652-76.424-101.03-119.17v-82.9c33.678 9.0673 67.356 18.135 102.33 28.497-1.2954 44.041-1.2954 86.786-1.2954 130.83 33.678-28.497 67.357-50.517 102.33-64.766 0-38.86 1.2954-77.719 1.2954-116.58-107.51-73.833-215.02-123.06-322.53-164.51zm303.1 170.98c-94.558-51.813-189.12-90.672-283.67-123.06-3.8857-11.658-7.7719-23.316-11.658-33.678 102.33 37.564 204.66 82.9 306.99 148.96-3.886 2.5903-7.7719 5.1811-11.658 7.7718zm-300.51 104.92c0-42.746 0-85.491 1.2954-128.24v-126.94c3.8859 11.658 7.7719 22.02 11.658 33.678v102.33c-1.2955 33.678-1.2955 68.652-1.2955 102.33-3.8858 5.1812-7.7719 10.362-11.658 16.839zm77.719 398.96c46.632-14.249 94.558-29.792 142.48-46.632 0-46.631 0-91.968-1.2952-138.6-33.678-29.792-68.652-62.175-102.33-101.03-33.678-38.86-67.356-82.9-101.04-129.53 1.2954-32.383 1.2954-66.061 1.2954-99.74s0-67.357 1.2954-101.04c93.263 32.383 186.53 68.652 281.08 119.17-1.2953 24.611-1.2953 49.222-1.2953 73.833-20.725 7.7719-41.45 19.43-60.88 33.678 0-34.974 0-68.652 1.2952-102.33-47.927-18.134-95.854-34.974-142.48-49.222-1.2954 54.404-1.2954 108.81-1.2954 163.21 33.678 42.746 66.061 81.605 101.03 116.58 33.678 33.678 67.357 59.585 102.33 81.605v64.766c1.2953 22.02 1.2953 44.041 1.2953 66.061-94.558 49.222-187.82 86.786-282.38 117.87v-111.4c19.43-28.497 40.155-56.994 59.585-85.491-1e-4 42.745 1.2954 85.491 1.2954 128.24zm155.44-479.27c0 31.088-1.2952 63.471-1.2952 94.558-3.8861 10.363-7.7721 22.021-11.658 33.678 0-37.564 1.2954-73.833 1.2954-111.4 3.8859-5.1812 7.772-11.658 11.658-16.839zm67.356 292.74c-33.678-22.02-67.356-47.927-99.739-80.31-34.974-33.678-67.357-72.538-99.74-113.99 3.8857-5.1812 7.7719-10.362 11.658-14.248 32.383 40.155 64.766 80.31 98.444 113.99 32.383 32.383 67.357 58.289 99.74 79.014-3.8861 5.1813-6.4766 10.363-10.363 15.544zm-211.14 0c-3.8861 14.248-7.7719 29.792-11.658 45.336-20.725 28.497-41.45 58.289-62.175 88.082-3.8859-5.1815-7.7716-10.363-11.658-16.839 28.497-40.155 56.994-79.015 85.491-116.58zm125.65 123.06c-3.8859-6.4764-7.772-12.953-11.658-18.134v-75.128c3.8857-6.4767 7.7719-11.658 11.658-16.839v110.1zm-129.53 51.813c3.8861-10.363 7.7721-20.725 11.658-31.088 34.974-9.0673 69.947-19.43 104.92-29.792 3.886 6.4767 7.7719 12.953 11.658 19.43-42.745 15.544-85.491 28.497-128.24 41.45zm-84.196 120.46c-1.2954-56.994-1.2954-112.69-1.2954-169.69 3.886 5.1815 7.7721 10.363 12.953 16.839-1.2955 38.86 0 79.014 0 119.17-3.8861 10.362-9.0674 22.02-11.658 33.678zm-1025.9-746.1c-40.155 18.135-80.31 38.86-119.17 60.88-1.2954 79.015-1.2954 159.32-1.2954 238.34-1.2952 80.31-2.5906 159.32-3.8858 238.34-11.658-3.8858-24.611-7.7719-37.564-11.658 0-36.269 1.2954-72.538 1.2954-110.1-40.155 28.497-80.31 49.222-120.46 59.585-1.2952 25.906-1.2952 51.813-1.2952 77.719 91.968 64.766 183.94 115.28 277.2 159.32 0-117.87 2.5906-237.04 3.886-356.21 1.2953-119.17 1.2953-238.34 1.2953-356.21zm-7.7719 12.953c-3.8858 10.363-7.7719 20.725-11.658 31.088-27.202 11.658-54.403 24.611-81.605 37.564-2.5906-5.1812-7.7719-11.658-11.658-16.839 34.974-18.135 69.947-36.269 104.92-51.813zm-12.953 40.155c0 101.03-1.2954 202.07-1.2954 303.1-1.2952 99.74-2.5906 200.77-3.8858 301.81-79.014-33.678-158.03-71.242-235.75-115.28v-40.155c25.906-6.4767 53.108-18.134 79.015-32.383 0 27.202 0 54.403-1.2954 81.605 27.202 11.658 53.108 22.02 80.31 32.383 1.2954-82.901 2.5906-165.8 2.5906-247.41 1.2954-82.9 1.2954-164.51 1.2954-247.41 27.202-12.953 53.108-24.611 79.014-36.269zm-88.082 514.24c-2.5906-9.0673-6.4767-16.839-10.362-25.906 1.2952-77.719 2.5906-156.73 3.8858-234.45 0-77.719 0-156.73 1.2954-234.45 2.5906 5.1813 6.4765 10.362 10.362 16.839 0 79.014-1.2952 159.32-1.2952 239.63 1e-4 79.014-2.5907 159.32-3.886 238.34zm-59.585-136.01c-5.1812 10.362-9.0671 19.43-12.953 29.792-27.202 15.544-54.403 27.202-81.605 34.974-3.886-5.1813-7.7719-10.362-11.658-15.544 34.974-9.0672 69.947-25.906 106.22-49.222zm-110.1 115.28c0-20.725 0-41.45 1.2954-62.175 3.886 5.1813 7.7719 10.362 11.658 15.544 0 14.248-1.2954 28.497-1.2954 42.745-3.8858 1.2954-7.7719 2.5908-11.658 3.886zm167.1 25.906c-22.02-7.7721-42.746-15.544-64.766-24.611 5.1812-5.1815 9.0673-10.363 11.658-15.544 14.248 5.1812 28.497 9.0673 41.45 14.248 3.8862 9.0673 7.772 16.839 11.658 25.906z" fill="url(#h)"/>
 <linearGradient id="i" x1="1057.2" x2="1057.2" y1="1299.4" y2="300.93" gradientUnits="userSpaceOnUse">
  <stop stop-color="#6F6859" offset="0"/>
  <stop stop-color="#6F6859" offset=".0562"/>
  <stop stop-color="#716A5B" offset=".0861"/>
  <stop stop-color="#787163" offset=".1022"/>
  <stop stop-color="#847E71" offset=".1149"/>
  <stop stop-color="#959084" offset=".1259"/>
  <stop stop-color="#ABA79D" offset=".1356"/>
  <stop stop-color="#B9B5AC" offset=".1404"/>
  <stop stop-color="#B9B5AC" offset=".2301"/>
  <stop stop-color="#B9B5AC" offset=".2416"/>
  <stop stop-color="#B6B2A9" offset=".2606"/>
  <stop stop-color="#ADA9A0" offset=".2743"/>
  <stop stop-color="#9D9990" offset=".2863"/>
  <stop stop-color="#969289" offset=".2903"/>
  <stop stop-color="#969289" offset=".3142"/>
  <stop stop-color="#969289" offset=".3184"/>
  <stop stop-color="#98948B" offset=".3553"/>
  <stop stop-color="#9E9B92" offset=".3714"/>
  <stop stop-color="#A9A69F" offset=".3835"/>
  <stop stop-color="#B9B7B1" offset=".3936"/>
  <stop stop-color="#CECDC8" offset=".4024"/>
  <stop stop-color="#E7E7E4" offset=".4102"/>
  <stop stop-color="#FDFEFD" offset=".4157"/>
  <stop stop-color="#FCFDFC" offset=".4438"/>
  <stop stop-color="#FAFAF9" offset=".4804"/>
  <stop stop-color="#F2F2F1" offset=".5029"/>
  <stop stop-color="#E4E4E3" offset=".5215"/>
  <stop stop-color="#D2D0D0" offset=".5375"/>
  <stop stop-color="#D2D0D0" offset=".543"/>
  <stop stop-color="#D2D0D0" offset=".5431"/>
  <stop stop-color="#D6D4D4" offset=".5546"/>
  <stop stop-color="#E1DFDF" offset=".5657"/>
  <stop stop-color="#F3F3F3" offset=".5766"/>
  <stop stop-color="#fff" offset=".5818"/>
  <stop stop-color="#fff" offset=".7212"/>
  <stop stop-color="#FBFBFB" offset=".7227"/>
  <stop stop-color="#DEDEDB" offset=".7354"/>
  <stop stop-color="#C6C6C0" offset=".7497"/>
  <stop stop-color="#B1B1AA" offset=".7659"/>
  <stop stop-color="#A2A299" offset=".7849"/>
  <stop stop-color="#97978E" offset=".8083"/>
  <stop stop-color="#919187" offset=".8412"/>
  <stop stop-color="#8F8F85" offset=".9326"/>
 </linearGradient>
 <path d="m243.7 989.11c0-25.906 0-51.813 1.2953-77.719 40.155-10.362 80.31-31.088 120.46-59.585 0 37.564-1.2953 73.833-1.2953 110.1 12.953 3.8859 25.906 7.7719 37.564 11.658 1.2953-79.014 2.5906-158.03 3.886-238.34 0-79.014 0-159.32 1.2953-238.34 38.86-22.02 79.014-42.746 119.17-60.88 0 117.87 0 237.04-1.2953 356.21s-3.886 238.34-3.886 356.21c-93.263-44.041-185.23-94.558-277.2-159.32zm169.69-488.34c3.886 5.1813 9.0672 11.658 11.658 16.839 27.202-12.953 54.403-25.906 81.605-37.564 3.886-10.362 7.7719-20.725 11.658-31.088-34.974 15.544-69.947 33.678-104.92 51.813zm9.0672 24.611c-3.886-6.4766-7.7719-11.658-10.362-16.839-1.2953 77.719-1.2953 156.73-1.2953 234.45-1.2953 77.719-2.5906 156.73-3.886 234.45 3.886 9.0673 7.7719 16.839 10.362 25.906 1.2953-79.014 3.886-159.32 3.886-238.34 0-80.31 1.2953-160.62 1.2953-239.63zm82.9-36.269c-25.906 11.658-51.813 23.316-79.014 36.269 0 82.9 0 164.51-1.2953 247.41 0 81.605-1.2953 164.51-2.5906 247.41-27.202-10.362-53.108-20.725-80.31-32.383 1.2953-27.202 1.2953-54.403 1.2953-81.605-25.906 14.248-53.108 25.906-79.014 32.383v40.155c77.719 44.041 156.73 81.605 235.75 115.28 1.2953-101.03 2.5906-202.07 3.886-301.81 0-101.03 1.2953-202.07 1.2953-303.1zm-102.33 493.52c-12.953-5.1813-27.202-9.0673-41.45-14.248-2.5906 5.1813-6.4766 10.362-11.658 15.544 22.02 9.0672 42.746 16.839 64.766 24.611-3.8859-9.0672-7.7719-16.839-11.658-25.906zm-151.55-66.061c3.886 5.1813 7.7719 10.362 11.658 15.544 27.202-7.7719 54.403-19.43 81.605-34.974 3.886-10.362 7.7719-19.43 12.953-29.792-36.269 23.316-71.243 40.155-106.22 49.222zm9.0672 19.43c-3.886-5.1813-7.7719-10.362-11.658-15.544-1.2953 20.725-1.2953 41.45-1.2953 62.175 3.886-1.2953 7.7719-2.5906 11.658-3.886 0-14.248 1.2953-28.497 1.2953-42.746zm309.58 235.75c0-53.108 0-104.92 1.2953-158.03 0-51.813 1.2953-104.92 1.2953-156.73-10.362-1.2953-20.725-2.5906-31.088-2.5906 1.2953-47.927 1.2953-95.854 1.2953-143.78 10.362 0 20.725-1.2953 31.088-2.5906 0-49.222 1.2953-98.444 1.2953-147.67v-147.67c95.854-37.564 191.71-68.652 286.27-91.968 0 62.175 0 125.65-1.2953 187.82-54.403 7.7719-110.1 16.839-165.8 27.202 0 54.403 0 108.81-1.2953 163.21 45.336-2.5906 89.377-3.8859 134.71-6.4766 0 60.88-1.2953 123.06-1.2953 183.94-45.336-3.886-89.377-6.4766-134.71-10.362 0 62.175 0 124.35-1.2953 186.53 55.699 12.953 111.4 23.316 167.1 33.678-1.2953 62.175-1.2953 124.35-1.2953 186.53-95.854-28.497-190.41-62.175-286.27-101.03zm12.953-751.28c3.886 7.7719 7.772 16.839 11.658 24.611 82.9-28.497 165.8-51.813 247.41-71.243 3.8859-12.953 7.7719-25.906 11.658-37.564-89.377 22.02-180.05 50.517-270.72 84.196zm108.81 290.15c-3.886 11.658-7.7719 22.02-11.658 32.383 42.746-1.2953 85.491-2.5906 128.24-2.5906 3.886-11.658 7.7719-23.316 11.658-34.974-42.746 1.2953-85.491 3.8859-128.24 5.1812zm145.08 432.64c-55.699-11.658-111.4-25.906-167.1-41.45 0-49.222 0-97.149 1.2953-146.37 0-47.927 1.2953-97.149 1.2953-146.37 44.041 1.2953 89.377 3.886 133.42 5.1813 0-20.725 1.2953-41.45 1.2953-60.88-45.336 0-89.377 0-134.71 1.2953 0-45.336 1.2953-89.377 1.2953-134.71v-134.71c55.699-14.248 111.4-25.906 167.1-36.269v-62.175c-81.605 18.134-163.21 41.45-244.82 68.652v150.26c-1.2953 50.518-1.2953 101.03-1.2953 150.26-10.362 1.2953-20.725 1.2953-31.088 1.2953v49.222c10.362 0 20.725 1.2953 31.088 1.2953-1.2953 53.108-1.2953 107.51-2.5906 160.62 0 53.108-1.2953 107.51-1.2953 160.62 81.605 28.497 163.21 54.403 244.82 76.424 1e-4 -20.725 1e-4 -41.45 1.2954-62.175zm-244.82-689.11c-3.8859-9.0672-7.7719-16.839-11.658-24.611-1.2953 46.632-1.2953 94.558-1.2953 141.19s0 93.263-1.2953 139.89c3.886 9.0672 7.7719 18.134 11.658 27.202 1.2953-46.632 1.2953-94.558 1.2953-141.19 0-47.927 0-95.854 1.2953-142.48zm97.149 610.1c-3.886 9.0673-7.7719 18.134-11.658 28.497 53.108 14.248 106.22 27.202 160.62 38.86 3.886-11.658 7.7719-22.02 11.658-33.678-53.108-10.362-107.51-22.02-160.62-33.678zm-113.99-345.85c-7.7719 1.2953-15.544 1.2953-24.611 1.2953 3.8859 9.0673 7.7719 18.134 11.658 27.202 7.7719 0 16.839 0 24.611-1.2953-3.886-9.0673-7.7719-18.134-11.658-27.202zm-15.544 36.269c-3.8859-9.0672-7.7719-18.134-11.658-27.202 0 36.269-1.2953 73.833-1.2953 110.1 3.886-9.0672 7.7719-18.134 11.658-27.202-1e-4 -18.134 1.2952-37.564 1.2952-55.699zm29.792 71.242c-3.886 10.362-7.7719 19.43-11.658 28.497-1.2953 50.518-1.2953 99.74-2.5906 150.26 0 49.222 0 99.74-1.2953 150.26 3.8859-7.772 7.7719-15.544 11.658-23.316 1.2953-51.813 1.2953-102.33 2.5907-152.85 0-50.517 1.2953-101.03 1.2953-152.85zm286.27 452.07c0-79.014 0-159.32 1.2953-238.34 33.678-47.927 67.357-97.149 102.33-148.96-1.2953 69.947-1.2953 141.19-1.2953 212.43 33.678 2.5907 67.357 2.5907 101.03 2.5907 1.2954-40.155 1.2954-80.31 1.2954-120.46-33.678-54.403-67.357-108.81-101.03-164.51-33.678-53.108-67.357-106.22-101.03-158.03 1.2953-56.994 1.2953-115.28 1.2953-172.28 0-58.289 1.2953-115.28 1.2953-172.28 107.51-16.839 213.73-19.43 321.24-9.0672 0 81.605 0 161.91-1.2953 242.22-33.678 51.813-67.357 103.63-102.33 158.03 1.2954-71.242 1.2954-142.48 1.2954-212.43-33.678-1.2953-67.357-1.2953-101.03 0 0 40.155 0 79.014-1.2953 117.87 33.678 54.403 67.357 108.81 101.03 163.21 33.678 54.403 67.357 107.51 101.03 160.62v352.32c-108.81 11.658-216.32 7.7719-323.83-12.953zm12.953-949.47c3.8859 11.658 7.7719 23.316 10.362 33.678 94.558-10.362 189.12-12.953 283.67-5.1813 3.8859-11.658 7.7719-23.316 11.658-34.974-102.33-10.363-203.36-7.7719-305.7 6.4766zm227.98 125.65c-3.886 11.658-7.772 24.611-11.658 36.269-1.2954 60.88-1.2954 120.46-1.2954 181.34l11.658-58.289c-1e-4 -53.108-1e-4 -106.22 1.2952-159.32zm-120.46 174.87c-3.886 6.4766-7.7719 14.248-11.658 22.02 32.383 53.108 64.766 106.22 98.444 159.32 32.383 53.108 66.061 104.92 98.444 156.73 3.886-7.7719 7.772-15.544 11.658-23.316-33.678-51.813-66.061-103.63-98.444-156.73-33.678-53.108-66.061-106.22-98.444-158.03zm182.64 351.03c-33.678-53.108-67.357-106.22-101.03-160.62-33.678-54.403-67.357-108.81-99.74-163.21 0-73.833 0-148.96 1.2953-222.79 46.632-2.5906 94.558-3.886 142.49-2.5906-1.2953 56.994-1.2953 115.28-1.2953 172.28 19.43-31.088 40.155-62.175 59.585-91.968 1.2953-46.632 1.2953-94.558 1.2953-141.19-93.263-7.7719-186.53-5.1813-281.08 5.1813v124.35s-1.2953 82.9-1.2953 124.35c33.678 51.813 67.357 104.92 101.03 158.03 33.678 54.403 67.357 108.81 101.03 163.21 0 75.128-1.2953 150.26-1.2953 225.39-47.927 1.2953-95.854-1.2954-142.49-6.4767v-169.69c-19.43 29.792-40.155 59.585-60.88 88.082v137.3c93.263 14.248 187.82 16.839 282.38 9.0673v-124.35s0-82.9 0-124.35zm-82.9-16.839c-3.886 6.4766-7.772 14.248-11.658 22.02v119.17c3.886 12.953 7.772 24.611 11.658 36.269v-177.46zm-199.48-590.67c-3.886-10.362-7.7719-22.02-11.658-33.678v154.14c-1.2953 50.518-1.2953 101.03-1.2953 152.85 3.8859-7.7719 7.7719-14.248 11.658-22.02 0-41.45 0-84.196 1.2953-125.65 1e-4 -41.45 1e-4 -82.9 1e-4 -125.65zm185.23 747.4c-34.974 0-69.947-1.2953-104.92-3.886-3.8859 11.658-7.7719 23.316-11.658 34.974 42.746 5.1813 85.491 6.4766 128.24 5.1813-2.5906-11.658-6.4766-24.611-11.658-36.269zm-196.89-75.128c3.886 7.772 7.7719 15.544 10.362 23.316 22.02-29.792 42.746-60.88 64.766-93.263 3.886-18.134 7.772-38.86 11.658-58.289-29.792 44.041-58.289 86.786-86.786 128.24zm7.7719 33.678c-3.8859-9.0673-7.7719-16.839-11.658-24.611-1.2953 67.357-1.2953 136.01-1.2953 203.37 3.886-10.362 7.7719-22.02 11.658-32.383 1.2952-49.222 1.2952-98.444 1.2952-146.37zm325.13 209.84c0-163.21 1.2953-326.42 1.2953-488.34 0-163.21 1.2953-326.42 2.5906-488.34 40.155 6.4766 79.014 14.248 119.17 24.611-1.2953 124.35-2.5906 248.7-2.5906 373.05v371.76c23.316-2.5906 46.632-6.4766 69.947-10.362v-358.8s1.2953-238.34 2.5906-357.51c38.86 11.658 79.014 23.316 119.17 36.269-1.2953 137.3-2.5906 273.31-2.5906 409.32s0 272.02 1.2953 408.03c-103.63 32.383-207.25 58.289-310.88 80.31zm199.48-918.38l11.658 34.974c27.202 7.7719 54.403 15.544 81.605 23.316 3.8859-9.0672 7.7719-18.134 11.658-27.202-34.974-11.658-69.947-22.02-104.92-31.088zm9.0673 44.041c-3.886-12.953-7.7719-24.611-10.362-36.269-1.2953 116.58-2.5906 231.86-2.5906 347.15v348.44c3.8859 10.362 7.7719 20.725 11.658 29.792 0-113.99-1.2953-229.27 0-344.55 0-115.28 0-230.57 1.2953-344.55zm-198.18-86.786c3.8859 12.953 7.7719 25.906 11.658 38.86 27.202 5.1813 54.403 9.0672 81.605 15.544 3.8859-11.658 7.7719-22.02 11.658-33.678-34.974-7.7719-69.947-14.248-104.92-20.725zm281.08 111.4c-27.202-6.4766-53.108-14.248-79.014-20.725-1.2953 117.87-1.2953 235.75-1.2953 352.33v353.62c-37.564 7.7719-73.833 14.248-111.4 20.725v-375.64s1.2953-251.29 2.5906-375.64c-27.202-6.4766-53.108-10.362-79.014-15.544-1.2953 141.19-2.5906 281.08-2.5906 422.27v420.98c89.377-16.839 180.05-37.564 269.43-60.88 0-120.46-1.2953-240.93-1.2953-360.1 1e-4 -120.46 1.2954-240.93 2.5906-361.39zm-99.74 643.77c-24.611 3.886-47.927 7.772-72.538 11.658-3.886 12.953-7.772 24.611-11.658 36.269 32.383-5.1813 63.471-11.658 95.854-16.839-3.8859-10.363-7.7718-20.725-11.658-31.088zm-172.28-708.54c-3.8859-12.953-7.7719-24.611-11.658-37.564-1.2953 154.14-2.5906 309.58-2.5906 463.72v465.02c3.8859-12.953 7.7719-25.906 11.658-38.86v-426.16c0-141.19 1.2953-283.67 2.5906-426.16zm309.58 827.71v-199.48c33.678-47.927 67.357-93.263 101.03-136.01v154.14c34.974-7.7719 68.652-16.839 102.33-27.202 0-25.906 0-50.518-1.2953-76.424-33.678-29.792-68.652-63.471-101.03-101.03-34.974-38.86-68.652-82.9-102.33-128.24 0-47.927 1.2954-95.854 1.2954-143.78s1.2953-97.149 1.2953-145.08c107.51 41.45 215.02 90.672 322.53 164.51 0 38.86-1.2953 77.719-1.2953 116.58-34.974 14.248-68.652 36.269-102.33 64.766 0-44.041 0-86.786 1.2953-130.83-34.974-10.362-68.652-19.43-102.33-28.497v82.9c32.383 42.746 66.061 84.196 101.03 119.17 32.383 32.383 67.357 59.585 102.33 79.014 0 28.497 0 56.994 1.2953 85.491v84.196c-107.51 75.129-215.02 124.35-323.83 165.8zm9.0671-788.85c3.886 10.363 7.772 22.02 11.658 33.678 94.558 32.383 189.12 71.243 283.67 123.06 3.886-2.5906 7.772-5.1813 11.658-7.7719-102.33-66.061-204.66-111.4-306.99-148.96zm227.98 181.34c-3.886 5.1813-7.772 11.658-11.658 16.839 0 37.564-1.2954 73.833-1.2954 111.4 3.886-11.658 7.772-23.316 11.658-33.678-1e-4 -31.088 1.2952-63.471 1.2952-94.558zm-120.46 84.196c-3.8859 3.886-7.7719 9.0673-11.658 14.248 32.383 41.45 64.766 80.31 99.74 113.99 32.383 32.383 66.061 58.289 99.74 80.31 3.886-5.1813 6.4766-10.362 10.362-15.544-32.383-20.725-67.357-46.632-99.74-79.014-33.678-33.678-66.061-73.833-98.444-113.99zm185.23 215.02c-34.974-22.02-68.652-47.927-102.33-81.605-34.974-34.974-67.357-73.833-101.03-116.58 0-54.403 0-108.81 1.2953-163.21 46.632 14.248 94.558 31.088 142.49 49.222-1.2953 33.678-1.2953 67.357-1.2953 102.33 19.43-14.248 40.155-25.906 60.88-33.678 0-24.611 0-49.222 1.2953-73.833-94.558-50.517-187.82-86.786-281.08-119.17-1.2953 33.678-1.2953 67.357-1.2953 101.03s0 67.357-1.2954 99.74c33.678 46.632 67.357 90.672 101.03 129.53 33.678 38.86 68.652 71.243 102.33 101.03 1.2953 46.632 1.2953 91.968 1.2953 138.6-47.927 16.839-95.854 32.383-142.48 46.632 0-42.746-1.2954-85.491-1.2954-128.24-19.43 28.497-40.155 56.994-59.585 85.491v111.4c94.558-31.088 187.82-68.652 282.38-117.87 0-22.02 0-44.041-1.2953-66.061v-64.766zm-82.9 6.4766c-3.8859 5.1813-7.7719 10.362-11.658 16.839v75.128c3.886 5.1813 7.772 11.658 11.658 18.134v-110.1zm-202.07-446.88c-3.886-11.658-7.772-22.02-11.658-33.678v126.94c-1.2954 42.746-1.2954 85.491-1.2954 128.24 3.886-6.4766 7.772-11.658 11.658-16.839 0-33.678 0-68.652 1.2953-102.33-1e-4 -33.678-1e-4 -68.652-1e-4 -102.33zm189.12 547.92c-34.974 10.362-69.947 20.725-104.92 29.792-3.8859 10.362-7.7719 20.725-11.658 31.088 42.746-12.953 85.491-25.906 128.24-41.45-3.8861-6.4766-7.772-12.953-11.658-19.43zm-198.18 2.5906c3.886 6.4766 7.772 11.658 11.658 16.839 20.725-29.792 41.45-59.585 62.175-88.082 3.8859-15.544 7.7719-31.088 11.658-45.336-28.497 37.564-56.994 76.424-85.491 116.58zm9.0673 25.906c-5.1813-6.4766-9.0673-11.658-12.953-16.839 0 56.994 0 112.69 1.2954 169.69 2.5906-11.658 7.7719-23.316 11.658-33.678 0-40.155-1.2953-80.31 0-119.17z" fill="none" stroke="url(#i)" stroke-miterlimit="10" stroke-width="4"/>
 <linearGradient id="j" x1="1280.2" x2="1280.2" y1="1330.7" y2="269.34" gradientUnits="userSpaceOnUse">
  <stop stop-color="#8A949B" offset="0"/>
  <stop stop-color="#fff" offset=".1629"/>
  <stop stop-color="#437A7F" offset=".3764"/>
  <stop stop-color="#fff" offset=".6685"/>
  <stop stop-color="#64747E" offset="1"/>
 </linearGradient>
 <path d="m2511.8 1074.6c-88.082-73.833-182.64-155.44-279.79-237.04-104.92 86.786-215.02 174.87-305.7 233.16-553.1 357.51-1101 345.85-1638.6-32.383-12.953-9.0673-290.15-224.09-287.56-238.34 584.19 507.76 1215 660.61 1893.8 221.5 85.491-55.699 191.71-138.6 292.74-221.5-168.39-137.3-347.15-268.13-525.9-349.74-610.1-277.2-1183.9-82.9-1660.6 349.74l28.497-27.202c475.38-443 1033.7-659.32 1656.7-375.64 187.82 85.491 373.05 221.5 546.62 363.98 55.699-45.336 107.51-89.377 152.85-126.94 41.45-34.974 84.196-71.243 125.65-107.51 12.953-10.362 31.088-9.0672 41.45 2.5906 11.658 11.658 10.362 31.088-1.2954 41.45-42.745 37.564-85.491 73.833-128.24 108.81-42.745 36.269-91.968 77.719-143.78 120.46 93.263 77.719 183.94 156.73 270.72 229.27 12.953 11.658 14.248 29.792 3.8857 42.746-10.362 11.658-29.792 12.953-41.45 2.5908zm-2511.6-274.61z" fill="url(#j)"/>
 <linearGradient id="k" x1="-2.855" x2="2563.2" y1="800.01" y2="800.01" gradientUnits="userSpaceOnUse">
  <stop stop-color="#E5E2DF" offset="0"/>
  <stop stop-color="#DED9D6" offset="0"/>
  <stop stop-color="#CFCAC9" offset=".063"/>
  <stop stop-color="#A8A4A7" offset=".1833"/>
  <stop stop-color="#8B878D" offset=".264"/>
  <stop stop-color="#F3F4F4" offset=".5225"/>
  <stop stop-color="#E5E5E6" offset=".5842"/>
  <stop stop-color="#C0BEC0" offset=".7027"/>
  <stop stop-color="#858085" offset=".8647"/>
  <stop stop-color="#807B80" offset=".8764"/>
  <stop stop-color="#D1D3D4" offset="1"/>
  <stop stop-color="#A7A9AC" offset="1"/>
 </linearGradient>
 <path d="m1125.3 269.34c180.12 0 367 39.891 560.11 127.81 187.82 85.491 373.05 221.5 546.62 363.98 55.698-45.336 107.51-89.377 152.85-126.94 41.45-34.974 84.196-71.243 125.65-107.51 5.9065-4.7253 12.891-7.0266 19.724-7.0266 8.1521 0 16.089 3.2753 21.727 9.6173 11.658 11.658 10.362 31.088-1.2952 41.45-42.746 37.564-85.491 73.833-128.24 108.81-42.745 36.269-91.968 77.719-143.78 120.46 93.263 77.719 183.94 156.73 270.72 229.27 12.953 11.658 14.248 29.792 3.8857 42.745-5.6367 6.3414-13.959 9.6173-22.251 9.6173-6.9521 0-13.883-2.3007-19.2-7.0266-88.082-73.833-182.64-155.44-279.79-237.04-104.92 86.786-215.02 174.87-305.7 233.16-268.25 173.39-535.36 259.96-800.57 259.96-281.64 0-561.15-97.546-838-292.34-12.953-9.0673-290.15-224.09-287.56-238.34 348.47 302.88 713.54 479.48 1095.5 479.48 258.36 0 524.41-80.8 798.29-257.98 85.491-55.699 191.71-138.6 292.74-221.5-168.39-137.3-347.15-268.13-525.9-349.74-194.68-88.452-385.74-128.9-571.05-128.91-395.44-0.0253-764.97 184.06-1089.5 478.64l28.497-27.202c328.04-305.7 695.57-503.45 1096.6-503.45m0-2.9999c-98.143 0-197.43 12.032-295.11 35.761-93.821 22.792-188.65 56.984-281.86 101.62-89.3 42.768-179.48 96.26-268.03 158.99-84.601 59.933-169.94 129.88-253.65 207.88l-26.546 25.34-1.9145-1.664-0.9427 5.1843c-0.395 2.1727 0.22 5.0793 11.925 16.632 7.038 6.946 17.496 16.418 31.082 28.151 23.178 20.017 55.483 46.666 96.017 79.205 69.846 56.069 143.2 112.74 149.77 117.34 68.989 48.542 139.12 91.627 208.45 128.06 69.346 36.438 139.83 67.236 209.48 91.538 69.679 24.31 140.48 42.801 210.45 54.96 69.986 12.162 141.09 18.329 211.34 18.329 66.167 0 133.37-5.4757 199.74-16.275 66.384-10.802 133.79-27.231 200.34-48.831 66.569-21.606 134.14-48.989 200.85-81.388 66.728-32.411 134.45-70.748 201.28-113.94 93.71-60.242 206.13-150.81 304.05-231.77 47.333 39.774 94.267 79.724 139.67 118.38 48.135 40.973 93.601 79.674 138.17 117.03 5.6433 5.0005 13.156 7.7543 21.158 7.7543 9.564 0 18.491-3.8723 24.493-10.624l0.0518-0.058 0.0486-0.061c5.5303-6.9127 8.175-15.431 7.447-23.987-0.7346-8.632-4.8784-16.751-11.668-22.862l-0.041-0.0367-0.042-0.0353c-41.141-34.386-82.321-69.517-125.92-106.71-46.188-39.403-93.916-80.119-142.03-120.25 43.072-35.559 89.236-74.249 141.01-118.17 42.562-34.824 85.725-71.448 128.29-108.86 6.3694-5.6614 10.164-13.966 10.423-22.796 0.2578-8.7664-2.9109-16.918-8.9246-22.966-6-6.7115-14.709-10.558-23.91-10.558-7.7336 0-15.404 2.729-21.598 7.684l-0.0518 0.0414-0.05 0.0436c-42.102 36.84-85.25 73.427-125.6 107.48-15.888 13.165-32.447 27.021-49.979 41.69-32.207 26.95-65.495 54.803-100.93 83.669-98.45-80.748-185.57-146.82-266.28-201.97-99.843-68.211-191.14-120.83-279.1-160.87-94.805-43.165-190.86-75.825-285.51-97.073-91.648-20.576-184.46-31.008-275.84-31.008zm-1120.6 533.61c348.61-315.59 713.62-475.6 1084.9-475.6l0.0653-3-2e-4 3c190.27 0.012 381.99 43.292 569.83 128.64 151.45 69.142 312.69 176.23 522.4 347.01-119.45 97.909-216.89 171.58-289.64 218.98-264.1 170.86-532.14 257.5-796.65 257.5-359.27 0-726.3-160.32-1090.9-476.53z" fill="url(#k)"/>
 <linearGradient id="l" x1=".1598" x2="2560.2" y1="800.01" y2="800.01" gradientUnits="userSpaceOnUse">
  <stop stop-color="#E5E2DF" offset="0"/>
  <stop stop-color="#D6D7D7" offset="0"/>
  <stop stop-color="#D1D3D4" offset="0"/>
  <stop stop-color="#EDEEEE" offset=".0676"/>
  <stop stop-color="#fff" offset=".1067"/>
  <stop stop-color="#F5F5F6" offset=".1302"/>
  <stop stop-color="#DBDCDD" offset=".1697"/>
  <stop stop-color="#B1B2B4" offset=".2201"/>
  <stop stop-color="#97999C" offset=".2472"/>
  <stop stop-color="#9A9C9E" offset=".2718"/>
  <stop stop-color="#A2A4A7" offset=".2866"/>
  <stop stop-color="#B0B2B4" offset=".2987"/>
  <stop stop-color="#C4C6C8" offset=".3095"/>
  <stop stop-color="#D1D3D4" offset=".3146"/>
  <stop stop-color="#C7C9CA" offset=".3637"/>
  <stop stop-color="#ADAFB0" offset=".4464"/>
  <stop stop-color="#838586" offset=".5518"/>
  <stop stop-color="#58595B" offset=".6461"/>
  <stop stop-color="#616265" offset=".6777"/>
  <stop stop-color="#7A7C7F" offset=".7307"/>
  <stop stop-color="#808285" offset=".7416"/>
  <stop stop-color="#797A7D" offset=".743"/>
  <stop stop-color="#5A595C" offset=".7501"/>
  <stop stop-color="#424041" offset=".7574"/>
  <stop stop-color="#312D2F" offset=".7648"/>
  <stop stop-color="#262324" offset=".7725"/>
  <stop stop-color="#231F20" offset=".7809"/>
  <stop stop-color="#4B4848" offset=".7899"/>
  <stop stop-color="#7A7878" offset=".8021"/>
  <stop stop-color="#A3A1A2" offset=".8146"/>
  <stop stop-color="#C4C3C3" offset=".8274"/>
  <stop stop-color="#DEDEDE" offset=".8403"/>
  <stop stop-color="#F0F0F0" offset=".8535"/>
  <stop stop-color="#FBFBFB" offset=".8672"/>
  <stop stop-color="#fff" offset=".882"/>
  <stop stop-color="#EAEBEC" offset=".8972"/>
  <stop stop-color="#D0D2D3" offset=".9214"/>
  <stop stop-color="#BEBFC2" offset=".9463"/>
  <stop stop-color="#B3B5B7" offset=".972"/>
  <stop stop-color="#AFB1B4" offset="1"/>
 </linearGradient>
 <path d="m1125.3 273.34c90.872 0 183.16 10.376 274.31 30.838 94.174 21.143 189.77 53.648 284.14 96.614 87.596 39.871 178.55 92.3 278.06 160.28 81.062 55.381 168.62 121.83 267.69 203.15l2.5273 2.0746 2.5356-2.064c36.182-29.45 70.1-57.831 102.9-85.278 17.525-14.664 34.078-28.515 50.001-41.708 40.358-34.052 83.512-70.645 125.63-107.5 4.9453-3.9312 11.034-6.0946 17.156-6.0946 7.2334 0 14.063 3.016 18.737 8.2747l0.0779 0.088 0.0833 0.083c4.6765 4.6766 7.1411 11.024 6.9397 17.873-0.2029 6.911-3.1423 13.384-8.0469 17.744-42.514 37.361-85.623 73.938-128.13 108.72l-0.0276 0.0223-0.0273 0.0233c-52.872 44.861-99.89 84.254-143.74 120.43l-3.7209 3.07 3.7061 3.0883c49.021 40.851 97.684 82.365 144.74 122.51 43.59 37.186 84.766 72.313 125.91 106.71 11.128 10.061 12.575 25.655 3.4524 37.143-4.6743 5.2124-11.664 8.1995-19.194 8.1995-6.3027 0-12.177-2.1366-16.542-6.0164l-0.0435-0.0386-0.0442-0.037c-44.56-37.351-90.026-76.053-138.16-117.03-46.028-39.18-93.624-79.694-141.62-120.01l-2.553-2.1447-2.5688 2.125c-98.212 81.237-211.29 172.43-305.32 232.88-66.593 43.044-134.06 81.24-200.54 113.53-66.414 32.259-133.69 59.52-199.95 81.027-66.214 21.49-133.27 37.835-199.3 48.58-65.999 10.739-132.82 16.184-198.61 16.184-69.846 0-140.55-6.132-210.14-18.226s-140.02-30.489-209.34-54.673c-69.332-24.189-139.49-54.848-208.53-91.126-69.063-36.289-138.94-79.215-207.7-127.59-5.7588-4.0313-62.371-47.705-124.27-96.98 311.27 229.37 623.29 345.4 929.88 345.4 265.88 0 535.2-87.014 800.47-258.63 74.577-48.588 170.45-121.13 293.1-221.76l3.7805-3.102-3.79-3.0903c-211.59-172.53-374.05-280.56-526.77-350.28-188.76-85.763-381.44-129.25-572.72-129.27h-0.0657c-306.85 0-609.27 108.62-901.66 323.41 32.139-25.485 64.296-49.632 96.349-72.338 88.227-62.502 178.06-115.79 267-158.39 92.771-44.431 187.14-78.457 280.49-101.14 97.137-23.598 195.87-35.563 293.46-35.563m0-4.0001c-401.04 0-768.56 197.76-1096.6 503.45l-28.497 27.202c324.57-294.59 694.11-478.67 1089.5-478.64 185.31 0.0118 376.38 40.456 571.05 128.91 178.75 81.605 357.51 212.43 525.9 349.74-101.03 82.9-207.25 165.8-292.74 221.5-273.88 177.18-539.93 257.98-798.29 257.98-381.93 0-747-176.6-1095.5-479.48-2.5907 14.248 274.61 229.27 287.56 238.34 276.85 194.8 556.37 292.34 838 292.34 265.22 0 532.33-86.572 800.57-259.96 90.672-58.289 200.77-146.37 305.7-233.16 97.149 81.605 191.71 163.21 279.79 237.04 5.3169 4.726 12.247 7.0266 19.2 7.0266 8.292 0 16.614-3.2759 22.251-9.6173 10.362-12.953 9.0671-31.087-3.8857-42.745-86.786-72.538-177.46-151.55-270.72-229.27 51.813-42.746 101.03-84.196 143.78-120.46 42.746-34.974 85.491-71.243 128.24-108.81 11.658-10.362 12.953-29.792 1.2952-41.45-5.6372-6.342-13.574-9.6173-21.727-9.6173-6.833 0-13.817 2.3013-19.724 7.0266-41.45 36.269-84.196 72.538-125.65 107.51-45.336 37.564-97.149 81.605-152.85 126.94-173.57-142.48-358.8-278.49-546.62-363.98-193.11-87.921-379.98-127.81-560.11-127.81z" fill="url(#l)"/>
</svg>
