<?xml version="1.0" encoding="UTF-8"?>
<!DOCTYPE svg  PUBLIC '-//W3C//DTD SVG 1.1//EN'  'http://www.w3.org/Graphics/SVG/1.1/DTD/svg11.dtd'>
<svg enable-background="new 0 0 2345.8484 2414.6128" version="1.1" viewBox="0 0 2345.8484 2414.6128" xml:space="preserve" xmlns="http://www.w3.org/2000/svg">
	<path d="m910.42 2262.2l-311-91c60.189-377.56 90.41-751.96 89-1123l-171-69-38 102-70-163-353-243 365-164v-218l178 188.67 168-16c-15.751-209.02 99.808-343.2 350-400.67 197.47-25.223 379.4 14.344 537.33 154l128.67-73.333-36.667 241.33 173.33 40 138-133.33-24.667 208.67 256 130.67-208 168.67 37.334 128.67-186.67-53.333-134 85.333 78 1038.7-403.33 355.33 34-676.67-219.33 233.33-147.33-41.333c-83.269 106.45-159.47 237.8-229.67 390.33z"/>
	<polygon points="1595.4 1617.9 1684.1 1402.5 1697.4 1979.2" fill="#fff"/>
	<path d="m922.09 1934.5c23.511-225.98 38.917-448.17 34.667-669.33 44.223 200.58 84.374 375.52 145.33 494.67-60.984 39.842-120.78 101.96-180 174.67z" fill="#fff"/>
	<polygon points="386.92 705.7 755.92 584.2 719.92 911.2" fill="#fff"/>
	<polygon points="1773.8 586.2 2003.4 658.53 1807.1 770.2" fill="#fff"/>
	<path d="m1023.4 402.7c11.393-98.487 67.749-146.12 165-147.5 138.49-6.7915 266.93 21.788 354 143.5-193.72-1.4171-375.47-4.0919-519 4z" fill="#fff"/>
	<path d="m386.92 705.7" fill="#fff"/>
	<path d="m981.42 559.2l296-15.333 76.667 86 44-102 208 10c1.2549 57.603 8.8438 116.12 21.333 175.33-101.31 13.16-194.54 31.099-276 56-19.011 176.1-26.79 354.18-24.667 534l-148 20.667c17.577-203.24 33.599-401.3 25.333-518.67-60.874-74.205-162.98-53.441-276.67-6 27.592-83.878 46.649-164.31 54-240z" fill="#fff"/>
	<path d="m1419.9 861.7s110-49 111.5-47 103.5 105 95 109-97.5 59-97.5 59l-109-121z" fill="#fff"/>
	<path d="m1419.9 861.7" fill="#fff"/>
	<path d="m1626.4 923.7" fill="#fff"/>
	<polygon points="1293.1 1756.9 1463.8 1598.5 1372.8 1550.9 1294.1 1605.9" fill="#fff"/>
	<polygon points="1287.4 1451.5 1379.1 1439.2 1510.1 1537.9 1473.8 1578.2 1367.8 1493.9 1288.8 1508.5" fill="#fff"/>
	<path d="m1535.4 1503.7c-25.98-104.66-86.983-154.9-191.5-137.5 15.75-21.75 106.5-58.5 86.75-165.25l-4-120.5 110.25-14.25-52.75 175.75c-15.585 57.104-6.4863 73.961 25.5 53.5 37.118-20.376 59.95-52.854 57.5-106.75l-22.5-99.25 117.75-45-41.25 187c-40.656 93.776-71.394 185.07-85.75 272.25z" fill="#fff"/>
</svg>
