<?xml version="1.0" encoding="UTF-8"?>
<svg viewBox="0 0 500 500" xmlns="http://www.w3.org/2000/svg">
 <g transform="matrix(.35489 0 0 .35489 349.21 133.87)">
  <path d="m-290.03-171.7 1.0817 8.125c0.81711 6.1132-0.33522 10.786-4.6931 18.969-3.1816 5.9742-6.9661 10.875-8.4043 10.875-1.8682 0-2.6128 4.3543-2.6128 15.281 0 12.149 0.73952 15.736 3.5947 17.438 6.5252 3.8889 12.948 21.881 12.948 36.281 0 14.32-6.4209 32.379-12.864 36.219-3.2998 1.9666-3.526 6.9735-4.0441 86.156-0.30254 46.24-1.2397 85.36-2.0803 86.938-0.0117 0.0219-0.0458 0.0401-0.0666 0.0625 0.0339 0.94338 0.0499 1.8837 0.0499 2.8438v130.47l0.0166 0.0312c0.84053 1.5806 1.7561 102.81 2.0304 224.94 0.48522 216.09 0.58441 222.09 4.0441 224.16 6.4899 3.8678 12.914 21.916 12.914 36.281 0 14.4-6.4224 32.361-12.948 36.25-2.8552 1.7016-3.5947 5.2882-3.5947 17.437 0 10.927 0.74461 15.313 2.6128 15.313 1.4382 0 5.2228 4.8698 8.4043 10.844 4.3579 8.1831 5.5102 12.887 4.6931 19l-1.0818 8.0937h36.896l-1.0817-8.0937c-0.81711-6.1129 0.33522-10.817 4.6931-19 3.1816-5.9739 6.9662-10.844 8.4043-10.844 1.8682 0 2.6128-4.3857 2.6128-15.313 0-12.149-0.73952-15.736-3.5947-17.437-6.5252-3.8889-12.948-21.85-12.948-36.25 0-14.366 6.4078-32.414 12.898-36.281 3.4597-2.0619 3.5755-8.0617 4.0607-224.16 0.27422-122.13 1.1898-223.36 2.0304-224.94 0.0574-0.108 0.24159-0.23475 0.49927-0.34375v-132.72c-0.25768-0.1091-0.44185-0.23595-0.49927-0.34375-0.84054-1.5779-1.7777-40.697-2.0803-86.938-0.51806-79.183-0.76094-84.19-4.0607-86.156-6.4436-3.8402-12.848-21.899-12.848-36.219 0-14.4 6.4224-32.392 12.948-36.281 2.8552-1.7016 3.5947-5.2883 3.5947-17.438 0-10.927-0.74459-15.281-2.6128-15.281-1.4382 0-5.2228-4.9008-8.4043-10.875-4.3579-8.183-5.5102-12.856-4.6931-18.969l1.0817-8.125h-36.896z" fill="#c39c11"/>
  <g transform="translate(4.3e-6 -1.7143)" fill="#c39c11" stroke="#c39c11">
   <path d="m-271.37-253.35a2.8571 2.8571 0 0 1 2.8571 2.8571v120a2.8571 2.8571 0 0 1 -2.8571 2.8571 2.8571 2.8571 0 0 1 -2.8571 -2.8571v-120a2.8571 2.8571 0 0 1 2.8571 -2.8571" stroke-width="20"/>
   <path d="m-308.91-223.07h75.093a2.1737 2.1737 0 0 1 2.1737 2.1737v6.5212a2.1737 2.1737 0 0 1 -2.1737 2.1737h-75.093a2.1737 2.1737 0 0 1 -2.1737 -2.1737v-6.5212a2.1737 2.1737 0 0 1 2.1737 -2.1737" stroke-width="17.703"/>
  </g>
  <g transform="translate(56.571 -20)" fill="#c39c11" stroke="#c39c11">
   <path d="m-497.96 909.24h338.95a17.117 17.117 0 0 1 17.117 17.117 17.117 17.117 0 0 1 -17.117 17.117h-338.95a17.117 17.117 0 0 1 -17.117 -17.117 17.117 17.117 0 0 1 17.117 -17.117" stroke-width="12.71"/>
   <path d="m-478.14 891.69h296.29a14.963 14.963 0 0 1 14.963 14.963 14.963 14.963 0 0 1 -14.963 14.963h-296.29a14.963 14.963 0 0 1 -14.963 -14.963 14.963 14.963 0 0 1 14.963 -14.963" stroke-width="11.11"/>
  </g>
  <g transform="matrix(2.0082 0 0 2.0082 -1019.4 -1350.5)">
   <path transform="matrix(1.1141 -.07472 .07472 1.1141 290.25 746.67)" d="m137.95 140.06-10.771 30.158-27.17-11.104-21.492 23.741-20.852-20.656-28.942 13.709-11.36-27.063-31.985 1.5898-0.13885-29.351-30.158-10.771 11.104-27.17-23.741-21.492 20.656-20.852-13.709-28.942 27.063-11.36-1.5898-31.985 29.351-0.13885 10.771-30.158 27.17 11.104 21.492-23.741 20.852 20.656 28.942-13.709 11.36 27.063 31.985-1.5898 0.13886 29.351 30.158 10.771-11.104 27.17 23.741 21.492-20.656 20.852 13.709 28.942-27.063 11.36 1.5898 31.985-29.351 0.13886z" fill="#c39c11"/>
   <path transform="matrix(1.0002 -.49639 .49639 1.0002 275.48 782.82)" d="m137.95 140.06 22.959 39.864-30.276-34.635 19.588 41.624-27.312-37.017 16.084 43.099-24.162-39.146 12.47 44.28-20.847-41.008 8.7708 45.159-17.389-42.589 5.0117 45.729-13.813-43.88 1.2184 45.986-10.142-44.87-2.5833 45.93-6.4023-45.555-6.3673 45.56-2.6185-45.928-10.108 44.878 1.1831-45.987-13.779 43.89 4.9766-45.732-17.357 42.602 8.7362-45.165-20.816 41.024 12.436-44.29-24.132 39.165 16.051-43.111-27.284 37.038 19.556-41.639-30.249 34.658 22.928-39.881-33.008 32.042 26.143-37.852-35.541 29.207 29.18-35.564-37.832 26.172 32.017-33.033-39.864 22.959 34.635-30.276-41.624 19.588 37.017-27.312-43.099 16.084 39.146-24.162-44.28 12.47 41.008-20.847-45.159 8.7708 42.589-17.389-45.729 5.0117 43.88-13.813-45.986 1.2184 44.87-10.142-45.93-2.5833 45.555-6.4023-45.56-6.3673 45.928-2.6185-44.878-10.108 45.987 1.1831-43.89-13.779 45.732 4.9766-42.602-17.357 45.165 8.7362-41.024-20.816 44.29 12.436-39.165-24.132 43.111 16.051-37.038-27.284 41.639 19.556-34.658-30.249 39.881 22.928-32.042-33.008 37.852 26.143-29.207-35.541 35.564 29.18-26.172-37.832 33.033 32.017-22.959-39.864 30.276 34.635-19.588-41.624 27.312 37.017-16.084-43.099 24.162 39.146-12.47-44.28 20.847 41.008-8.7708-45.159 17.389 42.589-5.0117-45.729 13.813 43.88-1.2184-45.986 10.142 44.87 2.5833-45.93 6.4023 45.555 6.3673-45.56 2.6185 45.928 10.108-44.878-1.1831 45.987 13.779-43.89-4.9766 45.732 17.357-42.602-8.7362 45.165 20.816-41.024-12.436 44.29 24.132-39.165-16.051 43.111 27.284-37.038-19.556 41.639 30.249-34.658-22.928 39.881 33.008-32.042-26.143 37.852 35.541-29.207-29.18 35.564 37.832-26.172-32.017 33.033 39.864-22.959-34.635 30.276 41.624-19.588-37.017 27.312 43.099-16.084-39.146 24.162 44.28-12.47-41.008 20.847 45.159-8.7708-42.589 17.389 45.729-5.0117-43.88 13.813 45.986-1.2184-44.87 10.142 45.93 2.5833-45.555 6.4023 45.56 6.3673-45.928 2.6185 44.878 10.108-45.987-1.1831 43.89 13.779-45.732-4.9766 42.602 17.357-45.165-8.7362 41.024 20.816-44.29-12.436 39.165 24.132-43.111-16.051 37.038 27.284-41.639-19.556 34.658 30.249-39.881-22.928 32.042 33.008-37.852-26.143 29.207 35.541-35.564-29.18 26.172 37.832-33.033-32.017z" fill="#c39c11"/>
   <path transform="translate(263.86 577.66)" d="m210.84 224.1c0 55.228-45.311 100-101.2 100s-101.2-44.772-101.2-100 45.311-100 101.2-100 101.2 44.772 101.2 100z" fill="#f9f9f9"/>
   <path d="m373.48 719.22c-45.581 0-82.527 36.97-82.527 82.551s36.946 82.527 82.527 82.527 82.551-36.946 82.551-82.527-36.97-82.551-82.551-82.551zm0 1.8327c43.996-0.60241 80.417 35.819 80.417 80.116 0 39.478-29.771 80.998-81.321 80.995-49.102-2e-3 -79.496-40.314-79.79-80.393-0.3012-40.984 31.879-80.417 80.694-80.719z" fill="#c39c11"/>
   <path d="m406.28 824.63c-3.0534-0.88164-3.262-1.2288-3.262-5.4298 0-4.632 1.3891-6.0096 2.5073-2.4865s3.4905 5.0244 7.9474 5.0244c5.2737 0 7.764-2.3819 7.911-7.5666 0.093-3.2746-0.6092-4.3599-6.3706-9.8501-8.7926-8.3785-9.9733-10.278-9.9812-16.055-0.01-4.115 0.4573-5.3 2.997-7.6724 3.3466-3.1262 9.3509-4.2591 14.812-2.7947 3.0305 0.81268 3.26 1.174 3.235 5.0932l-0.028 4.2185-2.7332-3.271c-4.9519-5.9265-13.272-3.7257-13.272 3.5107 0 2.5766 1.2375 4.2003 7.4151 9.7292 8.4807 7.5902 10.164 10.687 9.2228 16.966-1.3177 8.787-10.367 13.481-20.402 10.584h1e-3zm-80.203-1.7124c2.4142-2.6677 2.6027-40.166 0.2107-41.915-2.6979-1.9727-1.7462-2.4228 5.1224-2.4228 6.4074 0 6.6118 0.0747 5.0183 1.8355-1.4277 1.5776-1.661 4.6225-1.661 21.673 0 18.994 0.085 19.86 2.0074 20.363 4.3056 1.126 1.6665 2.2982-5.174 2.2982-6.8882 0-7.1137-0.0747-5.5238-1.8316zm22.553-0.21487c2.0455-1.9056 2.2017-2.9936 2.2701-15.808 0.1531-28.703 0.1666-28.557-2.8705-31.07l-2.7232-2.2533 8.5313 0.0269c7.3969 0.0234 8.2928 0.20791 6.7371 1.3879-0.9868 0.74852-2.1969 2.7654-2.6893 4.482-0.8016 2.795-0.5496 10.85 0.4313 13.784 0.3931 1.1762 22.521 1.861 25.882 0.80109 1.4742-0.46482 1.754-1.7928 1.7411-8.2648-0.016-8.1488-0.4247-9.4716-3.2466-10.513-3.7932-1.3995-1.4001-2.2082 6.0218-2.0348 4.2783 0.1 8.0047 0.22291 8.2807 0.27323s-0.4635 0.87188-1.6434 1.8256c-2.0026 1.6189-2.1801 2.9016-2.6707 19.299-0.6347 21.218-0.081 26.211 3.0596 27.588 4.0703 1.7858 2.3853 2.5221-5.7713 2.5221-4.4162 0-8.0295-0.28896-8.0295-0.64212s0.7905-1.2192 1.7565-1.9245c1.494-1.0908 1.7565-2.9817 1.7565-12.657v-11.374l-12.966-0.28217c-7.5634-0.1646-13.378 0.12913-13.954 0.70489-0.5429 0.54287-0.9757 5.5226-0.9618 11.066 0.025 10.063 0.9197 13.101 3.857 13.101 0.7279 0 1.6025 0.45165 1.9437 1.0037 0.3955 0.63991-2.5618 1.0037-8.1594 1.0037h-8.7799l2.1966-2.0465v4e-5z" fill="#c39c11"/>
  </g>
  <path transform="matrix(1.018 0 0 .43336 -885.1 1029.2)" d="m704.03-353.08h-207.47l103.73-179.67 103.73 179.67z" fill="#c39c11"/>
 </g>
</svg>
