<?xml version="1.0" encoding="UTF-8"?>
<!DOCTYPE svg  PUBLIC '-//W3C//DTD SVG 1.1//EN'  'http://www.w3.org/Graphics/SVG/1.1/DTD/svg11.dtd'>
<svg width="215.9mm" height="279.4mm" clip-rule="evenodd" fill-rule="evenodd" image-rendering="optimizeQuality" shape-rendering="geometricPrecision" text-rendering="geometricPrecision" viewBox="0 0 215.9 279.4" xml:space="preserve" xmlns="http://www.w3.org/2000/svg">
 <defs>
  <style type="text/css">
   <![CDATA[
    .fil0 {fill:#1F1A17}
   ]]>
  </style>
 </defs>
  <path class="fil0" d="m121.68 164.25c4.6435-3.4273 1.4377 16.142-0.9951 22.444-2.9847 8.0708-5.417 13.93-9.6184 22.112-5.086 9.729-0.1105 19.237 0.3315 27.308 0.3315 4.8645-3.5378 23.991-2.2112 32.726 1.3266 2.3217 2.9853-0.3315 3.6483-6.3016l1.3272-8.8449c1.5476-0.9951 2.1007 0 1.6582 2.9848l-0.4421 5.8601c0.9951 3.0953 2.6533 3.4273 5.6386 1.6581 1.2161-3.7588 5.4175-9.9504 2.9847-13.378l-3.6483-5.0854c-1.5476-9.2875-1.4371-18.021 1.1056-25.982 3.6483-6.3016 8.1813-15.478 11.83-21.116 2.4322-15.7 0.7735-23.549-0.7741-31.399-1.7692-8.4028 13.93-12.604 12.383-10.835-6.7442 6.9652-8.7344 15.589-7.8498 26.866 0.5531 6.1911-1.4371 12.935-0.6636 19.127-8.0707 7.5183-21.67 25.982-6.191 32.615 2.4322 0.9951 2.9853 1.2161 2.7637-2.6533-1.9896-8.6238-0.442-13.599 5.307-24.102 3.7589-6.5232 1.2162-15.257 7.7393-19.79 7.5182-6.9651 14.262-20.232 16.142-23.881 0.8845-3.7588 6.0811-4.3119 4.6439-0.5525-6.8552 17.026-18.906 28.524-21.56 33.942-1.5476 2.9853-3.0953 5.97-3.2063 9.5079-0.1105 4.5335-6.8547 6.6336-6.6331 11.167 0.221 5.9706 3.6483 11.83-1.4377 12.383 1.3266 1.7692 3.9804 2.5433 8.4029-0.221 2.3217-1.8792 1.6581-5.4176 2.5427-8.6233 1.7692-6.6337 0.9951-11.388 3.3168-18.353 1.6582-4.9749 4.3119-9.9504 9.1764-12.714 2.2112-1.2161 4.0909 1.3266 1.9902 3.9799-3.9804 4.644-8.0708 8.7343-9.9505 14.705-1.3266 4.4218-0.8846 8.8443-1.3266 13.267-0.3315 3.4273-5.086 10.061-7.4077 11.83 2.4322-1.3266 8.5133-1.1056 11.72-11.609l1.6582-10.946c0.4425-3.2063 15.92-15.589 18.464-27.751 2.2112-10.392 2.4322-16.695 1.4371-22.775 3.8694-4.6435 7.2973-11.83 9.84-14.594 1.4371-6.5231 0.221-14.815 1.9902-18.464 4.5329-9.2869 6.4121-15.81 4.8645-21.006-5.9701-0.3316 2.5427-3.0953-0.7741-11.609-4.533-3.4273-3.8694-5.0854 1.7692-4.9749 2.2112 0 3.7588-1.3272 3.6483-3.5384l-5.6385-2.9848-1.2162-3.8699 2.5428-3.2063 3.8699-7.0757-7.6288-0.663 1.2161-5.1965c1.2162-4.533 5.6386-7.6288 3.4274-6.7442-13.82 5.4176-11.056 0.8846-1.6582-8.4028l0.1105-3.7589-10.614 4.975c5.6385-13.377-9.0659-26.092-24.876-34.494-4.4225 2.5427-2.9853 10.282 3.2063 12.935l9.7289 8.4028c2.7643 2.5428 2.1007 8.2918-0.3315 8.4023-1.8792-4.4224-4.4225-7.1861-7.0757-10.834-3.8699-2.7643-4.2014-1.1056-5.749-2.3223-1.8797-6.9651-5.1966-16.473-11.83-19.348-13.157-5.7491-22.223-4.4225-32.505-1.7687l-9.6184 2.5428c-3.0958 0.774-6.8552-4.091-11.72-5.7491l0.5531 8.2918c-2.4328 0.7741-5.4175 2.5427-5.307 4.7539l-11.388-0.1105 6.5231 5.7491c-8.6238-5.5275-18.795 15.036-24.213 27.419-5.8595-0.1105-9.6189-0.6636-15.81 0.6636-2.5427 2.1001-2.9853 4.2009-4.9755 5.6385-3.5378 2.7638-5.3065-0.4425-8.9554-1.5482-2.6532-0.774-1.9896-0.221 0.4426 2.7643 0.9951 2.3218 10.392 4.754 14.925 0.6631 2.4323-2.2112 7.2973 1.1056 14.815-0.8846 3.3168-0.9946 5.086-5.0855 8.2923-7.8498 0.9951 0 2.3217 0.6636 1.1056 3.8699-2.5433 6.5232-8.0708 8.4023-12.936 10.835l-15.036 1.1056c-6.9652 0.5525-9.619 0-12.715 1.7686-5.417 3.2064-4.6434 4.4225-1.8791 2.8748 5.97-3.2063 10.392-4.7545 15.92-0.9951 3.8694 4.0904 9.9505 5.8596 17.247 7.7393 4.3119 0.7735 14.483-3.0958 16.474-10.614 0.9951-3.5378-1.9902-5.0854 0.3315-7.7392 1.9902-2.1007 4.2014-1.1056 5.1965 1.4377-1.3266 7.2966-3.6483 12.604-7.5182 14.925-5.9701 4.5329-8.9554 5.6385-12.935 7.1862-5.9706 2.2112-14.483 0-19.79-1.7687-0.442-0.1105-0.7741-0.4425-1.1056-0.7741-1.8797-1.4371 8.4028-3.6483 8.0708-5.6385-3.5379-2.2112-9.2869 0.442-14.815 1.5476l-3.9798 1.6587c6.4121 2.4322 8.0708 3.0958 6.6331 7.2967-7.0757 6.5231-6.7442 5.086 2.5433 1.2167 2.6532 1.3266 3.3168 3.7588 3.5378 6.4121 0.442 2.3217 4.4224 3.7594 8.5128 4.2014l4.3119-3.5379 5.6386-1.5481c3.2063 1.9902-11.609 12.715-14.926 9.3979-2.8748-2.9853-5.8595-5.4175-8.8448-7.0757-3.9799-0.9951-7.0757-0.4425-9.84 0.4421l-6.5226 1.7691c8.1813-0.8846 15.7-0.2215 20.785 6.1911-0.9951 5.7491-0.8846 6.6337 4.754 9.3974 4.865 2.2112 12.051-0.7735 13.931-5.6385l1.9902-4.975c1.2162-2.9853 9.8395-0.8846 15.368-1.4371 6.6337-1.1056 11.277-3.9804 13.046-6.6337 2.1007-2.9853 11.941-11.941-4.754-4.3119-3.7594 3.2063-3.6488 3.8694-8.0713 1.5476-5.417-0.221-9.9499-0.9951-12.383-3.0952-4.8644-0.2216-5.196-1.4377-0.3315-4.2014 4.8645-2.6538 9.3974-4.754 9.9505-1.3267l0.7741 3.3169c0.5525 2.2112 1.9896 2.3217 4.4224 0.3315 0.9945 1.6581 2.9848 2.2112 5.9701 1.8797 0.5525-2.4328 4.8644-4.9755 8.2918-3.2063 2.3217 1.2161 1.8796 4.4224 4.7545 5.749l7.6282 0.8846c0.8846 1.2161 0.774 3.4273 0.8846 6.5226 3.6483 1.4377 5.528-0.442 9.6189-3.0953 3.2063-0.332 4.2009 2.8743 4.975 7.9603 2.3217-0.8846 5.307-2.2112 6.1916-5.1965 4.4224 0.1105 7.1862 2.4322 6.6337 6.8546-4.9756 6.9652-5.7491 5.5281 3.9798 1.5482 3.8699-1.5482 7.2972-0.5531 11.609-0.2215 0.1105 1.2161 0.884 3.8699 2.1001 7.7392 0.6636-2.3217 1.5482-4.4224 5.7496-5.6385 3.6484-0.3315 7.4072-2.3217 8.4023 0.221 2.2113 5.6391-1.4371 12.936-6.8546 18.132-7.4078 11.609-12.051 13.046-17.911 18.795-5.307 5.086-13.599 9.1769-11.167 2.3223 1.5477-4.312 2.7638-9.398 4.754-13.931 4.3119-10.392 15.92-13.93 28.193-12.825l2.1007-3.4273c-11.277 0.8841-25.65 0.5525-30.956 11.167-3.7594 7.8498-7.1868 15.588-9.398 24.544-1.3266 5.528-4.4224 3.9804-7.7393 1.8797-3.0952-4.4225-4.8644-9.6185-5.528-13.599-2.1002-1.1056-3.0953-0.221-2.1002 2.7638l2.2113 6.8552c-6.8553-2.3217-16.584-7.2972-22.444-3.3168-3.7588 2.5427-7.6282 3.7588-11.388 3.7588-0.884-4.5329 2.7643-7.4077 2.4322-11.277-1.2161-11.72-3.0952-22.665-8.0707-28.967-2.2112-2.7638 3.0958-6.1911 7.4077-7.4078-5.9701-2.2112-10.614-2.3217-14.815 1.8797-6.0811 12.162-5.4176 25.65 3.3168 46.657 3.0953 7.4072 3.4273 17.358 9.8394 24.765 5.7496 6.7442 18.353 10.946 27.309 7.1862 11.83-4.975 14.594-19.127 19.679-22.886zm-29.409 16.916c-4.533-1.7692-7.2967-4.5329-8.8449-7.9602-3.9799-6.8547-2.8743-13.378 3.4273-16.363 5.7491-2.6533 11.72 0.332 16.032 4.4224 3.3168 1.9902 7.1862 1.2161 12.051 2.5427 2.4322 0.6636 0.332 3.9804-2.1008 6.0811-2.5427 4.2015-7.5177 13.599-12.051 13.488l0.9951-2.8748c1.7687-1.4372 1.3266-2.8743 1.9897-8.6234 0.2215-2.2112 2.9853-1.4376 4.3119-0.774 0.8846 0.442 1.1056-1.4372 2.1007-1.9902-4.8645-3.3169-12.714-2.6533-17.911-5.196-1.4372 0.663-1.9902 0.221 3.5378 3.5378-3.3168 2.1007-1.1056 7.7393-0.8846 10.724 0 0 1.8797 4.6435-2.6532 2.9853zm91.101-74.075c-0.7735-2.7643-2.7637-1.9902-2.6532-3.4273-0.7741-1.2161-0.221-1.7692 1.7692-1.7692 1.7686 0.9951 2.3217 2.8748 3.4273 4.3119 0.7735 7.8498 0.221 18.242-4.7545 25.208-4.3114 6.0806-2.2112 9.7289-2.7637 17.911-2.5428-1.9903-2.5428 1.9896-2.7643 4.7539-0.7736 1.2161-1.5477 1.2161-2.3218 0.221l0.2216-18.132c-1.1056-5.1966 0.9946-6.3022 3.7589-7.7393 3.2063-1.7692 0.1105-8.5134 1.1056-13.82 0.6635-3.4279 5.6385-4.7545 4.9749-7.5183zm-41.017 71.532c2.1007-12.493 6.191-21.338 15.478-28.967 3.3168-0.3315 4.5329 0.442 6.7441 0.663-9.2874 2.7643-16.695 8.2923-17.137 19.901-0.221 3.7594-0.7735 4.7539 1.7692 2.6537 2.3217-8.5133 7.0757-16.584 14.815-21.117l0.4425 2.3217c-9.2874 10.614-17.027 21.891-21.56 33.5-2.9848 1.9896-1.3266-1.3266-0.5525-8.9554zm-28.414 44.224c6.9657-14.262 3.3168-21.559 14.705-28.082 2.5428-5.4176 1.2161-6.4127-1.9902-6.5232-4.6434 5.1965-7.1867 13.931-10.061 19.016 1.5477-6.5232 6.5232-17.468 11.056-23.66-8.9553 1.2161-20.675 53.511-13.71 39.249zm-38.475-134.66l9.7295-6.3022c0-4.7539-1.4371-9.5079 0-14.262l-7.1867-7.9608c-4.6435 2.1007-3.9799-4.6435-3.6484-9.1764l-0.663-10.061c-0.2216-3.0953 2.6532-5.0855 6.3016-6.5232l3.4273-5.1959v-3.4274l2.8748-2.7643 2.3217 4.533 4.533-5.7491c2.5427-1.8791 3.7588-4.0903 4.6434-6.3016l4.2014-0.332c-0.5531 1.1056 0 2.1007-0.7741 3.2063-2.4322 1.4371-4.9749 2.3217-6.8546 4.4224-1.5477 1.7692-2.6533 4.2015-2.8748 6.4127-0.6631 5.0854 2.8748 0.3315 4.5329-3.9804l5.7496 1.7692-8.0713 8.2917c-2.8743 4.6435-2.1002 9.619 1.2161 14.262 4.7545 1.6581 9.7295 3.7588 14.483 8.6238l7.1867 0.1105-2.3217 10.946 10.282 10.834 7.5183-0.5525-5.1966 5.749v3.9799l13.488 3.9804 3.2064-2.8748c2.5427-2.2112 4.0909-2.9847 4.6434 1.6587 0.5531 4.7539 3.3168 5.528 9.7295 2.3217l4.4224-5.1965 7.0757-1.3266c4.4224-2.5428 5.9701-6.9652 5.749-9.5079l7.6288-3.5379 0.1105-6.7447-2.2112-7.8497 4.9749 9.2874 0.7741 9.1764-2.2112 4.2014 3.3168 0.9951 3.9805 3.4273c-2.7643-1.8797-6.0812-2.4327-8.0714 1.2162l0.5531 9.3974c-7.4077 5.528-7.2972 7.0756-10.061 8.7343l-4.5329-3.5378-1.5476 4.7539c-3.8699 2.3218-8.1819 2.1007-12.936 0.5531l-2.7638 2.7638c-1.6587 1.3266-3.2063 4.4224-4.865-1.7692l-1.5476-4.4225c-1.6587-1.4371-3.6484-2.5427-7.7393-0.9945l-0.9951 3.4273c-3.2063 1.2161-5.97 2.5427-8.5133 4.6435 1.6587-1.9903 4.0909-1.9903 2.9853-6.5232-0.7741-3.4273-1.1056-4.8644-5.6386-4.8644-3.2063 0-5.1965 2.1001-7.0756 4.3113-0.1105-3.2057 2.4322-7.2967-0.2211-9.7289-1.1056-0.8846-3.9804-1.8797-4.9755-0.221l-2.1007 3.6483c-1.5476 2.6533-5.196 1.3267-7.2967 2.2113 0-1.6587-0.221-3.5379 0.5526-5.1966 1.9902-3.3168 0.4425-5.1959-4.6435-5.528l-5.0854-0.442-2.4328-1.6587 3.8699-3.4273-5.086-0.4421c-6.6337 0.6631-9.3974 2.9853-10.503 5.1966l-5.4176-0.6636zm102.38 3.5378c1.7692-1.2161 2.9853-1.3266 3.5384-0.442l-0.6636 4.0904c-2.6533 1.6586-3.6484 3.4273-4.754 5.528l-2.2112 1.1056-1.9902-0.663c-0.5525-1.4377 0.3315-3.4274 2.2112-4.4225l3.8694-5.1965zm-11.609-0.7741l5.528-3.6483c2.1007-0.5526 4.0909-0.3315 5.307-2.9853l-1.5481-2.2107c0-2.3223 0.8846-3.6489 2.4327-2.4328 1.2162 0.3321 2.1002 1.6587 2.8743 3.2063-0.3315 1.6587-0.8846 3.5379-1.9902 4.754l-8.4023 8.0713c-1.3266 1.3266-2.3217 2.8743-1.7692 4.8645-1.2161 2.1007-3.3168 2.7637-4.5329 2.7637l-1.9902-0.7735c-3.6484-6.4127-0.8841-7.5183 4.0909-11.609zm-76.176-29.961c2.3218-3.4273 4.754-6.1916 7.6288-5.8601 4.7539 0.6636 7.7393 1.7692 9.9505 5.086l2.4322-0.3315c2.9853-0.332 0 3.0953-1.7692 2.5428-0.1105 2.2112 0 4.3119 0.5531 6.3021-2.2112 1.9896-3.8699 0.7735-5.1965 0.1105-1.3267-0.6636-2.3218-1.3272-3.4274-1.6587-8.2918-2.4322-9.3974-1.8791-10.172-6.1911zm63.904 41.902c-0.3315-1.1056 0.7741-2.4322-2.3218-2.1007l0.7741-2.2112c3.6484-1.2161 4.8645 0.553 4.754 3.2063-0.1105 2.7643-1.5476 2.7643-3.2063 1.1056zm-24.434-10.835c-1.6582-1.5476-4.4225 0.3321-2.8743 1.9902 4.0904 3.2063 7.9603 5.7491 14.594 4.533l1.3267 1.6587h2.9853l-0.3321-1.6587 2.3217-0.6631-0.442-1.7692-2.2112 0.1105-0.3315-2.2112h-2.3218l-0.332 2.2112c-2.9848 2.7643-10.724-2.6532-12.383-4.2014zm-29.409-13.267l-0.9951-2.8748c-4.3119-2.8748-6.0806-1.6582-4.2014 2.4322 5.086 4.2014 10.393 8.0708 15.478 12.272 4.0909-0.221 3.0958 0.1105 2.3217-3.0958-3.2063-2.8743-7.6282-5.5281-12.604-8.7338zm-9.2869-11.278l7.4072 4.0909 5.3071 1.2162 5.97 0.9951c5.6391 1.5476 8.7344 1.6586 12.604 6.7441 3.8693 5.086-5.5281 0.5531-7.1867-0.221l-5.8596-3.2063c-3.3168-1.8797-5.8596-1.5476-8.6239-2.6533l-8.7338-1.7691-2.6538-2.7638c-0.442-2.7643 0.3321-2.9853 1.7692-2.4328zm27.751 23.55c1.6582 0.9945 2.9848-0.6636 2.4323-3.7594-2.1007-2.2112-5.086-4.2014-8.5134-6.0806-3.0958-0.3321-2.3217 1.3266 2.5428 4.975l3.5383 4.865zm-35.269-48.315l-2.5428-3.7588 1.3267-3.2064 2.5427-2.7637 0.3321-2.2112 3.7588 1.2161 0.6636 2.2112v4.4225c-1.6587 1.6581-2.8748 3.5378-2.8748 3.5378v1.5476l-0.6636 2.2112 2.8748-0.8846 0.3315 3.0959-0.663 6.4126h-1.8797l-0.9951-1.6587-1.5476-0.663c0-2.2112 0.3315-2.7643 0.3315-2.7643l0.8846-1.9897-0.5531-2.4328s-1.3266-1.6581-1.3266-2.3217zm-2.2112 11.499l1.8797 1.8791 2.2112 2.2112c-1.5482 1.2162-2.2112 1.2162-2.2112 1.2162l-1.8797-0.5526-1.8797-2.2112 1.8797-2.5427zm4.3119 50.083c4.6434-1.1056 11.941-2.3217 16.916 0.4426 7.5183 4.4224 12.604 10.282 22.997 13.93-1.3272 0.7741-3.4273 1.4372-6.0811 0.9951-5.4176-0.9951-10.614-7.1861-17.911-10.392-5.0854-2.3217-9.2869-3.7594-15.92-4.9755zm52.627 25.54c0.9951 0.4426 1.9902 1.5482 3.8694 1.9902 1.4377 0.3315 3.0958 0.221 4.644-0.1105l4.9749-1.4371c-2.7637 3.3168-6.8546 4.975-9.2869 4.6434-2.8748-0.332-5.307-1.2161-5.749-2.4322-0.6636-1.7692-0.2216-3.2063 1.5476-2.6538zm-46.435-19.679c3.4274 2.5428 6.7442 5.196 11.166 7.4072 3.3168 0.9951 6.8552 0.9951 9.8399 0.5531 2.2112-0.3321 2.8748 1.5476-0.5525 2.4322-4.9755 1.4372-9.1764 0.8846-13.267-1.7692-4.0909-2.5427-6.9652-5.8595-7.1862-8.6233zm-12.825-74.739v7.4072l1.6587 2.8748 1.1056 5.086-0.8846 1.4372s0.8846 0.442-0.4425 1.2161c-1.4372 0.6636 0.2215 0.6636-1.6582 0.6636s-1.6587 2.5427-1.6587-0.6636v-3.5379c0-1.6586 1.4377 0.8846 0-1.8797-1.4371-2.7637-1.4371-2.1007-0.663-4.8644 0.663-2.8748-0.221-3.7594-0.221-3.7594l2.7637-3.9799zm81.704 12.272l-1.6587-1.9902 0.8846-2.8748 2.4323-0.884-3.3169-0.7741-1.9896-0.7741-1.6587-2.5427-2.4322-3.6484c-1.4372-2.1007-1.6582 3.3168-1.6582 3.3168l2.1002 1.9902c1.2166 2.1002-1.6582 3.6484 0.7741 4.0904 2.4322 0.4426 2.4322 1.2161 2.4322 1.2161l-0.442 2.4323-0.3315 2.8748c0.7735 4.0909 0.3315 5.307 0.3315 5.307l-0.7741 2.4322 2.4322 0.8846 1.6587-2.1007 0.7741-2.4322 2.4322 3.3168c0.442 2.4322 1.6582 3.2058 1.6582 3.2058s0.8846 0 0.8846 2.4327v2.4323l2.4322 1.6581 1.2161-6.5231-2.4322-2.4323-1.6582-2.8742c-2.4327-1.2161-3.6489-3.6489-3.6489-3.6489v-1.9897l-0.442-2.1007zm-5.528 25.65c2.1007 0 2.5427 0.7736 2.5427 0.7736l1.2161 3.8699 2.9853 2.1007c1.6587 2.5427 1.6587 2.5427 1.6587 2.5427h-3.7594v-2.9853l-2.5427 1.2161-1.7692-2.5427-0.3315-4.975zm-22.002-4.7545l4.2014 0.8846 2.9853-0.442-1.3266-4.2014-0.3321-2.9853-2.9847-0.7736c-2.1007 0.7736-0.4426 0-2.9853 0.7736-2.5428 0.8846-4.6435-0.7736-4.6435-0.7736l-0.4425-2.1007-2.1002 0.3315-2.5433 1.3267c0 2.9853-6.3016 5.8601-2.1007 5.528 4.2014-0.442 5.9706 0 5.9706 0l1.6582-2.2112 2.1007 0.4426 4.6434 1.3266-2.1007 2.8742zm-2.5427 2.5433l2.9853 0.442 2.1007 1.3267 4.6434 1.2161 0.7741 4.644h-2.8748l-2.5427-0.4426-2.1007-0.3315-2.1007-0.8846 3.7588-1.3266 3.4273-0.7741-5.0854-1.6582-2.9853-2.2112zm2.5427-46.878l2.5433 2.5428-0.8846 4.6434 2.1007 1.6587 1.7686 2.9848 2.8749-0.4421-0.4421-2.1007-2.1007-0.7741-0.7741-4.3113v-2.5433s0-2.5428-2.1007-2.5428-2.9853 0.8846-2.9853 0.8846zm-5.528-7.6287l2.9853 1.3266c2.9853 1.2161 0-1.3266 2.9853 1.2161 2.8742 2.5433 3.7588 2.5433 3.7588 2.5433l3.7594-1.6587-2.8748-2.1007c-2.5427-0.442-5.528-2.1007-5.528-2.1007s-5.5281 0.3321-5.086 0.7741zm-2.5428 8.0708l-2.5427 0.8846-2.8748 0.7741c-2.9848 1.7686-3.8694 1.7686-3.8694 1.7686l-3.7588 0.7741 3.7588-2.5427 0.4421-2.1008 8.8448 0.4421zm2.5428-0.4421l-4.2009-4.6434-2.9853 0.8846-2.9853-2.9853h-2.1002l4.3114-0.8846 5.4175 1.7692-0.7735 2.8742 3.3163 2.9853zm0 20.343c-2.9848 1.2161-3.7589 1.6587-3.7589 1.6587l-2.1007 0.8841c-2.9848 2.4322-3.8693 3.3168-3.8693 3.3168h-2.9854l0.8846-2.1007c2.5428-1.2161 3.4274-5.0855 3.4274-5.0855l4.6434-0.8846s-2.1007-1.2161 2.1007 0c4.2014 1.3266 1.6582 2.2112 1.6582 2.2112zm-23.217 1.2161l2.1007-0.442 4.2009-2.1007 2.9853 1.6581 4.6435-2.8742-5.8596 4.6434c-2.9853 1.2161-2.2112 1.2161-4.3119 1.2161s-3.7589-2.1007-3.7589-2.1007z"/>
</svg>
