<?xml version="1.0" encoding="UTF-8"?>
<svg width="1052.4" height="744.09" fill-rule="evenodd" viewBox="0 0 8268 11692" xmlns="http://www.w3.org/2000/svg">
 <path d="m-4133.9 0h16536v11692h-16536z" fill="#fff" fill-rule="nonzero"/>
 <g transform="matrix(.95131 0 0 .95131 -948.65 331.42)" fill="#b3e8f9">
  <path d="m-2418.8 2520.4c115.11 27.785 265.94-158.77 428.68-365.17 436.62-547.76 924.84-1167 1810-865.3 1167 392.96 2008.4 575.54 2885.7 460.43 785.91-103.2 1595.6-472.34 2758.6-1186.8l333.42-127.02c-1472.6 904.99-2492.7 1373.4-3473.1 1500.4-881.18 115.11-1730.6-67.478-2901.5-464.4-484.25-162.74-766.07 190.52-1016.1 508.07-357.23 452.5-682.71 861.33-1222.5 726.38l396.93-186.56z"/>
  <path d="m3872.5 10260c7.9385 7.938 3.9693 7.938 11.908 11.908 456.47 432.65 1468.6 531.88 2611.8 329.45 1242.4-222.28 2564.1-833.55 3500.9-1810 11.908-11.908 23.816-23.816 31.754-35.723 936.75-992.32 2274.4-107.17 2853.9 273.88 51.601 35.723 0 15.877 47.632 39.693l-75.416 7.9385c-127.02-63.508-210.37-119.08-313.57-186.56-381.05-254.03-1270.2-841.48-2115.6 59.539l-31.754 31.754c-940.72 980.41-2266.5 1591.7-3504.9 1814-1337.6 238.16-2639.6 7.938-3393.7-698.59-11.908-11.908-7.9386-11.908-7.9386-11.908l385.02 174.65z"/>
  <path d="m-2815.7 3877.9c146.86 150.83 496.16 55.57 829.58-31.754 285.79-79.385 555.7-150.83 746.22-27.785 789.88 516 968.5 968.5 1194.7 1536.1 103.2 261.97 222.28 555.7 432.65 897.05l-277.85-281.82c-222.28-357.23-341.36-658.9-448.53-924.84-146.86-373.11-261.97-666.84-631.11-908.96-170.68-111.14-440.59-39.693-722.41 35.723-345.33 95.262-706.53 190.52-1020.1-123.05l-103.2-170.68z"/>
  <path d="m1796.6 5001.2c55.57 301.66-484.25 809.73-1159 1444.8-1480.5 1397.2-3453.3 3258.8-3016.6 4914l23.816 75.416 254.03-365.17c103.2-146.86 357.23-309.6 611.27-472.34 377.08-238.16 750.19-476.31 1051.9-904.99 31.754 214.34-99.232 396.93-230.22 575.54-194.49 265.94-388.99 535.85-218.31 857.36v3.969l11.908-7.939c285.79-178.62 539.82-281.82 770.04-329.45s432.65-47.631 619.21-23.815c230.22 31.754 480.28-55.57 722.41-226.25 51.6-35.724 103.2-75.416 154.8-119.08 31.754-27.785 67.478-59.539 103.2-91.293 0 182.59-63.508 297.7-127.02 416.77-11.908 23.816-27.785 47.632-31.754 59.539l-11.908 15.878 11.908-3.97c1802-412.8 1754.4-1091.5 1556-3373.9 238.16 329.45 535.85 583.48 869.27 777.98 543.79 321.51 1186.8 468.37 1817.9 492.19 635.08 23.816 1258.3-79.385 1774.3-261.97 452.5-162.74 853.39-416.77 1143.1-738.28 230.22 269.91 313.57 273.88 468.37 281.82 95.262 7.9385 222.28 11.908 424.71 83.355l619.21 214.34-325.48-539.82c-71.447-119.08-75.416-242.13-27.785-361.2 7.9386-23.816 15.877-39.693 19.846-55.57 134.96-27.785 404.87-99.232 607.3-198.46 43.662-23.816 87.324-47.631 127.02-71.447 83.355-59.539 182.59-154.8 301.66-297.7v-3.9692l79.385-95.262h-15.877c-35.723-3.9693-63.508-43.662-91.293-79.385 392.96-265.94 738.28-531.88 916.9-877.21l43.662-91.293-210.37 234.19c-202.43 226.25-841.48 281.82-1432.9 329.45-571.57 47.631-1107.4 91.293-1417 456.47-555.7-174.65-904.99-468.37-1270.2-777.98-190.52-162.74-388.99-329.45-623.17-484.25 345.33 3.9693 654.93-11.908 932.78-55.57 575.54-87.324 1024.1-269.91 1413.1-512.04l428.68-265.94-146.86-55.57c-3.9693-3.9692-11.908-3.9692-15.877-7.9385 107.17-31.754 194.49-67.478 265.94-103.2 39.693-19.846 71.447-39.693 99.232-59.539 35.723-23.816 71.447-47.631 99.232-75.416l71.447-95.262 27.785-35.723-95.262 127.02c202.43-186.56 388.99-373.11 579.51-567.6 412.8-412.8 845.45-849.42 1460.7-1234.4l396.93-246.09-111.14-79.385c-250.06-178.62-500.13-261.97-758.13-297.69-206.4-23.816-420.74-19.846-650.96-7.9385 357.23-174.65 813.7-246.09 1353.5-333.42 194.49-27.785 396.93-59.539 607.3-99.232l1075.7-202.43-785.92-127.02c-4040.7-650.96-6076.9 873.24-7478.1 1921.1-908.96 678.74-1548 1159-2310.1 686.68-146.86-91.293-222.28-226.25-293.73-361.2-130.99-242.13-258-472.34-785.91-396.93-301.66 39.693-488.22 353.26-698.59 702.56-47.631 79.385-99.232 162.74-186.56 206.4l-920.87 436.62 635.08-111.14c281.82-51.6 583.48 218.31 758.13 519.97 35.723 59.539 63.508 119.08 87.324 178.62s39.693 115.11 51.6 170.68zm8160.8-1008.2c-3.9693 0-11.908 3.9693-19.846 11.908-23.816 15.877-51.6 35.723-87.324 51.6-194.49 99.232-535.85 206.4-1008.2 182.59l-1421-63.508 1127.3 392.96h3.9692c115.11 39.693 210.37 99.232 293.73 154.8 3.9692 0 11.908 3.9693 15.877 7.9386-273.88 123.05-583.48 214.34-944.69 269.91-571.57 83.355-1270.2 75.416-2155.3-63.508l-2556.2-404.87 2262.5 730.34c730.34 238.16 1151.1 591.42 1552 928.81 385.02 329.45 754.16 639.05 1373.4 809.73l174.65 47.631 115.11-369.14h3.9692c27.785-83.354 504.1-123.05 1024.1-166.71 452.5-35.723 936.75-75.416 1349.6-309.6-99.232 67.478-222.28 150.83-345.33 234.19l-130.98 87.324-484.25 321.51h202.43c27.785 0 47.631 19.846 67.477 47.631-178.62 67.478-369.14 111.14-448.53 127.02l-11.908 3.9692-43.662 43.662c-242.13 226.25-420.74 436.62-496.16 611.27-43.662-3.9692-79.385-7.9385-111.14-7.9385-162.74-11.908-242.13-15.877-496.16-321.51l-67.478-71.447-214.34 373.11-7.9385 7.9385c-83.355 138.92-388.99 309.6-833.55 468.37-512.04 182.59-1135.2 285.79-1766.3 261.97s-1270.2-174.65-1817.9-492.19c-547.76-321.51-1000.3-813.7-1254.3-1520.2l-400.9-1115.4 103.2 1440.8c27.785 377.08 59.539 718.44 87.324 1028 166.71 1917.2 218.31 2488.7-960.56 2762.6 11.908-19.846 19.846-31.754 23.816-43.661 75.416-130.99 142.89-254.03 138.92-456.47l-146.86 158.77 7.9386-11.908 67.478-95.263c-31.754 31.755-63.508 59.539-95.262 87.324-43.662 35.724-83.355 63.509-123.05 95.263-234.19 162.74-468.37 246.09-698.59 214.34-182.59-23.816-388.99-27.785-619.21 23.816-230.22 47.631-484.25 150.83-777.98 333.42-162.74-309.6 3.9693-539.82 170.68-770.04 186.56-250.06 369.14-504.1 246.09-797.82l-71.447-174.65-222.28 488.22c-166.71 361.2-456.47 547.76-746.22 734.31-289.76 182.59-579.51 369.14-877.21 702.56-365.17-1544 1301.9-3115.9 2556.2-4298.7 944.69-893.08 1702.8-1607.6 1631.4-2004.5v-3.9692c-11.908-51.6-31.754-111.14-55.57-170.68-19.846-55.57-51.6-119.08-83.354-178.62-150.83-254.03-392.96-488.22-635.08-523.94 130.99-150.83 234.19-325.48 333.42-488.22 23.816-43.662 47.631-79.385 123.05-91.293 527.91-75.416 650.96 154.8 785.91 396.93 71.447 134.96 146.86 273.88 293.73 361.2 766.07 476.31 1421-11.908 2345.8-706.53 1278.1-952.62 3088.1-2306.1 6505.6-2016.4-488.22 103.2-901.02 261.97-1278.1 635.08l-261.97 261.97 55.569-3.9693c293.73-23.816 563.64-39.693 821.64-3.9693 226.25 27.785 440.59 95.262 658.9 230.22-480.28 357.23-873.24 750.19-1242.4 1127.3-170.68 170.68-337.39 337.39-500.13 484.25l-3.9693 3.9693zm-9153.1 6450.1"/>
 </g>
</svg>
