<?xml version="1.0" encoding="UTF-8"?>
<!DOCTYPE svg  PUBLIC '-//W3C//DTD SVG 1.1//EN'  'http://www.w3.org/Graphics/SVG/1.1/DTD/svg11.dtd'>
<svg width="347px" height="389px" version="1.1" viewBox="-3 -3 347 389" xmlns="http://www.w3.org/2000/svg">
 <path d="m174.1 378.6c-23.87-44.35-103.47-68.23-114.84-118.26-9.096-38.658 5.685-102.33 51.168-101.2 18.329 0.459 43.666 15.789 59.127 11.37 7.959-2.274 20.466-7.959 36.384-13.645 44.347-14.783 83.007 38.659 83.007 76.183 0 48.895-21.604 64.812-55.717 89.826-12.506 7.962-44.346 34.113-57.989 52.306" fill="none"/>
 <path d="m181.09 376.72c-9.414-17.145-24.637-29.773-40.03-41.381-16.669-12.57-34.286-23.988-49.658-38.193-14.012-12.947-23.895-27.755-26.674-46.86-2.729-18.758-0.285-38.715 6.637-56.336 5.684-14.471 17.095-30.217 34.068-30.819 22.606-0.802 42.965 17.441 66.007 10.632 12.077-3.568 23.63-9.015 35.447-13.335 9.301-3.4 19.235-2.298 28.247 1.428 19.388 8.016 33.534 26.892 41.161 45.845 6.994 17.378 6.973 36.334 2.563 54.388-4.059 16.618-14.083 29.688-26.787 40.747-12.749 11.098-27.116 20.048-40.314 30.561-15.47 12.321-31.004 25.815-43.025 41.62-2.061 2.709 1.736 4.104 3.8 4.157 3.273 0.085 7.171-1.137 9.218-3.827 13.334-17.53 31.288-32.324 48.815-45.489 15.572-11.696 31.924-22.161 45.009-36.803 13.971-15.631 19.548-35.477 20.288-56.091 0.75-20.865-6.717-40.438-19.138-57.049-12.391-16.571-30.839-28.871-51.928-29.552-13.02-0.421-25.004 4.704-36.882 9.362-9.297 3.646-18.072 8.736-28.244 6.947-11.827-2.08-22.962-7.117-34.626-9.888-10.041-2.386-20.625-2.184-30.465 1.012-18.217 5.915-30.158 20.626-37.189 37.889-7.141 17.533-9.024 37.495-6.909 56.213 2.132 18.86 11.272 34.186 24.535 47.455 14.694 14.703 32.355 26.186 49.026 38.461 15.634 11.511 31.713 23.952 41.991 40.739 0.38 0.628 0.742 1.266 1.086 1.913 2.6 4.78 16.1 0.17 13.95-3.75z"/>
 <path d="m287.44 197.62c-0.605 3.68-9.021 1.815-11.13 3.46-3.364 2.63-1.212 9.094 1.739 11.178 1.984 1.4 4.335 2.194 6.874 1.991 1.592-0.127 5.5-0.548 6.859-1.537 4.415-3.204-1.601-11.601-3.203-14.863" fill="#fff"/>
 <path d="m296.55 239.98c-3.84 0-8.548-0.668-12.316 0-2.032 0.363-3.082 0.436-3.628 2.695-0.567 2.349-0.838 8.023 1.394 9.711 1.447 1.092 10.509 1.933 12.695 0.766 2.101-1.123 1.627-5.206 2.314-7.098 0.633-1.748 1.445-3.105 1.362-5.163" fill="#fff"/>
 <path d="m59.889 248.37c-1.135 0.353-3.168 2.21-3.812 3.486-0.532 1.058-0.597 2.587-1.073 3.713-0.313 0.741-0.848 1.415-1.17 2.325-1.078 3.039-0.375 7.827 0.96 10.652 1.168 2.475 3.086 3.882 5.304 5.355 2.302 1.53 6.935 4.607 9.884 3.001 2.027-1.106 1.54-4.46 1.54-6.473 0-2.762 0.235-5.135-0.792-7.693-1.057-2.639-2.109-5.283-3.698-7.663-1.714-2.568-4.119-4.029-6.394-5.953" fill="#fff"/>
 <path d="m161.62 170.09c-10.537-41.672-49.631-22.958-53.042-51.385-2.276-20.469 5.169-34.473-15.299-46.98 32.39-21.592 30.567 49.4 55.039 45.083 0-20.467-18.903-38.292-7.534-58.759 11.371-21.604 32.362-25.858 18.715-55.422 17.274 7.197 14.162 46.589 10.751 61.372-6.824 23.877-11.641 29.883 5.417 49.212 20.466 22.746 29.176 1.7 15.049-21.922-13.114-21.931-6.871-35.014 17.006-49.794-9.097 30.7 22.792 44.108 14.831 73.67-4.549 15.923-45.604 30.019-35.068 48.219" fill="none"/>
 <path d="m166.28 168.85c-3.162-11.922-9.537-21.711-20.498-27.679-7.958-4.333-17.288-5.626-24.978-10.462-9.908-6.231-8.069-20.262-7.983-30.256 0.047-5.592-0.154-11.186-2.19-16.458-2.503-6.483-7.964-11.02-13.673-14.628l-0.735 3.939c5.384-3.49 9.521-3.617 14.121 1.149 5.05 5.233 7.876 12.522 10.776 19.06 5.011 11.297 11.212 28.434 26.622 26.093 2.175-0.33 5.292-1.401 5.235-4.041-0.256-11.851-5.999-22.353-9.342-33.484-3.675-12.235-0.489-22.291 6.954-32.274 5.039-6.76 11.647-12.41 15.464-20.034 4.652-9.292 2.14-19.37-1.895-28.389-2.777 1.204-5.555 2.409-8.333 3.613 7.765 3.519 10.152 12.745 11.433 20.445 1.572 9.456 1.147 19.257 0.054 28.74-1.088 9.438-4.327 18.159-6.665 27.317-2.152 8.429-1.418 15.788 2.944 23.349 4.742 8.22 14.018 20.094 24.368 20.896 8.515 0.659 14.091-5.173 14.356-13.373 0.397-12.287-7.775-21.502-11.823-32.405-3.593-9.675-1.271-18.602 5.76-25.942 4.185-4.368 9.316-7.755 14.412-10.951-2.537-0.35-5.075-0.699-7.612-1.049-3.808 13.651 0.312 25.459 6.743 37.497 6.151 11.514 12.117 23.563 7.863 36.875-1.513 4.736-6.498 8.522-10.126 11.578-4.718 3.973-9.72 7.592-14.412 11.598-7.109 6.07-15.597 15.227-10.291 25.064 1.825 3.382 10.874 0.396 9.314-2.496-5.521-10.235 5.59-18.455 12.693-24.165 7.995-6.428 19.088-12.996 22.39-23.331 3.994-12.498-1.259-24.799-7.072-35.67-6.565-12.277-11.691-23.899-7.759-38 1.024-3.672-6.391-1.815-7.612-1.049-8.964 5.621-18.548 12.298-23.215 22.145-4.169 8.798-1.855 18.224 2.301 26.54 4.189 8.381 13.179 21.312 7.735 31.156-0.607 1.097-1.008 0.423 0.69 0.375-0.889 0.025-1.779-0.406-2.564-0.752-2.759-1.216-5.048-3.339-7.205-5.386-4.521-4.291-8.791-9.638-11.556-15.248-4.098-8.312-1.503-16.95 0.991-25.313 2.662-8.928 4.604-17.393 5.303-26.699 1.078-14.374 1.747-39.3-14.086-46.477-1.778-0.806-9.869 0.18-8.333 3.613 4.126 9.225 6.48 18.833 1.098 28.007-4.389 7.481-11.279 13.332-16.216 20.463-6.625 9.568-8.62 19.571-5.785 30.857 2.965 11.804 9.453 22.412 9.722 34.854l5.235-4.041c-5.818 0.883-9.835-5.804-12.321-10.099-4.003-6.916-6.674-14.564-10.218-21.714-2.991-6.033-6.648-12.486-12.847-15.697-7.564-3.918-16.568-0.636-23.172 3.645-1.46 0.946-2.599 2.761-0.735 3.939 5.971 3.774 10.69 8.419 12.701 15.324 1.684 5.782 1.158 12.085 1.103 18.024-0.092 9.988-7e-3 20.793 8.856 27.169 7.023 5.052 15.986 6.551 23.763 10.094 11.365 5.178 17.791 14.77 20.938 26.636 0.96 3.54 10.28 1.05 9.34-2.49z"/>
 <path d="m55.343 223.37c-14.783 0-51.799-2.82-51.799 17.646 0 12.507 18.192 21.604 28.425 26.153 28.428 14.781 64.812 5.685 95.514 10.233 18.192 2.273 34.11 6.821 52.305-1.138 18.192-6.822 19.33-21.605 31.837-34.113 10.232-9.096 29.564-20.466 42.072-23.877 14.781-4.548 56.853 1.138 59.127-21.605" fill="none"/>
 <path d="m55.343 219.75c-15.261-0.042-34.251-2.242-47.609 6.749-6.547 4.407-9.177 12.216-6.963 19.746 2.789 9.487 13.03 15.722 21.17 20.092 10.645 5.715 21.697 9.995 33.679 11.821 13.517 2.06 27.268 1.608 40.891 1.455 14.374-0.162 28.22 0.956 42.434 3.048 14.3 2.104 28.196 2.756 41.806-2.913 7.333-3.054 13.292-7.176 18.075-13.595 4.695-6.302 8.208-13.382 13.373-19.344 5.685-6.562 14.012-11.298 21.436-15.609 7.184-4.171 14.878-8.057 23.011-9.96 18.558-4.344 56.406 2.271 59.797-24.574 0.583-4.618-6.656-4.562-7.232 0-1.019 8.069-9.165 11.198-16.062 12.933-8.562 2.152-17.526 2.421-26.287 3.117-20.583 1.636-38.864 11.735-54.88 24.422-8.703 6.894-12.898 17.058-19.589 25.598-8.635 11.022-23.66 14.621-37.049 14.384-14.164-0.251-28.083-3.98-42.255-4.598-13.902-0.606-27.824 0.301-41.731-0.188-14.888-0.523-28.03-3.741-41.46-10.082-8.329-3.932-24.34-11.565-22.626-23.004 1.341-8.949 13.667-10.857 20.866-11.698 9.034-1.055 18.14-0.592 27.208-0.566 4.67 0.01 4.668-7.23 6e-3 -7.24z"/>
 <path d="m50.164 234.19c-5.688 0-15.92 3.411-15.92 10.233 1.137 6.821 13.646 7.958 19.332 9.096 14.781 4.55 31.836 6.824 46.618 9.098 25.016 2.274 67.089 7.96 85.28-10.235 11.371-11.369 12.508-26.151 26.152-35.247 11.37-7.96 26.153-9.097 39.797-12.508 9.097-2.273 32.977-2.273 39.799-9.096 11.369-13.646-6.822-22.742-14.784-9.098" fill="none"/>
 <path d="m50.164 230.57c-8.396 0.255-18.785 4.341-19.536 13.85-0.715 9.05 14.315 11.234 20.28 12.268 6.319 1.095 12.525 3.261 18.834 4.55 7.546 1.541 15.172 2.69 22.785 3.845 10.837 1.644 21.782 2.615 32.721 3.32 20.206 1.302 44.662 1.742 61.141-11.945 8.949-7.433 12.637-19.054 19.081-28.364 8.09-11.688 22.688-14.867 35.734-17.545 9.537-1.957 18.795-3.588 28.452-4.81 8.051-1.019 17.848-1.915 24.121-7.654 6.087-5.568 6.307-15.517-0.527-20.259-7.18-4.981-15.993 0.562-19.936 6.779-2.506 3.951 3.755 7.576 6.244 3.65 2.141-3.375 6.003-6.413 10.041-4.185 4.288 2.366-0.226 8.723-2.889 10.274-8.144 4.741-19.855 4.431-28.956 5.582-11.399 1.441-23.302 4.069-34.246 7.527-11.856 3.748-20.925 10.991-27.25 21.625-5.921 9.955-10.178 20.344-20.857 26.14-9.601 5.209-21.391 6.114-32.09 6.398-24.434 0.647-49.533-2.837-73.404-7.712-5.181-1.058-10.307-2.354-15.371-3.875-3.312-0.996-6.913-1.183-10.274-2.085-3.2-0.859-8.417-2.734-4.866-6.41 2.556-2.646 7.246-3.625 10.768-3.731 4.683-0.16 4.697-7.39 0.031-7.25z"/>
 <path d="m312.82 194.39c0-26.151-21.118-42.486-41.588-15.198" fill="none"/>
 <path d="m317.48 193.14c-0.182-11.65-4.517-25.702-16.841-29.586-13.314-4.196-26.107 5.879-33.7 15.687-2.354 3.041 6.926 2.052 8.592-0.101 5.92-7.646 13.967-15.777 23.255-8.368 7.199 5.743 9.245 16.187 9.38 24.864 0.05 2.5 9.37 0.82 9.32-2.49z"/>
 <path d="m61.358 247.77c6.002 3.188 2.792 3.129 9.272 4.616 1.085 0.248-0.582-0.812 0 0 0.252 0.354-4.715 5.063-4.574 5.5 0.511 1.586-3.653 1.042-3.976 2.89-0.537 3.065-2.122 4.203-5.059 5.422-3.809 1.582-3.034 12.248-6.865 10.84-5.207-1.911-7.9 1.402-13.009-0.362-5.828-2.012 5.133-11.192 9.033-14.813 2.523-2.346 6.966-6.233 8.672-9.035" fill="#fff"/>
 <path d="m206.66 248.17c22.445 0.444 44.725-4.878 67.508-7.156 15.92-1.138 46.619-2.275 55.716 15.917 7.96 17.059-12.506 26.154-27.289 25.018-5.685 0-12.507-2.274-17.057-5.686" fill="none"/>
 <path d="m204.81 250.68c19.298 0.246 38.278-3.281 57.326-5.883 13.461-1.838 27.301-2.859 40.761-0.437 11.284 2.031 27.388 10.36 23.51 24.458-1.627 5.913-8.363 9.074-13.862 10.167-7.771 1.543-16.16 0.056-22.676-4.507-2.603-1.823-11.038 1.906-8.67 3.564 13.251 9.281 33.142 8.492 46.42-0.53 13.777-9.361 8.867-25.196-3.831-32.81-12.651-7.584-29.804-7.234-44.012-6.448-23.902 1.322-47.226 7.708-71.274 7.401-2.065-0.026-4.87 0.736-6.161 2.489-1.33 1.8 1.1 2.52 2.46 2.54z"/>
 <path d="m80.864 301.28c-14.781 12.508-50.031 15.918-50.031-9.096 0-18.192 22.743-35.251 34.112-47.757 37.522-39.797 67.087-17.057 108.02-2.275 5.701 2.091 11.371 3.545 17.017 4.503" fill="none"/>
 <path d="m77.158 300.62c-10.051 8.236-30.623 12.619-39.231 0.132-5.635-8.174-0.979-19.391 3.8-26.621 6.396-9.679 15.444-17.362 23.567-25.524 8.432-8.472 16.479-16.856 27.798-21.403 9.284-3.729 19.437-2.789 28.936-0.512 22.409 5.372 42.244 18.312 65.077 22.387 2.182 0.389 4.891-0.338 6.586-1.765 1.477-1.243 1.072-2.744-0.826-3.083-23.971-4.277-44.893-18.228-68.701-23.199-22.97-4.798-43.928 4.049-60.318 20.061-8.319 8.127-16.81 16.362-24.535 25.059-7.054 7.94-13.349 17.422-13.108 28.415 0.421 19.258 23.428 20.353 37.413 17.292 7.539-1.649 14.978-5.021 20.957-9.919 1.501-1.23 1.053-2.749-0.826-3.083-2.213-0.41-4.872 0.33-6.595 1.75z"/>
 <path d="m199.09 259.42c22.029 1.134 44.619-2.22 67.111-3.628 11.371 0 35.251-6.825 43.21 3.411 12.507 15.917-14.781 17.055-25.015 11.37" fill="none"/>
 <path d="m197.47 262.78c29.798 1.361 59.611-3.312 89.252-5.622 4.936-0.384 10.738-0.693 15.31 1.576 2.892 1.436 7.204 6.315 5.468 9.803-0.979 1.967-6.214 1.754-7.913 1.793-3.797 0.088-8.202-0.641-11.594-2.416-2.134-1.118-4.725-0.874-6.675 0.576-1.39 1.033-2.628 3.653-0.515 4.76 8.759 4.588 21.332 5.619 30.334 1.117 11.453-5.728 4.401-18.468-4.688-22.268-12.36-5.166-27.066 0.145-39.822 0.33-22.054 0.32-43.761 4.66-65.914 3.647-2.251-0.103-4.992 0.62-6.068 2.838-0.97 1.99 0.86 3.76 2.83 3.86z"/>
 <path d="m69.494 291.04c-13.644 12.508-25.017 7.959-20.467-9.096 2.274-12.508 12.507-21.604 21.604-29.565 31.837-22.74 54.327-16.499 88.44-1.719 6.711 2.91 12.191 4.537 19.077 5.938" fill="none"/>
 <path d="m66.414 288.95c-2.61 2.307-9.072 8.562-12.425 4.38-3.772-4.706 0.209-14.811 2.372-19.318 6.564-13.679 21.739-24.017 35.309-29.594 29.54-12.14 56.851 9.656 84.857 15.533 4.536 0.952 9.422-5.406 3.242-6.703-19.362-4.063-36.385-14.938-56.048-18.312-17.903-3.071-34.872 2.017-50.119 11.308-14.849 9.049-29.685 24.649-30.309 42.942-0.195 5.733 2.711 11.06 8.664 12.118 7.705 1.37 15.11-3.305 20.617-8.171 4.734-4.19-2.689-7.26-6.159-4.19z"/>
 <path d="m108.45 226.34c5.461-5.459 5.956-15.384 5.956-22.333 5.956 2.979 13.402 17.37 6.453 22.333" fill="#fff" stroke="#000" stroke-width="3.6159"/>
 <path d="m129.29 235.28c-3.969 4.469-5.459 15.386 0 18.86 2.978-4.467 13.898-11.414 9.927-17.866" fill="#fff" stroke="#000" stroke-width="3.6159"/>
 <path d="m216.14 221.38c-4.465-8.437-9.427-14.889-13.398-22.829 8.934 0 30.773 8.438 19.852 20.348" fill="#fff" stroke="#000" stroke-width="3.6159"/>
 <path d="m250.89 247.19c4.963-5.458 6.449-14.392 6.947-20.845 3.475 4.965 11.911 18.364 3.971 21.839" fill="#fff" stroke="#000" stroke-width="3.6159"/>
 <path d="m222.1 253.64c-3.969 7.94-1.984 19.852 3.971 26.305 0.498-4.963-0.496-9.928 1.49-14.393 0.991-3.475 8.934-7.941 2.48-11.912" fill="#fff" stroke="#000" stroke-width="3.6159"/>
 <path d="m303.99 179.19c9.431-2.481 25.313-7.443 33.751-0.991-2.481 2.481-12.408 8.438-16.38 9.925-3.97 1.987-11.415 5.459-14.394 1.987" fill="#fff" stroke="#000" stroke-width="3.6159"/>
 <path d="m317.89 251.66c0-7.444 7.444-18.86 7.94-25.81 5.956 5.955 14.89 35.734-1.49 32.757" fill="#fff" stroke="#000" stroke-width="3.6159"/>
 <path d="m151.13 274.49c-0.993 7.442 7.941 17.37 13.4 21.836 0-5.46 4.468-23.823-0.497-26.305" fill="#fff" stroke="#000" stroke-width="3.6159"/>
 <path d="m97.031 269.03c0 6.946 0.497 13.896-3.472 19.354 8.931 2.979 21.339-10.918 13.896-18.364" fill="#fff" stroke="#000" stroke-width="3.6159"/>
 <path d="m27.051 227.83c-1.984-9.431 0.994-18.861-0.991-27.794 8.437 1.489 21.837 29.282 6.947 30.771" fill="#fff" stroke="#000" stroke-width="3.6159"/>
 <path d="m17.127 253.64c-10.422 6.947-12.905 11.414-14.394 22.83 5.46-5.956 24.815-10.422 24.318-18.365" fill="#fff" stroke="#000" stroke-width="3.6159"/>
 <path d="m53.356 308.73c6.453 3.475 9.431 15.883 7.943 22.333 9.428 1.987 12.406-22.333 5.956-27.295" fill="#fff" stroke="#000" stroke-width="3.6159"/>
</svg>
